%TF.GenerationSoftware,Altium Limited,Altium Designer,25.8.1 (18)*%
G04 Layer_Color=16711935*
%FSLAX45Y45*%
%MOMM*%
%TF.SameCoordinates,4F4E9251-FFB5-4FF5-8BAF-0B539CCEC025*%
%TF.FilePolarity,Negative*%
%TF.FileFunction,Soldermask,Bot*%
%TF.Part,Single*%
G01*
G75*
%TA.AperFunction,ComponentPad*%
%ADD86C,1.60320*%
%ADD87O,1.51120X2.81920*%
%ADD88O,2.81920X1.51120*%
%ADD89C,1.40320*%
%ADD90C,1.30320*%
G04:AMPARAMS|DCode=91|XSize=4.2032mm|YSize=2.0032mm|CornerRadius=0.5516mm|HoleSize=0mm|Usage=FLASHONLY|Rotation=90.000|XOffset=0mm|YOffset=0mm|HoleType=Round|Shape=RoundedRectangle|*
%AMROUNDEDRECTD91*
21,1,4.20320,0.90000,0,0,90.0*
21,1,3.10000,2.00320,0,0,90.0*
1,1,1.10320,0.45000,1.55000*
1,1,1.10320,0.45000,-1.55000*
1,1,1.10320,-0.45000,-1.55000*
1,1,1.10320,-0.45000,1.55000*
%
%ADD91ROUNDEDRECTD91*%
%ADD92C,2.15320*%
G04:AMPARAMS|DCode=93|XSize=2.1532mm|YSize=2.1532mm|CornerRadius=0.5891mm|HoleSize=0mm|Usage=FLASHONLY|Rotation=270.000|XOffset=0mm|YOffset=0mm|HoleType=Round|Shape=RoundedRectangle|*
%AMROUNDEDRECTD93*
21,1,2.15320,0.97500,0,0,270.0*
21,1,0.97500,2.15320,0,0,270.0*
1,1,1.17820,-0.48750,-0.48750*
1,1,1.17820,-0.48750,0.48750*
1,1,1.17820,0.48750,0.48750*
1,1,1.17820,0.48750,-0.48750*
%
%ADD93ROUNDEDRECTD93*%
%ADD94R,1.70320X1.70320*%
%ADD95R,1.30320X1.30320*%
%ADD96R,1.30320X1.30320*%
G04:AMPARAMS|DCode=97|XSize=2.1532mm|YSize=2.1532mm|CornerRadius=0.5891mm|HoleSize=0mm|Usage=FLASHONLY|Rotation=0.000|XOffset=0mm|YOffset=0mm|HoleType=Round|Shape=RoundedRectangle|*
%AMROUNDEDRECTD97*
21,1,2.15320,0.97500,0,0,0.0*
21,1,0.97500,2.15320,0,0,0.0*
1,1,1.17820,0.48750,-0.48750*
1,1,1.17820,-0.48750,-0.48750*
1,1,1.17820,-0.48750,0.48750*
1,1,1.17820,0.48750,0.48750*
%
%ADD97ROUNDEDRECTD97*%
%ADD98C,1.70320*%
G04:AMPARAMS|DCode=99|XSize=4.2032mm|YSize=2.0032mm|CornerRadius=0.5516mm|HoleSize=0mm|Usage=FLASHONLY|Rotation=180.000|XOffset=0mm|YOffset=0mm|HoleType=Round|Shape=RoundedRectangle|*
%AMROUNDEDRECTD99*
21,1,4.20320,0.90000,0,0,180.0*
21,1,3.10000,2.00320,0,0,180.0*
1,1,1.10320,-1.55000,0.45000*
1,1,1.10320,1.55000,0.45000*
1,1,1.10320,1.55000,-0.45000*
1,1,1.10320,-1.55000,-0.45000*
%
%ADD99ROUNDEDRECTD99*%
%TA.AperFunction,ViaPad*%
%ADD100C,1.47320*%
D86*
X18287300Y8902700D02*
D03*
X19787300D02*
D03*
X11583100Y11430000D02*
D03*
X10083100D02*
D03*
D87*
X21132800Y8856600D02*
D03*
D88*
X20632800Y9356600D02*
D03*
Y8356600D02*
D03*
D89*
X21382800D02*
D03*
X21132800D02*
D03*
X20632800Y8856600D02*
D03*
X21382800Y9356600D02*
D03*
X21132800D02*
D03*
D90*
X8309000Y7581900D02*
D03*
X9675800Y8280400D02*
D03*
X13525500Y6972300D02*
D03*
X9675800Y9969500D02*
D03*
X14109700Y6948500D02*
D03*
X16128999Y8570900D02*
D03*
X14414500Y12239600D02*
D03*
X19964400Y7616800D02*
D03*
X18172099Y11341100D02*
D03*
X18745200Y10477500D02*
D03*
X12255500Y10182200D02*
D03*
X12434900Y11645900D02*
D03*
X12331700Y12269800D02*
D03*
X13552151Y11631600D02*
D03*
X16397301Y11582400D02*
D03*
X15417799Y11122000D02*
D03*
D91*
X8284601Y8652627D02*
D03*
X8864600D02*
D03*
D92*
X8449498Y10643001D02*
D03*
X7912100Y11607800D02*
D03*
X10892600Y12344000D02*
D03*
X14859000Y8310504D02*
D03*
X14021201Y10117902D02*
D03*
X15930499Y6146800D02*
D03*
D93*
X7912100Y12107800D02*
D03*
X14021201Y9617898D02*
D03*
X14859000Y7810500D02*
D03*
D94*
X15671800Y6769100D02*
D03*
X19133400Y6157200D02*
D03*
D95*
X12255500Y9982200D02*
D03*
X12331700Y12469800D02*
D03*
X13552151Y11431600D02*
D03*
X14414500Y12039600D02*
D03*
X16128999Y8370900D02*
D03*
X19964400Y7416800D02*
D03*
X14109700Y7148500D02*
D03*
X15417799Y10922000D02*
D03*
X13525500Y7172300D02*
D03*
D96*
X12634900Y11645900D02*
D03*
X16597301Y11582400D02*
D03*
X18545200Y10477500D02*
D03*
X17972099Y11341100D02*
D03*
X8509000Y7581900D02*
D03*
X9475800Y8280400D02*
D03*
Y9969500D02*
D03*
D97*
X10392600Y12344000D02*
D03*
X15430499Y6146800D02*
D03*
X8949502Y10643001D02*
D03*
D98*
X19133400Y6807200D02*
D03*
X19583400Y6157200D02*
D03*
Y6807200D02*
D03*
X16121800Y7419100D02*
D03*
Y6769100D02*
D03*
X15671800Y7419100D02*
D03*
D99*
X8564601Y8172628D02*
D03*
D100*
X16344901Y5842000D02*
D03*
X8064500Y7708900D02*
D03*
Y7480300D02*
D03*
X9575800Y7112000D02*
D03*
X11760200Y6858000D02*
D03*
X9982200Y7112000D02*
D03*
X9779000Y7200900D02*
D03*
X9804400Y8813800D02*
D03*
X9893300Y8178800D02*
D03*
Y8407400D02*
D03*
X10579100Y8255000D02*
D03*
Y8496300D02*
D03*
X12700000Y6032500D02*
D03*
X11988800Y6870700D02*
D03*
X12877800Y6057900D02*
D03*
X13055600Y6045200D02*
D03*
X13627100Y6756400D02*
D03*
X13411200Y6769100D02*
D03*
X12242800Y7175500D02*
D03*
X11849100Y8636000D02*
D03*
X12103100D02*
D03*
X12522200Y7175500D02*
D03*
X13398500Y8394700D02*
D03*
Y8229600D02*
D03*
X13576300Y8305800D02*
D03*
X8153400Y9347200D02*
D03*
X9385300Y8813800D02*
D03*
X8153400Y9613900D02*
D03*
X8407400Y9359900D02*
D03*
Y9613900D02*
D03*
X9601200Y8953500D02*
D03*
X9918700Y9918700D02*
D03*
Y10160000D02*
D03*
X8813800Y11303000D02*
D03*
X9804400Y11277600D02*
D03*
X12712700Y9194800D02*
D03*
X10528300Y10058400D02*
D03*
X12890500Y9004300D02*
D03*
X13233400Y9017000D02*
D03*
X13436600Y9207500D02*
D03*
X13093700D02*
D03*
X13360400Y9969500D02*
D03*
X10528300Y10236200D02*
D03*
X11709400Y10617200D02*
D03*
X13366341Y10167786D02*
D03*
X13525500Y10083800D02*
D03*
X13728700Y11023600D02*
D03*
X17233900Y5956300D02*
D03*
X17043401D02*
D03*
X15151100Y6705600D02*
D03*
X15354300D02*
D03*
X16344901Y6019800D02*
D03*
X19151601Y5867400D02*
D03*
X18300700Y5892800D02*
D03*
X18122900D02*
D03*
X17424400Y5956300D02*
D03*
X15163800Y6845300D02*
D03*
X15354300D02*
D03*
X16141701Y8877300D02*
D03*
X15514392Y12067253D02*
D03*
X18135600Y6845300D02*
D03*
Y7023100D02*
D03*
X20485100Y6908800D02*
D03*
X19977100Y7886700D02*
D03*
X17145000Y10363200D02*
D03*
X18757899Y8470900D02*
D03*
X11188700Y9842500D02*
D03*
X10147300Y9829800D02*
D03*
X10223500Y9664700D02*
D03*
X14693900Y11912600D02*
D03*
X17792700Y11112500D02*
D03*
X16014700Y9296400D02*
D03*
X17424400Y7073900D02*
D03*
X11341100Y11061700D02*
D03*
X15430499Y9271000D02*
D03*
X12471400Y11214100D02*
D03*
X9575800Y11950700D02*
D03*
X16598900Y12496800D02*
D03*
X15748000Y10629900D02*
D03*
X12369800Y9639300D02*
D03*
X12153900Y9652000D02*
D03*
X12725400Y10782300D02*
D03*
X15189200Y12357100D02*
D03*
X16344901Y6489700D02*
D03*
X14566901Y10325100D02*
D03*
X11468100Y10922000D02*
D03*
X17602200Y7061200D02*
D03*
X15367000Y12217400D02*
D03*
X14973300Y10223500D02*
D03*
X17932401Y10731500D02*
D03*
X18135600D02*
D03*
X14376401Y10960100D02*
D03*
X17983200Y9144000D02*
D03*
X17818100D02*
D03*
X14128696Y10824288D02*
D03*
X8610600Y11760200D02*
D03*
X12496800Y8763000D02*
D03*
X18326100Y8229600D02*
D03*
X15062199Y11722100D02*
D03*
X14465300Y10706100D02*
D03*
X15417799Y12496800D02*
D03*
X16560800Y12217400D02*
D03*
X15916895Y11819715D02*
D03*
X14655800Y10528300D02*
D03*
X16294099Y10274300D02*
D03*
X18097501Y6667500D02*
D03*
X18275301Y6591300D02*
D03*
X17221201Y7086600D02*
D03*
X19367500Y7302500D02*
D03*
X19570700D02*
D03*
X18707100Y6248400D02*
D03*
Y6057900D02*
D03*
X18503900Y6248400D02*
D03*
Y6070600D02*
D03*
Y7937500D02*
D03*
X18516600Y7696200D02*
D03*
X18783299Y7950200D02*
D03*
X18770599Y7696200D02*
D03*
X10325100Y9842500D02*
D03*
X10350500Y9372600D02*
D03*
X10147300D02*
D03*
X9207500Y9283700D02*
D03*
X9067800Y9385300D02*
D03*
X8890000Y9309100D02*
D03*
X11010900Y9486900D02*
D03*
X9182100Y7645400D02*
D03*
X8839200D02*
D03*
X10147300D02*
D03*
X11366500Y9842500D02*
D03*
X11264900Y9664700D02*
D03*
X11023600Y9347200D02*
D03*
X10274300Y8115300D02*
D03*
X10287000Y7950200D02*
D03*
X11125200D02*
D03*
X11226800Y8102600D02*
D03*
X10363200Y7645400D02*
D03*
X9004300D02*
D03*
X11023600Y7683500D02*
D03*
X11214100D02*
D03*
X13347701D02*
D03*
X13550900D02*
D03*
%TF.MD5,50c90bb8caafd744501c2a6827264561*%
M02*
