M48
;Layer_Color=9474304
;FILE_FORMAT=4:4
METRIC,TZ
;TYPE=PLATED
T01F00S00C0.7112
T02F00S00C0.7500
T05F00S00C1.0000
T06F00S00C1.0500
T07F00S00C1.3000
;TYPE=NON_PLATED
T08F00S00C1.2000
%
T01
X2048510Y690880
X1997710Y788670
X1957070Y730250
X1936750
X1877060Y769620
X1851660
X1813560Y702310
Y684530
X1809750Y666750
X1827530Y659130
X1850390Y624840
Y607060
X1870710Y605790
Y624840
X1830070Y589280
X1812290
X1742440Y595630
X1723390
X1704340
X1634490Y601980
Y584200
Y648970
X1722120Y708660
X1742440Y707390
X1760220Y706120
X1915160Y586740
X1535430Y670560
Y684530
X1516380
X1515110Y670560
X1362710Y675640
X1341120Y676910
X1334770Y768350
X1355090
X1252220Y717550
X1224280
X1198880Y687070
X1270000Y603250
X1287780Y605790
X1305560Y604520
X1176020Y685800
X1121410Y768350
X1102360
X1036320Y764540
X1014730
X998220Y711200
X977900Y720090
X957580Y711200
X918210Y764540
X900430
X883920
X806450Y770890
Y748030
X815340Y934720
Y961390
X840740
Y935990
X889000Y930910
X906780Y938530
X920750Y928370
X938530Y881380
X960120Y895350
X980440Y881380
X989330Y840740
Y817880
X1027430Y811530
X1028700Y795020
X1057910Y825500
Y849630
X1122680Y810260
X1112520Y795020
X1184910Y863600
X1102360Y934720
X1101090Y948690
X1126490Y966470
X1118870Y984250
X1136650
X1032510
X1014730Y982980
X1022350Y966470
X1014730Y937260
X1035050
X1052830Y1005840
Y1023620
X991870Y1016000
Y991870
X980440Y1127760
X881380Y1130300
X861060Y1176020
X1134110Y1106170
X1146810Y1092200
X1170940Y1061720
X1272540Y1078230
X1247140Y1121410
X1372870Y1102360
X1412870Y1082429
X1437640Y1096010
X1446530Y1070610
X1465580Y1052830
X1456690Y1032510
X1497330Y1022350
X1574800Y1062990
X1543050Y927100
X1343660Y920750
X1309370
X1323340Y901700
X1289050Y900430
X1271270Y919480
X1249680Y876300
X1210310Y863600
X1215390Y965200
X1236980Y963930
X1336040Y996950
X1336634Y1016779
X1352550Y1008380
X1339850Y839470
Y822960
X1357630Y830580
X1506220Y1172210
X1591689Y1181972
X1629410Y1027430
X1714500Y1036320
X1793240Y1073150
X1813560
X1779270Y1111250
X1781810Y914400
X1798320
X1832610Y822960
X1850390Y793750
X1878330Y795020
X1875790Y847090
X1614170Y887730
X1601470Y929640
X1656080Y1221740
X1659890Y1249680
X1541780
X1536700Y1221740
X1551439Y1206725
X1518920Y1235710
X1469390Y1191260
X957580Y1195070
T02
X1996440Y741680
Y761680
X1410970Y714850
Y694850
X1352550Y697230
Y717230
X850900Y758190
X830900
X947580Y828040
X967580
Y996950
X947580
X1225550Y998220
Y1018220
X1243490Y1164590
X1263490
X1355215Y1163160
Y1143160
X1541780Y1112200
Y1092200
X1639730Y1158240
X1659730
X1797210Y1134110
X1817210
X1854520Y1047750
X1874520
X1612900Y857090
Y837090
X1441450Y1203960
Y1223960
X1233170Y1226980
Y1246980
T05
X1612180Y676910
Y741910
X1913340Y680720
X1958340
Y615720
X1913340
X1567180Y676910
Y741910
T06
X1008310Y1143000
X1158310
X1828730Y890270
X1978730
T07
X1593050Y614680
X1543050
X1485900Y781050
X791210Y1160780
X844950Y1064300
X894950
X1402120Y1011790
Y961790
X1485900Y831050
X1089260Y1234400
X1039260
X791210Y1210780
T08
X2113280Y835660
X2138280
Y935660
X2113280
X2063280Y885660
M30
