%TF.GenerationSoftware,Altium Limited,Altium Designer,25.8.1 (18)*%
G04 Layer_Color=8388736*
%FSLAX45Y45*%
%MOMM*%
%TF.SameCoordinates,4F4E9251-FFB5-4FF5-8BAF-0B539CCEC025*%
%TF.FilePolarity,Negative*%
%TF.FileFunction,Soldermask,Top*%
%TF.Part,Single*%
G01*
G75*
%TA.AperFunction,SMDPad,CuDef*%
%ADD13R,3.50000X3.05000*%
%ADD14R,0.81213X0.65872*%
%ADD15R,1.45620X1.25464*%
%ADD17R,1.00000X0.75000*%
G04:AMPARAMS|DCode=23|XSize=1.55mm|YSize=0.6mm|CornerRadius=0.051mm|HoleSize=0mm|Usage=FLASHONLY|Rotation=0.000|XOffset=0mm|YOffset=0mm|HoleType=Round|Shape=RoundedRectangle|*
%AMROUNDEDRECTD23*
21,1,1.55000,0.49800,0,0,0.0*
21,1,1.44800,0.60000,0,0,0.0*
1,1,0.10200,0.72400,-0.24900*
1,1,0.10200,-0.72400,-0.24900*
1,1,0.10200,-0.72400,0.24900*
1,1,0.10200,0.72400,0.24900*
%
%ADD23ROUNDEDRECTD23*%
%ADD28R,1.10550X2.05822*%
%ADD33R,1.15000X1.00000*%
%ADD34R,0.96213X0.93504*%
%ADD69R,1.60320X1.95320*%
G04:AMPARAMS|DCode=70|XSize=1.5032mm|YSize=0.9632mm|CornerRadius=0.1966mm|HoleSize=0mm|Usage=FLASHONLY|Rotation=180.000|XOffset=0mm|YOffset=0mm|HoleType=Round|Shape=RoundedRectangle|*
%AMROUNDEDRECTD70*
21,1,1.50320,0.57000,0,0,180.0*
21,1,1.11000,0.96320,0,0,180.0*
1,1,0.39320,-0.55500,0.28500*
1,1,0.39320,0.55500,0.28500*
1,1,0.39320,0.55500,-0.28500*
1,1,0.39320,-0.55500,-0.28500*
%
%ADD70ROUNDEDRECTD70*%
G04:AMPARAMS|DCode=71|XSize=1.6532mm|YSize=0.7932mm|CornerRadius=0.17535mm|HoleSize=0mm|Usage=FLASHONLY|Rotation=0.000|XOffset=0mm|YOffset=0mm|HoleType=Round|Shape=RoundedRectangle|*
%AMROUNDEDRECTD71*
21,1,1.65320,0.44250,0,0,0.0*
21,1,1.30250,0.79320,0,0,0.0*
1,1,0.35070,0.65125,-0.22125*
1,1,0.35070,-0.65125,-0.22125*
1,1,0.35070,-0.65125,0.22125*
1,1,0.35070,0.65125,0.22125*
%
%ADD71ROUNDEDRECTD71*%
%ADD72O,2.40320X0.80320*%
%TA.AperFunction,ConnectorPad*%
%ADD73R,0.60320X1.00320*%
%TA.AperFunction,SMDPad,CuDef*%
%ADD74R,0.90320X0.90320*%
%TA.AperFunction,BGAPad,CuDef*%
%ADD75R,1.65320X1.65320*%
%TA.AperFunction,ConnectorPad*%
%ADD76R,1.00320X0.60320*%
%TA.AperFunction,SMDPad,CuDef*%
%ADD77R,2.00320X1.50320*%
%ADD78R,1.17320X1.93320*%
%ADD79R,1.15320X2.10320*%
G04:AMPARAMS|DCode=80|XSize=1.5032mm|YSize=0.9632mm|CornerRadius=0.1966mm|HoleSize=0mm|Usage=FLASHONLY|Rotation=90.000|XOffset=0mm|YOffset=0mm|HoleType=Round|Shape=RoundedRectangle|*
%AMROUNDEDRECTD80*
21,1,1.50320,0.57000,0,0,90.0*
21,1,1.11000,0.96320,0,0,90.0*
1,1,0.39320,0.28500,0.55500*
1,1,0.39320,0.28500,-0.55500*
1,1,0.39320,-0.28500,-0.55500*
1,1,0.39320,-0.28500,0.55500*
%
%ADD80ROUNDEDRECTD80*%
%ADD81R,1.95320X1.60320*%
%ADD82R,1.00320X0.80320*%
%ADD83R,1.93320X1.17320*%
%ADD84R,2.05320X1.55320*%
%ADD85R,1.15320X1.15320*%
%TA.AperFunction,ComponentPad*%
%ADD86C,1.60320*%
%ADD87O,1.51120X2.81920*%
%ADD88O,2.81920X1.51120*%
%ADD89C,1.40320*%
%ADD90C,1.30320*%
G04:AMPARAMS|DCode=91|XSize=4.2032mm|YSize=2.0032mm|CornerRadius=0.5516mm|HoleSize=0mm|Usage=FLASHONLY|Rotation=90.000|XOffset=0mm|YOffset=0mm|HoleType=Round|Shape=RoundedRectangle|*
%AMROUNDEDRECTD91*
21,1,4.20320,0.90000,0,0,90.0*
21,1,3.10000,2.00320,0,0,90.0*
1,1,1.10320,0.45000,1.55000*
1,1,1.10320,0.45000,-1.55000*
1,1,1.10320,-0.45000,-1.55000*
1,1,1.10320,-0.45000,1.55000*
%
%ADD91ROUNDEDRECTD91*%
%ADD92C,2.15320*%
G04:AMPARAMS|DCode=93|XSize=2.1532mm|YSize=2.1532mm|CornerRadius=0.5891mm|HoleSize=0mm|Usage=FLASHONLY|Rotation=270.000|XOffset=0mm|YOffset=0mm|HoleType=Round|Shape=RoundedRectangle|*
%AMROUNDEDRECTD93*
21,1,2.15320,0.97500,0,0,270.0*
21,1,0.97500,2.15320,0,0,270.0*
1,1,1.17820,-0.48750,-0.48750*
1,1,1.17820,-0.48750,0.48750*
1,1,1.17820,0.48750,0.48750*
1,1,1.17820,0.48750,-0.48750*
%
%ADD93ROUNDEDRECTD93*%
%ADD94R,1.70320X1.70320*%
%ADD95R,1.30320X1.30320*%
%ADD96R,1.30320X1.30320*%
G04:AMPARAMS|DCode=97|XSize=2.1532mm|YSize=2.1532mm|CornerRadius=0.5891mm|HoleSize=0mm|Usage=FLASHONLY|Rotation=0.000|XOffset=0mm|YOffset=0mm|HoleType=Round|Shape=RoundedRectangle|*
%AMROUNDEDRECTD97*
21,1,2.15320,0.97500,0,0,0.0*
21,1,0.97500,2.15320,0,0,0.0*
1,1,1.17820,0.48750,-0.48750*
1,1,1.17820,-0.48750,-0.48750*
1,1,1.17820,-0.48750,0.48750*
1,1,1.17820,0.48750,0.48750*
%
%ADD97ROUNDEDRECTD97*%
%ADD98C,1.70320*%
G04:AMPARAMS|DCode=99|XSize=4.2032mm|YSize=2.0032mm|CornerRadius=0.5516mm|HoleSize=0mm|Usage=FLASHONLY|Rotation=180.000|XOffset=0mm|YOffset=0mm|HoleType=Round|Shape=RoundedRectangle|*
%AMROUNDEDRECTD99*
21,1,4.20320,0.90000,0,0,180.0*
21,1,3.10000,2.00320,0,0,180.0*
1,1,1.10320,-1.55000,0.45000*
1,1,1.10320,1.55000,0.45000*
1,1,1.10320,1.55000,-0.45000*
1,1,1.10320,-1.55000,-0.45000*
%
%ADD99ROUNDEDRECTD99*%
%TA.AperFunction,ViaPad*%
%ADD100C,1.47320*%
D13*
X12928600Y6413500D02*
D03*
X12941299Y7378700D02*
D03*
Y7843698D02*
D03*
X12928600Y6878498D02*
D03*
D14*
X11836400Y7095129D02*
D03*
X11986621Y8824509D02*
D03*
Y8959850D02*
D03*
X11836400Y7230471D02*
D03*
D15*
X12407900Y7461222D02*
D03*
X12852400Y9417022D02*
D03*
Y9582178D02*
D03*
X12407900Y7626378D02*
D03*
D17*
X13385800Y9411899D02*
D03*
Y9561901D02*
D03*
D23*
X14017500Y11137900D02*
D03*
X17128999Y10541000D02*
D03*
X14017500Y11518900D02*
D03*
Y11391900D02*
D03*
Y11264900D02*
D03*
X14557500Y11137900D02*
D03*
Y11264900D02*
D03*
Y11391900D02*
D03*
Y11518900D02*
D03*
X17669000Y10922000D02*
D03*
Y10795000D02*
D03*
Y10668000D02*
D03*
Y10541000D02*
D03*
X17128999Y10668000D02*
D03*
Y10795000D02*
D03*
Y10922000D02*
D03*
D28*
X11573434Y9601200D02*
D03*
X11388166D02*
D03*
D33*
X11534800Y7950200D02*
D03*
X11299800D02*
D03*
D34*
X11823700Y7628042D02*
D03*
Y7484958D02*
D03*
D69*
X20091400Y9359900D02*
D03*
X19791400D02*
D03*
X20063600Y8394700D02*
D03*
X19763600D02*
D03*
X18857100Y9740900D02*
D03*
X16169501Y10045700D02*
D03*
X16469501D02*
D03*
X17358501Y11277600D02*
D03*
X17058501D02*
D03*
X18557100Y9740900D02*
D03*
D70*
X9588500Y7339498D02*
D03*
X9982200D02*
D03*
X9398000Y9079398D02*
D03*
X9804400D02*
D03*
X14846300Y12204800D02*
D03*
X17614900Y11531700D02*
D03*
X14846300Y12025800D02*
D03*
X17614900Y11352700D02*
D03*
X9398000Y9258402D02*
D03*
X9804400D02*
D03*
X9588500Y7518502D02*
D03*
X9982200D02*
D03*
D71*
X10589402Y7886202D02*
D03*
X10528300Y9620001D02*
D03*
X10820400Y7791201D02*
D03*
X10589402Y7696200D02*
D03*
Y7791201D02*
D03*
X10820400Y7696200D02*
D03*
Y7886202D02*
D03*
X10528300Y9525000D02*
D03*
Y9429999D02*
D03*
X10759298D02*
D03*
Y9525000D02*
D03*
Y9620001D02*
D03*
D72*
X9081800Y11366500D02*
D03*
X9561800D02*
D03*
X15279401Y10083800D02*
D03*
X15826801Y12103100D02*
D03*
X11939300Y10655300D02*
D03*
Y11036300D02*
D03*
Y10909300D02*
D03*
Y10782300D02*
D03*
X12419300Y11036300D02*
D03*
Y10909300D02*
D03*
Y10782300D02*
D03*
Y10655300D02*
D03*
X15759399Y10464800D02*
D03*
X16306799Y12484100D02*
D03*
X9561800Y11747500D02*
D03*
X15826801Y12357100D02*
D03*
X15279401Y10337800D02*
D03*
X9081800Y11620500D02*
D03*
X15826801Y12230100D02*
D03*
X9081800Y11493500D02*
D03*
X15279401Y10210800D02*
D03*
X15826801Y12484100D02*
D03*
X16306799Y12357100D02*
D03*
Y12230100D02*
D03*
Y12103100D02*
D03*
X9561800Y11493500D02*
D03*
Y11620500D02*
D03*
X9081800Y11747500D02*
D03*
X15759399Y10083800D02*
D03*
Y10210800D02*
D03*
Y10337800D02*
D03*
X15279401Y10464800D02*
D03*
D73*
X16839600Y5816200D02*
D03*
X16919600D02*
D03*
X16759599D02*
D03*
X17079601D02*
D03*
X17239600D02*
D03*
X17159599D02*
D03*
X16999600D02*
D03*
X17479601D02*
D03*
X17639600D02*
D03*
X17559599D02*
D03*
X17319600D02*
D03*
X17399600D02*
D03*
X17719600D02*
D03*
X17079601Y6796200D02*
D03*
X17399600D02*
D03*
X16759599D02*
D03*
X16839600D02*
D03*
X16919600D02*
D03*
X16999600D02*
D03*
X17159599D02*
D03*
X17239600D02*
D03*
X17319600D02*
D03*
X17479601D02*
D03*
X17559599D02*
D03*
X17639600D02*
D03*
X17719600D02*
D03*
D74*
X16644600Y5811200D02*
D03*
Y6801200D02*
D03*
X17834599Y5811200D02*
D03*
Y6801200D02*
D03*
D75*
X17042101Y6108700D02*
D03*
Y6306200D02*
D03*
X17239600Y6503700D02*
D03*
X17042101D02*
D03*
X17239600Y6108700D02*
D03*
Y6306200D02*
D03*
X17437100D02*
D03*
Y6503700D02*
D03*
Y6108700D02*
D03*
D76*
X17829601Y5906200D02*
D03*
Y5986200D02*
D03*
X16649600Y6706200D02*
D03*
Y5906200D02*
D03*
Y5986200D02*
D03*
Y6066200D02*
D03*
Y6146200D02*
D03*
Y6226200D02*
D03*
Y6306200D02*
D03*
Y6386200D02*
D03*
Y6466200D02*
D03*
Y6546200D02*
D03*
Y6626200D02*
D03*
X17829601Y6706200D02*
D03*
Y6626200D02*
D03*
Y6546200D02*
D03*
Y6466200D02*
D03*
Y6386200D02*
D03*
Y6306200D02*
D03*
Y6226200D02*
D03*
Y6146200D02*
D03*
Y6066200D02*
D03*
D77*
X13855701Y8268000D02*
D03*
Y7988000D02*
D03*
D78*
X18550301Y8458200D02*
D03*
X18296300Y9385300D02*
D03*
X18000301D02*
D03*
X18254300Y8458200D02*
D03*
D79*
X20243500Y6908800D02*
D03*
X19888499D02*
D03*
D80*
X18770700Y10045700D02*
D03*
X18591701D02*
D03*
D81*
X13081000Y11330800D02*
D03*
X12065000Y11521300D02*
D03*
X13055600Y12430900D02*
D03*
Y12130900D02*
D03*
X12065000Y11821300D02*
D03*
X13081000Y11630800D02*
D03*
X15671800Y11508600D02*
D03*
Y11808600D02*
D03*
X11734800Y12151500D02*
D03*
Y11851500D02*
D03*
X16395700Y11021200D02*
D03*
Y10721200D02*
D03*
X16065500Y10703700D02*
D03*
Y10403700D02*
D03*
X17716499Y9649600D02*
D03*
Y9349600D02*
D03*
D82*
X12001500Y9321800D02*
D03*
Y9191798D02*
D03*
D83*
X15951199Y11501800D02*
D03*
Y11205800D02*
D03*
D84*
X17017999Y7340500D02*
D03*
Y7645500D02*
D03*
X19088100Y7658200D02*
D03*
Y7353200D02*
D03*
D85*
X11023600Y9994900D02*
D03*
X11148600D02*
D03*
X10897600Y8051800D02*
D03*
X11022600D02*
D03*
D86*
X18287300Y8902700D02*
D03*
X19787300D02*
D03*
X11583100Y11430000D02*
D03*
X10083100D02*
D03*
D87*
X21132800Y8856600D02*
D03*
D88*
X20632800Y9356600D02*
D03*
Y8356600D02*
D03*
D89*
X21382800D02*
D03*
X21132800D02*
D03*
X20632800Y8856600D02*
D03*
X21382800Y9356600D02*
D03*
X21132800D02*
D03*
D90*
X8309000Y7581900D02*
D03*
X9675800Y8280400D02*
D03*
X13525500Y6972300D02*
D03*
X9675800Y9969500D02*
D03*
X14109700Y6948500D02*
D03*
X16128999Y8570900D02*
D03*
X14414500Y12239600D02*
D03*
X19964400Y7616800D02*
D03*
X18172099Y11341100D02*
D03*
X18745200Y10477500D02*
D03*
X12255500Y10182200D02*
D03*
X12434900Y11645900D02*
D03*
X12331700Y12269800D02*
D03*
X13552151Y11631600D02*
D03*
X16397301Y11582400D02*
D03*
X15417799Y11122000D02*
D03*
D91*
X8284601Y8652627D02*
D03*
X8864600D02*
D03*
D92*
X8449498Y10643001D02*
D03*
X7912100Y11607800D02*
D03*
X10892600Y12344000D02*
D03*
X14859000Y8310504D02*
D03*
X14021201Y10117902D02*
D03*
X15930499Y6146800D02*
D03*
D93*
X7912100Y12107800D02*
D03*
X14021201Y9617898D02*
D03*
X14859000Y7810500D02*
D03*
D94*
X15671800Y6769100D02*
D03*
X19133400Y6157200D02*
D03*
D95*
X12255500Y9982200D02*
D03*
X12331700Y12469800D02*
D03*
X13552151Y11431600D02*
D03*
X14414500Y12039600D02*
D03*
X16128999Y8370900D02*
D03*
X19964400Y7416800D02*
D03*
X14109700Y7148500D02*
D03*
X15417799Y10922000D02*
D03*
X13525500Y7172300D02*
D03*
D96*
X12634900Y11645900D02*
D03*
X16597301Y11582400D02*
D03*
X18545200Y10477500D02*
D03*
X17972099Y11341100D02*
D03*
X8509000Y7581900D02*
D03*
X9475800Y8280400D02*
D03*
Y9969500D02*
D03*
D97*
X10392600Y12344000D02*
D03*
X15430499Y6146800D02*
D03*
X8949502Y10643001D02*
D03*
D98*
X19133400Y6807200D02*
D03*
X19583400Y6157200D02*
D03*
Y6807200D02*
D03*
X16121800Y7419100D02*
D03*
Y6769100D02*
D03*
X15671800Y7419100D02*
D03*
D99*
X8564601Y8172628D02*
D03*
D100*
X16344901Y5842000D02*
D03*
X8064500Y7708900D02*
D03*
Y7480300D02*
D03*
X9575800Y7112000D02*
D03*
X11760200Y6858000D02*
D03*
X9982200Y7112000D02*
D03*
X9779000Y7200900D02*
D03*
X9804400Y8813800D02*
D03*
X9893300Y8178800D02*
D03*
Y8407400D02*
D03*
X10579100Y8255000D02*
D03*
Y8496300D02*
D03*
X12700000Y6032500D02*
D03*
X11988800Y6870700D02*
D03*
X12877800Y6057900D02*
D03*
X13055600Y6045200D02*
D03*
X13627100Y6756400D02*
D03*
X13411200Y6769100D02*
D03*
X12242800Y7175500D02*
D03*
X11849100Y8636000D02*
D03*
X12103100D02*
D03*
X12522200Y7175500D02*
D03*
X13398500Y8394700D02*
D03*
Y8229600D02*
D03*
X13576300Y8305800D02*
D03*
X8153400Y9347200D02*
D03*
X9385300Y8813800D02*
D03*
X8153400Y9613900D02*
D03*
X8407400Y9359900D02*
D03*
Y9613900D02*
D03*
X9601200Y8953500D02*
D03*
X9918700Y9918700D02*
D03*
Y10160000D02*
D03*
X8813800Y11303000D02*
D03*
X9804400Y11277600D02*
D03*
X12712700Y9194800D02*
D03*
X10528300Y10058400D02*
D03*
X12890500Y9004300D02*
D03*
X13233400Y9017000D02*
D03*
X13436600Y9207500D02*
D03*
X13093700D02*
D03*
X13360400Y9969500D02*
D03*
X10528300Y10236200D02*
D03*
X11709400Y10617200D02*
D03*
X13366341Y10167786D02*
D03*
X13525500Y10083800D02*
D03*
X13728700Y11023600D02*
D03*
X17233900Y5956300D02*
D03*
X17043401D02*
D03*
X15151100Y6705600D02*
D03*
X15354300D02*
D03*
X16344901Y6019800D02*
D03*
X19151601Y5867400D02*
D03*
X18300700Y5892800D02*
D03*
X18122900D02*
D03*
X17424400Y5956300D02*
D03*
X15163800Y6845300D02*
D03*
X15354300D02*
D03*
X16141701Y8877300D02*
D03*
X15514392Y12067253D02*
D03*
X18135600Y6845300D02*
D03*
Y7023100D02*
D03*
X20485100Y6908800D02*
D03*
X19977100Y7886700D02*
D03*
X17145000Y10363200D02*
D03*
X18757899Y8470900D02*
D03*
X11188700Y9842500D02*
D03*
X10147300Y9829800D02*
D03*
X10223500Y9664700D02*
D03*
X14693900Y11912600D02*
D03*
X17792700Y11112500D02*
D03*
X16014700Y9296400D02*
D03*
X17424400Y7073900D02*
D03*
X11341100Y11061700D02*
D03*
X15430499Y9271000D02*
D03*
X12471400Y11214100D02*
D03*
X9575800Y11950700D02*
D03*
X16598900Y12496800D02*
D03*
X15748000Y10629900D02*
D03*
X12369800Y9639300D02*
D03*
X12153900Y9652000D02*
D03*
X12725400Y10782300D02*
D03*
X15189200Y12357100D02*
D03*
X16344901Y6489700D02*
D03*
X14566901Y10325100D02*
D03*
X11468100Y10922000D02*
D03*
X17602200Y7061200D02*
D03*
X15367000Y12217400D02*
D03*
X14973300Y10223500D02*
D03*
X17932401Y10731500D02*
D03*
X18135600D02*
D03*
X14376401Y10960100D02*
D03*
X17983200Y9144000D02*
D03*
X17818100D02*
D03*
X14128696Y10824288D02*
D03*
X8610600Y11760200D02*
D03*
X12496800Y8763000D02*
D03*
X18326100Y8229600D02*
D03*
X15062199Y11722100D02*
D03*
X14465300Y10706100D02*
D03*
X15417799Y12496800D02*
D03*
X16560800Y12217400D02*
D03*
X15916895Y11819715D02*
D03*
X14655800Y10528300D02*
D03*
X16294099Y10274300D02*
D03*
X18097501Y6667500D02*
D03*
X18275301Y6591300D02*
D03*
X17221201Y7086600D02*
D03*
X19367500Y7302500D02*
D03*
X19570700D02*
D03*
X18707100Y6248400D02*
D03*
Y6057900D02*
D03*
X18503900Y6248400D02*
D03*
Y6070600D02*
D03*
Y7937500D02*
D03*
X18516600Y7696200D02*
D03*
X18783299Y7950200D02*
D03*
X18770599Y7696200D02*
D03*
X10325100Y9842500D02*
D03*
X10350500Y9372600D02*
D03*
X10147300D02*
D03*
X9207500Y9283700D02*
D03*
X9067800Y9385300D02*
D03*
X8890000Y9309100D02*
D03*
X11010900Y9486900D02*
D03*
X9182100Y7645400D02*
D03*
X8839200D02*
D03*
X10147300D02*
D03*
X11366500Y9842500D02*
D03*
X11264900Y9664700D02*
D03*
X11023600Y9347200D02*
D03*
X10274300Y8115300D02*
D03*
X10287000Y7950200D02*
D03*
X11125200D02*
D03*
X11226800Y8102600D02*
D03*
X10363200Y7645400D02*
D03*
X9004300D02*
D03*
X11023600Y7683500D02*
D03*
X11214100D02*
D03*
X13347701D02*
D03*
X13550900D02*
D03*
%TF.MD5,d886f1c655ee90d3c3d00d29ffd09fb9*%
M02*
