%TF.GenerationSoftware,Altium Limited,Altium Designer,25.8.1 (18)*%
G04 Layer_Color=65535*
%FSLAX45Y45*%
%MOMM*%
%TF.SameCoordinates,4F4E9251-FFB5-4FF5-8BAF-0B539CCEC025*%
%TF.FilePolarity,Positive*%
%TF.FileFunction,Legend,Top*%
%TF.Part,Single*%
G01*
G75*
%TA.AperFunction,NonConductor*%
%ADD60C,0.20000*%
%ADD61C,0.12700*%
%ADD62C,0.25000*%
%ADD63C,0.40000*%
%ADD64C,0.50000*%
%ADD65C,0.10000*%
%ADD66C,0.15000*%
%ADD67C,0.25400*%
%ADD68C,0.17780*%
D60*
X20322800Y8856600D02*
G03*
X20322800Y8856600I-10000J0D01*
G01*
X12265500Y9757200D02*
G03*
X12265500Y9757200I-10000J0D01*
G01*
X12341700Y12694800D02*
G03*
X12341700Y12694800I-10000J0D01*
G01*
X13562151Y11206600D02*
G03*
X13562151Y11206600I-10000J0D01*
G01*
X14424500Y11814600D02*
G03*
X14424500Y11814600I-10000J0D01*
G01*
X16832300Y11582400D02*
G03*
X16832300Y11582400I-10000J0D01*
G01*
X16139000Y8145900D02*
G03*
X16139000Y8145900I-10000J0D01*
G01*
X19974400Y7191800D02*
G03*
X19974400Y7191800I-10000J0D01*
G01*
X14119701Y7373500D02*
G03*
X14119701Y7373500I-10000J0D01*
G01*
X12869901Y11645900D02*
G03*
X12869901Y11645900I-10000J0D01*
G01*
X15427800Y10697000D02*
G03*
X15427800Y10697000I-10000J0D01*
G01*
X18330200Y10477500D02*
G03*
X18330200Y10477500I-10000J0D01*
G01*
X17757100Y11341100D02*
G03*
X17757100Y11341100I-10000J0D01*
G01*
X10474900Y7911200D02*
G03*
X10474900Y7911200I-10000J0D01*
G01*
X10413800Y9645000D02*
G03*
X10413800Y9645000I-10000J0D01*
G01*
X8744000Y7581900D02*
G03*
X8744000Y7581900I-10000J0D01*
G01*
X9260800Y8280400D02*
G03*
X9260800Y8280400I-10000J0D01*
G01*
Y9969500D02*
G03*
X9260800Y9969500I-10000J0D01*
G01*
X13535500Y7397300D02*
G03*
X13535500Y7397300I-10000J0D01*
G01*
X19901401Y9282400D02*
X19981400D01*
X19901401Y9437400D02*
X19981400D01*
X19873599Y8317200D02*
X19953600D01*
X19873599Y8472200D02*
X19953600D01*
X12089300Y10595800D02*
Y11095800D01*
X12269300Y10595800D02*
Y11095800D01*
X12089300D02*
X12269300D01*
X12089300Y10595800D02*
X12269300D01*
X13133099Y12240900D02*
Y12320900D01*
X12978101Y12240900D02*
Y12320900D01*
X15976801Y12043600D02*
Y12543600D01*
X16156799Y12043600D02*
Y12543600D01*
X15976801D02*
X16156799D01*
X15976801Y12043600D02*
X16156799D01*
X10142600Y11944000D02*
X11142600D01*
X10142600Y12694000D02*
X11142600D01*
Y11944000D02*
Y12694000D01*
X10142600Y11944000D02*
Y12694000D01*
X16279500Y10123200D02*
X16359500D01*
X16279500Y9968200D02*
X16359500D01*
X11987500Y11631300D02*
Y11711300D01*
X12142500Y11631300D02*
Y11711300D01*
X13003500Y11440800D02*
Y11520800D01*
X13158501Y11440800D02*
Y11520800D01*
X14137500Y11578400D02*
X14437500D01*
Y11078400D02*
Y11578400D01*
X14137500Y11078400D02*
X14437500D01*
X14137500D02*
Y11578400D01*
X15594299Y11618600D02*
Y11698600D01*
X15749300Y11618600D02*
Y11698600D01*
X19058400Y6262200D02*
Y6722200D01*
X19238400Y6782200D02*
X19478400D01*
X19658400Y6242200D02*
Y6722200D01*
X19238400Y6182200D02*
X19478400D01*
X19975999Y6993800D02*
X20156000D01*
X19975999Y6823800D02*
X20156000D01*
X15180499Y5746800D02*
Y6496800D01*
X16180499Y5746800D02*
Y6496800D01*
X15180499D02*
X16180499D01*
X15180499Y5746800D02*
X16180499D01*
X7512100Y12357800D02*
X8262100D01*
X7512100Y11357800D02*
X8262100D01*
Y12357800D01*
X7512100Y11357800D02*
Y12357800D01*
X16579601Y5206200D02*
Y5736200D01*
Y5206200D02*
X17899600D01*
Y5736200D01*
X16935500Y7448000D02*
Y7538000D01*
X17100500Y7448000D02*
Y7538000D01*
X13775700Y8093000D02*
Y8163000D01*
X13935699Y8093000D02*
Y8163000D01*
X19170599Y7460700D02*
Y7550700D01*
X19005600Y7460700D02*
Y7550700D01*
X15776801Y6794100D02*
X16016800D01*
X16196800Y6854100D02*
Y7334100D01*
X15776801Y7394100D02*
X16016800D01*
X15596800Y6874100D02*
Y7334100D01*
X9231800Y11307000D02*
X9411800D01*
X9231800Y11807000D02*
X9411800D01*
Y11307000D02*
Y11807000D01*
X9231800Y11307000D02*
Y11807000D01*
X15429401Y10024300D02*
X15609399D01*
X15429401Y10524300D02*
X15609399D01*
Y10024300D02*
Y10524300D01*
X15429401Y10024300D02*
Y10524300D01*
X11812300Y11961500D02*
Y12041500D01*
X11657300Y11961500D02*
Y12041500D01*
X16473199Y10831200D02*
Y10911200D01*
X16318201Y10831200D02*
Y10911200D01*
X17168500Y11200100D02*
X17248500D01*
X17168500Y11355100D02*
X17248500D01*
X16142999Y10513700D02*
Y10593700D01*
X15988000Y10513700D02*
Y10593700D01*
X18667101Y9663400D02*
X18747099D01*
X18667101Y9818400D02*
X18747099D01*
X17794000Y9459600D02*
Y9539600D01*
X17639000Y9459600D02*
Y9539600D01*
X17249001Y10481500D02*
Y10981500D01*
Y10481500D02*
X17549001D01*
Y10981500D01*
X17249001D02*
X17549001D01*
X12965210Y9354290D02*
Y9644910D01*
X12739590Y9354290D02*
Y9644910D01*
X12520710Y7398490D02*
Y7689110D01*
X12295090Y7398490D02*
Y7689110D01*
X15259000Y7560503D02*
Y8560501D01*
X14508998Y7560503D02*
Y8560501D01*
X15259000D01*
X14508998Y7560503D02*
X15259000D01*
X13671199Y9367901D02*
X14421201D01*
X13671199Y10367899D02*
X14421201D01*
X13671199Y9367901D02*
Y10367899D01*
X14421201Y9367901D02*
Y10367899D01*
X7504598Y9102628D02*
X8954602D01*
X7504598Y8202625D02*
Y9102628D01*
X8954602Y8882629D02*
Y9102628D01*
Y8202625D02*
Y8422625D01*
X7504598Y8202625D02*
X8334599D01*
X8794598D02*
X8954602D01*
X11901622Y8791575D02*
Y8992784D01*
X12071619Y8791575D02*
Y8992784D01*
X11394801Y7880198D02*
X11439799D01*
X11394801Y8020202D02*
X11439799D01*
X11332891Y9748698D02*
X11628709D01*
X11332891Y9453702D02*
X11628709D01*
X11751401Y7062196D02*
Y7263404D01*
X11921399Y7062196D02*
Y7263404D01*
X11918701Y7481499D02*
Y7631501D01*
X11733698Y7481499D02*
Y7631501D01*
X13475803Y9406900D02*
Y9566900D01*
X13295798Y9406900D02*
Y9566900D01*
X12771298Y7568702D02*
Y7653701D01*
X13111302Y7568702D02*
Y7653701D01*
X12758598Y6603502D02*
Y6688501D01*
X13098602Y6603502D02*
Y6688501D01*
X8199501Y11043001D02*
X9199499D01*
X8199501Y10292999D02*
X9199499D01*
X8199501D02*
Y11043001D01*
X9199499Y10292999D02*
Y11043001D01*
D61*
X12505500Y10082200D02*
G03*
X12505500Y10082200I-250000J0D01*
G01*
X12581700Y12369800D02*
G03*
X12581700Y12369800I-250000J0D01*
G01*
X13802151Y11531600D02*
G03*
X13802151Y11531600I-250000J0D01*
G01*
X14664500Y12139600D02*
G03*
X14664500Y12139600I-250000J0D01*
G01*
X16747301Y11582400D02*
G03*
X16747301Y11582400I-250000J0D01*
G01*
X16378999Y8470900D02*
G03*
X16378999Y8470900I-250000J0D01*
G01*
X20214400Y7516800D02*
G03*
X20214400Y7516800I-250000J0D01*
G01*
X14359700Y7048500D02*
G03*
X14359700Y7048500I-250000J0D01*
G01*
X12784900Y11645900D02*
G03*
X12784900Y11645900I-250000J0D01*
G01*
X15667799Y11022000D02*
G03*
X15667799Y11022000I-250000J0D01*
G01*
X18895200Y10477500D02*
G03*
X18895200Y10477500I-250000J0D01*
G01*
X18322099Y11341100D02*
G03*
X18322099Y11341100I-250000J0D01*
G01*
X8659000Y7581900D02*
G03*
X8659000Y7581900I-250000J0D01*
G01*
X9825800Y8280400D02*
G03*
X9825800Y8280400I-250000J0D01*
G01*
Y9969500D02*
G03*
X9825800Y9969500I-250000J0D01*
G01*
X13775500Y7072300D02*
G03*
X13775500Y7072300I-250000J0D01*
G01*
X19937300Y8652700D02*
Y9152700D01*
X18137300Y8652700D02*
Y9152700D01*
X19937300D01*
X18137300Y8652700D02*
X19937300D01*
X20382800Y8256600D02*
X21482800D01*
X20382800D02*
Y9456600D01*
X21482800D01*
Y8256600D02*
Y9456600D01*
X16036200Y11286800D02*
Y11420800D01*
X15866200Y11286800D02*
Y11420800D01*
X9933100Y11180000D02*
X11733100D01*
X9933100Y11680000D02*
X11733100D01*
X9933100Y11180000D02*
Y11680000D01*
X11733100Y11180000D02*
Y11680000D01*
X18081300Y9300300D02*
X18215300D01*
X18081300Y9470300D02*
X18215300D01*
X18335300Y8373200D02*
X18469299D01*
X18335300Y8543200D02*
X18469299D01*
X10624901Y7947701D02*
X10784901D01*
X10624901Y7634702D02*
X10784901D01*
X10563799Y9681500D02*
X10723799D01*
X10563799Y9368500D02*
X10723799D01*
D62*
X11951800Y11121300D02*
G03*
X11951800Y11121300I-12500J0D01*
G01*
X15839301Y12569100D02*
G03*
X15839301Y12569100I-12500J0D01*
G01*
X13895000Y11518900D02*
G03*
X13895000Y11518900I-12500J0D01*
G01*
X9094300Y11832500D02*
G03*
X9094300Y11832500I-12500J0D01*
G01*
X15291901Y10549800D02*
G03*
X15291901Y10549800I-12500J0D01*
G01*
X17006500Y10922000D02*
G03*
X17006500Y10922000I-12500J0D01*
G01*
D63*
X12189300Y11015800D02*
G03*
X12189300Y11015800I-20000J0D01*
G01*
X16076801Y12463600D02*
G03*
X16076801Y12463600I-20000J0D01*
G01*
X9331800Y11727000D02*
G03*
X9331800Y11727000I-20000J0D01*
G01*
X15529401Y10444300D02*
G03*
X15529401Y10444300I-20000J0D01*
G01*
D64*
X14239999Y11500900D02*
G03*
X14239999Y11500900I-25000J0D01*
G01*
X17351500Y10904000D02*
G03*
X17351500Y10904000I-25000J0D01*
G01*
D65*
X19133400Y6017200D02*
G03*
X19133400Y6027200I0J5000D01*
G01*
D02*
G03*
X19133400Y6017200I0J-5000D01*
G01*
X17949600Y5906200D02*
G03*
X17939600Y5906200I-5000J0D01*
G01*
D02*
G03*
X17949600Y5906200I5000J0D01*
G01*
X15671800Y6639100D02*
G03*
X15671800Y6629100I0J-5000D01*
G01*
D02*
G03*
X15671800Y6639100I0J5000D01*
G01*
D66*
X14791299Y12085800D02*
Y12145800D01*
X14901300Y12085800D02*
Y12145800D01*
X18651700Y10100700D02*
X18711700D01*
X18651700Y9990700D02*
X18711700D01*
X17559900Y11412700D02*
Y11472700D01*
X17669901Y11412700D02*
Y11472700D01*
X9342999Y9139403D02*
Y9199402D01*
X9453001Y9139403D02*
Y9199402D01*
X9749399Y9139403D02*
Y9199402D01*
X9859401Y9139403D02*
Y9199402D01*
X9643501Y7399503D02*
Y7459502D01*
X9533499Y7399503D02*
Y7459502D01*
X10037201Y7399503D02*
Y7459502D01*
X9927199Y7399503D02*
Y7459502D01*
D67*
X8813853Y7975591D02*
X8801157Y7988287D01*
X8775766Y7988287D01*
X8763070Y7975591D01*
X8763070Y7924808D01*
X8775766Y7912112D01*
X8801158Y7912112D01*
X8813853Y7924808D01*
X8877333Y7912112D02*
X8877333Y7988288D01*
X8839245Y7950200D01*
X8890028Y7950200D01*
X8915420Y7988288D02*
X8966204Y7988288D01*
Y7975592D01*
X8915421Y7924808D01*
Y7912112D01*
X8991596Y7962896D02*
X8991596Y7924808D01*
X9004292Y7912112D01*
X9042379Y7912113D01*
X9042379Y7962896D01*
X9118555Y7988288D02*
X9067771Y7988288D01*
Y7950201D01*
X9093163Y7950201D01*
X9067771Y7950201D01*
X9067771Y7912113D01*
X9194730Y7912113D02*
X9143947Y7912113D01*
X9194730Y7962897D01*
Y7975593D01*
X9182034Y7988289D01*
X9156642Y7988288D01*
X9143946Y7975592D01*
X19695160Y9578340D02*
Y9654515D01*
X19733247D01*
X19745943Y9641819D01*
Y9616428D01*
X19733247Y9603732D01*
X19695160D01*
X19720552D02*
X19745943Y9578340D01*
X19771335D02*
X19796727D01*
X19784032D01*
Y9654515D01*
X19771335Y9641819D01*
X19885599Y9654515D02*
X19860207Y9641819D01*
X19834814Y9616428D01*
Y9591036D01*
X19847511Y9578340D01*
X19872903D01*
X19885599Y9591036D01*
Y9603732D01*
X19872903Y9616428D01*
X19834814D01*
X18186383Y9319239D02*
X18173688Y9331935D01*
X18148296D01*
X18135600Y9319239D01*
Y9268456D01*
X18148296Y9255760D01*
X18173688D01*
X18186383Y9268456D01*
X18211775Y9255760D02*
X18237167D01*
X18224471D01*
Y9331935D01*
X18211775Y9319239D01*
X20637505Y9728188D02*
X20612112D01*
X20624808D01*
Y9664708D01*
X20612112Y9652012D01*
X20599417D01*
X20586720Y9664708D01*
X20700984Y9652012D02*
Y9728188D01*
X20662897Y9690100D01*
X20713680D01*
X19667220Y8613140D02*
Y8689315D01*
X19705309D01*
X19718002Y8676619D01*
Y8651228D01*
X19705309Y8638532D01*
X19667220D01*
X19692612D02*
X19718002Y8613140D01*
X19743394D02*
X19768787D01*
X19756091D01*
Y8689315D01*
X19743394Y8676619D01*
X19806876Y8689315D02*
X19857658D01*
Y8676619D01*
X19806876Y8625836D01*
Y8613140D01*
X14213823Y12557739D02*
X14201128Y12570435D01*
X14175735D01*
X14163040Y12557739D01*
Y12506956D01*
X14175735Y12494260D01*
X14201128D01*
X14213823Y12506956D01*
X14289999Y12570435D02*
X14264607Y12557739D01*
X14239215Y12532348D01*
Y12506956D01*
X14251910Y12494260D01*
X14277303D01*
X14289999Y12506956D01*
Y12519652D01*
X14277303Y12532348D01*
X14239215D01*
X15516859Y7752055D02*
X15567644Y7675880D01*
Y7752055D02*
X15516859Y7675880D01*
X15643819D02*
X15593034D01*
X15643819Y7726663D01*
Y7739359D01*
X15631123Y7752055D01*
X15605731D01*
X15593034Y7739359D01*
X15669211Y7675880D02*
Y7752055D01*
X15694603Y7726663D01*
X15719994Y7752055D01*
Y7675880D01*
X15745386Y7713968D02*
X15796170D01*
X15821561Y7752055D02*
X15846953D01*
X15834258D01*
Y7675880D01*
X15821561D01*
X15846953D01*
X15923129Y7752055D02*
X15897737D01*
X15885040Y7739359D01*
Y7688576D01*
X15897737Y7675880D01*
X15923129D01*
X15935825Y7688576D01*
Y7739359D01*
X15923129Y7752055D01*
X18980219Y7111988D02*
X19031001Y7035812D01*
Y7111988D02*
X18980219Y7035812D01*
X19056393D02*
X19081786D01*
X19069089D01*
Y7111988D01*
X19056393Y7099292D01*
X19119873Y7035812D02*
Y7111988D01*
X19145264Y7086596D01*
X19170656Y7111988D01*
Y7035812D01*
X19196048Y7073900D02*
X19246831D01*
X19323007Y7111988D02*
X19272223D01*
Y7035812D01*
X19323007D01*
X19272223Y7073900D02*
X19297615D01*
X19348399Y7035812D02*
Y7111988D01*
X19399182Y7035812D01*
Y7111988D01*
X16896080Y7840980D02*
Y7917155D01*
X16934167D01*
X16946863Y7904459D01*
Y7879068D01*
X16934167Y7866372D01*
X16896080D01*
X16921472D02*
X16946863Y7840980D01*
X17023039D02*
X16972255D01*
X17023039Y7891763D01*
Y7904459D01*
X17010342Y7917155D01*
X16984950D01*
X16972255Y7904459D01*
X17048431Y7840980D02*
Y7917155D01*
X17073824Y7891763D01*
X17099214Y7917155D01*
Y7840980D01*
X17124606Y7879068D02*
X17175391D01*
X17200781Y7917155D02*
X17226173D01*
X17213477D01*
Y7840980D01*
X17200781D01*
X17226173D01*
X17302348Y7917155D02*
X17276958D01*
X17264261Y7904459D01*
Y7853676D01*
X17276958Y7840980D01*
X17302348D01*
X17315044Y7853676D01*
Y7904459D01*
X17302348Y7917155D01*
X18966180Y7853680D02*
Y7929855D01*
X19004268D01*
X19016963Y7917159D01*
Y7891768D01*
X19004268Y7879072D01*
X18966180D01*
X18991573D02*
X19016963Y7853680D01*
X19042355D02*
X19067747D01*
X19055051D01*
Y7929855D01*
X19042355Y7917159D01*
X19105835Y7853680D02*
Y7929855D01*
X19131227Y7904463D01*
X19156618Y7929855D01*
Y7853680D01*
X19182010Y7891768D02*
X19232794D01*
X19308969Y7929855D02*
X19258186D01*
Y7853680D01*
X19308969D01*
X19258186Y7891768D02*
X19283577D01*
X19334361Y7853680D02*
Y7929855D01*
X19385144Y7853680D01*
Y7929855D01*
X15234903Y6672555D02*
X15209512D01*
X15222208D01*
Y6609076D01*
X15209512Y6596380D01*
X15196815D01*
X15184120Y6609076D01*
X15311079Y6596380D02*
X15260295D01*
X15311079Y6647163D01*
Y6659859D01*
X15298383Y6672555D01*
X15272990D01*
X15260295Y6659859D01*
X15336472Y6596380D02*
Y6672555D01*
X15361864Y6647163D01*
X15387254Y6672555D01*
Y6596380D01*
X7566643Y12532335D02*
X7541252D01*
X7553948D01*
Y12468856D01*
X7541252Y12456160D01*
X7528556D01*
X7515860Y12468856D01*
X7592035Y12456160D02*
X7617427D01*
X7604731D01*
Y12532335D01*
X7592035Y12519639D01*
X7655515Y12456160D02*
Y12532335D01*
X7680907Y12506943D01*
X7706298Y12532335D01*
Y12456160D01*
X15627402Y8801092D02*
X15614706Y8813788D01*
X15589314D01*
X15576617Y8801092D01*
Y8750308D01*
X15589314Y8737612D01*
X15614706D01*
X15627402Y8750308D01*
X15703577Y8813788D02*
X15652792D01*
Y8775700D01*
X15678185Y8788396D01*
X15690881D01*
X15703577Y8775700D01*
Y8750308D01*
X15690881Y8737612D01*
X15665489D01*
X15652792Y8750308D01*
X15728969Y8737612D02*
Y8813788D01*
X15754359Y8788396D01*
X15779752Y8813788D01*
Y8737612D01*
X15805144Y8775700D02*
X15855927D01*
X15881319Y8813788D02*
X15906711D01*
X15894016D01*
Y8737612D01*
X15881319D01*
X15906711D01*
X15982886Y8813788D02*
X15957495D01*
X15944798Y8801092D01*
Y8750308D01*
X15957495Y8737612D01*
X15982886D01*
X15995583Y8750308D01*
Y8801092D01*
X15982886Y8813788D01*
X19939053Y6680192D02*
X19926358Y6692888D01*
X19900966D01*
X19888271Y6680192D01*
Y6629408D01*
X19900966Y6616712D01*
X19926358D01*
X19939053Y6629408D01*
X20002533Y6616712D02*
Y6692888D01*
X19964445Y6654800D01*
X20015228D01*
X20040620Y6616712D02*
Y6692888D01*
X20066013Y6667496D01*
X20091405Y6692888D01*
Y6616712D01*
X20116795Y6654800D02*
X20167580D01*
X20243755Y6692888D02*
X20192970D01*
Y6616712D01*
X20243755D01*
X20192970Y6654800D02*
X20218362D01*
X20269147Y6616712D02*
Y6692888D01*
X20319930Y6616712D01*
Y6692888D01*
X20218452Y7797792D02*
X20205759Y7810488D01*
X20180367D01*
X20167670Y7797792D01*
Y7747008D01*
X20180367Y7734312D01*
X20205759D01*
X20218452Y7747008D01*
X20243845Y7797792D02*
X20256541Y7810488D01*
X20281934D01*
X20294629Y7797792D01*
Y7785096D01*
X20281934Y7772400D01*
X20269237D01*
X20281934D01*
X20294629Y7759704D01*
Y7747008D01*
X20281934Y7734312D01*
X20256541D01*
X20243845Y7747008D01*
X20320021Y7734312D02*
Y7810488D01*
X20345412Y7785096D01*
X20370804Y7810488D01*
Y7734312D01*
X20396196Y7772400D02*
X20446979D01*
X20523155Y7810488D02*
X20472371D01*
Y7734312D01*
X20523155D01*
X20472371Y7772400D02*
X20497763D01*
X20548547Y7734312D02*
Y7810488D01*
X20599330Y7734312D01*
Y7810488D01*
X13909023Y7533619D02*
X13896329Y7546315D01*
X13870937D01*
X13858240Y7533619D01*
Y7482836D01*
X13870937Y7470140D01*
X13896329D01*
X13909023Y7482836D01*
X13985199Y7470140D02*
X13934415D01*
X13985199Y7520923D01*
Y7533619D01*
X13972504Y7546315D01*
X13947112D01*
X13934415Y7533619D01*
X14010591Y7470140D02*
Y7546315D01*
X14035983Y7520923D01*
X14061374Y7546315D01*
Y7470140D01*
X14086766Y7508228D02*
X14137550D01*
X14162941Y7470140D02*
Y7546315D01*
X14201028D01*
X14213725Y7533619D01*
Y7508228D01*
X14201028Y7495532D01*
X14162941D01*
X13815044Y8501359D02*
X13802348Y8514055D01*
X13776956D01*
X13764259Y8501359D01*
Y8450576D01*
X13776956Y8437880D01*
X13802348D01*
X13815044Y8450576D01*
X13840434Y8437880D02*
X13865826D01*
X13853131D01*
Y8514055D01*
X13840434Y8501359D01*
X13903915Y8437880D02*
Y8514055D01*
X13929308Y8488663D01*
X13954698Y8514055D01*
Y8437880D01*
X13980090Y8475968D02*
X14030875D01*
X14056265Y8437880D02*
Y8514055D01*
X14094353D01*
X14107050Y8501359D01*
Y8475968D01*
X14094353Y8463272D01*
X14056265D01*
X16499840Y7124675D02*
Y7048500D01*
X16537927D01*
X16550623Y7061196D01*
Y7073892D01*
X16537927Y7086588D01*
X16499840D01*
X16537927D01*
X16550623Y7099283D01*
Y7111979D01*
X16537927Y7124675D01*
X16499840D01*
X16576015Y7048500D02*
X16601407D01*
X16588712D01*
Y7124675D01*
X16576015Y7111979D01*
X16639494Y7086588D02*
X16690279D01*
X16715669Y7048500D02*
Y7124675D01*
X16741061Y7099283D01*
X16766454Y7124675D01*
Y7048500D01*
X16842628Y7111979D02*
X16829933Y7124675D01*
X16804541D01*
X16791846Y7111979D01*
Y7061196D01*
X16804541Y7048500D01*
X16829933D01*
X16842628Y7061196D01*
X16868021Y7124675D02*
Y7061196D01*
X16880717Y7048500D01*
X16906110D01*
X16918803Y7061196D01*
Y7124675D01*
X8968740Y12009095D02*
Y11945616D01*
X8981436Y11932920D01*
X9006828D01*
X9019523Y11945616D01*
Y12009095D01*
X9095699D02*
X9070307Y11996399D01*
X9044915Y11971008D01*
Y11945616D01*
X9057611Y11932920D01*
X9083003D01*
X9095699Y11945616D01*
Y11958312D01*
X9083003Y11971008D01*
X9044915D01*
X11826240Y11297895D02*
Y11234416D01*
X11838936Y11221720D01*
X11864328D01*
X11877023Y11234416D01*
Y11297895D01*
X11953199D02*
X11902415D01*
Y11259808D01*
X11927807Y11272503D01*
X11940503D01*
X11953199Y11259808D01*
Y11234416D01*
X11940503Y11221720D01*
X11915111D01*
X11902415Y11234416D01*
X15166341Y10726395D02*
Y10662916D01*
X15179036Y10650220D01*
X15204428D01*
X15217123Y10662916D01*
Y10726395D01*
X15280603Y10650220D02*
Y10726395D01*
X15242516Y10688308D01*
X15293298D01*
X9652029Y12407884D02*
X9626637D01*
X9639333D01*
Y12344404D01*
X9626637Y12331708D01*
X9613941D01*
X9601245Y12344404D01*
X9690117Y12382492D02*
X9715508D01*
X9728204Y12369796D01*
Y12331708D01*
X9690117D01*
X9677421Y12344404D01*
X9690117Y12357100D01*
X9728204D01*
X9753596Y12331708D02*
Y12382492D01*
X9766292D01*
X9778988Y12369796D01*
Y12331708D01*
Y12369796D01*
X9791684Y12382492D01*
X9804379Y12369796D01*
Y12331708D01*
X9829771Y12306317D02*
Y12382492D01*
X9867859D01*
X9880555Y12369796D01*
Y12344404D01*
X9867859Y12331708D01*
X9829771D01*
X11817364Y12560292D02*
X11804669Y12572988D01*
X11779277D01*
X11766581Y12560292D01*
Y12509508D01*
X11779277Y12496812D01*
X11804669D01*
X11817364Y12509508D01*
X11842756Y12496812D02*
X11868148D01*
X11855452D01*
Y12572988D01*
X11842756Y12560292D01*
X11957019Y12496812D02*
X11906236D01*
X11957019Y12547596D01*
Y12560292D01*
X11944324Y12572988D01*
X11918932D01*
X11906236Y12560292D01*
X12334223Y12062439D02*
X12321528Y12075135D01*
X12296136D01*
X12283440Y12062439D01*
Y12011656D01*
X12296136Y11998960D01*
X12321528D01*
X12334223Y12011656D01*
X12359615Y11998960D02*
X12385007D01*
X12372311D01*
Y12075135D01*
X12359615Y12062439D01*
X12423095Y11998960D02*
X12448487D01*
X12435791D01*
Y12075135D01*
X12423095Y12062439D01*
X13351474Y11948139D02*
X13338779Y11960835D01*
X13313387D01*
X13300691Y11948139D01*
Y11897356D01*
X13313387Y11884660D01*
X13338779D01*
X13351474Y11897356D01*
X13414954Y11884660D02*
Y11960835D01*
X13376866Y11922748D01*
X13427650D01*
X15217123Y11440139D02*
X15204428Y11452835D01*
X15179036D01*
X15166341Y11440139D01*
Y11389356D01*
X15179036Y11376660D01*
X15204428D01*
X15217123Y11389356D01*
X15242516Y11440139D02*
X15255211Y11452835D01*
X15280603D01*
X15293298Y11440139D01*
Y11427443D01*
X15280603Y11414748D01*
X15267908D01*
X15280603D01*
X15293298Y11402052D01*
Y11389356D01*
X15280603Y11376660D01*
X15255211D01*
X15242516Y11389356D01*
X16296623Y11998939D02*
X16283928Y12011635D01*
X16258536D01*
X16245840Y11998939D01*
Y11948156D01*
X16258536Y11935460D01*
X16283928D01*
X16296623Y11948156D01*
X16372800Y11935460D02*
X16322015D01*
X16372800Y11986243D01*
Y11998939D01*
X16360103Y12011635D01*
X16334711D01*
X16322015Y11998939D01*
X16141721Y12674588D02*
Y12611108D01*
X16154417Y12598412D01*
X16179808D01*
X16192503Y12611108D01*
Y12674588D01*
X16217896Y12661892D02*
X16230592Y12674588D01*
X16255984D01*
X16268678Y12661892D01*
Y12649196D01*
X16255984Y12636500D01*
X16243288D01*
X16255984D01*
X16268678Y12623804D01*
Y12611108D01*
X16255984Y12598412D01*
X16230592D01*
X16217896Y12611108D01*
X13883640Y11765255D02*
Y11701776D01*
X13896336Y11689080D01*
X13921729D01*
X13934422Y11701776D01*
Y11765255D01*
X14010599Y11689080D02*
X13959814D01*
X14010599Y11739863D01*
Y11752559D01*
X13997903Y11765255D01*
X13972511D01*
X13959814Y11752559D01*
X13366782Y12496812D02*
Y12572988D01*
X13404869D01*
X13417564Y12560292D01*
Y12534900D01*
X13404869Y12522204D01*
X13366782D01*
X13392172D02*
X13417564Y12496812D01*
X13442957D02*
X13468349D01*
X13455652D01*
Y12572988D01*
X13442957Y12560292D01*
X13544524Y12496812D02*
Y12572988D01*
X13506436Y12534900D01*
X13557219D01*
X12964160Y11828780D02*
Y11904955D01*
X13002248D01*
X13014943Y11892259D01*
Y11866868D01*
X13002248Y11854172D01*
X12964160D01*
X12989552D02*
X13014943Y11828780D01*
X13040335D02*
X13065727D01*
X13053030D01*
Y11904955D01*
X13040335Y11892259D01*
X13103815D02*
X13116512Y11904955D01*
X13141904D01*
X13154597Y11892259D01*
Y11879563D01*
X13141904Y11866868D01*
X13129207D01*
X13141904D01*
X13154597Y11854172D01*
Y11841476D01*
X13141904Y11828780D01*
X13116512D01*
X13103815Y11841476D01*
X11617960Y12349480D02*
Y12425655D01*
X11656048D01*
X11668743Y12412959D01*
Y12387568D01*
X11656048Y12374872D01*
X11617960D01*
X11643352D02*
X11668743Y12349480D01*
X11694135D02*
X11719527D01*
X11706831D01*
Y12425655D01*
X11694135Y12412959D01*
X11808398Y12349480D02*
X11757615D01*
X11808398Y12400263D01*
Y12412959D01*
X11795703Y12425655D01*
X11770311D01*
X11757615Y12412959D01*
X11906277Y11988812D02*
Y12064988D01*
X11944364D01*
X11957060Y12052292D01*
Y12026900D01*
X11944364Y12014204D01*
X11906277D01*
X11931669D02*
X11957060Y11988812D01*
X11982452D02*
X12007844D01*
X11995148D01*
Y12064988D01*
X11982452Y12052292D01*
X12045931Y11988812D02*
X12071323D01*
X12058627D01*
Y12064988D01*
X12045931Y12052292D01*
X18460719Y9959340D02*
Y10035515D01*
X18498808D01*
X18511504Y10022819D01*
Y9997428D01*
X18498808Y9984732D01*
X18460719D01*
X18486111D02*
X18511504Y9959340D01*
X18536896D02*
X18562286D01*
X18549591D01*
Y10035515D01*
X18536896Y10022819D01*
X18600375D02*
X18613071Y10035515D01*
X18638463D01*
X18651158Y10022819D01*
Y9972036D01*
X18638463Y9959340D01*
X18613071D01*
X18600375Y9972036D01*
Y10022819D01*
X15948660Y10901680D02*
Y10977855D01*
X15986748D01*
X15999443Y10965159D01*
Y10939768D01*
X15986748Y10927072D01*
X15948660D01*
X15974052D02*
X15999443Y10901680D01*
X16024835Y10965159D02*
X16037531Y10977855D01*
X16062923D01*
X16075620Y10965159D01*
Y10952463D01*
X16062923Y10939768D01*
X16075620Y10927072D01*
Y10914376D01*
X16062923Y10901680D01*
X16037531D01*
X16024835Y10914376D01*
Y10927072D01*
X16037531Y10939768D01*
X16024835Y10952463D01*
Y10965159D01*
X16037531Y10939768D02*
X16062923D01*
X16278860Y11219180D02*
Y11295355D01*
X16316948D01*
X16329643Y11282659D01*
Y11257268D01*
X16316948Y11244572D01*
X16278860D01*
X16304253D02*
X16329643Y11219180D01*
X16355035Y11295355D02*
X16405820D01*
Y11282659D01*
X16355035Y11231876D01*
Y11219180D01*
X15328922Y11658612D02*
Y11734788D01*
X15367007D01*
X15379704Y11722092D01*
Y11696700D01*
X15367007Y11684004D01*
X15328922D01*
X15354312D02*
X15379704Y11658612D01*
X15455879Y11734788D02*
X15405096D01*
Y11696700D01*
X15430489Y11709396D01*
X15443184D01*
X15455879Y11696700D01*
Y11671308D01*
X15443184Y11658612D01*
X15417792D01*
X15405096Y11671308D01*
X16243321Y9766312D02*
Y9842488D01*
X16281409D01*
X16294104Y9829792D01*
Y9804400D01*
X16281409Y9791704D01*
X16243321D01*
X16268712D02*
X16294104Y9766312D01*
X16357584D02*
Y9842488D01*
X16319496Y9804400D01*
X16370279D01*
X16962120Y11496040D02*
Y11572215D01*
X17000208D01*
X17012903Y11559519D01*
Y11534128D01*
X17000208Y11521432D01*
X16962120D01*
X16987512D02*
X17012903Y11496040D01*
X17038295Y11559519D02*
X17050990Y11572215D01*
X17076382D01*
X17089079Y11559519D01*
Y11546823D01*
X17076382Y11534128D01*
X17063687D01*
X17076382D01*
X17089079Y11521432D01*
Y11508736D01*
X17076382Y11496040D01*
X17050990D01*
X17038295Y11508736D01*
X14836124Y12407879D02*
X14823428Y12420575D01*
X14798036D01*
X14785339Y12407879D01*
Y12357096D01*
X14798036Y12344400D01*
X14823428D01*
X14836124Y12357096D01*
X14912299Y12420575D02*
X14861514D01*
Y12382488D01*
X14886906Y12395183D01*
X14899603D01*
X14912299Y12382488D01*
Y12357096D01*
X14899603Y12344400D01*
X14874211D01*
X14861514Y12357096D01*
X17599660Y9847580D02*
Y9923755D01*
X17637749D01*
X17650443Y9911059D01*
Y9885668D01*
X17637749Y9872972D01*
X17599660D01*
X17625052D02*
X17650443Y9847580D01*
X17675835Y9860276D02*
X17688531Y9847580D01*
X17713924D01*
X17726619Y9860276D01*
Y9911059D01*
X17713924Y9923755D01*
X17688531D01*
X17675835Y9911059D01*
Y9898363D01*
X17688531Y9885668D01*
X17726619D01*
X16129021Y11430012D02*
Y11506188D01*
X16167108D01*
X16179803Y11493492D01*
Y11468100D01*
X16167108Y11455404D01*
X16129021D01*
X16154411D02*
X16179803Y11430012D01*
X16255978Y11506188D02*
X16230588Y11493492D01*
X16205196Y11468100D01*
Y11442708D01*
X16217892Y11430012D01*
X16243285D01*
X16255978Y11442708D01*
Y11455404D01*
X16243285Y11468100D01*
X16205196D01*
X18204179Y8648700D02*
Y8724875D01*
X18242268D01*
X18254964Y8712179D01*
Y8686788D01*
X18242268Y8674092D01*
X18204179D01*
X18229572D02*
X18254964Y8648700D01*
X18331139D02*
X18280354D01*
X18331139Y8699483D01*
Y8712179D01*
X18318443Y8724875D01*
X18293051D01*
X18280354Y8712179D01*
X17950180Y9575800D02*
Y9651975D01*
X17988268D01*
X18000963Y9639279D01*
Y9613888D01*
X17988268Y9601192D01*
X17950180D01*
X17975572D02*
X18000963Y9575800D01*
X18026355D02*
X18051747D01*
X18039050D01*
Y9651975D01*
X18026355Y9639279D01*
X9982183Y11846539D02*
X9969488Y11859235D01*
X9944096D01*
X9931400Y11846539D01*
Y11795756D01*
X9944096Y11783060D01*
X9969488D01*
X9982183Y11795756D01*
X10007575Y11783060D02*
X10032967D01*
X10020271D01*
Y11859235D01*
X10007575Y11846539D01*
X10071055D02*
X10083751Y11859235D01*
X10109143D01*
X10121838Y11846539D01*
Y11833843D01*
X10109143Y11821148D01*
X10096447D01*
X10109143D01*
X10121838Y11808452D01*
Y11795756D01*
X10109143Y11783060D01*
X10083751D01*
X10071055Y11795756D01*
X18605482Y10271739D02*
X18592789Y10284435D01*
X18567397D01*
X18554700Y10271739D01*
Y10220956D01*
X18567397Y10208260D01*
X18592789D01*
X18605482Y10220956D01*
X18630875Y10208260D02*
X18656267D01*
X18643571D01*
Y10284435D01*
X18630875Y10271739D01*
X18694354D02*
X18707051Y10284435D01*
X18732443D01*
X18745139Y10271739D01*
Y10220956D01*
X18732443Y10208260D01*
X18707051D01*
X18694354Y10220956D01*
Y10271739D01*
X18376883Y10894039D02*
X18364188Y10906735D01*
X18338795D01*
X18326100Y10894039D01*
Y10843256D01*
X18338795Y10830560D01*
X18364188D01*
X18376883Y10843256D01*
X18402275D02*
X18414970Y10830560D01*
X18440363D01*
X18453059Y10843256D01*
Y10894039D01*
X18440363Y10906735D01*
X18414970D01*
X18402275Y10894039D01*
Y10881343D01*
X18414970Y10868648D01*
X18453059D01*
X17802843Y11757639D02*
X17790147Y11770335D01*
X17764755D01*
X17752060Y11757639D01*
Y11706856D01*
X17764755Y11694160D01*
X17790147D01*
X17802843Y11706856D01*
X17828235Y11757639D02*
X17840932Y11770335D01*
X17866322D01*
X17879019Y11757639D01*
Y11744943D01*
X17866322Y11732248D01*
X17879019Y11719552D01*
Y11706856D01*
X17866322Y11694160D01*
X17840932D01*
X17828235Y11706856D01*
Y11719552D01*
X17840932Y11732248D01*
X17828235Y11744943D01*
Y11757639D01*
X17840932Y11732248D02*
X17866322D01*
X17604723Y11734779D02*
X17592027Y11747475D01*
X17566637D01*
X17553940Y11734779D01*
Y11683996D01*
X17566637Y11671300D01*
X17592027D01*
X17604723Y11683996D01*
X17630115Y11747475D02*
X17680899D01*
Y11734779D01*
X17630115Y11683996D01*
Y11671300D01*
X16840199Y10744175D02*
Y10680696D01*
X16852896Y10668000D01*
X16878288D01*
X16890984Y10680696D01*
Y10744175D01*
X16916376Y10668000D02*
X16941766D01*
X16929071D01*
Y10744175D01*
X16916376Y10731479D01*
X12806664Y9819619D02*
X12793968Y9832315D01*
X12768576D01*
X12755880Y9819619D01*
Y9768836D01*
X12768576Y9756140D01*
X12793968D01*
X12806664Y9768836D01*
X12844751Y9756140D02*
X12870143D01*
X12882838Y9768836D01*
Y9794228D01*
X12870143Y9806923D01*
X12844751D01*
X12832056Y9794228D01*
Y9768836D01*
X12844751Y9756140D01*
X12908231Y9806923D02*
Y9768836D01*
X12920927Y9756140D01*
X12959013D01*
Y9806923D01*
X12997102Y9819619D02*
Y9806923D01*
X12984406D01*
X13009798D01*
X12997102D01*
Y9768836D01*
X13009798Y9756140D01*
X13174844Y9832315D02*
X13124062D01*
Y9794228D01*
X13149454Y9806923D01*
X13162149D01*
X13174844Y9794228D01*
Y9768836D01*
X13162149Y9756140D01*
X13136757D01*
X13124062Y9768836D01*
X13200237Y9832315D02*
Y9781532D01*
X13225629Y9756140D01*
X13251019Y9781532D01*
Y9832315D01*
X13390675Y9756140D02*
Y9832315D01*
X13352586Y9794228D01*
X13403371D01*
X13428761Y9832315D02*
X13479546D01*
Y9819619D01*
X13428761Y9768836D01*
Y9756140D01*
X13504938Y9806923D02*
Y9768836D01*
X13517635Y9756140D01*
X13555721D01*
Y9806923D01*
X13631897Y9832315D02*
X13581113D01*
Y9794228D01*
X13606505D01*
X13581113D01*
Y9756140D01*
X12362163Y7863819D02*
X12349468Y7876515D01*
X12324076D01*
X12311380Y7863819D01*
Y7813036D01*
X12324076Y7800340D01*
X12349468D01*
X12362163Y7813036D01*
X12400251Y7800340D02*
X12425643D01*
X12438339Y7813036D01*
Y7838428D01*
X12425643Y7851123D01*
X12400251D01*
X12387555Y7838428D01*
Y7813036D01*
X12400251Y7800340D01*
X12463731Y7851123D02*
Y7813036D01*
X12476427Y7800340D01*
X12514514D01*
Y7851123D01*
X12552602Y7863819D02*
Y7851123D01*
X12539906D01*
X12565298D01*
X12552602D01*
Y7813036D01*
X12565298Y7800340D01*
X12679561Y7863819D02*
X12692257Y7876515D01*
X12717649D01*
X12730344Y7863819D01*
Y7851123D01*
X12717649Y7838428D01*
X12704953D01*
X12717649D01*
X12730344Y7825732D01*
Y7813036D01*
X12717649Y7800340D01*
X12692257D01*
X12679561Y7813036D01*
X12755736Y7800340D02*
Y7813036D01*
X12768432D01*
Y7800340D01*
X12755736D01*
X12819215Y7863819D02*
X12831912Y7876515D01*
X12857303D01*
X12870000Y7863819D01*
Y7851123D01*
X12857303Y7838428D01*
X12844608D01*
X12857303D01*
X12870000Y7825732D01*
Y7813036D01*
X12857303Y7800340D01*
X12831912D01*
X12819215Y7813036D01*
X12895390Y7876515D02*
Y7825732D01*
X12920782Y7800340D01*
X12946175Y7825732D01*
Y7876515D01*
X13085831Y7800340D02*
Y7876515D01*
X13047742Y7838428D01*
X13098524D01*
X13123917Y7876515D02*
X13174701D01*
Y7863819D01*
X13123917Y7813036D01*
Y7800340D01*
X13200092Y7851123D02*
Y7813036D01*
X13212788Y7800340D01*
X13250876D01*
Y7851123D01*
X13327051Y7876515D02*
X13276268D01*
Y7838428D01*
X13301660D01*
X13276268D01*
Y7800340D01*
X8343949Y7188192D02*
X8331254Y7200888D01*
X8305862D01*
X8293166Y7188192D01*
Y7137408D01*
X8305862Y7124712D01*
X8331254D01*
X8343949Y7137408D01*
X8407429Y7124712D02*
Y7200888D01*
X8369341Y7162800D01*
X8420125D01*
X8445517Y7200888D02*
X8496300D01*
Y7188192D01*
X8445517Y7137408D01*
Y7124712D01*
X8521692Y7175496D02*
Y7137408D01*
X8534388Y7124712D01*
X8572475D01*
Y7175496D01*
X8648651Y7200888D02*
X8597867D01*
Y7162800D01*
X8623259D01*
X8597867D01*
Y7124712D01*
X8674043D02*
X8699434D01*
X8686739D01*
Y7200888D01*
X8674043Y7188192D01*
X9306543Y10386039D02*
X9293848Y10398735D01*
X9268456D01*
X9255760Y10386039D01*
Y10335256D01*
X9268456Y10322560D01*
X9293848D01*
X9306543Y10335256D01*
X9370023Y10322560D02*
Y10398735D01*
X9331935Y10360648D01*
X9382719D01*
X9408111Y10398735D02*
X9458894D01*
Y10386039D01*
X9408111Y10335256D01*
Y10322560D01*
X9484286Y10373343D02*
Y10335256D01*
X9496982Y10322560D01*
X9535070D01*
Y10373343D01*
X9611245Y10398735D02*
X9560461D01*
Y10360648D01*
X9585853D01*
X9560461D01*
Y10322560D01*
X9636637Y10386039D02*
X9649333Y10398735D01*
X9674725D01*
X9687420Y10386039D01*
Y10373343D01*
X9674725Y10360648D01*
X9662029D01*
X9674725D01*
X9687420Y10347952D01*
Y10335256D01*
X9674725Y10322560D01*
X9649333D01*
X9636637Y10335256D01*
X12054823Y10500339D02*
X12042128Y10513035D01*
X12016736D01*
X12004040Y10500339D01*
Y10449556D01*
X12016736Y10436860D01*
X12042128D01*
X12054823Y10449556D01*
X12118303Y10436860D02*
Y10513035D01*
X12080215Y10474948D01*
X12130999D01*
X12156391Y10513035D02*
X12207174D01*
Y10500339D01*
X12156391Y10449556D01*
Y10436860D01*
X12232566Y10487643D02*
Y10449556D01*
X12245262Y10436860D01*
X12283350D01*
Y10487643D01*
X12359525Y10513035D02*
X12308741D01*
Y10474948D01*
X12334133D01*
X12308741D01*
Y10436860D01*
X12423005D02*
Y10513035D01*
X12384917Y10474948D01*
X12435700D01*
X13309653Y7505692D02*
X13296957Y7518388D01*
X13271565D01*
X13258870Y7505692D01*
Y7454908D01*
X13271565Y7442212D01*
X13296957D01*
X13309653Y7454908D01*
X13373132Y7442212D02*
Y7518388D01*
X13335045Y7480300D01*
X13385829D01*
X13411221Y7518388D02*
X13462004D01*
Y7505692D01*
X13411221Y7454908D01*
Y7442212D01*
X13487396Y7492996D02*
Y7454908D01*
X13500092Y7442212D01*
X13538179D01*
Y7492996D01*
X13614355Y7518388D02*
X13563571D01*
Y7480300D01*
X13588963D01*
X13563571D01*
Y7442212D01*
X13690530Y7518388D02*
X13639748D01*
Y7480300D01*
X13665138Y7492996D01*
X13677834D01*
X13690530Y7480300D01*
Y7454908D01*
X13677834Y7442212D01*
X13652443D01*
X13639748Y7454908D01*
D68*
X9264677Y9524992D02*
X9251981Y9537688D01*
X9226589D01*
X9213893Y9524992D01*
Y9474208D01*
X9226589Y9461512D01*
X9251981D01*
X9264677Y9474208D01*
X9290069Y9461512D02*
X9315460D01*
X9302764D01*
Y9512296D01*
X9290069D01*
X9353548Y9461512D02*
Y9512296D01*
X9391636D01*
X9404331Y9499600D01*
Y9461512D01*
X9480507D02*
X9429723D01*
X9480507Y9512296D01*
Y9524992D01*
X9467811Y9537688D01*
X9442419D01*
X9429723Y9524992D01*
X9836173Y9537692D02*
X9823477Y9550388D01*
X9798085D01*
X9785389Y9537692D01*
Y9486908D01*
X9798085Y9474212D01*
X9823477D01*
X9836173Y9486908D01*
X9861564Y9474212D02*
X9886956D01*
X9874260D01*
Y9524996D01*
X9861564D01*
X9925044Y9474212D02*
Y9524996D01*
X9963132D01*
X9975827Y9512300D01*
Y9474212D01*
X10001219D02*
X10026611D01*
X10013915D01*
Y9550388D01*
X10001219Y9537692D01*
X14554182Y8727415D02*
X14528792D01*
X14541489D01*
Y8663936D01*
X14528792Y8651240D01*
X14516096D01*
X14503400Y8663936D01*
X14579575Y8714719D02*
X14592271Y8727415D01*
X14617664D01*
X14630359Y8714719D01*
Y8702023D01*
X14617664Y8689328D01*
X14604967D01*
X14617664D01*
X14630359Y8676632D01*
Y8663936D01*
X14617664Y8651240D01*
X14592271D01*
X14579575Y8663936D01*
X14655751Y8651240D02*
Y8663936D01*
X14668446D01*
Y8651240D01*
X14655751D01*
X14719231Y8714719D02*
X14731926Y8727415D01*
X14757318D01*
X14770013Y8714719D01*
Y8702023D01*
X14757318Y8689328D01*
X14744621D01*
X14757318D01*
X14770013Y8676632D01*
Y8663936D01*
X14757318Y8651240D01*
X14731926D01*
X14719231Y8663936D01*
X14795406Y8727415D02*
Y8676632D01*
X14820798Y8651240D01*
X14846188Y8676632D01*
Y8727415D01*
X13296918Y10375888D02*
X13271526D01*
X13284221D01*
Y10312408D01*
X13271526Y10299712D01*
X13258829D01*
X13246133Y10312408D01*
X13373093Y10375888D02*
X13322308D01*
Y10337800D01*
X13347701Y10350496D01*
X13360396D01*
X13373093Y10337800D01*
Y10312408D01*
X13360396Y10299712D01*
X13335004D01*
X13322308Y10312408D01*
X13398483Y10375888D02*
Y10325104D01*
X13423875Y10299712D01*
X13449268Y10325104D01*
Y10375888D01*
X7562881Y9147939D02*
Y9224114D01*
X7600969D01*
X7613664Y9211418D01*
Y9186027D01*
X7600969Y9173331D01*
X7562881D01*
X7639056Y9147939D02*
X7664448D01*
X7651752D01*
Y9198723D01*
X7639056D01*
X7702536Y9147939D02*
Y9198723D01*
X7740624D01*
X7753319Y9186027D01*
Y9147939D01*
X11015963Y10205699D02*
X11003268Y10218395D01*
X10977876D01*
X10965180Y10205699D01*
Y10154916D01*
X10977876Y10142220D01*
X11003268D01*
X11015963Y10154916D01*
X11041355Y10218395D02*
Y10142220D01*
X11079443D01*
X11092139Y10154916D01*
Y10167612D01*
X11079443Y10180308D01*
X11041355D01*
X11079443D01*
X11092139Y10193003D01*
Y10205699D01*
X11079443Y10218395D01*
X11041355D01*
X11168314D02*
X11117531D01*
Y10180308D01*
X11142923Y10193003D01*
X11155619D01*
X11168314Y10180308D01*
Y10154916D01*
X11155619Y10142220D01*
X11130227D01*
X11117531Y10154916D01*
X11193706Y10218395D02*
Y10167612D01*
X11219098Y10142220D01*
X11244490Y10167612D01*
Y10218395D01*
X11404645Y8928112D02*
Y9004288D01*
X11442733D01*
X11455429Y8991592D01*
Y8966200D01*
X11442733Y8953504D01*
X11404645D01*
X11430037D02*
X11455429Y8928112D01*
X11480821D02*
Y8978896D01*
X11506212Y9004288D01*
X11531604Y8978896D01*
Y8928112D01*
Y8966200D01*
X11480821D01*
X11607779Y9004288D02*
X11556996D01*
Y8966200D01*
X11582388Y8978896D01*
X11595084D01*
X11607779Y8966200D01*
Y8940808D01*
X11595084Y8928112D01*
X11569692D01*
X11556996Y8940808D01*
X11633171Y9004288D02*
Y8953504D01*
X11658563Y8928112D01*
X11683955Y8953504D01*
Y9004288D01*
X11455445Y9258312D02*
Y9334488D01*
X11493533D01*
X11506229Y9321792D01*
Y9296400D01*
X11493533Y9283704D01*
X11455445D01*
X11480837D02*
X11506229Y9258312D01*
X11531621Y9334488D02*
Y9258312D01*
X11569708D01*
X11582404Y9271008D01*
Y9283704D01*
X11569708Y9296400D01*
X11531621D01*
X11569708D01*
X11582404Y9309096D01*
Y9321792D01*
X11569708Y9334488D01*
X11531621D01*
X11658579D02*
X11607796D01*
Y9296400D01*
X11633188Y9309096D01*
X11645884D01*
X11658579Y9296400D01*
Y9271008D01*
X11645884Y9258312D01*
X11620492D01*
X11607796Y9271008D01*
X11683971Y9334488D02*
Y9283704D01*
X11709363Y9258312D01*
X11734755Y9283704D01*
Y9334488D01*
X10966501Y8356592D02*
X10953806Y8369288D01*
X10928414D01*
X10915718Y8356592D01*
Y8305808D01*
X10928414Y8293112D01*
X10953806D01*
X10966501Y8305808D01*
X10991893Y8369288D02*
Y8293112D01*
X11029981D01*
X11042677Y8305808D01*
Y8318504D01*
X11029981Y8331200D01*
X10991893D01*
X11029981D01*
X11042677Y8343896D01*
Y8356592D01*
X11029981Y8369288D01*
X10991893D01*
X11068069Y8356592D02*
X11080764Y8369288D01*
X11106156D01*
X11118852Y8356592D01*
Y8343896D01*
X11106156Y8331200D01*
X11093460D01*
X11106156D01*
X11118852Y8318504D01*
Y8305808D01*
X11106156Y8293112D01*
X11080764D01*
X11068069Y8305808D01*
X11144244Y8293112D02*
Y8305808D01*
X11156940D01*
Y8293112D01*
X11144244D01*
X11207723Y8356592D02*
X11220419Y8369288D01*
X11245811D01*
X11258507Y8356592D01*
Y8343896D01*
X11245811Y8331200D01*
X11233115D01*
X11245811D01*
X11258507Y8318504D01*
Y8305808D01*
X11245811Y8293112D01*
X11220419D01*
X11207723Y8305808D01*
X11283899Y8369288D02*
Y8318504D01*
X11309291Y8293112D01*
X11334682Y8318504D01*
Y8369288D01*
X9493277Y7772392D02*
X9480581Y7785088D01*
X9455189D01*
X9442493Y7772392D01*
Y7721608D01*
X9455189Y7708912D01*
X9480581D01*
X9493277Y7721608D01*
X9518669Y7708912D02*
X9544060D01*
X9531364D01*
Y7759696D01*
X9518669D01*
X9582148Y7708912D02*
Y7759696D01*
X9620236D01*
X9632931Y7747000D01*
Y7708912D01*
X9658323Y7772392D02*
X9671019Y7785088D01*
X9696411D01*
X9709107Y7772392D01*
Y7759696D01*
X9696411Y7747000D01*
X9683715D01*
X9696411D01*
X9709107Y7734304D01*
Y7721608D01*
X9696411Y7708912D01*
X9671019D01*
X9658323Y7721608D01*
X9964403Y7713959D02*
X9951708Y7726655D01*
X9926316D01*
X9913620Y7713959D01*
Y7663176D01*
X9926316Y7650480D01*
X9951708D01*
X9964403Y7663176D01*
X9989795Y7650480D02*
X10015187D01*
X10002491D01*
Y7701263D01*
X9989795D01*
X10053275Y7650480D02*
Y7701263D01*
X10091363D01*
X10104058Y7688568D01*
Y7650480D01*
X10167538D02*
Y7726655D01*
X10129450Y7688568D01*
X10180234D01*
X11436406Y8242288D02*
Y8166112D01*
X11487189D01*
X11512581Y8229592D02*
X11525277Y8242288D01*
X11550669D01*
X11563364Y8229592D01*
Y8216896D01*
X11550669Y8204200D01*
X11537973D01*
X11550669D01*
X11563364Y8191504D01*
Y8178808D01*
X11550669Y8166112D01*
X11525277D01*
X11512581Y8178808D01*
X11588756Y8166112D02*
Y8178808D01*
X11601452D01*
Y8166112D01*
X11588756D01*
X11652236Y8229592D02*
X11664932Y8242288D01*
X11690324D01*
X11703019Y8229592D01*
Y8216896D01*
X11690324Y8204200D01*
X11677628D01*
X11690324D01*
X11703019Y8191504D01*
Y8178808D01*
X11690324Y8166112D01*
X11664932D01*
X11652236Y8178808D01*
X11728411Y8242288D02*
Y8191504D01*
X11753803Y8166112D01*
X11779195Y8191504D01*
Y8242288D01*
X11620533Y9944088D02*
Y9867912D01*
X11671317D01*
X11747492Y9944088D02*
X11696708D01*
Y9906000D01*
X11722100Y9918696D01*
X11734796D01*
X11747492Y9906000D01*
Y9880608D01*
X11734796Y9867912D01*
X11709404D01*
X11696708Y9880608D01*
X11772884Y9944088D02*
Y9893304D01*
X11798276Y9867912D01*
X11823667Y9893304D01*
Y9944088D01*
X11017318Y7112012D02*
Y7188188D01*
X11055406D01*
X11068101Y7175492D01*
Y7150100D01*
X11055406Y7137404D01*
X11017318D01*
X11042710D02*
X11068101Y7112012D01*
X11093493D02*
Y7162796D01*
X11118885Y7188188D01*
X11144277Y7162796D01*
Y7112012D01*
Y7150100D01*
X11093493D01*
X11169669Y7175492D02*
X11182364Y7188188D01*
X11207756D01*
X11220452Y7175492D01*
Y7162796D01*
X11207756Y7150100D01*
X11195060D01*
X11207756D01*
X11220452Y7137404D01*
Y7124708D01*
X11207756Y7112012D01*
X11182364D01*
X11169669Y7124708D01*
X11245844Y7112012D02*
Y7124708D01*
X11258540D01*
Y7112012D01*
X11245844D01*
X11309323Y7175492D02*
X11322019Y7188188D01*
X11347411D01*
X11360107Y7175492D01*
Y7162796D01*
X11347411Y7150100D01*
X11334715D01*
X11347411D01*
X11360107Y7137404D01*
Y7124708D01*
X11347411Y7112012D01*
X11322019D01*
X11309323Y7124708D01*
X11385499Y7188188D02*
Y7137404D01*
X11410891Y7112012D01*
X11436282Y7137404D01*
Y7188188D01*
X11550718Y7734312D02*
Y7810488D01*
X11588806D01*
X11601501Y7797792D01*
Y7772400D01*
X11588806Y7759704D01*
X11550718D01*
X11576110D02*
X11601501Y7734312D01*
X11626893Y7810488D02*
Y7734312D01*
X11664981D01*
X11677677Y7747008D01*
Y7759704D01*
X11664981Y7772400D01*
X11626893D01*
X11664981D01*
X11677677Y7785096D01*
Y7797792D01*
X11664981Y7810488D01*
X11626893D01*
X11703069Y7797792D02*
X11715764Y7810488D01*
X11741156D01*
X11753852Y7797792D01*
Y7785096D01*
X11741156Y7772400D01*
X11728460D01*
X11741156D01*
X11753852Y7759704D01*
Y7747008D01*
X11741156Y7734312D01*
X11715764D01*
X11703069Y7747008D01*
X11779244Y7734312D02*
Y7747008D01*
X11791940D01*
Y7734312D01*
X11779244D01*
X11842723Y7797792D02*
X11855419Y7810488D01*
X11880811D01*
X11893507Y7797792D01*
Y7785096D01*
X11880811Y7772400D01*
X11868115D01*
X11880811D01*
X11893507Y7759704D01*
Y7747008D01*
X11880811Y7734312D01*
X11855419D01*
X11842723Y7747008D01*
X11918899Y7810488D02*
Y7759704D01*
X11944291Y7734312D01*
X11969682Y7759704D01*
Y7810488D01*
X13830382Y9156712D02*
Y9232888D01*
X13868469D01*
X13881166Y9220192D01*
Y9194800D01*
X13868469Y9182104D01*
X13830382D01*
X13855774D02*
X13881166Y9156712D01*
X13906558Y9232888D02*
Y9156712D01*
X13957341D01*
X13995428D02*
X14020821D01*
X14033517Y9169408D01*
Y9194800D01*
X14020821Y9207496D01*
X13995428D01*
X13982733Y9194800D01*
Y9169408D01*
X13995428Y9156712D01*
X14071603Y9207496D02*
X14096996D01*
X14109692Y9194800D01*
Y9156712D01*
X14071603D01*
X14058908Y9169408D01*
X14071603Y9182104D01*
X14109692D01*
X14185867Y9232888D02*
Y9156712D01*
X14147780D01*
X14135085Y9169408D01*
Y9194800D01*
X14147780Y9207496D01*
X14185867D01*
X14262044Y9232888D02*
X14211259D01*
Y9194800D01*
X14236652Y9207496D01*
X14249347D01*
X14262044Y9194800D01*
Y9169408D01*
X14249347Y9156712D01*
X14223955D01*
X14211259Y9169408D01*
X14287434Y9232888D02*
Y9182104D01*
X14312827Y9156712D01*
X14338219Y9182104D01*
Y9232888D01*
X9937806Y8293088D02*
Y8229608D01*
X9950502Y8216912D01*
X9975893D01*
X9988589Y8229608D01*
Y8293088D01*
X10013981Y8280392D02*
X10026677Y8293088D01*
X10052069D01*
X10064764Y8280392D01*
Y8267696D01*
X10052069Y8255000D01*
X10039373D01*
X10052069D01*
X10064764Y8242304D01*
Y8229608D01*
X10052069Y8216912D01*
X10026677D01*
X10013981Y8229608D01*
X10090156Y8216912D02*
Y8229608D01*
X10102852D01*
Y8216912D01*
X10090156D01*
X10153636Y8280392D02*
X10166332Y8293088D01*
X10191724D01*
X10204419Y8280392D01*
Y8267696D01*
X10191724Y8255000D01*
X10179028D01*
X10191724D01*
X10204419Y8242304D01*
Y8229608D01*
X10191724Y8216912D01*
X10166332D01*
X10153636Y8229608D01*
X10229811Y8293088D02*
Y8242304D01*
X10255203Y8216912D01*
X10280595Y8242304D01*
Y8293088D01*
X10401300Y9842475D02*
Y9778996D01*
X10413996Y9766300D01*
X10439388D01*
X10452083Y9778996D01*
Y9842475D01*
X10528259D02*
X10477475D01*
Y9804388D01*
X10502867Y9817083D01*
X10515563D01*
X10528259Y9804388D01*
Y9778996D01*
X10515563Y9766300D01*
X10490171D01*
X10477475Y9778996D01*
X10553651Y9842475D02*
Y9791692D01*
X10579043Y9766300D01*
X10604434Y9791692D01*
Y9842475D01*
X12763500Y8084820D02*
Y8160995D01*
X12801588D01*
X12814284Y8148299D01*
Y8122908D01*
X12801588Y8110212D01*
X12763500D01*
X12788892D02*
X12814284Y8084820D01*
X12839674Y8160995D02*
Y8084820D01*
X12890459D01*
X12915851Y8148299D02*
X12928548Y8160995D01*
X12953938D01*
X12966634Y8148299D01*
Y8135603D01*
X12953938Y8122908D01*
X12941243D01*
X12953938D01*
X12966634Y8110212D01*
Y8097516D01*
X12953938Y8084820D01*
X12928548D01*
X12915851Y8097516D01*
X12992026Y8084820D02*
Y8097516D01*
X13004723D01*
Y8084820D01*
X12992026D01*
X13055505Y8148299D02*
X13068201Y8160995D01*
X13093593D01*
X13106290Y8148299D01*
Y8135603D01*
X13093593Y8122908D01*
X13080898D01*
X13093593D01*
X13106290Y8110212D01*
Y8097516D01*
X13093593Y8084820D01*
X13068201D01*
X13055505Y8097516D01*
X13131680Y8160995D02*
Y8110212D01*
X13157072Y8084820D01*
X13182465Y8110212D01*
Y8160995D01*
X13207857Y8084820D02*
Y8135603D01*
X13233247Y8160995D01*
X13258640Y8135603D01*
Y8084820D01*
Y8122908D01*
X13207857D01*
X13138229Y6286512D02*
Y6362688D01*
X13176318D01*
X13189014Y6349992D01*
Y6324600D01*
X13176318Y6311904D01*
X13138229D01*
X13163622D02*
X13189014Y6286512D01*
X13214406Y6362688D02*
Y6286512D01*
X13265189D01*
X13290581Y6349992D02*
X13303278Y6362688D01*
X13328670D01*
X13341364Y6349992D01*
Y6337296D01*
X13328670Y6324600D01*
X13315973D01*
X13328670D01*
X13341364Y6311904D01*
Y6299208D01*
X13328670Y6286512D01*
X13303278D01*
X13290581Y6299208D01*
X13366756Y6286512D02*
Y6299208D01*
X13379453D01*
Y6286512D01*
X13366756D01*
X13430235Y6349992D02*
X13442932Y6362688D01*
X13468324D01*
X13481020Y6349992D01*
Y6337296D01*
X13468324Y6324600D01*
X13455627D01*
X13468324D01*
X13481020Y6311904D01*
Y6299208D01*
X13468324Y6286512D01*
X13442932D01*
X13430235Y6299208D01*
X13506412Y6362688D02*
Y6311904D01*
X13531802Y6286512D01*
X13557195Y6311904D01*
Y6362688D01*
X13582587D02*
Y6286512D01*
X13620674D01*
X13633369Y6299208D01*
Y6311904D01*
X13620674Y6324600D01*
X13582587D01*
X13620674D01*
X13633369Y6337296D01*
Y6349992D01*
X13620674Y6362688D01*
X13582587D01*
X7778777Y10744188D02*
X7753385D01*
X7766081D01*
Y10680708D01*
X7753385Y10668012D01*
X7740689D01*
X7727993Y10680708D01*
X7804169Y10668012D02*
X7829560D01*
X7816864D01*
Y10744188D01*
X7804169Y10731492D01*
X7918431Y10668012D02*
X7867648D01*
X7918431Y10718796D01*
Y10731492D01*
X7905736Y10744188D01*
X7880344D01*
X7867648Y10731492D01*
X7943823Y10744188D02*
Y10693404D01*
X7969215Y10668012D01*
X7994607Y10693404D01*
Y10744188D01*
%TF.MD5,b1425eb38fbe32655b23f8e402bde847*%
M02*
