M48
; DRILL file {KiCad 9.0.7} date 2026-03-03T11:19:41-0600
; FORMAT={-:-/ absolute / metric / decimal}
; #@! TF.CreationDate,2026-03-03T11:19:41-06:00
; #@! TF.GenerationSoftware,Kicad,Pcbnew,9.0.7
; #@! TF.FileFunction,Plated,1,2,PTH
FMAT,2
METRIC
; #@! TA.AperFunction,Plated,PTH,ViaDrill
T1C0.300
; #@! TA.AperFunction,Plated,PTH,ComponentDrill
T2C0.800
; #@! TA.AperFunction,Plated,PTH,ComponentDrill
T3C1.000
; #@! TA.AperFunction,Plated,PTH,ComponentDrill
T4C1.200
; #@! TA.AperFunction,Plated,PTH,ComponentDrill
T5C1.300
%
G90
G05
T1
X79.822Y-68.006
X80.137Y-80.772
X94.045Y-50.8
X96.963Y-81.915
X98.995Y-53.34
X98.995Y-54.61
X102.87Y-69.85
X105.41Y-68.58
X116.027Y-85.141
X120.015Y-71.12
X121.361Y-45.415
X121.666Y-86.462
X121.858Y-69.784
X121.92Y-88.494
X125.73Y-86.995
X126.746Y-46.736
X127.0Y-86.995
X127.508Y-43.434
X128.778Y-50.165
X130.429Y-48.133
X131.318Y-98.806
X133.604Y-47.752
X138.43Y-63.5
X138.811Y-88.836
X141.605Y-59.69
X141.782Y-79.833
X144.78Y-79.375
X144.78Y-81.026
X146.685Y-83.82
X147.32Y-63.5
X147.574Y-62.23
X150.622Y-79.883
X150.749Y-61.66
X156.275Y-73.025
X160.909Y-78.74
X162.052Y-42.672
X172.466Y-64.008
X174.498Y-65.151
X175.387Y-43.688
X176.276Y-49.407
X176.276Y-46.482
X185.674Y-58.801
X185.99Y-38.862
X192.405Y-38.38
X192.405Y-50.292
X194.945Y-38.38
X200.279Y-50.546
X202.565Y-55.88
X203.835Y-55.88
X205.105Y-55.88
X207.016Y-54.617
X207.645Y-38.38
T2
X65.757Y-67.371
X65.757Y-77.502
X67.757Y-67.371
X67.757Y-77.502
X69.85Y-89.408
X71.85Y-89.408
X88.077Y-71.181
X88.17Y-43.18
X88.392Y-83.312
X90.077Y-71.181
X90.17Y-43.18
X90.392Y-83.312
X95.885Y-45.74
X95.885Y-48.24
X96.774Y-66.294
X99.274Y-66.294
X101.6Y-43.18
X101.64Y-48.26
X103.6Y-43.18
X104.14Y-48.26
X109.22Y-42.545
X109.22Y-47.545
X109.22Y-83.86
X109.22Y-88.86
X114.046Y-61.722
X114.3Y-57.15
X116.3Y-57.15
X116.546Y-61.722
X117.856Y-38.862
X117.856Y-40.862
X118.994Y-95.148
X121.494Y-95.148
X122.174Y-39.497
X124.674Y-39.497
X128.27Y-93.116
X130.175Y-58.46
X130.175Y-63.46
X130.175Y-67.39
X130.175Y-72.39
X130.27Y-93.116
X139.7Y-67.31
X142.2Y-67.31
X145.32Y-69.85
X147.32Y-69.85
X153.67Y-64.77
X153.67Y-66.77
X159.385Y-66.675
X161.885Y-66.675
X204.724Y-33.274
X205.232Y-58.928
X205.74Y-63.5
X207.224Y-33.274
X207.732Y-58.928
X207.74Y-63.5
T3
X145.288Y-38.608
X147.828Y-38.608
X150.368Y-38.608
X152.908Y-38.608
X155.448Y-38.608
X156.568Y-83.058
X156.568Y-87.558
X157.988Y-38.608
X160.528Y-38.608
X163.068Y-38.608
X163.068Y-83.058
X163.068Y-87.558
X165.608Y-38.608
X168.148Y-38.608
X170.688Y-38.608
X170.792Y-83.013
X170.792Y-87.513
X173.228Y-38.608
X175.768Y-38.608
X177.292Y-83.013
X177.292Y-87.513
X178.308Y-38.608
X180.848Y-38.608
X182.88Y-62.484
X185.42Y-62.484
X187.96Y-62.484
X190.5Y-62.484
X193.04Y-62.484
X195.58Y-62.484
X198.12Y-62.484
X200.66Y-62.484
T4
X80.772Y-35.934
X80.772Y-50.934
X194.564Y-78.479
X194.564Y-93.479
T5
X206.248Y-70.358
X206.248Y-72.898
X206.248Y-79.883
X206.248Y-82.423
X206.248Y-89.408
X206.248Y-91.948
X206.248Y-98.933
X206.248Y-101.473
T2
X60.786Y-40.544G85X60.786Y-41.244
G05
X63.092Y-97.36G85X63.092Y-99.56
G05
X66.136Y-35.894G85X65.436Y-35.894
G05
X66.136Y-45.894G85X65.436Y-45.894
G05
X64.792Y-103.26G85X66.992Y-103.26
G05
X68.892Y-97.36G85X68.892Y-99.56
G05
M30
