%TF.GenerationSoftware,KiCad,Pcbnew,9.0.7*%
%TF.CreationDate,2026-03-03T11:19:44-06:00*%
%TF.ProjectId,aio_pcb,61696f5f-7063-4622-9e6b-696361645f70,0*%
%TF.SameCoordinates,Original*%
%TF.FileFunction,Legend,Bot*%
%TF.FilePolarity,Positive*%
%FSLAX46Y46*%
G04 Gerber Fmt 4.6, Leading zero omitted, Abs format (unit mm)*
G04 Created by KiCad (PCBNEW 9.0.7) date 2026-03-03 11:19:44*
%MOMM*%
%LPD*%
G01*
G04 APERTURE LIST*
G04 Aperture macros list*
%AMRoundRect*
0 Rectangle with rounded corners*
0 $1 Rounding radius*
0 $2 $3 $4 $5 $6 $7 $8 $9 X,Y pos of 4 corners*
0 Add a 4 corners polygon primitive as box body*
4,1,4,$2,$3,$4,$5,$6,$7,$8,$9,$2,$3,0*
0 Add four circle primitives for the rounded corners*
1,1,$1+$1,$2,$3*
1,1,$1+$1,$4,$5*
1,1,$1+$1,$6,$7*
1,1,$1+$1,$8,$9*
0 Add four rect primitives between the rounded corners*
20,1,$1+$1,$2,$3,$4,$5,0*
20,1,$1+$1,$4,$5,$6,$7,0*
20,1,$1+$1,$6,$7,$8,$9,0*
20,1,$1+$1,$8,$9,$2,$3,0*%
G04 Aperture macros list end*
%ADD10RoundRect,0.250000X-0.550000X-0.550000X0.550000X-0.550000X0.550000X0.550000X-0.550000X0.550000X0*%
%ADD11C,1.600000*%
%ADD12RoundRect,0.102000X0.754000X0.754000X-0.754000X0.754000X-0.754000X-0.754000X0.754000X-0.754000X0*%
%ADD13C,1.712000*%
%ADD14RoundRect,0.250000X0.550000X0.550000X-0.550000X0.550000X-0.550000X-0.550000X0.550000X-0.550000X0*%
%ADD15C,2.154000*%
%ADD16R,1.700000X1.700000*%
%ADD17C,1.700000*%
%ADD18RoundRect,0.250000X0.550000X-0.550000X0.550000X0.550000X-0.550000X0.550000X-0.550000X-0.550000X0*%
%ADD19O,2.204000X4.204000*%
%ADD20O,4.204000X2.204000*%
%ADD21C,2.400000*%
%ADD22C,1.200000*%
%ADD23O,1.512000X2.820000*%
%ADD24O,2.820000X1.512000*%
G04 APERTURE END LIST*
%LPC*%
D10*
%TO.C,C21*%
X145320000Y-69850000D03*
D11*
X147320000Y-69850000D03*
%TD*%
D12*
%TO.C,S1*%
X163068000Y-87558000D03*
D13*
X156568000Y-87558000D03*
X163068000Y-83058000D03*
X156568000Y-83058000D03*
%TD*%
D14*
%TO.C,C24*%
X67757000Y-77502000D03*
D11*
X65757000Y-77502000D03*
%TD*%
D10*
%TO.C,C23*%
X69850000Y-89408000D03*
D11*
X71850000Y-89408000D03*
%TD*%
D15*
%TO.C,J33V1*%
X206248000Y-89408000D03*
X206248000Y-91948000D03*
%TD*%
D11*
%TO.C,C18*%
X121493600Y-95148400D03*
X118993600Y-95148400D03*
%TD*%
%TO.C,C16*%
X207224000Y-33274000D03*
X204724000Y-33274000D03*
%TD*%
D16*
%TO.C,J5*%
X182880000Y-62484000D03*
D17*
X185420000Y-62484000D03*
X187960000Y-62484000D03*
X190500000Y-62484000D03*
X193040000Y-62484000D03*
X195580000Y-62484000D03*
X198120000Y-62484000D03*
X200660000Y-62484000D03*
%TD*%
D11*
%TO.C,C38*%
X161885000Y-66675000D03*
X159385000Y-66675000D03*
%TD*%
%TO.C,C9*%
X95885000Y-48240000D03*
X95885000Y-45740000D03*
%TD*%
D18*
%TO.C,C37*%
X153670000Y-66770000D03*
D11*
X153670000Y-64770000D03*
%TD*%
D12*
%TO.C,S2*%
X177292000Y-87512500D03*
D13*
X170792000Y-87512500D03*
X177292000Y-83012500D03*
X170792000Y-83012500D03*
%TD*%
D11*
%TO.C,C15*%
X205232000Y-58928000D03*
X207732000Y-58928000D03*
%TD*%
D10*
%TO.C,C28*%
X88392000Y-83312000D03*
D11*
X90392000Y-83312000D03*
%TD*%
%TO.C,C22*%
X139700000Y-67310000D03*
X142200000Y-67310000D03*
%TD*%
D18*
%TO.C,C19*%
X117856000Y-40862000D03*
D11*
X117856000Y-38862000D03*
%TD*%
%TO.C,C6*%
X104140000Y-48260000D03*
X101640000Y-48260000D03*
%TD*%
D19*
%TO.C,J7*%
X68892000Y-98460000D03*
X63092000Y-98460000D03*
D20*
X65892000Y-103260000D03*
%TD*%
D15*
%TO.C,JAUDIO1*%
X206248000Y-70358000D03*
X206248000Y-72898000D03*
%TD*%
D11*
%TO.C,C4*%
X96774000Y-66294000D03*
X99274000Y-66294000D03*
%TD*%
%TO.C,C8*%
X116546000Y-61722000D03*
X114046000Y-61722000D03*
%TD*%
D21*
%TO.C,C13*%
X194564000Y-93479000D03*
X194564000Y-78479000D03*
%TD*%
D11*
%TO.C,C2*%
X109220000Y-88860000D03*
X109220000Y-83860000D03*
%TD*%
%TO.C,C20*%
X122174000Y-39497000D03*
X124674000Y-39497000D03*
%TD*%
%TO.C,C12*%
X130175000Y-72390000D03*
X130175000Y-67390000D03*
%TD*%
D10*
%TO.C,C7*%
X114300000Y-57150000D03*
D11*
X116300000Y-57150000D03*
%TD*%
D16*
%TO.C,J2*%
X145288000Y-38608000D03*
D17*
X147828000Y-38608000D03*
X150368000Y-38608000D03*
X152908000Y-38608000D03*
X155448000Y-38608000D03*
X157988000Y-38608000D03*
X160528000Y-38608000D03*
X163068000Y-38608000D03*
X165608000Y-38608000D03*
X168148000Y-38608000D03*
X170688000Y-38608000D03*
X173228000Y-38608000D03*
X175768000Y-38608000D03*
X178308000Y-38608000D03*
X180848000Y-38608000D03*
%TD*%
D11*
%TO.C,C3*%
X109220000Y-42545000D03*
X109220000Y-47545000D03*
%TD*%
%TO.C,C11*%
X130175000Y-58460000D03*
X130175000Y-63460000D03*
%TD*%
D21*
%TO.C,C1*%
X80772000Y-35934000D03*
X80772000Y-50934000D03*
%TD*%
D22*
%TO.C,J1*%
X60786000Y-35894000D03*
X58286000Y-35894000D03*
X65786000Y-40894000D03*
X60786000Y-45894000D03*
X58286000Y-45894000D03*
D23*
X60786000Y-40894000D03*
D24*
X65786000Y-45894000D03*
X65786000Y-35894000D03*
%TD*%
D14*
%TO.C,C10*%
X90170000Y-43180000D03*
D11*
X88170000Y-43180000D03*
%TD*%
D15*
%TO.C,J4*%
X206248000Y-98933000D03*
X206248000Y-101473000D03*
%TD*%
D14*
%TO.C,C29*%
X67757000Y-67371000D03*
D11*
X65757000Y-67371000D03*
%TD*%
D10*
%TO.C,C17*%
X128270000Y-93116400D03*
D11*
X130270000Y-93116400D03*
%TD*%
D10*
%TO.C,C33*%
X88077000Y-71181000D03*
D11*
X90077000Y-71181000D03*
%TD*%
D10*
%TO.C,C14*%
X205740000Y-63500000D03*
D11*
X207740000Y-63500000D03*
%TD*%
D10*
%TO.C,C5*%
X101600000Y-43180000D03*
D11*
X103600000Y-43180000D03*
%TD*%
D15*
%TO.C,J5V1*%
X206248000Y-79883000D03*
X206248000Y-82423000D03*
%TD*%
%LPD*%
M02*
