M48
; DRILL file {KiCad 9.0.5} date 2025-10-29T12:04:37-0500
; FORMAT={-:-/ absolute / inch / decimal}
; #@! TF.CreationDate,2025-10-29T12:04:37-05:00
; #@! TF.GenerationSoftware,Kicad,Pcbnew,9.0.5
; #@! TF.FileFunction,Plated,1,2,PTH
FMAT,2
INCH
; #@! TA.AperFunction,Plated,PTH,ViaDrill
T1C0.0118
; #@! TA.AperFunction,Plated,PTH,ComponentDrill
T2C0.0315
; #@! TA.AperFunction,Plated,PTH,ComponentDrill
T3C0.0472
; #@! TA.AperFunction,Plated,PTH,ComponentDrill
T4C0.0512
; #@! TA.AperFunction,Plated,PTH,ComponentDrill
T5C0.0669
; #@! TA.AperFunction,Plated,PTH,ComponentDrill
T6C0.1024
%
G90
G05
T1
X5.4173Y-4.0787
X5.4173Y-4.189
X5.775Y-4.175
X5.775Y-4.275
X5.95Y-4.0
X5.95Y-4.1
X5.95Y-4.2
X5.95Y-4.3
X5.95Y-4.4
X6.0Y-4.0
X6.0Y-4.1
X6.0Y-4.2
X6.0Y-4.3
X6.0Y-4.4
X6.05Y-4.0
X6.05Y-4.1
X6.05Y-4.2
X6.05Y-4.3
X6.05Y-4.4
X6.2126Y-4.189
X6.213Y-4.112
X6.2362Y-4.2835
X6.2677Y-4.0472
X6.3543Y-4.0787
X6.48Y-3.95
X6.54Y-4.18
T2
X6.04Y-4.52
X6.04Y-4.5987
X6.16Y-3.7713
X6.16Y-3.85
T3
X5.2992Y-4.0551
X5.2992Y-4.6457
X5.5276Y-4.0551
X5.5276Y-4.6457
T4
X7.0Y-3.9016
X7.0Y-4.0984
X7.0Y-4.4016
X7.0Y-4.5984
T5
X5.47Y-3.8743
T6
X5.2731Y-3.8743
X5.47Y-3.6971
X5.6669Y-3.8743
M30
