M48
; DRILL file {KiCad 9.0.7} date 2026-02-17T15:14:51-0600
; FORMAT={-:-/ absolute / metric / decimal}
; #@! TF.CreationDate,2026-02-17T15:14:51-06:00
; #@! TF.GenerationSoftware,Kicad,Pcbnew,9.0.7
; #@! TF.FileFunction,Plated,1,2,PTH
FMAT,2
METRIC
; #@! TA.AperFunction,Plated,PTH,ViaDrill
T1C0.300
; #@! TA.AperFunction,Plated,PTH,ComponentDrill
T2C0.800
; #@! TA.AperFunction,Plated,PTH,ComponentDrill
T3C1.000
; #@! TA.AperFunction,Plated,PTH,ComponentDrill
T4C1.200
; #@! TA.AperFunction,Plated,PTH,ComponentDrill
T5C1.300
%
G90
G05
T1
X79.822Y-68.006
X80.137Y-80.772
X94.045Y-50.8
X96.963Y-81.915
X98.995Y-53.34
X98.995Y-54.61
X102.87Y-69.85
X105.41Y-68.58
X121.858Y-69.784
X161.29Y-45.72
X162.052Y-42.672
X176.276Y-49.407
X176.276Y-46.482
X185.99Y-38.862
X192.405Y-38.38
X192.405Y-50.292
X202.565Y-55.88
X203.835Y-55.88
X205.105Y-55.88
X207.016Y-54.617
X207.645Y-38.38
T2
X65.757Y-67.371
X65.757Y-77.502
X67.757Y-67.371
X67.757Y-77.502
X69.85Y-89.408
X71.85Y-89.408
X88.077Y-71.181
X88.17Y-43.18
X88.392Y-83.312
X90.077Y-71.181
X90.17Y-43.18
X90.392Y-83.312
X95.885Y-45.74
X95.885Y-48.24
X96.774Y-66.294
X99.274Y-66.294
X101.6Y-43.18
X101.64Y-48.26
X103.6Y-43.18
X104.14Y-48.26
X109.22Y-42.545
X109.22Y-47.545
X109.22Y-83.86
X109.22Y-88.86
X114.046Y-61.722
X114.3Y-57.15
X116.3Y-57.15
X116.546Y-61.722
X116.84Y-92.456
X116.84Y-94.456
X122.936Y-92.222
X122.936Y-94.722
X126.365Y-39.37
X126.365Y-41.91
X126.365Y-44.45
X126.365Y-46.99
X126.365Y-84.455
X126.365Y-86.995
X126.365Y-89.535
X126.365Y-92.075
X127.04Y-53.34
X129.54Y-53.34
X130.175Y-58.5
X130.175Y-63.5
X130.175Y-73.74
X130.175Y-78.74
X133.985Y-39.37
X133.985Y-41.91
X133.985Y-44.45
X133.985Y-46.99
X133.985Y-84.455
X133.985Y-86.995
X133.985Y-89.535
X133.985Y-92.075
X134.62Y-53.34
X134.62Y-55.34
X139.7Y-60.96
X139.7Y-63.5
X139.7Y-66.04
X139.7Y-68.58
X141.605Y-72.39
X141.605Y-74.89
X146.685Y-72.35
X146.685Y-74.35
X147.32Y-60.96
X147.32Y-63.5
X147.32Y-66.04
X147.32Y-68.58
X204.724Y-33.274
X205.232Y-58.928
X205.74Y-63.5
X207.224Y-33.274
X207.732Y-58.928
X207.74Y-63.5
T3
X145.288Y-38.608
X147.828Y-38.608
X150.368Y-38.608
X152.908Y-38.608
X155.425Y-74.975
X155.425Y-79.475
X155.448Y-38.608
X157.988Y-38.608
X160.528Y-38.608
X161.925Y-74.975
X161.925Y-79.475
X163.068Y-38.608
X165.608Y-38.608
X168.148Y-38.608
X169.649Y-74.929
X169.649Y-79.429
X170.688Y-38.608
X173.228Y-38.608
X175.768Y-38.608
X176.149Y-74.929
X176.149Y-79.429
X178.308Y-38.608
X180.848Y-38.608
X182.88Y-62.484
X185.42Y-62.484
X187.96Y-62.484
X190.5Y-62.484
X193.04Y-62.484
X195.58Y-62.484
X198.12Y-62.484
X200.66Y-62.484
T4
X80.772Y-35.934
X80.772Y-50.934
X189.738Y-74.034
X189.738Y-89.034
T5
X206.248Y-70.358
X206.248Y-72.898
X206.248Y-79.883
X206.248Y-82.423
X206.248Y-89.408
X206.248Y-91.948
X206.248Y-98.933
X206.248Y-101.473
T2
X60.786Y-40.544G85X60.786Y-41.244
G05
X63.092Y-97.36G85X63.092Y-99.56
G05
X66.136Y-35.894G85X65.436Y-35.894
G05
X66.136Y-45.894G85X65.436Y-45.894
G05
X64.792Y-103.26G85X66.992Y-103.26
G05
X68.892Y-97.36G85X68.892Y-99.56
G05
M30
