%TF.GenerationSoftware,KiCad,Pcbnew,9.0.5*%
%TF.CreationDate,2025-10-20T10:38:03-05:00*%
%TF.ProjectId,preamp_better,70726561-6d70-45f6-9265-747465722e6b,0*%
%TF.SameCoordinates,Original*%
%TF.FileFunction,Copper,L2,Bot*%
%TF.FilePolarity,Positive*%
%FSLAX46Y46*%
G04 Gerber Fmt 4.6, Leading zero omitted, Abs format (unit mm)*
G04 Created by KiCad (PCBNEW 9.0.5) date 2025-10-20 10:38:03*
%MOMM*%
%LPD*%
G01*
G04 APERTURE LIST*
G04 Aperture macros list*
%AMRoundRect*
0 Rectangle with rounded corners*
0 $1 Rounding radius*
0 $2 $3 $4 $5 $6 $7 $8 $9 X,Y pos of 4 corners*
0 Add a 4 corners polygon primitive as box body*
4,1,4,$2,$3,$4,$5,$6,$7,$8,$9,$2,$3,0*
0 Add four circle primitives for the rounded corners*
1,1,$1+$1,$2,$3*
1,1,$1+$1,$4,$5*
1,1,$1+$1,$6,$7*
1,1,$1+$1,$8,$9*
0 Add four rect primitives between the rounded corners*
20,1,$1+$1,$2,$3,$4,$5,0*
20,1,$1+$1,$4,$5,$6,$7,0*
20,1,$1+$1,$6,$7,$8,$9,0*
20,1,$1+$1,$8,$9,$2,$3,0*%
G04 Aperture macros list end*
%TA.AperFunction,ComponentPad*%
%ADD10C,1.600000*%
%TD*%
%TA.AperFunction,ComponentPad*%
%ADD11RoundRect,0.250000X0.550000X0.550000X-0.550000X0.550000X-0.550000X-0.550000X0.550000X-0.550000X0*%
%TD*%
%TA.AperFunction,ComponentPad*%
%ADD12C,1.950000*%
%TD*%
%TA.AperFunction,ComponentPad*%
%ADD13C,2.400000*%
%TD*%
%TA.AperFunction,ComponentPad*%
%ADD14O,1.200000X2.200000*%
%TD*%
%TA.AperFunction,ComponentPad*%
%ADD15O,2.200000X1.200000*%
%TD*%
%TA.AperFunction,ComponentPad*%
%ADD16R,3.000000X3.000000*%
%TD*%
%TA.AperFunction,ComponentPad*%
%ADD17C,3.000000*%
%TD*%
%TA.AperFunction,ComponentPad*%
%ADD18RoundRect,0.250000X-0.550000X-0.550000X0.550000X-0.550000X0.550000X0.550000X-0.550000X0.550000X0*%
%TD*%
%TA.AperFunction,ViaPad*%
%ADD19C,0.600000*%
%TD*%
%TA.AperFunction,Conductor*%
%ADD20C,0.400000*%
%TD*%
G04 APERTURE END LIST*
D10*
%TO.P,C9,1*%
%TO.N,Net-(U1B-+)*%
X92730000Y-102235000D03*
%TO.P,C9,2*%
%TO.N,GND*%
X95230000Y-102235000D03*
%TD*%
%TO.P,C6,1*%
%TO.N,GND*%
X92710000Y-92075000D03*
%TO.P,C6,2*%
%TO.N,+12V*%
X95210000Y-92075000D03*
%TD*%
%TO.P,C2,1*%
%TO.N,Net-(C2-Pad1)*%
X70000000Y-105000000D03*
%TO.P,C2,2*%
%TO.N,Net-(C2-Pad2)*%
X70000000Y-100000000D03*
%TD*%
D11*
%TO.P,C7,1*%
%TO.N,+12V*%
X95250000Y-51435000D03*
D10*
%TO.P,C7,2*%
%TO.N,GND*%
X93250000Y-51435000D03*
%TD*%
D12*
%TO.P,J2,1,Pin_1*%
%TO.N,+12V*%
X129286000Y-69088000D03*
%TO.P,J2,2,Pin_2*%
%TO.N,GND*%
X129286000Y-74088000D03*
%TD*%
D13*
%TO.P,C13,1*%
%TO.N,Net-(C13-Pad1)*%
X113030000Y-62745000D03*
%TO.P,C13,2*%
%TO.N,Net-(C13-Pad2)*%
X113030000Y-47745000D03*
%TD*%
D10*
%TO.P,C3,1*%
%TO.N,Net-(C3-Pad1)*%
X70000000Y-55000000D03*
%TO.P,C3,2*%
%TO.N,Net-(C3-Pad2)*%
X70000000Y-50000000D03*
%TD*%
%TO.P,C12,1*%
%TO.N,Net-(U2B--)*%
X78740000Y-79970000D03*
%TO.P,C12,2*%
%TO.N,Net-(C12-Pad2)*%
X78740000Y-74970000D03*
%TD*%
%TO.P,C8,1*%
%TO.N,GND*%
X92730000Y-57150000D03*
%TO.P,C8,2*%
%TO.N,+12V*%
X95230000Y-57150000D03*
%TD*%
D14*
%TO.P,J3,R*%
%TO.N,Net-(J3-PadR)*%
X130810000Y-52585000D03*
D15*
%TO.P,J3,S*%
%TO.N,GND*%
X125810000Y-47585000D03*
D14*
%TO.P,J3,T*%
%TO.N,Net-(J3-PadR)*%
X120810000Y-52585000D03*
%TD*%
D10*
%TO.P,C11,1*%
%TO.N,Net-(C11-Pad1)*%
X70000000Y-80000000D03*
%TO.P,C11,2*%
%TO.N,Net-(C11-Pad2)*%
X70000000Y-75000000D03*
%TD*%
D16*
%TO.P,RV2,1,1*%
%TO.N,Net-(C2-Pad2)*%
X57150000Y-97950000D03*
D17*
%TO.P,RV2,2,2*%
%TO.N,Net-(R5-Pad1)*%
X57150000Y-102950000D03*
%TO.P,RV2,3,3*%
%TO.N,Net-(C2-Pad1)*%
X57150000Y-107950000D03*
%TD*%
D13*
%TO.P,C1,1*%
%TO.N,Net-(C1-Pad1)*%
X113030000Y-92195000D03*
%TO.P,C1,2*%
%TO.N,Net-(U1A-+)*%
X113030000Y-107195000D03*
%TD*%
D14*
%TO.P,J1,R*%
%TO.N,Net-(J1-PadR)*%
X120810000Y-102315000D03*
D15*
%TO.P,J1,S*%
%TO.N,GND*%
X125810000Y-107315000D03*
D14*
%TO.P,J1,T*%
%TO.N,Net-(J1-PadT)*%
X130810000Y-102315000D03*
%TD*%
D10*
%TO.P,C4,1*%
%TO.N,Net-(C4-Pad1)*%
X84000000Y-61000000D03*
%TO.P,C4,2*%
%TO.N,Net-(U2A--)*%
X84000000Y-63500000D03*
%TD*%
D18*
%TO.P,C10,1*%
%TO.N,Net-(U1B-+)*%
X93250000Y-107950000D03*
D10*
%TO.P,C10,2*%
%TO.N,GND*%
X95250000Y-107950000D03*
%TD*%
D16*
%TO.P,RV1,1,1*%
%TO.N,Net-(R4-Pad2)*%
X57150000Y-47150000D03*
D17*
%TO.P,RV1,2,2*%
%TO.N,Net-(C3-Pad1)*%
X57150000Y-52150000D03*
%TO.P,RV1,3,3*%
%TO.N,Net-(R8-Pad1)*%
X57150000Y-57150000D03*
%TD*%
D16*
%TO.P,RV3,1,1*%
%TO.N,Net-(C11-Pad2)*%
X57150000Y-72550000D03*
D17*
%TO.P,RV3,2,2*%
%TO.N,Net-(C12-Pad2)*%
X57150000Y-77550000D03*
%TO.P,RV3,3,3*%
%TO.N,Net-(C11-Pad1)*%
X57150000Y-82550000D03*
%TD*%
D18*
%TO.P,C5,1*%
%TO.N,+12V*%
X93250000Y-86360000D03*
D10*
%TO.P,C5,2*%
%TO.N,GND*%
X95250000Y-86360000D03*
%TD*%
D19*
%TO.N,Net-(U1A-+)*%
X93345000Y-97155000D03*
X101600000Y-102235000D03*
%TO.N,Net-(C4-Pad1)*%
X77470000Y-59690000D03*
%TO.N,GND*%
X130000000Y-63000000D03*
X89535000Y-64135000D03*
%TO.N,Net-(C11-Pad2)*%
X72390000Y-74930000D03*
X78740000Y-72390000D03*
%TO.N,Net-(C12-Pad2)*%
X63500000Y-77470000D03*
%TO.N,Net-(C13-Pad1)*%
X94615000Y-61595000D03*
X94615000Y-66675000D03*
%TO.N,Net-(R5-Pad1)*%
X77470000Y-100330000D03*
X80010000Y-97790000D03*
X83820000Y-78740000D03*
X83820000Y-81280000D03*
%TO.N,Net-(U1B--)*%
X98425000Y-64135000D03*
X89535000Y-62865000D03*
X98425000Y-95885000D03*
%TD*%
D20*
%TO.N,Net-(U1A-+)*%
X98425000Y-102235000D02*
X101600000Y-102235000D01*
X93345000Y-97155000D02*
X98425000Y-102235000D01*
%TO.N,Net-(C4-Pad1)*%
X77470000Y-59690000D02*
X78780000Y-61000000D01*
X78780000Y-61000000D02*
X84000000Y-61000000D01*
%TO.N,Net-(C11-Pad2)*%
X74930000Y-72390000D02*
X78740000Y-72390000D01*
X72390000Y-74930000D02*
X74930000Y-72390000D01*
%TO.N,Net-(C12-Pad2)*%
X63500000Y-77470000D02*
X76240000Y-77470000D01*
X76240000Y-77470000D02*
X78740000Y-74970000D01*
%TO.N,Net-(C13-Pad1)*%
X94615000Y-61595000D02*
X94615000Y-66675000D01*
%TO.N,Net-(R5-Pad1)*%
X83820000Y-81280000D02*
X83820000Y-78740000D01*
X77470000Y-100330000D02*
X80010000Y-97790000D01*
%TO.N,Net-(U1B--)*%
X95885000Y-60325000D02*
X92075000Y-60325000D01*
X98425000Y-64135000D02*
X98425000Y-62865000D01*
X98425000Y-62865000D02*
X95885000Y-60325000D01*
X98425000Y-64135000D02*
X98425000Y-95885000D01*
X92075000Y-60325000D02*
X89535000Y-62865000D01*
%TD*%
%TA.AperFunction,Conductor*%
%TO.N,GND*%
G36*
X134062539Y-43700185D02*
G01*
X134108294Y-43752989D01*
X134119500Y-43804500D01*
X134119500Y-111135500D01*
X134099815Y-111202539D01*
X134047011Y-111248294D01*
X133995500Y-111259500D01*
X53964500Y-111259500D01*
X53897461Y-111239815D01*
X53851706Y-111187011D01*
X53840500Y-111135500D01*
X53840500Y-107818872D01*
X55149500Y-107818872D01*
X55149500Y-108081127D01*
X55172498Y-108255804D01*
X55183730Y-108341116D01*
X55239705Y-108550018D01*
X55251602Y-108594418D01*
X55251605Y-108594428D01*
X55351953Y-108836690D01*
X55351958Y-108836700D01*
X55483075Y-109063803D01*
X55642718Y-109271851D01*
X55642726Y-109271860D01*
X55828140Y-109457274D01*
X55828148Y-109457281D01*
X56036196Y-109616924D01*
X56263299Y-109748041D01*
X56263309Y-109748046D01*
X56505571Y-109848394D01*
X56505581Y-109848398D01*
X56758884Y-109916270D01*
X57018880Y-109950500D01*
X57018887Y-109950500D01*
X57281113Y-109950500D01*
X57281120Y-109950500D01*
X57541116Y-109916270D01*
X57794419Y-109848398D01*
X58036697Y-109748043D01*
X58065821Y-109731228D01*
X119959500Y-109731228D01*
X119959500Y-109898771D01*
X119992182Y-110063074D01*
X119992184Y-110063082D01*
X120056295Y-110217860D01*
X120149373Y-110357162D01*
X120267837Y-110475626D01*
X120360494Y-110537537D01*
X120407137Y-110568703D01*
X120561918Y-110632816D01*
X120726228Y-110665499D01*
X120726232Y-110665500D01*
X120726233Y-110665500D01*
X120893768Y-110665500D01*
X120893769Y-110665499D01*
X121058082Y-110632816D01*
X121212863Y-110568703D01*
X121352162Y-110475626D01*
X121470626Y-110357162D01*
X121563703Y-110217863D01*
X121627816Y-110063082D01*
X121660500Y-109898767D01*
X121660500Y-109731233D01*
X121660499Y-109731228D01*
X129959500Y-109731228D01*
X129959500Y-109898771D01*
X129992182Y-110063074D01*
X129992184Y-110063082D01*
X130056295Y-110217860D01*
X130149373Y-110357162D01*
X130267837Y-110475626D01*
X130360494Y-110537537D01*
X130407137Y-110568703D01*
X130561918Y-110632816D01*
X130726228Y-110665499D01*
X130726232Y-110665500D01*
X130726233Y-110665500D01*
X130893768Y-110665500D01*
X130893769Y-110665499D01*
X131058082Y-110632816D01*
X131212863Y-110568703D01*
X131352162Y-110475626D01*
X131470626Y-110357162D01*
X131563703Y-110217863D01*
X131627816Y-110063082D01*
X131660500Y-109898767D01*
X131660500Y-109731233D01*
X131627816Y-109566918D01*
X131563703Y-109412137D01*
X131532537Y-109365494D01*
X131470626Y-109272837D01*
X131352162Y-109154373D01*
X131212860Y-109061295D01*
X131058082Y-108997184D01*
X131058074Y-108997182D01*
X130893771Y-108964500D01*
X130893767Y-108964500D01*
X130726233Y-108964500D01*
X130726228Y-108964500D01*
X130561925Y-108997182D01*
X130561917Y-108997184D01*
X130407139Y-109061295D01*
X130267837Y-109154373D01*
X130149373Y-109272837D01*
X130056295Y-109412139D01*
X129992184Y-109566917D01*
X129992182Y-109566925D01*
X129959500Y-109731228D01*
X121660499Y-109731228D01*
X121627816Y-109566918D01*
X121563703Y-109412137D01*
X121532537Y-109365494D01*
X121470626Y-109272837D01*
X121352162Y-109154373D01*
X121212860Y-109061295D01*
X121058082Y-108997184D01*
X121058074Y-108997182D01*
X120893771Y-108964500D01*
X120893767Y-108964500D01*
X120726233Y-108964500D01*
X120726228Y-108964500D01*
X120561925Y-108997182D01*
X120561917Y-108997184D01*
X120407139Y-109061295D01*
X120267837Y-109154373D01*
X120149373Y-109272837D01*
X120056295Y-109412139D01*
X119992184Y-109566917D01*
X119992182Y-109566925D01*
X119959500Y-109731228D01*
X58065821Y-109731228D01*
X58134212Y-109691742D01*
X58262366Y-109617754D01*
X58262367Y-109617753D01*
X58263803Y-109616924D01*
X58471851Y-109457282D01*
X58471855Y-109457277D01*
X58471860Y-109457274D01*
X58657274Y-109271860D01*
X58657277Y-109271855D01*
X58657282Y-109271851D01*
X58816924Y-109063803D01*
X58948043Y-108836697D01*
X59048398Y-108594419D01*
X59116270Y-108341116D01*
X59150500Y-108081120D01*
X59150500Y-107818880D01*
X59116270Y-107558884D01*
X59060295Y-107349983D01*
X91949500Y-107349983D01*
X91949500Y-108550001D01*
X91949501Y-108550018D01*
X91960000Y-108652796D01*
X91960001Y-108652799D01*
X92015185Y-108819331D01*
X92015187Y-108819336D01*
X92025897Y-108836700D01*
X92107288Y-108968656D01*
X92231344Y-109092712D01*
X92380666Y-109184814D01*
X92547203Y-109239999D01*
X92649991Y-109250500D01*
X93850008Y-109250499D01*
X93952797Y-109239999D01*
X94119334Y-109184814D01*
X94268656Y-109092712D01*
X94337879Y-109023489D01*
X94399202Y-108990004D01*
X94468894Y-108994988D01*
X94498446Y-109010853D01*
X94568646Y-109061857D01*
X94750968Y-109154755D01*
X94945582Y-109217990D01*
X95147683Y-109250000D01*
X95352317Y-109250000D01*
X95554417Y-109217990D01*
X95749031Y-109154755D01*
X95931349Y-109061859D01*
X95975921Y-109029474D01*
X95296447Y-108350000D01*
X95302661Y-108350000D01*
X95404394Y-108322741D01*
X95495606Y-108270080D01*
X95570080Y-108195606D01*
X95622741Y-108104394D01*
X95650000Y-108002661D01*
X95650000Y-107996447D01*
X96329474Y-108675921D01*
X96361859Y-108631349D01*
X96454755Y-108449031D01*
X96517990Y-108254417D01*
X96550000Y-108052317D01*
X96550000Y-107847682D01*
X96517990Y-107645582D01*
X96454755Y-107450968D01*
X96361859Y-107268650D01*
X96329474Y-107224077D01*
X96329474Y-107224076D01*
X95650000Y-107903551D01*
X95650000Y-107897339D01*
X95622741Y-107795606D01*
X95570080Y-107704394D01*
X95495606Y-107629920D01*
X95404394Y-107577259D01*
X95302661Y-107550000D01*
X95296446Y-107550000D01*
X95762898Y-107083549D01*
X111329500Y-107083549D01*
X111329500Y-107306450D01*
X111329501Y-107306466D01*
X111358594Y-107527452D01*
X111358595Y-107527457D01*
X111358596Y-107527463D01*
X111416290Y-107742780D01*
X111416293Y-107742790D01*
X111501593Y-107948722D01*
X111501595Y-107948726D01*
X111613052Y-108141774D01*
X111613057Y-108141780D01*
X111613058Y-108141782D01*
X111748751Y-108318622D01*
X111748757Y-108318629D01*
X111906370Y-108476242D01*
X111906376Y-108476247D01*
X112083226Y-108611948D01*
X112276274Y-108723405D01*
X112482219Y-108808710D01*
X112697537Y-108866404D01*
X112918543Y-108895500D01*
X112918550Y-108895500D01*
X113141450Y-108895500D01*
X113141457Y-108895500D01*
X113362463Y-108866404D01*
X113577781Y-108808710D01*
X113783726Y-108723405D01*
X113976774Y-108611948D01*
X114153624Y-108476247D01*
X114311247Y-108318624D01*
X114446948Y-108141774D01*
X114558405Y-107948726D01*
X114643710Y-107742781D01*
X114701404Y-107527463D01*
X114730500Y-107306457D01*
X114730500Y-107231228D01*
X119959500Y-107231228D01*
X119959500Y-107398771D01*
X119992182Y-107563074D01*
X119992184Y-107563082D01*
X120056295Y-107717860D01*
X120149373Y-107857162D01*
X120267837Y-107975626D01*
X120351612Y-108031602D01*
X120407137Y-108068703D01*
X120561918Y-108132816D01*
X120726228Y-108165499D01*
X120726232Y-108165500D01*
X120726233Y-108165500D01*
X120893768Y-108165500D01*
X120893769Y-108165499D01*
X121058082Y-108132816D01*
X121212863Y-108068703D01*
X121352162Y-107975626D01*
X121470626Y-107857162D01*
X121563703Y-107717863D01*
X121627022Y-107565000D01*
X124235885Y-107565000D01*
X124237085Y-107572584D01*
X124290591Y-107737255D01*
X124369195Y-107891524D01*
X124470967Y-108031602D01*
X124593397Y-108154032D01*
X124733475Y-108255804D01*
X124887742Y-108334408D01*
X125052415Y-108387914D01*
X125223429Y-108415000D01*
X125560000Y-108415000D01*
X126060000Y-108415000D01*
X126396571Y-108415000D01*
X126567584Y-108387914D01*
X126732257Y-108334408D01*
X126886524Y-108255804D01*
X127026602Y-108154032D01*
X127149032Y-108031602D01*
X127250804Y-107891524D01*
X127329408Y-107737255D01*
X127382914Y-107572584D01*
X127384115Y-107565000D01*
X126060000Y-107565000D01*
X126060000Y-108415000D01*
X125560000Y-108415000D01*
X125560000Y-107565000D01*
X124235885Y-107565000D01*
X121627022Y-107565000D01*
X121627816Y-107563082D01*
X121660500Y-107398767D01*
X121660500Y-107275218D01*
X125110000Y-107275218D01*
X125110000Y-107354782D01*
X125140448Y-107428291D01*
X125196709Y-107484552D01*
X125270218Y-107515000D01*
X126349782Y-107515000D01*
X126423291Y-107484552D01*
X126479552Y-107428291D01*
X126510000Y-107354782D01*
X126510000Y-107275218D01*
X126491779Y-107231228D01*
X129959500Y-107231228D01*
X129959500Y-107398771D01*
X129992182Y-107563074D01*
X129992184Y-107563082D01*
X130056295Y-107717860D01*
X130149373Y-107857162D01*
X130267837Y-107975626D01*
X130351612Y-108031602D01*
X130407137Y-108068703D01*
X130561918Y-108132816D01*
X130726228Y-108165499D01*
X130726232Y-108165500D01*
X130726233Y-108165500D01*
X130893768Y-108165500D01*
X130893769Y-108165499D01*
X131058082Y-108132816D01*
X131212863Y-108068703D01*
X131352162Y-107975626D01*
X131470626Y-107857162D01*
X131563703Y-107717863D01*
X131627816Y-107563082D01*
X131660500Y-107398767D01*
X131660500Y-107231233D01*
X131627816Y-107066918D01*
X131563703Y-106912137D01*
X131514259Y-106838139D01*
X131470626Y-106772837D01*
X131352162Y-106654373D01*
X131212860Y-106561295D01*
X131058082Y-106497184D01*
X131058074Y-106497182D01*
X130893771Y-106464500D01*
X130893767Y-106464500D01*
X130726233Y-106464500D01*
X130726228Y-106464500D01*
X130561925Y-106497182D01*
X130561917Y-106497184D01*
X130407139Y-106561295D01*
X130267837Y-106654373D01*
X130149373Y-106772837D01*
X130056295Y-106912139D01*
X129992184Y-107066917D01*
X129992182Y-107066925D01*
X129959500Y-107231228D01*
X126491779Y-107231228D01*
X126479552Y-107201709D01*
X126423291Y-107145448D01*
X126349782Y-107115000D01*
X125270218Y-107115000D01*
X125196709Y-107145448D01*
X125140448Y-107201709D01*
X125110000Y-107275218D01*
X121660500Y-107275218D01*
X121660500Y-107231233D01*
X121627816Y-107066918D01*
X121627021Y-107064999D01*
X124235884Y-107064999D01*
X124235885Y-107065000D01*
X125560000Y-107065000D01*
X126060000Y-107065000D01*
X127384115Y-107065000D01*
X127384115Y-107064999D01*
X127382914Y-107057415D01*
X127329408Y-106892744D01*
X127250804Y-106738475D01*
X127149032Y-106598397D01*
X127026602Y-106475967D01*
X126886524Y-106374195D01*
X126732257Y-106295591D01*
X126567584Y-106242085D01*
X126396571Y-106215000D01*
X126060000Y-106215000D01*
X126060000Y-107065000D01*
X125560000Y-107065000D01*
X125560000Y-106215000D01*
X125223429Y-106215000D01*
X125052415Y-106242085D01*
X124887742Y-106295591D01*
X124733475Y-106374195D01*
X124593397Y-106475967D01*
X124470967Y-106598397D01*
X124369195Y-106738475D01*
X124290591Y-106892744D01*
X124237085Y-107057415D01*
X124235884Y-107064999D01*
X121627021Y-107064999D01*
X121563703Y-106912137D01*
X121514259Y-106838139D01*
X121470626Y-106772837D01*
X121352162Y-106654373D01*
X121212860Y-106561295D01*
X121058082Y-106497184D01*
X121058074Y-106497182D01*
X120893771Y-106464500D01*
X120893767Y-106464500D01*
X120726233Y-106464500D01*
X120726228Y-106464500D01*
X120561925Y-106497182D01*
X120561917Y-106497184D01*
X120407139Y-106561295D01*
X120267837Y-106654373D01*
X120149373Y-106772837D01*
X120056295Y-106912139D01*
X119992184Y-107066917D01*
X119992182Y-107066925D01*
X119959500Y-107231228D01*
X114730500Y-107231228D01*
X114730500Y-107083543D01*
X114701404Y-106862537D01*
X114643710Y-106647219D01*
X114558405Y-106441274D01*
X114446948Y-106248226D01*
X114311247Y-106071376D01*
X114311242Y-106071370D01*
X114153629Y-105913757D01*
X114153622Y-105913751D01*
X113976782Y-105778058D01*
X113976780Y-105778057D01*
X113976774Y-105778052D01*
X113783726Y-105666595D01*
X113783722Y-105666593D01*
X113577790Y-105581293D01*
X113577783Y-105581291D01*
X113577781Y-105581290D01*
X113362463Y-105523596D01*
X113362457Y-105523595D01*
X113362452Y-105523594D01*
X113141466Y-105494501D01*
X113141463Y-105494500D01*
X113141457Y-105494500D01*
X112918543Y-105494500D01*
X112918537Y-105494500D01*
X112918533Y-105494501D01*
X112697547Y-105523594D01*
X112697540Y-105523595D01*
X112697537Y-105523596D01*
X112482219Y-105581290D01*
X112482209Y-105581293D01*
X112276277Y-105666593D01*
X112276273Y-105666595D01*
X112083226Y-105778052D01*
X112083217Y-105778058D01*
X111906377Y-105913751D01*
X111906370Y-105913757D01*
X111748757Y-106071370D01*
X111748751Y-106071377D01*
X111613058Y-106248217D01*
X111613052Y-106248226D01*
X111501595Y-106441273D01*
X111501593Y-106441277D01*
X111416293Y-106647209D01*
X111416290Y-106647219D01*
X111365134Y-106838139D01*
X111358597Y-106862534D01*
X111358594Y-106862547D01*
X111329501Y-107083533D01*
X111329500Y-107083549D01*
X95762898Y-107083549D01*
X95854644Y-106991803D01*
X95975922Y-106870524D01*
X95975921Y-106870523D01*
X95931359Y-106838147D01*
X95931350Y-106838141D01*
X95749031Y-106745244D01*
X95554417Y-106682009D01*
X95352317Y-106650000D01*
X95147683Y-106650000D01*
X94945582Y-106682009D01*
X94750968Y-106745244D01*
X94568651Y-106838139D01*
X94498444Y-106889148D01*
X94432637Y-106912627D01*
X94364583Y-106896801D01*
X94337878Y-106876510D01*
X94268657Y-106807289D01*
X94268656Y-106807288D01*
X94119334Y-106715186D01*
X93952797Y-106660001D01*
X93952795Y-106660000D01*
X93850010Y-106649500D01*
X92649998Y-106649500D01*
X92649981Y-106649501D01*
X92547203Y-106660000D01*
X92547200Y-106660001D01*
X92380668Y-106715185D01*
X92380663Y-106715187D01*
X92231342Y-106807289D01*
X92107289Y-106931342D01*
X92015187Y-107080663D01*
X92015185Y-107080668D01*
X91993719Y-107145448D01*
X91960001Y-107247203D01*
X91960001Y-107247204D01*
X91960000Y-107247204D01*
X91949500Y-107349983D01*
X59060295Y-107349983D01*
X59048398Y-107305581D01*
X59033101Y-107268650D01*
X58948046Y-107063309D01*
X58948041Y-107063299D01*
X58816924Y-106836196D01*
X58677405Y-106654374D01*
X58657282Y-106628149D01*
X58657281Y-106628148D01*
X58657274Y-106628140D01*
X58471860Y-106442726D01*
X58471851Y-106442718D01*
X58263803Y-106283075D01*
X58036700Y-106151958D01*
X58036690Y-106151953D01*
X57794428Y-106051605D01*
X57794421Y-106051603D01*
X57794419Y-106051602D01*
X57541116Y-105983730D01*
X57483339Y-105976123D01*
X57281127Y-105949500D01*
X57281120Y-105949500D01*
X57018880Y-105949500D01*
X57018872Y-105949500D01*
X56787772Y-105979926D01*
X56758884Y-105983730D01*
X56505581Y-106051602D01*
X56505571Y-106051605D01*
X56263309Y-106151953D01*
X56263299Y-106151958D01*
X56036196Y-106283075D01*
X55828148Y-106442718D01*
X55642718Y-106628148D01*
X55483075Y-106836196D01*
X55351958Y-107063299D01*
X55351953Y-107063309D01*
X55251605Y-107305571D01*
X55251603Y-107305578D01*
X55251602Y-107305581D01*
X55186111Y-107550000D01*
X55183730Y-107558885D01*
X55149500Y-107818872D01*
X53840500Y-107818872D01*
X53840500Y-102818872D01*
X55149500Y-102818872D01*
X55149500Y-103081127D01*
X55168702Y-103226971D01*
X55183730Y-103341116D01*
X55235681Y-103535000D01*
X55251602Y-103594418D01*
X55251605Y-103594428D01*
X55351953Y-103836690D01*
X55351958Y-103836700D01*
X55483075Y-104063803D01*
X55642718Y-104271851D01*
X55642726Y-104271860D01*
X55828140Y-104457274D01*
X55828148Y-104457281D01*
X56036196Y-104616924D01*
X56263299Y-104748041D01*
X56263309Y-104748046D01*
X56505571Y-104848394D01*
X56505581Y-104848398D01*
X56758884Y-104916270D01*
X57018880Y-104950500D01*
X57018887Y-104950500D01*
X57281113Y-104950500D01*
X57281120Y-104950500D01*
X57541116Y-104916270D01*
X57610615Y-104897648D01*
X68699500Y-104897648D01*
X68699500Y-105102351D01*
X68731522Y-105304534D01*
X68794781Y-105499223D01*
X68858691Y-105624653D01*
X68880062Y-105666595D01*
X68887715Y-105681613D01*
X69008028Y-105847213D01*
X69152786Y-105991971D01*
X69307749Y-106104556D01*
X69318390Y-106112287D01*
X69396239Y-106151953D01*
X69500776Y-106205218D01*
X69500778Y-106205218D01*
X69500781Y-106205220D01*
X69605137Y-106239127D01*
X69695465Y-106268477D01*
X69787633Y-106283075D01*
X69897648Y-106300500D01*
X69897649Y-106300500D01*
X70102351Y-106300500D01*
X70102352Y-106300500D01*
X70304534Y-106268477D01*
X70499219Y-106205220D01*
X70681610Y-106112287D01*
X70774590Y-106044732D01*
X70847213Y-105991971D01*
X70847215Y-105991968D01*
X70847219Y-105991966D01*
X70991966Y-105847219D01*
X70991968Y-105847215D01*
X70991971Y-105847213D01*
X71044732Y-105774590D01*
X71112287Y-105681610D01*
X71205220Y-105499219D01*
X71268477Y-105304534D01*
X71300500Y-105102352D01*
X71300500Y-104897648D01*
X71268477Y-104695466D01*
X71205220Y-104500781D01*
X71205218Y-104500778D01*
X71205218Y-104500776D01*
X71171503Y-104434607D01*
X71112287Y-104318390D01*
X71104556Y-104307749D01*
X70991971Y-104152786D01*
X70847213Y-104008028D01*
X70681613Y-103887715D01*
X70681612Y-103887714D01*
X70681610Y-103887713D01*
X70581486Y-103836697D01*
X70499223Y-103794781D01*
X70304534Y-103731522D01*
X70129995Y-103703878D01*
X70102352Y-103699500D01*
X69897648Y-103699500D01*
X69873329Y-103703351D01*
X69695465Y-103731522D01*
X69500776Y-103794781D01*
X69318386Y-103887715D01*
X69152786Y-104008028D01*
X69008028Y-104152786D01*
X68887715Y-104318386D01*
X68794781Y-104500776D01*
X68731522Y-104695465D01*
X68699500Y-104897648D01*
X57610615Y-104897648D01*
X57794419Y-104848398D01*
X57888138Y-104809578D01*
X57963856Y-104778215D01*
X57978160Y-104772289D01*
X58036697Y-104748043D01*
X58263803Y-104616924D01*
X58471851Y-104457282D01*
X58471855Y-104457277D01*
X58471860Y-104457274D01*
X58657274Y-104271860D01*
X58657277Y-104271855D01*
X58657282Y-104271851D01*
X58816924Y-104063803D01*
X58948043Y-103836697D01*
X59048398Y-103594419D01*
X59116270Y-103341116D01*
X59150500Y-103081120D01*
X59150500Y-102818880D01*
X59116270Y-102558884D01*
X59048398Y-102305581D01*
X59040975Y-102287661D01*
X58994405Y-102175229D01*
X58976767Y-102132648D01*
X91429500Y-102132648D01*
X91429500Y-102337351D01*
X91461522Y-102539534D01*
X91524781Y-102734223D01*
X91567248Y-102817567D01*
X91617585Y-102916359D01*
X91617715Y-102916613D01*
X91738028Y-103082213D01*
X91882786Y-103226971D01*
X92003226Y-103314474D01*
X92048390Y-103347287D01*
X92135728Y-103391788D01*
X92230776Y-103440218D01*
X92230778Y-103440218D01*
X92230781Y-103440220D01*
X92335137Y-103474127D01*
X92425465Y-103503477D01*
X92526557Y-103519488D01*
X92627648Y-103535500D01*
X92627649Y-103535500D01*
X92832351Y-103535500D01*
X92832352Y-103535500D01*
X93034534Y-103503477D01*
X93229219Y-103440220D01*
X93411610Y-103347287D01*
X93504590Y-103279732D01*
X93577213Y-103226971D01*
X93577215Y-103226968D01*
X93577219Y-103226966D01*
X93721966Y-103082219D01*
X93721968Y-103082215D01*
X93721971Y-103082213D01*
X93842286Y-102916611D01*
X93842415Y-102916359D01*
X93869795Y-102862621D01*
X93917769Y-102811826D01*
X93985589Y-102795030D01*
X94051725Y-102817567D01*
X94090765Y-102862621D01*
X94118141Y-102916350D01*
X94118147Y-102916359D01*
X94150523Y-102960921D01*
X94150524Y-102960922D01*
X94830000Y-102281446D01*
X94830000Y-102287661D01*
X94857259Y-102389394D01*
X94909920Y-102480606D01*
X94984394Y-102555080D01*
X95075606Y-102607741D01*
X95177339Y-102635000D01*
X95183553Y-102635000D01*
X94504076Y-103314474D01*
X94548650Y-103346859D01*
X94730968Y-103439755D01*
X94925582Y-103502990D01*
X95127683Y-103535000D01*
X95332317Y-103535000D01*
X95534417Y-103502990D01*
X95729031Y-103439755D01*
X95911349Y-103346859D01*
X95955921Y-103314474D01*
X95276447Y-102635000D01*
X95282661Y-102635000D01*
X95384394Y-102607741D01*
X95475606Y-102555080D01*
X95550080Y-102480606D01*
X95602741Y-102389394D01*
X95630000Y-102287661D01*
X95630000Y-102281447D01*
X96309474Y-102960921D01*
X96341859Y-102916349D01*
X96434755Y-102734031D01*
X96497990Y-102539417D01*
X96530000Y-102337317D01*
X96530000Y-102132682D01*
X96497990Y-101930582D01*
X96434755Y-101735968D01*
X96341859Y-101553650D01*
X96309474Y-101509077D01*
X96309474Y-101509076D01*
X95630000Y-102188551D01*
X95630000Y-102182339D01*
X95602741Y-102080606D01*
X95550080Y-101989394D01*
X95475606Y-101914920D01*
X95384394Y-101862259D01*
X95282661Y-101835000D01*
X95276446Y-101835000D01*
X95955922Y-101155524D01*
X95955921Y-101155523D01*
X95911359Y-101123147D01*
X95911350Y-101123141D01*
X95729031Y-101030244D01*
X95534417Y-100967009D01*
X95332317Y-100935000D01*
X95127683Y-100935000D01*
X94925582Y-100967009D01*
X94730968Y-101030244D01*
X94548644Y-101123143D01*
X94504077Y-101155523D01*
X94504077Y-101155524D01*
X95183554Y-101835000D01*
X95177339Y-101835000D01*
X95075606Y-101862259D01*
X94984394Y-101914920D01*
X94909920Y-101989394D01*
X94857259Y-102080606D01*
X94830000Y-102182339D01*
X94830000Y-102188553D01*
X94150524Y-101509077D01*
X94150523Y-101509077D01*
X94118143Y-101553644D01*
X94090765Y-101607378D01*
X94042790Y-101658174D01*
X93974969Y-101674969D01*
X93908834Y-101652431D01*
X93869795Y-101607378D01*
X93842287Y-101553390D01*
X93842285Y-101553387D01*
X93842284Y-101553385D01*
X93721971Y-101387786D01*
X93577213Y-101243028D01*
X93411613Y-101122715D01*
X93411612Y-101122714D01*
X93411610Y-101122713D01*
X93354653Y-101093691D01*
X93229223Y-101029781D01*
X93034534Y-100966522D01*
X92859995Y-100938878D01*
X92832352Y-100934500D01*
X92627648Y-100934500D01*
X92603329Y-100938351D01*
X92425465Y-100966522D01*
X92230776Y-101029781D01*
X92048386Y-101122715D01*
X91882786Y-101243028D01*
X91738028Y-101387786D01*
X91617715Y-101553386D01*
X91524781Y-101735776D01*
X91461522Y-101930465D01*
X91429500Y-102132648D01*
X58976767Y-102132648D01*
X58948046Y-102063309D01*
X58948041Y-102063299D01*
X58816924Y-101836196D01*
X58677405Y-101654374D01*
X58657282Y-101628149D01*
X58657281Y-101628148D01*
X58657274Y-101628140D01*
X58471860Y-101442726D01*
X58471851Y-101442718D01*
X58263803Y-101283075D01*
X58036700Y-101151958D01*
X58036690Y-101151953D01*
X57794428Y-101051605D01*
X57794421Y-101051603D01*
X57794419Y-101051602D01*
X57541116Y-100983730D01*
X57479258Y-100975586D01*
X57281127Y-100949500D01*
X57281120Y-100949500D01*
X57018880Y-100949500D01*
X57018872Y-100949500D01*
X56787772Y-100979926D01*
X56758884Y-100983730D01*
X56585291Y-101030244D01*
X56505581Y-101051602D01*
X56505571Y-101051605D01*
X56263309Y-101151953D01*
X56263299Y-101151958D01*
X56036196Y-101283075D01*
X55828148Y-101442718D01*
X55642718Y-101628148D01*
X55483075Y-101836196D01*
X55351958Y-102063299D01*
X55351953Y-102063309D01*
X55251605Y-102305571D01*
X55251602Y-102305581D01*
X55184750Y-102555080D01*
X55183730Y-102558885D01*
X55149500Y-102818872D01*
X53840500Y-102818872D01*
X53840500Y-96402135D01*
X55149500Y-96402135D01*
X55149500Y-99497870D01*
X55149501Y-99497876D01*
X55155908Y-99557483D01*
X55206202Y-99692328D01*
X55206206Y-99692335D01*
X55292452Y-99807544D01*
X55292455Y-99807547D01*
X55407664Y-99893793D01*
X55407671Y-99893797D01*
X55542517Y-99944091D01*
X55542516Y-99944091D01*
X55549444Y-99944835D01*
X55602127Y-99950500D01*
X58697872Y-99950499D01*
X58757483Y-99944091D01*
X58882003Y-99897648D01*
X68699500Y-99897648D01*
X68699500Y-100102351D01*
X68731522Y-100304534D01*
X68794781Y-100499223D01*
X68887715Y-100681613D01*
X69008028Y-100847213D01*
X69152786Y-100991971D01*
X69301116Y-101099737D01*
X69318390Y-101112287D01*
X69434607Y-101171503D01*
X69500776Y-101205218D01*
X69500778Y-101205218D01*
X69500781Y-101205220D01*
X69602317Y-101238211D01*
X69695465Y-101268477D01*
X69787633Y-101283075D01*
X69897648Y-101300500D01*
X69897649Y-101300500D01*
X70102351Y-101300500D01*
X70102352Y-101300500D01*
X70304534Y-101268477D01*
X70499219Y-101205220D01*
X70681610Y-101112287D01*
X70781935Y-101039397D01*
X70847213Y-100991971D01*
X70847215Y-100991968D01*
X70847219Y-100991966D01*
X70991966Y-100847219D01*
X70991968Y-100847215D01*
X70991971Y-100847213D01*
X71044732Y-100774590D01*
X71112287Y-100681610D01*
X71205220Y-100499219D01*
X71268477Y-100304534D01*
X71276932Y-100251153D01*
X76669500Y-100251153D01*
X76669500Y-100408846D01*
X76700261Y-100563489D01*
X76700264Y-100563501D01*
X76760602Y-100709172D01*
X76760609Y-100709185D01*
X76848210Y-100840288D01*
X76848213Y-100840292D01*
X76959707Y-100951786D01*
X76959711Y-100951789D01*
X77090814Y-101039390D01*
X77090827Y-101039397D01*
X77232476Y-101098069D01*
X77236503Y-101099737D01*
X77391153Y-101130499D01*
X77391156Y-101130500D01*
X77391158Y-101130500D01*
X77548844Y-101130500D01*
X77548845Y-101130499D01*
X77703497Y-101099737D01*
X77849179Y-101039394D01*
X77980289Y-100951789D01*
X78091789Y-100840289D01*
X78179394Y-100709179D01*
X78239193Y-100564809D01*
X78266070Y-100524584D01*
X80204584Y-98586070D01*
X80244810Y-98559193D01*
X80389172Y-98499397D01*
X80389172Y-98499396D01*
X80389179Y-98499394D01*
X80520289Y-98411789D01*
X80631789Y-98300289D01*
X80719394Y-98169179D01*
X80779737Y-98023497D01*
X80810500Y-97868842D01*
X80810500Y-97711158D01*
X80810500Y-97711155D01*
X80810499Y-97711153D01*
X80779738Y-97556510D01*
X80779737Y-97556503D01*
X80770487Y-97534172D01*
X80719397Y-97410827D01*
X80719390Y-97410814D01*
X80631789Y-97279711D01*
X80631786Y-97279707D01*
X80520290Y-97168211D01*
X80389185Y-97080609D01*
X80389172Y-97080602D01*
X80378431Y-97076153D01*
X92544500Y-97076153D01*
X92544500Y-97233846D01*
X92575261Y-97388489D01*
X92575264Y-97388501D01*
X92635602Y-97534172D01*
X92635609Y-97534185D01*
X92723210Y-97665288D01*
X92723213Y-97665292D01*
X92834707Y-97776786D01*
X92834711Y-97776789D01*
X92965814Y-97864390D01*
X92965827Y-97864397D01*
X93110185Y-97924191D01*
X93150414Y-97951071D01*
X97978453Y-102779111D01*
X97978454Y-102779112D01*
X98093192Y-102855777D01*
X98203847Y-102901611D01*
X98220672Y-102908580D01*
X98220676Y-102908580D01*
X98220677Y-102908581D01*
X98356003Y-102935500D01*
X98356006Y-102935500D01*
X98356007Y-102935500D01*
X101174684Y-102935500D01*
X101222136Y-102944939D01*
X101260723Y-102960922D01*
X101366503Y-103004737D01*
X101521153Y-103035499D01*
X101521156Y-103035500D01*
X101521158Y-103035500D01*
X101678844Y-103035500D01*
X101678845Y-103035499D01*
X101833497Y-103004737D01*
X101979179Y-102944394D01*
X102110289Y-102856789D01*
X102221789Y-102745289D01*
X102309394Y-102614179D01*
X102369737Y-102468497D01*
X102400500Y-102313842D01*
X102400500Y-102156158D01*
X102400500Y-102156155D01*
X102400499Y-102156153D01*
X102395830Y-102132682D01*
X102369737Y-102001503D01*
X102340313Y-101930466D01*
X102309397Y-101855827D01*
X102309390Y-101855814D01*
X102267023Y-101792408D01*
X102224247Y-101728389D01*
X119709500Y-101728389D01*
X119709500Y-102901611D01*
X119717677Y-102953239D01*
X119735964Y-103068703D01*
X119736598Y-103072701D01*
X119790127Y-103237445D01*
X119868768Y-103391788D01*
X119970586Y-103531928D01*
X120093072Y-103654414D01*
X120233212Y-103756232D01*
X120387555Y-103834873D01*
X120552299Y-103888402D01*
X120723389Y-103915500D01*
X120723390Y-103915500D01*
X120896610Y-103915500D01*
X120896611Y-103915500D01*
X121067701Y-103888402D01*
X121232445Y-103834873D01*
X121386788Y-103756232D01*
X121526928Y-103654414D01*
X121649414Y-103531928D01*
X121751232Y-103391788D01*
X121829873Y-103237445D01*
X121883402Y-103072701D01*
X121910500Y-102901611D01*
X121910500Y-102231228D01*
X124959500Y-102231228D01*
X124959500Y-102398771D01*
X124992182Y-102563074D01*
X124992184Y-102563082D01*
X125056295Y-102717860D01*
X125149373Y-102857162D01*
X125267837Y-102975626D01*
X125357444Y-103035499D01*
X125407137Y-103068703D01*
X125561918Y-103132816D01*
X125726228Y-103165499D01*
X125726232Y-103165500D01*
X125726233Y-103165500D01*
X125893768Y-103165500D01*
X125893769Y-103165499D01*
X126058082Y-103132816D01*
X126212863Y-103068703D01*
X126352162Y-102975626D01*
X126470626Y-102857162D01*
X126563703Y-102717863D01*
X126627816Y-102563082D01*
X126660500Y-102398767D01*
X126660500Y-102231233D01*
X126627816Y-102066918D01*
X126563703Y-101912137D01*
X126543196Y-101881446D01*
X126483704Y-101792409D01*
X126470628Y-101772840D01*
X126470623Y-101772834D01*
X126426178Y-101728389D01*
X129709500Y-101728389D01*
X129709500Y-102901611D01*
X129717677Y-102953239D01*
X129735964Y-103068703D01*
X129736598Y-103072701D01*
X129790127Y-103237445D01*
X129868768Y-103391788D01*
X129970586Y-103531928D01*
X130093072Y-103654414D01*
X130233212Y-103756232D01*
X130387555Y-103834873D01*
X130552299Y-103888402D01*
X130723389Y-103915500D01*
X130723390Y-103915500D01*
X130896610Y-103915500D01*
X130896611Y-103915500D01*
X131067701Y-103888402D01*
X131232445Y-103834873D01*
X131386788Y-103756232D01*
X131526928Y-103654414D01*
X131649414Y-103531928D01*
X131751232Y-103391788D01*
X131829873Y-103237445D01*
X131883402Y-103072701D01*
X131910500Y-102901611D01*
X131910500Y-101728389D01*
X131883402Y-101557299D01*
X131829873Y-101392555D01*
X131751232Y-101238212D01*
X131649414Y-101098072D01*
X131526928Y-100975586D01*
X131386788Y-100873768D01*
X131232445Y-100795127D01*
X131067701Y-100741598D01*
X131067699Y-100741597D01*
X131067698Y-100741597D01*
X130936271Y-100720781D01*
X130896611Y-100714500D01*
X130723389Y-100714500D01*
X130683728Y-100720781D01*
X130552302Y-100741597D01*
X130387552Y-100795128D01*
X130233211Y-100873768D01*
X130153256Y-100931859D01*
X130093072Y-100975586D01*
X130093070Y-100975588D01*
X130093069Y-100975588D01*
X129970588Y-101098069D01*
X129970588Y-101098070D01*
X129970586Y-101098072D01*
X129947026Y-101130500D01*
X129868768Y-101238211D01*
X129790128Y-101392552D01*
X129736597Y-101557302D01*
X129721223Y-101654373D01*
X129709500Y-101728389D01*
X126426178Y-101728389D01*
X126352162Y-101654373D01*
X126212860Y-101561295D01*
X126058082Y-101497184D01*
X126058074Y-101497182D01*
X125893771Y-101464500D01*
X125893767Y-101464500D01*
X125726233Y-101464500D01*
X125726228Y-101464500D01*
X125561925Y-101497182D01*
X125561917Y-101497184D01*
X125407139Y-101561295D01*
X125267837Y-101654373D01*
X125149373Y-101772837D01*
X125056295Y-101912139D01*
X124992184Y-102066917D01*
X124992182Y-102066925D01*
X124959500Y-102231228D01*
X121910500Y-102231228D01*
X121910500Y-101728389D01*
X121883402Y-101557299D01*
X121829873Y-101392555D01*
X121751232Y-101238212D01*
X121649414Y-101098072D01*
X121526928Y-100975586D01*
X121386788Y-100873768D01*
X121232445Y-100795127D01*
X121067701Y-100741598D01*
X121067699Y-100741597D01*
X121067698Y-100741597D01*
X120936271Y-100720781D01*
X120896611Y-100714500D01*
X120723389Y-100714500D01*
X120683728Y-100720781D01*
X120552302Y-100741597D01*
X120387552Y-100795128D01*
X120233211Y-100873768D01*
X120153256Y-100931859D01*
X120093072Y-100975586D01*
X120093070Y-100975588D01*
X120093069Y-100975588D01*
X119970588Y-101098069D01*
X119970588Y-101098070D01*
X119970586Y-101098072D01*
X119947026Y-101130500D01*
X119868768Y-101238211D01*
X119790128Y-101392552D01*
X119736597Y-101557302D01*
X119721223Y-101654373D01*
X119709500Y-101728389D01*
X102224247Y-101728389D01*
X102221789Y-101724711D01*
X102221786Y-101724707D01*
X102110292Y-101613213D01*
X102110288Y-101613210D01*
X101979185Y-101525609D01*
X101979172Y-101525602D01*
X101833501Y-101465264D01*
X101833489Y-101465261D01*
X101678845Y-101434500D01*
X101678842Y-101434500D01*
X101521158Y-101434500D01*
X101521155Y-101434500D01*
X101366510Y-101465261D01*
X101366498Y-101465264D01*
X101222136Y-101525061D01*
X101174684Y-101534500D01*
X98766519Y-101534500D01*
X98699480Y-101514815D01*
X98678838Y-101498181D01*
X94141071Y-96960414D01*
X94114191Y-96920185D01*
X94054397Y-96775827D01*
X94054390Y-96775814D01*
X93966789Y-96644711D01*
X93966786Y-96644707D01*
X93855292Y-96533213D01*
X93855288Y-96533210D01*
X93724185Y-96445609D01*
X93724172Y-96445602D01*
X93578501Y-96385264D01*
X93578489Y-96385261D01*
X93423845Y-96354500D01*
X93423842Y-96354500D01*
X93266158Y-96354500D01*
X93266155Y-96354500D01*
X93111510Y-96385261D01*
X93111498Y-96385264D01*
X92965827Y-96445602D01*
X92965814Y-96445609D01*
X92834711Y-96533210D01*
X92834707Y-96533213D01*
X92723213Y-96644707D01*
X92723210Y-96644711D01*
X92635609Y-96775814D01*
X92635602Y-96775827D01*
X92575264Y-96921498D01*
X92575261Y-96921510D01*
X92544500Y-97076153D01*
X80378431Y-97076153D01*
X80243501Y-97020264D01*
X80243489Y-97020261D01*
X80088845Y-96989500D01*
X80088842Y-96989500D01*
X79931158Y-96989500D01*
X79931155Y-96989500D01*
X79776510Y-97020261D01*
X79776498Y-97020264D01*
X79630827Y-97080602D01*
X79630814Y-97080609D01*
X79499711Y-97168210D01*
X79499707Y-97168213D01*
X79388213Y-97279707D01*
X79388210Y-97279711D01*
X79300609Y-97410814D01*
X79300604Y-97410824D01*
X79240807Y-97555187D01*
X79213927Y-97595415D01*
X77275414Y-99533928D01*
X77235186Y-99560808D01*
X77090823Y-99620604D01*
X77090814Y-99620609D01*
X76959711Y-99708210D01*
X76959707Y-99708213D01*
X76848213Y-99819707D01*
X76848210Y-99819711D01*
X76760609Y-99950814D01*
X76760602Y-99950827D01*
X76700264Y-100096498D01*
X76700261Y-100096510D01*
X76669500Y-100251153D01*
X71276932Y-100251153D01*
X71300500Y-100102352D01*
X71300500Y-99897648D01*
X71270496Y-99708211D01*
X71268477Y-99695465D01*
X71224547Y-99560263D01*
X71205220Y-99500781D01*
X71205218Y-99500778D01*
X71205218Y-99500776D01*
X71171503Y-99434607D01*
X71112287Y-99318390D01*
X71104556Y-99307749D01*
X70991971Y-99152786D01*
X70847213Y-99008028D01*
X70681613Y-98887715D01*
X70681612Y-98887714D01*
X70681610Y-98887713D01*
X70624653Y-98858691D01*
X70499223Y-98794781D01*
X70304534Y-98731522D01*
X70129995Y-98703878D01*
X70102352Y-98699500D01*
X69897648Y-98699500D01*
X69873329Y-98703351D01*
X69695465Y-98731522D01*
X69500776Y-98794781D01*
X69318386Y-98887715D01*
X69152786Y-99008028D01*
X69008028Y-99152786D01*
X68887715Y-99318386D01*
X68794781Y-99500776D01*
X68731522Y-99695465D01*
X68699500Y-99897648D01*
X58882003Y-99897648D01*
X58892331Y-99893796D01*
X59007546Y-99807546D01*
X59093796Y-99692331D01*
X59144091Y-99557483D01*
X59150500Y-99497873D01*
X59150499Y-96402128D01*
X59144091Y-96342517D01*
X59114870Y-96264172D01*
X59093797Y-96207671D01*
X59093793Y-96207664D01*
X59007547Y-96092455D01*
X59007544Y-96092452D01*
X58892335Y-96006206D01*
X58892328Y-96006202D01*
X58757482Y-95955908D01*
X58757483Y-95955908D01*
X58697883Y-95949501D01*
X58697881Y-95949500D01*
X58697873Y-95949500D01*
X58697864Y-95949500D01*
X55602129Y-95949500D01*
X55602123Y-95949501D01*
X55542516Y-95955908D01*
X55407671Y-96006202D01*
X55407664Y-96006206D01*
X55292455Y-96092452D01*
X55292452Y-96092455D01*
X55206206Y-96207664D01*
X55206202Y-96207671D01*
X55155908Y-96342517D01*
X55151313Y-96385261D01*
X55149501Y-96402123D01*
X55149500Y-96402135D01*
X53840500Y-96402135D01*
X53840500Y-91972682D01*
X91410000Y-91972682D01*
X91410000Y-92177317D01*
X91442009Y-92379417D01*
X91505244Y-92574031D01*
X91598141Y-92756350D01*
X91598147Y-92756359D01*
X91630523Y-92800921D01*
X91630524Y-92800922D01*
X92310000Y-92121446D01*
X92310000Y-92127661D01*
X92337259Y-92229394D01*
X92389920Y-92320606D01*
X92464394Y-92395080D01*
X92555606Y-92447741D01*
X92657339Y-92475000D01*
X92663553Y-92475000D01*
X91984076Y-93154474D01*
X92028650Y-93186859D01*
X92210968Y-93279755D01*
X92405582Y-93342990D01*
X92607683Y-93375000D01*
X92812317Y-93375000D01*
X93014417Y-93342990D01*
X93209031Y-93279755D01*
X93391349Y-93186859D01*
X93435921Y-93154474D01*
X92756447Y-92475000D01*
X92762661Y-92475000D01*
X92864394Y-92447741D01*
X92955606Y-92395080D01*
X93030080Y-92320606D01*
X93082741Y-92229394D01*
X93110000Y-92127661D01*
X93110000Y-92121447D01*
X93789474Y-92800921D01*
X93821859Y-92756349D01*
X93849233Y-92702624D01*
X93897207Y-92651827D01*
X93965028Y-92635031D01*
X94031163Y-92657567D01*
X94070203Y-92702621D01*
X94097713Y-92756611D01*
X94218028Y-92922213D01*
X94362786Y-93066971D01*
X94465746Y-93141774D01*
X94528390Y-93187287D01*
X94644607Y-93246503D01*
X94710776Y-93280218D01*
X94710778Y-93280218D01*
X94710781Y-93280220D01*
X94815137Y-93314127D01*
X94905465Y-93343477D01*
X95006557Y-93359488D01*
X95107648Y-93375500D01*
X95107649Y-93375500D01*
X95312351Y-93375500D01*
X95312352Y-93375500D01*
X95514534Y-93343477D01*
X95709219Y-93280220D01*
X95891610Y-93187287D01*
X95984590Y-93119732D01*
X96057213Y-93066971D01*
X96057215Y-93066968D01*
X96057219Y-93066966D01*
X96201966Y-92922219D01*
X96201968Y-92922215D01*
X96201971Y-92922213D01*
X96254732Y-92849590D01*
X96322287Y-92756610D01*
X96415220Y-92574219D01*
X96478477Y-92379534D01*
X96510500Y-92177352D01*
X96510500Y-91972648D01*
X96502257Y-91920606D01*
X96478477Y-91770465D01*
X96447458Y-91675000D01*
X96415220Y-91575781D01*
X96415218Y-91575778D01*
X96415218Y-91575776D01*
X96372750Y-91492429D01*
X96322287Y-91393390D01*
X96290092Y-91349077D01*
X96201971Y-91227786D01*
X96057213Y-91083028D01*
X95891613Y-90962715D01*
X95891612Y-90962714D01*
X95891610Y-90962713D01*
X95795517Y-90913751D01*
X95709223Y-90869781D01*
X95514534Y-90806522D01*
X95334778Y-90778052D01*
X95312352Y-90774500D01*
X95107648Y-90774500D01*
X95085222Y-90778052D01*
X94905465Y-90806522D01*
X94710776Y-90869781D01*
X94528386Y-90962715D01*
X94362786Y-91083028D01*
X94218028Y-91227786D01*
X94097714Y-91393386D01*
X94070203Y-91447379D01*
X94022227Y-91498174D01*
X93954406Y-91514968D01*
X93888272Y-91492429D01*
X93849234Y-91447376D01*
X93821861Y-91393652D01*
X93789474Y-91349077D01*
X93789474Y-91349076D01*
X93110000Y-92028551D01*
X93110000Y-92022339D01*
X93082741Y-91920606D01*
X93030080Y-91829394D01*
X92955606Y-91754920D01*
X92864394Y-91702259D01*
X92762661Y-91675000D01*
X92756446Y-91675000D01*
X93435922Y-90995524D01*
X93435921Y-90995523D01*
X93391359Y-90963147D01*
X93391350Y-90963141D01*
X93209031Y-90870244D01*
X93014417Y-90807009D01*
X92812317Y-90775000D01*
X92607683Y-90775000D01*
X92405582Y-90807009D01*
X92210968Y-90870244D01*
X92028644Y-90963143D01*
X91984077Y-90995523D01*
X91984077Y-90995524D01*
X92663554Y-91675000D01*
X92657339Y-91675000D01*
X92555606Y-91702259D01*
X92464394Y-91754920D01*
X92389920Y-91829394D01*
X92337259Y-91920606D01*
X92310000Y-92022339D01*
X92310000Y-92028553D01*
X91630524Y-91349077D01*
X91630523Y-91349077D01*
X91598143Y-91393644D01*
X91505244Y-91575968D01*
X91442009Y-91770582D01*
X91410000Y-91972682D01*
X53840500Y-91972682D01*
X53840500Y-85759983D01*
X91949500Y-85759983D01*
X91949500Y-86960001D01*
X91949501Y-86960018D01*
X91960000Y-87062796D01*
X91960001Y-87062799D01*
X92015185Y-87229331D01*
X92015186Y-87229334D01*
X92107288Y-87378656D01*
X92231344Y-87502712D01*
X92380666Y-87594814D01*
X92547203Y-87649999D01*
X92649991Y-87660500D01*
X93850008Y-87660499D01*
X93952797Y-87649999D01*
X94119334Y-87594814D01*
X94268656Y-87502712D01*
X94337879Y-87433489D01*
X94399202Y-87400004D01*
X94468894Y-87404988D01*
X94498446Y-87420853D01*
X94568646Y-87471857D01*
X94750968Y-87564755D01*
X94945582Y-87627990D01*
X95147683Y-87660000D01*
X95352317Y-87660000D01*
X95554417Y-87627990D01*
X95749031Y-87564755D01*
X95931349Y-87471859D01*
X95975921Y-87439474D01*
X95296447Y-86760000D01*
X95302661Y-86760000D01*
X95404394Y-86732741D01*
X95495606Y-86680080D01*
X95570080Y-86605606D01*
X95622741Y-86514394D01*
X95650000Y-86412661D01*
X95650000Y-86406447D01*
X96329474Y-87085921D01*
X96361859Y-87041349D01*
X96454755Y-86859031D01*
X96517990Y-86664417D01*
X96550000Y-86462317D01*
X96550000Y-86257682D01*
X96517990Y-86055582D01*
X96454755Y-85860968D01*
X96361859Y-85678650D01*
X96329474Y-85634077D01*
X96329474Y-85634076D01*
X95650000Y-86313551D01*
X95650000Y-86307339D01*
X95622741Y-86205606D01*
X95570080Y-86114394D01*
X95495606Y-86039920D01*
X95404394Y-85987259D01*
X95302661Y-85960000D01*
X95296446Y-85960000D01*
X95975922Y-85280524D01*
X95975921Y-85280523D01*
X95931359Y-85248147D01*
X95931350Y-85248141D01*
X95749031Y-85155244D01*
X95554417Y-85092009D01*
X95352317Y-85060000D01*
X95147683Y-85060000D01*
X94945582Y-85092009D01*
X94750968Y-85155244D01*
X94568651Y-85248139D01*
X94498444Y-85299148D01*
X94432637Y-85322627D01*
X94364583Y-85306801D01*
X94337878Y-85286510D01*
X94268657Y-85217289D01*
X94268656Y-85217288D01*
X94119334Y-85125186D01*
X93952797Y-85070001D01*
X93952795Y-85070000D01*
X93850010Y-85059500D01*
X92649998Y-85059500D01*
X92649981Y-85059501D01*
X92547203Y-85070000D01*
X92547200Y-85070001D01*
X92380668Y-85125185D01*
X92380663Y-85125187D01*
X92231342Y-85217289D01*
X92107289Y-85341342D01*
X92015187Y-85490663D01*
X92015186Y-85490666D01*
X91960001Y-85657203D01*
X91960001Y-85657204D01*
X91960000Y-85657204D01*
X91949500Y-85759983D01*
X53840500Y-85759983D01*
X53840500Y-82418872D01*
X55149500Y-82418872D01*
X55149500Y-82681127D01*
X55176123Y-82883339D01*
X55183730Y-82941116D01*
X55251602Y-83194418D01*
X55251605Y-83194428D01*
X55351953Y-83436690D01*
X55351958Y-83436700D01*
X55483075Y-83663803D01*
X55642718Y-83871851D01*
X55642726Y-83871860D01*
X55828140Y-84057274D01*
X55828148Y-84057281D01*
X56036196Y-84216924D01*
X56263299Y-84348041D01*
X56263309Y-84348046D01*
X56505571Y-84448394D01*
X56505581Y-84448398D01*
X56758884Y-84516270D01*
X57018880Y-84550500D01*
X57018887Y-84550500D01*
X57281113Y-84550500D01*
X57281120Y-84550500D01*
X57541116Y-84516270D01*
X57794419Y-84448398D01*
X58036697Y-84348043D01*
X58263803Y-84216924D01*
X58471851Y-84057282D01*
X58471855Y-84057277D01*
X58471860Y-84057274D01*
X58657274Y-83871860D01*
X58657277Y-83871855D01*
X58657282Y-83871851D01*
X58816924Y-83663803D01*
X58948043Y-83436697D01*
X59048398Y-83194419D01*
X59116270Y-82941116D01*
X59150500Y-82681120D01*
X59150500Y-82418880D01*
X59116270Y-82158884D01*
X59048398Y-81905581D01*
X59000644Y-81790292D01*
X58948046Y-81663309D01*
X58948041Y-81663299D01*
X58816924Y-81436196D01*
X58657281Y-81228148D01*
X58657274Y-81228140D01*
X58471860Y-81042726D01*
X58471851Y-81042718D01*
X58263803Y-80883075D01*
X58036700Y-80751958D01*
X58036690Y-80751953D01*
X57794428Y-80651605D01*
X57794421Y-80651603D01*
X57794419Y-80651602D01*
X57541116Y-80583730D01*
X57483339Y-80576123D01*
X57281127Y-80549500D01*
X57281120Y-80549500D01*
X57018880Y-80549500D01*
X57018872Y-80549500D01*
X56787772Y-80579926D01*
X56758884Y-80583730D01*
X56505581Y-80651602D01*
X56505571Y-80651605D01*
X56263309Y-80751953D01*
X56263299Y-80751958D01*
X56036196Y-80883075D01*
X55828148Y-81042718D01*
X55642718Y-81228148D01*
X55483075Y-81436196D01*
X55351958Y-81663299D01*
X55351953Y-81663309D01*
X55251605Y-81905571D01*
X55251602Y-81905581D01*
X55212976Y-82049738D01*
X55183730Y-82158885D01*
X55149500Y-82418872D01*
X53840500Y-82418872D01*
X53840500Y-79897648D01*
X68699500Y-79897648D01*
X68699500Y-80102351D01*
X68731522Y-80304534D01*
X68794781Y-80499223D01*
X68887715Y-80681613D01*
X69008028Y-80847213D01*
X69152786Y-80991971D01*
X69277094Y-81082284D01*
X69318390Y-81112287D01*
X69434607Y-81171503D01*
X69500776Y-81205218D01*
X69500778Y-81205218D01*
X69500781Y-81205220D01*
X69603136Y-81238477D01*
X69695465Y-81268477D01*
X69796557Y-81284488D01*
X69897648Y-81300500D01*
X69897649Y-81300500D01*
X70102351Y-81300500D01*
X70102352Y-81300500D01*
X70304534Y-81268477D01*
X70499219Y-81205220D01*
X70681610Y-81112287D01*
X70777364Y-81042718D01*
X70847213Y-80991971D01*
X70847215Y-80991968D01*
X70847219Y-80991966D01*
X70991966Y-80847219D01*
X70991968Y-80847215D01*
X70991971Y-80847213D01*
X71044732Y-80774590D01*
X71112287Y-80681610D01*
X71205220Y-80499219D01*
X71268477Y-80304534D01*
X71300500Y-80102352D01*
X71300500Y-79897648D01*
X71295748Y-79867648D01*
X77439500Y-79867648D01*
X77439500Y-80072351D01*
X77471522Y-80274534D01*
X77534781Y-80469223D01*
X77575685Y-80549500D01*
X77627710Y-80651605D01*
X77627715Y-80651613D01*
X77748028Y-80817213D01*
X77892786Y-80961971D01*
X78047749Y-81074556D01*
X78058390Y-81082287D01*
X78174607Y-81141503D01*
X78240776Y-81175218D01*
X78240778Y-81175218D01*
X78240781Y-81175220D01*
X78345137Y-81209127D01*
X78435465Y-81238477D01*
X78536557Y-81254488D01*
X78637648Y-81270500D01*
X78637649Y-81270500D01*
X78842351Y-81270500D01*
X78842352Y-81270500D01*
X79044534Y-81238477D01*
X79239219Y-81175220D01*
X79421610Y-81082287D01*
X79514590Y-81014732D01*
X79587213Y-80961971D01*
X79587215Y-80961968D01*
X79587219Y-80961966D01*
X79731966Y-80817219D01*
X79731968Y-80817215D01*
X79731971Y-80817213D01*
X79784732Y-80744590D01*
X79852287Y-80651610D01*
X79945220Y-80469219D01*
X80008477Y-80274534D01*
X80040500Y-80072352D01*
X80040500Y-79867648D01*
X80013229Y-79695466D01*
X80008477Y-79665465D01*
X79960000Y-79516269D01*
X79945220Y-79470781D01*
X79945218Y-79470778D01*
X79945218Y-79470776D01*
X79882683Y-79348046D01*
X79852287Y-79288390D01*
X79844556Y-79277749D01*
X79731971Y-79122786D01*
X79587213Y-78978028D01*
X79421614Y-78857715D01*
X79240732Y-78765551D01*
X79240730Y-78765549D01*
X79240729Y-78765549D01*
X79239224Y-78764782D01*
X79239221Y-78764781D01*
X79239219Y-78764780D01*
X79186085Y-78747515D01*
X79044534Y-78701522D01*
X78869995Y-78673878D01*
X78842352Y-78669500D01*
X78637648Y-78669500D01*
X78613329Y-78673351D01*
X78435465Y-78701522D01*
X78240776Y-78764781D01*
X78058386Y-78857715D01*
X77892786Y-78978028D01*
X77748028Y-79122786D01*
X77627715Y-79288386D01*
X77534781Y-79470776D01*
X77471522Y-79665465D01*
X77439500Y-79867648D01*
X71295748Y-79867648D01*
X71268477Y-79695466D01*
X71258729Y-79665466D01*
X71239127Y-79605137D01*
X71205220Y-79500781D01*
X71205218Y-79500778D01*
X71205218Y-79500776D01*
X71171503Y-79434607D01*
X71112287Y-79318390D01*
X71090488Y-79288386D01*
X70991971Y-79152786D01*
X70847213Y-79008028D01*
X70681613Y-78887715D01*
X70681612Y-78887714D01*
X70681610Y-78887713D01*
X70622732Y-78857713D01*
X70499223Y-78794781D01*
X70304534Y-78731522D01*
X70129995Y-78703878D01*
X70102352Y-78699500D01*
X69897648Y-78699500D01*
X69873329Y-78703351D01*
X69695465Y-78731522D01*
X69500776Y-78794781D01*
X69318386Y-78887715D01*
X69152786Y-79008028D01*
X69008028Y-79152786D01*
X68887715Y-79318386D01*
X68794781Y-79500776D01*
X68731522Y-79695465D01*
X68699500Y-79897648D01*
X53840500Y-79897648D01*
X53840500Y-77418872D01*
X55149500Y-77418872D01*
X55149500Y-77681127D01*
X55171625Y-77849172D01*
X55183730Y-77941116D01*
X55237980Y-78143580D01*
X55251602Y-78194418D01*
X55251605Y-78194428D01*
X55351953Y-78436690D01*
X55351958Y-78436700D01*
X55483075Y-78663803D01*
X55642718Y-78871851D01*
X55642726Y-78871860D01*
X55828140Y-79057274D01*
X55828148Y-79057281D01*
X56036196Y-79216924D01*
X56263299Y-79348041D01*
X56263309Y-79348046D01*
X56505571Y-79448394D01*
X56505581Y-79448398D01*
X56758884Y-79516270D01*
X57018880Y-79550500D01*
X57018887Y-79550500D01*
X57281113Y-79550500D01*
X57281120Y-79550500D01*
X57541116Y-79516270D01*
X57794419Y-79448398D01*
X58036697Y-79348043D01*
X58263803Y-79216924D01*
X58471851Y-79057282D01*
X58471855Y-79057277D01*
X58471860Y-79057274D01*
X58657274Y-78871860D01*
X58657277Y-78871855D01*
X58657282Y-78871851D01*
X58816924Y-78663803D01*
X58818454Y-78661153D01*
X83019500Y-78661153D01*
X83019500Y-78818846D01*
X83050261Y-78973489D01*
X83050264Y-78973501D01*
X83110061Y-79117864D01*
X83119500Y-79165316D01*
X83119500Y-80854684D01*
X83110061Y-80902136D01*
X83050264Y-81046498D01*
X83050261Y-81046510D01*
X83019500Y-81201153D01*
X83019500Y-81358846D01*
X83050261Y-81513489D01*
X83050264Y-81513501D01*
X83110602Y-81659172D01*
X83110609Y-81659185D01*
X83198210Y-81790288D01*
X83198213Y-81790292D01*
X83309707Y-81901786D01*
X83309711Y-81901789D01*
X83440814Y-81989390D01*
X83440827Y-81989397D01*
X83586498Y-82049735D01*
X83586503Y-82049737D01*
X83741153Y-82080499D01*
X83741156Y-82080500D01*
X83741158Y-82080500D01*
X83898844Y-82080500D01*
X83898845Y-82080499D01*
X84053497Y-82049737D01*
X84199179Y-81989394D01*
X84330289Y-81901789D01*
X84441789Y-81790289D01*
X84529394Y-81659179D01*
X84589737Y-81513497D01*
X84620500Y-81358842D01*
X84620500Y-81201158D01*
X84620500Y-81201155D01*
X84620499Y-81201153D01*
X84589738Y-81046510D01*
X84589737Y-81046503D01*
X84529939Y-80902136D01*
X84520500Y-80854684D01*
X84520500Y-79165316D01*
X84529939Y-79117864D01*
X84575434Y-79008028D01*
X84589737Y-78973497D01*
X84620500Y-78818842D01*
X84620500Y-78661158D01*
X84620500Y-78661155D01*
X84620499Y-78661153D01*
X84589738Y-78506510D01*
X84589737Y-78506503D01*
X84560820Y-78436690D01*
X84529397Y-78360827D01*
X84529390Y-78360814D01*
X84441789Y-78229711D01*
X84441786Y-78229707D01*
X84330292Y-78118213D01*
X84330288Y-78118210D01*
X84199185Y-78030609D01*
X84199172Y-78030602D01*
X84053501Y-77970264D01*
X84053489Y-77970261D01*
X83898845Y-77939500D01*
X83898842Y-77939500D01*
X83741158Y-77939500D01*
X83741155Y-77939500D01*
X83586510Y-77970261D01*
X83586498Y-77970264D01*
X83440827Y-78030602D01*
X83440814Y-78030609D01*
X83309711Y-78118210D01*
X83309707Y-78118213D01*
X83198213Y-78229707D01*
X83198210Y-78229711D01*
X83110609Y-78360814D01*
X83110602Y-78360827D01*
X83050264Y-78506498D01*
X83050261Y-78506510D01*
X83019500Y-78661153D01*
X58818454Y-78661153D01*
X58948043Y-78436697D01*
X59048398Y-78194419D01*
X59116270Y-77941116D01*
X59150500Y-77681120D01*
X59150500Y-77418880D01*
X59146850Y-77391153D01*
X62699500Y-77391153D01*
X62699500Y-77548846D01*
X62730261Y-77703489D01*
X62730264Y-77703501D01*
X62790602Y-77849172D01*
X62790609Y-77849185D01*
X62878210Y-77980288D01*
X62878213Y-77980292D01*
X62989707Y-78091786D01*
X62989711Y-78091789D01*
X63120814Y-78179390D01*
X63120827Y-78179397D01*
X63242288Y-78229707D01*
X63266503Y-78239737D01*
X63421153Y-78270499D01*
X63421156Y-78270500D01*
X63421158Y-78270500D01*
X63578844Y-78270500D01*
X63578845Y-78270499D01*
X63733497Y-78239737D01*
X63808963Y-78208478D01*
X63877864Y-78179939D01*
X63925316Y-78170500D01*
X76308996Y-78170500D01*
X76400040Y-78152389D01*
X76444328Y-78143580D01*
X76508069Y-78117177D01*
X76571807Y-78090777D01*
X76571808Y-78090776D01*
X76571811Y-78090775D01*
X76686543Y-78014114D01*
X78413852Y-76286803D01*
X78475173Y-76253320D01*
X78520929Y-76252013D01*
X78575395Y-76260639D01*
X78637648Y-76270500D01*
X78637649Y-76270500D01*
X78842351Y-76270500D01*
X78842352Y-76270500D01*
X79044534Y-76238477D01*
X79239219Y-76175220D01*
X79421610Y-76082287D01*
X79514590Y-76014732D01*
X79587213Y-75961971D01*
X79587215Y-75961968D01*
X79587219Y-75961966D01*
X79731966Y-75817219D01*
X79731968Y-75817215D01*
X79731971Y-75817213D01*
X79784732Y-75744590D01*
X79852287Y-75651610D01*
X79945220Y-75469219D01*
X80008477Y-75274534D01*
X80040500Y-75072352D01*
X80040500Y-74867648D01*
X80037887Y-74851153D01*
X80008477Y-74665465D01*
X79979127Y-74575137D01*
X79945220Y-74470781D01*
X79945218Y-74470778D01*
X79945218Y-74470776D01*
X79907061Y-74395890D01*
X79852287Y-74288390D01*
X79803042Y-74220609D01*
X79731971Y-74122786D01*
X79587213Y-73978028D01*
X79421613Y-73857715D01*
X79421612Y-73857714D01*
X79421610Y-73857713D01*
X79364653Y-73828691D01*
X79239223Y-73764781D01*
X79044534Y-73701522D01*
X78868547Y-73673649D01*
X78842352Y-73669500D01*
X78637648Y-73669500D01*
X78613329Y-73673351D01*
X78435465Y-73701522D01*
X78240776Y-73764781D01*
X78058386Y-73857715D01*
X77892786Y-73978028D01*
X77748028Y-74122786D01*
X77627715Y-74288386D01*
X77534781Y-74470776D01*
X77471522Y-74665465D01*
X77439500Y-74867648D01*
X77439500Y-75072351D01*
X77457986Y-75189068D01*
X77449031Y-75258362D01*
X77423194Y-75296147D01*
X75986162Y-76733181D01*
X75924839Y-76766666D01*
X75898481Y-76769500D01*
X63925316Y-76769500D01*
X63877864Y-76760061D01*
X63733501Y-76700264D01*
X63733489Y-76700261D01*
X63578845Y-76669500D01*
X63578842Y-76669500D01*
X63421158Y-76669500D01*
X63421155Y-76669500D01*
X63266510Y-76700261D01*
X63266498Y-76700264D01*
X63120827Y-76760602D01*
X63120814Y-76760609D01*
X62989711Y-76848210D01*
X62989707Y-76848213D01*
X62878213Y-76959707D01*
X62878210Y-76959711D01*
X62790609Y-77090814D01*
X62790602Y-77090827D01*
X62730264Y-77236498D01*
X62730261Y-77236510D01*
X62699500Y-77391153D01*
X59146850Y-77391153D01*
X59116270Y-77158884D01*
X59048398Y-76905581D01*
X59048394Y-76905571D01*
X58948046Y-76663309D01*
X58948041Y-76663299D01*
X58816924Y-76436196D01*
X58688227Y-76268477D01*
X58657282Y-76228149D01*
X58657281Y-76228148D01*
X58657274Y-76228140D01*
X58471860Y-76042726D01*
X58471851Y-76042718D01*
X58263803Y-75883075D01*
X58036700Y-75751958D01*
X58036690Y-75751953D01*
X57794428Y-75651605D01*
X57794421Y-75651603D01*
X57794419Y-75651602D01*
X57541116Y-75583730D01*
X57483339Y-75576123D01*
X57281127Y-75549500D01*
X57281120Y-75549500D01*
X57018880Y-75549500D01*
X57018872Y-75549500D01*
X56787772Y-75579926D01*
X56758884Y-75583730D01*
X56551157Y-75639390D01*
X56505581Y-75651602D01*
X56505571Y-75651605D01*
X56263309Y-75751953D01*
X56263299Y-75751958D01*
X56036196Y-75883075D01*
X55828148Y-76042718D01*
X55642718Y-76228148D01*
X55483075Y-76436196D01*
X55351958Y-76663299D01*
X55351953Y-76663309D01*
X55251605Y-76905571D01*
X55251602Y-76905581D01*
X55201968Y-77090821D01*
X55183730Y-77158885D01*
X55149500Y-77418872D01*
X53840500Y-77418872D01*
X53840500Y-74897648D01*
X68699500Y-74897648D01*
X68699500Y-75102351D01*
X68731522Y-75304534D01*
X68794781Y-75499223D01*
X68887715Y-75681613D01*
X69008028Y-75847213D01*
X69152786Y-75991971D01*
X69277094Y-76082284D01*
X69318390Y-76112287D01*
X69434607Y-76171503D01*
X69500776Y-76205218D01*
X69500778Y-76205218D01*
X69500781Y-76205220D01*
X69603136Y-76238477D01*
X69695465Y-76268477D01*
X69796557Y-76284488D01*
X69897648Y-76300500D01*
X69897649Y-76300500D01*
X70102351Y-76300500D01*
X70102352Y-76300500D01*
X70304534Y-76268477D01*
X70499219Y-76205220D01*
X70681610Y-76112287D01*
X70777364Y-76042718D01*
X70847213Y-75991971D01*
X70847215Y-75991968D01*
X70847219Y-75991966D01*
X70991966Y-75847219D01*
X70991968Y-75847215D01*
X70991971Y-75847213D01*
X71044732Y-75774590D01*
X71112287Y-75681610D01*
X71205220Y-75499219D01*
X71268477Y-75304534D01*
X71300500Y-75102352D01*
X71300500Y-74897648D01*
X71293136Y-74851153D01*
X71589500Y-74851153D01*
X71589500Y-75008846D01*
X71620261Y-75163489D01*
X71620264Y-75163501D01*
X71680602Y-75309172D01*
X71680609Y-75309185D01*
X71768210Y-75440288D01*
X71768213Y-75440292D01*
X71879707Y-75551786D01*
X71879711Y-75551789D01*
X72010814Y-75639390D01*
X72010827Y-75639397D01*
X72112740Y-75681610D01*
X72156503Y-75699737D01*
X72311153Y-75730499D01*
X72311156Y-75730500D01*
X72311158Y-75730500D01*
X72468844Y-75730500D01*
X72468845Y-75730499D01*
X72623497Y-75699737D01*
X72736166Y-75653067D01*
X72769172Y-75639397D01*
X72769172Y-75639396D01*
X72769179Y-75639394D01*
X72900289Y-75551789D01*
X73011789Y-75440289D01*
X73099394Y-75309179D01*
X73159193Y-75164809D01*
X73186070Y-75124584D01*
X75183837Y-73126819D01*
X75245160Y-73093334D01*
X75271518Y-73090500D01*
X78314684Y-73090500D01*
X78362136Y-73099939D01*
X78427031Y-73126819D01*
X78506503Y-73159737D01*
X78661153Y-73190499D01*
X78661156Y-73190500D01*
X78661158Y-73190500D01*
X78818844Y-73190500D01*
X78818845Y-73190499D01*
X78973497Y-73159737D01*
X79119179Y-73099394D01*
X79250289Y-73011789D01*
X79361789Y-72900289D01*
X79449394Y-72769179D01*
X79509737Y-72623497D01*
X79540500Y-72468842D01*
X79540500Y-72311158D01*
X79540500Y-72311155D01*
X79540499Y-72311153D01*
X79509738Y-72156510D01*
X79509737Y-72156503D01*
X79509735Y-72156498D01*
X79449397Y-72010827D01*
X79449390Y-72010814D01*
X79361789Y-71879711D01*
X79361786Y-71879707D01*
X79250292Y-71768213D01*
X79250288Y-71768210D01*
X79119185Y-71680609D01*
X79119172Y-71680602D01*
X78973501Y-71620264D01*
X78973489Y-71620261D01*
X78818845Y-71589500D01*
X78818842Y-71589500D01*
X78661158Y-71589500D01*
X78661155Y-71589500D01*
X78506510Y-71620261D01*
X78506498Y-71620264D01*
X78362136Y-71680061D01*
X78314684Y-71689500D01*
X74861005Y-71689500D01*
X74790336Y-71703557D01*
X74755001Y-71710586D01*
X74725671Y-71716420D01*
X74725669Y-71716420D01*
X74725668Y-71716421D01*
X74725660Y-71716423D01*
X74672865Y-71738292D01*
X74598191Y-71769223D01*
X74502636Y-71833072D01*
X74502635Y-71833073D01*
X74483454Y-71845888D01*
X72195414Y-74133928D01*
X72155186Y-74160808D01*
X72010823Y-74220604D01*
X72010814Y-74220609D01*
X71879711Y-74308210D01*
X71879707Y-74308213D01*
X71768213Y-74419707D01*
X71768210Y-74419711D01*
X71680609Y-74550814D01*
X71680602Y-74550827D01*
X71620264Y-74696498D01*
X71620261Y-74696510D01*
X71589500Y-74851153D01*
X71293136Y-74851153D01*
X71275214Y-74738000D01*
X71268477Y-74695465D01*
X71221477Y-74550814D01*
X71205220Y-74500781D01*
X71205218Y-74500778D01*
X71205218Y-74500776D01*
X71151775Y-74395890D01*
X71112287Y-74318390D01*
X71041246Y-74220609D01*
X70991971Y-74152786D01*
X70847213Y-74008028D01*
X70681613Y-73887715D01*
X70681612Y-73887714D01*
X70681610Y-73887713D01*
X70622732Y-73857713D01*
X70499223Y-73794781D01*
X70304534Y-73731522D01*
X70129995Y-73703878D01*
X70102352Y-73699500D01*
X69897648Y-73699500D01*
X69873329Y-73703351D01*
X69695465Y-73731522D01*
X69500776Y-73794781D01*
X69318386Y-73887715D01*
X69152786Y-74008028D01*
X69008028Y-74152786D01*
X68887715Y-74318386D01*
X68794781Y-74500776D01*
X68731522Y-74695465D01*
X68699500Y-74897648D01*
X53840500Y-74897648D01*
X53840500Y-71002135D01*
X55149500Y-71002135D01*
X55149500Y-74097870D01*
X55149501Y-74097876D01*
X55155908Y-74157483D01*
X55206202Y-74292328D01*
X55206206Y-74292335D01*
X55292452Y-74407544D01*
X55292455Y-74407547D01*
X55407664Y-74493793D01*
X55407671Y-74493797D01*
X55542517Y-74544091D01*
X55542516Y-74544091D01*
X55549444Y-74544835D01*
X55602127Y-74550500D01*
X58697872Y-74550499D01*
X58757483Y-74544091D01*
X58892331Y-74493796D01*
X59007546Y-74407546D01*
X59093796Y-74292331D01*
X59144091Y-74157483D01*
X59150500Y-74097873D01*
X59150499Y-71002128D01*
X59144091Y-70942517D01*
X59093796Y-70807669D01*
X59093795Y-70807668D01*
X59093793Y-70807664D01*
X59007547Y-70692455D01*
X59007544Y-70692452D01*
X58892335Y-70606206D01*
X58892328Y-70606202D01*
X58757482Y-70555908D01*
X58757483Y-70555908D01*
X58697883Y-70549501D01*
X58697881Y-70549500D01*
X58697873Y-70549500D01*
X58697864Y-70549500D01*
X55602129Y-70549500D01*
X55602123Y-70549501D01*
X55542516Y-70555908D01*
X55407671Y-70606202D01*
X55407664Y-70606206D01*
X55292455Y-70692452D01*
X55292452Y-70692455D01*
X55206206Y-70807664D01*
X55206202Y-70807671D01*
X55155908Y-70942517D01*
X55149501Y-71002116D01*
X55149501Y-71002123D01*
X55149500Y-71002135D01*
X53840500Y-71002135D01*
X53840500Y-59611153D01*
X76669500Y-59611153D01*
X76669500Y-59768846D01*
X76700261Y-59923489D01*
X76700264Y-59923501D01*
X76760602Y-60069172D01*
X76760609Y-60069185D01*
X76848210Y-60200288D01*
X76848213Y-60200292D01*
X76959707Y-60311786D01*
X76959711Y-60311789D01*
X77090814Y-60399390D01*
X77090827Y-60399397D01*
X77235185Y-60459191D01*
X77275414Y-60486071D01*
X78333453Y-61544111D01*
X78333454Y-61544112D01*
X78448192Y-61620777D01*
X78575667Y-61673578D01*
X78575672Y-61673580D01*
X78575676Y-61673580D01*
X78575677Y-61673581D01*
X78711003Y-61700500D01*
X78711006Y-61700500D01*
X78711007Y-61700500D01*
X82838256Y-61700500D01*
X82905295Y-61720185D01*
X82938575Y-61751616D01*
X83008030Y-61847215D01*
X83152786Y-61991971D01*
X83318388Y-62112286D01*
X83371828Y-62139516D01*
X83422623Y-62187490D01*
X83439418Y-62255312D01*
X83416880Y-62321446D01*
X83371828Y-62360484D01*
X83318388Y-62387713D01*
X83152786Y-62508028D01*
X83008028Y-62652786D01*
X82887715Y-62818386D01*
X82794781Y-63000776D01*
X82731522Y-63195465D01*
X82699500Y-63397648D01*
X82699500Y-63602351D01*
X82731522Y-63804534D01*
X82794781Y-63999223D01*
X82887715Y-64181613D01*
X83008028Y-64347213D01*
X83152786Y-64491971D01*
X83246857Y-64560316D01*
X83318390Y-64612287D01*
X83434607Y-64671503D01*
X83500776Y-64705218D01*
X83500778Y-64705218D01*
X83500781Y-64705220D01*
X83605137Y-64739127D01*
X83695465Y-64768477D01*
X83796557Y-64784488D01*
X83897648Y-64800500D01*
X83897649Y-64800500D01*
X84102351Y-64800500D01*
X84102352Y-64800500D01*
X84304534Y-64768477D01*
X84499219Y-64705220D01*
X84681610Y-64612287D01*
X84774590Y-64544732D01*
X84847213Y-64491971D01*
X84847215Y-64491968D01*
X84847219Y-64491966D01*
X84991966Y-64347219D01*
X84991968Y-64347215D01*
X84991971Y-64347213D01*
X85088866Y-64213846D01*
X85112287Y-64181610D01*
X85205220Y-63999219D01*
X85268477Y-63804534D01*
X85300500Y-63602352D01*
X85300500Y-63397648D01*
X85283892Y-63292790D01*
X85268477Y-63195465D01*
X85205218Y-63000776D01*
X85121444Y-62836361D01*
X85112285Y-62818386D01*
X85088867Y-62786153D01*
X88734500Y-62786153D01*
X88734500Y-62943846D01*
X88765261Y-63098489D01*
X88765264Y-63098501D01*
X88825602Y-63244172D01*
X88825609Y-63244185D01*
X88913210Y-63375288D01*
X88913213Y-63375292D01*
X89024707Y-63486786D01*
X89024711Y-63486789D01*
X89155814Y-63574390D01*
X89155827Y-63574397D01*
X89301498Y-63634735D01*
X89301503Y-63634737D01*
X89456153Y-63665499D01*
X89456156Y-63665500D01*
X89456158Y-63665500D01*
X89613844Y-63665500D01*
X89613845Y-63665499D01*
X89768497Y-63634737D01*
X89914179Y-63574394D01*
X90045289Y-63486789D01*
X90156789Y-63375289D01*
X90244394Y-63244179D01*
X90304193Y-63099809D01*
X90331070Y-63059584D01*
X92328837Y-61061819D01*
X92390160Y-61028334D01*
X92416518Y-61025500D01*
X93800786Y-61025500D01*
X93867825Y-61045185D01*
X93913580Y-61097989D01*
X93923524Y-61167147D01*
X93907195Y-61209760D01*
X93908479Y-61210446D01*
X93905602Y-61215827D01*
X93845264Y-61361498D01*
X93845261Y-61361510D01*
X93814500Y-61516153D01*
X93814500Y-61673846D01*
X93845261Y-61828489D01*
X93845264Y-61828501D01*
X93905061Y-61972864D01*
X93914500Y-62020316D01*
X93914500Y-66249684D01*
X93905061Y-66297136D01*
X93845264Y-66441498D01*
X93845261Y-66441510D01*
X93814500Y-66596153D01*
X93814500Y-66753846D01*
X93845261Y-66908489D01*
X93845264Y-66908501D01*
X93905602Y-67054172D01*
X93905609Y-67054185D01*
X93993210Y-67185288D01*
X93993213Y-67185292D01*
X94104707Y-67296786D01*
X94104711Y-67296789D01*
X94235814Y-67384390D01*
X94235827Y-67384397D01*
X94381498Y-67444735D01*
X94381503Y-67444737D01*
X94536153Y-67475499D01*
X94536156Y-67475500D01*
X94536158Y-67475500D01*
X94693844Y-67475500D01*
X94693845Y-67475499D01*
X94848497Y-67444737D01*
X94994179Y-67384394D01*
X95125289Y-67296789D01*
X95236789Y-67185289D01*
X95324394Y-67054179D01*
X95384737Y-66908497D01*
X95415500Y-66753842D01*
X95415500Y-66596158D01*
X95415500Y-66596155D01*
X95415499Y-66596153D01*
X95384738Y-66441510D01*
X95384737Y-66441503D01*
X95324939Y-66297136D01*
X95315500Y-66249684D01*
X95315500Y-62020316D01*
X95324939Y-61972864D01*
X95376984Y-61847215D01*
X95384737Y-61828497D01*
X95415500Y-61673842D01*
X95415500Y-61516158D01*
X95415500Y-61516155D01*
X95415499Y-61516153D01*
X95405076Y-61463753D01*
X95384737Y-61361503D01*
X95324714Y-61216593D01*
X95324397Y-61215827D01*
X95321521Y-61210446D01*
X95323322Y-61209483D01*
X95323073Y-61208689D01*
X95316420Y-61201011D01*
X95312810Y-61175910D01*
X95305234Y-61151710D01*
X95307922Y-61141911D01*
X95306476Y-61131853D01*
X95317012Y-61108782D01*
X95323721Y-61084330D01*
X95331279Y-61077540D01*
X95335501Y-61068297D01*
X95356835Y-61054586D01*
X95375701Y-61037641D01*
X95387296Y-61035010D01*
X95394279Y-61030523D01*
X95429214Y-61025500D01*
X95543481Y-61025500D01*
X95610520Y-61045185D01*
X95631162Y-61061819D01*
X97688181Y-63118837D01*
X97721666Y-63180160D01*
X97724500Y-63206518D01*
X97724500Y-63709684D01*
X97715061Y-63757136D01*
X97655264Y-63901498D01*
X97655261Y-63901510D01*
X97624500Y-64056153D01*
X97624500Y-64213846D01*
X97655261Y-64368489D01*
X97655264Y-64368501D01*
X97715061Y-64512864D01*
X97724500Y-64560316D01*
X97724500Y-95459684D01*
X97715061Y-95507136D01*
X97655264Y-95651498D01*
X97655261Y-95651510D01*
X97624500Y-95806153D01*
X97624500Y-95963846D01*
X97655261Y-96118489D01*
X97655264Y-96118501D01*
X97715602Y-96264172D01*
X97715609Y-96264185D01*
X97803210Y-96395288D01*
X97803213Y-96395292D01*
X97914707Y-96506786D01*
X97914711Y-96506789D01*
X98045814Y-96594390D01*
X98045827Y-96594397D01*
X98167288Y-96644707D01*
X98191503Y-96654737D01*
X98346153Y-96685499D01*
X98346156Y-96685500D01*
X98346158Y-96685500D01*
X98503844Y-96685500D01*
X98503845Y-96685499D01*
X98658497Y-96654737D01*
X98804179Y-96594394D01*
X98935289Y-96506789D01*
X99046789Y-96395289D01*
X99134394Y-96264179D01*
X99194737Y-96118497D01*
X99225500Y-95963842D01*
X99225500Y-95806158D01*
X99225500Y-95806155D01*
X99225499Y-95806153D01*
X99194738Y-95651510D01*
X99194737Y-95651503D01*
X99134939Y-95507136D01*
X99125500Y-95459684D01*
X99125500Y-92083549D01*
X111329500Y-92083549D01*
X111329500Y-92306450D01*
X111329501Y-92306466D01*
X111358594Y-92527452D01*
X111358595Y-92527457D01*
X111358596Y-92527463D01*
X111405530Y-92702624D01*
X111416290Y-92742780D01*
X111416293Y-92742790D01*
X111490613Y-92922213D01*
X111501595Y-92948726D01*
X111613052Y-93141774D01*
X111613057Y-93141780D01*
X111613058Y-93141782D01*
X111748751Y-93318622D01*
X111748757Y-93318629D01*
X111906370Y-93476242D01*
X111906376Y-93476247D01*
X112083226Y-93611948D01*
X112276274Y-93723405D01*
X112482219Y-93808710D01*
X112697537Y-93866404D01*
X112918543Y-93895500D01*
X112918550Y-93895500D01*
X113141450Y-93895500D01*
X113141457Y-93895500D01*
X113362463Y-93866404D01*
X113577781Y-93808710D01*
X113783726Y-93723405D01*
X113976774Y-93611948D01*
X114153624Y-93476247D01*
X114311247Y-93318624D01*
X114446948Y-93141774D01*
X114558405Y-92948726D01*
X114643710Y-92742781D01*
X114701404Y-92527463D01*
X114730500Y-92306457D01*
X114730500Y-92083543D01*
X114701404Y-91862537D01*
X114643710Y-91647219D01*
X114558405Y-91441274D01*
X114446948Y-91248226D01*
X114407867Y-91197294D01*
X114311248Y-91071377D01*
X114311242Y-91071370D01*
X114153629Y-90913757D01*
X114153622Y-90913751D01*
X113976782Y-90778058D01*
X113976780Y-90778057D01*
X113976774Y-90778052D01*
X113783726Y-90666595D01*
X113783722Y-90666593D01*
X113577790Y-90581293D01*
X113577783Y-90581291D01*
X113577781Y-90581290D01*
X113362463Y-90523596D01*
X113362457Y-90523595D01*
X113362452Y-90523594D01*
X113141466Y-90494501D01*
X113141463Y-90494500D01*
X113141457Y-90494500D01*
X112918543Y-90494500D01*
X112918537Y-90494500D01*
X112918533Y-90494501D01*
X112697547Y-90523594D01*
X112697540Y-90523595D01*
X112697537Y-90523596D01*
X112482219Y-90581290D01*
X112482209Y-90581293D01*
X112276277Y-90666593D01*
X112276273Y-90666595D01*
X112083226Y-90778052D01*
X112083217Y-90778058D01*
X111906377Y-90913751D01*
X111906370Y-90913757D01*
X111748757Y-91071370D01*
X111748751Y-91071377D01*
X111613058Y-91248217D01*
X111613052Y-91248226D01*
X111501595Y-91441273D01*
X111501593Y-91441277D01*
X111416293Y-91647209D01*
X111416290Y-91647219D01*
X111383267Y-91770465D01*
X111358597Y-91862534D01*
X111358594Y-91862547D01*
X111329501Y-92083533D01*
X111329500Y-92083549D01*
X99125500Y-92083549D01*
X99125500Y-73971909D01*
X127811000Y-73971909D01*
X127811000Y-74204090D01*
X127847318Y-74433393D01*
X127919065Y-74654205D01*
X128024465Y-74861064D01*
X128081238Y-74939207D01*
X128684958Y-74335487D01*
X128709978Y-74395890D01*
X128781112Y-74502351D01*
X128871649Y-74592888D01*
X128978110Y-74664022D01*
X129038510Y-74689041D01*
X128434791Y-75292759D01*
X128434791Y-75292760D01*
X128512935Y-75349534D01*
X128719794Y-75454934D01*
X128940606Y-75526681D01*
X129169910Y-75563000D01*
X129402090Y-75563000D01*
X129631393Y-75526681D01*
X129852205Y-75454934D01*
X130059071Y-75349530D01*
X130137207Y-75292762D01*
X130137208Y-75292760D01*
X129533488Y-74689041D01*
X129593890Y-74664022D01*
X129700351Y-74592888D01*
X129790888Y-74502351D01*
X129862022Y-74395890D01*
X129887041Y-74335489D01*
X130490760Y-74939208D01*
X130490762Y-74939207D01*
X130547530Y-74861071D01*
X130652934Y-74654205D01*
X130724681Y-74433393D01*
X130761000Y-74204090D01*
X130761000Y-73971909D01*
X130724681Y-73742606D01*
X130652934Y-73521794D01*
X130547534Y-73314935D01*
X130490760Y-73236791D01*
X130490759Y-73236791D01*
X129887041Y-73840510D01*
X129862022Y-73780110D01*
X129790888Y-73673649D01*
X129700351Y-73583112D01*
X129593890Y-73511978D01*
X129533487Y-73486957D01*
X130137207Y-72883238D01*
X130059064Y-72826465D01*
X129852205Y-72721065D01*
X129631393Y-72649318D01*
X129402090Y-72613000D01*
X129169910Y-72613000D01*
X128940606Y-72649318D01*
X128719794Y-72721065D01*
X128512925Y-72826470D01*
X128434791Y-72883237D01*
X128434791Y-72883238D01*
X129038511Y-73486958D01*
X128978110Y-73511978D01*
X128871649Y-73583112D01*
X128781112Y-73673649D01*
X128709978Y-73780110D01*
X128684958Y-73840511D01*
X128081238Y-73236791D01*
X128081237Y-73236791D01*
X128024470Y-73314925D01*
X127919065Y-73521794D01*
X127847318Y-73742606D01*
X127811000Y-73971909D01*
X99125500Y-73971909D01*
X99125500Y-68971870D01*
X127810500Y-68971870D01*
X127810500Y-69204129D01*
X127846831Y-69433514D01*
X127918601Y-69654400D01*
X128024039Y-69861331D01*
X128160551Y-70049224D01*
X128324776Y-70213449D01*
X128512669Y-70349961D01*
X128610436Y-70399776D01*
X128719599Y-70455398D01*
X128719601Y-70455398D01*
X128719604Y-70455400D01*
X128940486Y-70527169D01*
X129058668Y-70545886D01*
X129169871Y-70563500D01*
X129169876Y-70563500D01*
X129402129Y-70563500D01*
X129503502Y-70547443D01*
X129631514Y-70527169D01*
X129852396Y-70455400D01*
X130059331Y-70349961D01*
X130247224Y-70213449D01*
X130411449Y-70049224D01*
X130547961Y-69861331D01*
X130653400Y-69654396D01*
X130725169Y-69433514D01*
X130745443Y-69305502D01*
X130761500Y-69204129D01*
X130761500Y-68971870D01*
X130742232Y-68850222D01*
X130725169Y-68742486D01*
X130653400Y-68521604D01*
X130653398Y-68521601D01*
X130653398Y-68521599D01*
X130547960Y-68314668D01*
X130411449Y-68126776D01*
X130247224Y-67962551D01*
X130059331Y-67826039D01*
X129852400Y-67720601D01*
X129631514Y-67648831D01*
X129402129Y-67612500D01*
X129402124Y-67612500D01*
X129169876Y-67612500D01*
X129169871Y-67612500D01*
X128940485Y-67648831D01*
X128719599Y-67720601D01*
X128512668Y-67826039D01*
X128324773Y-67962553D01*
X128160553Y-68126773D01*
X128024039Y-68314668D01*
X127918601Y-68521599D01*
X127846831Y-68742485D01*
X127810500Y-68971870D01*
X99125500Y-68971870D01*
X99125500Y-64560316D01*
X99134939Y-64512864D01*
X99194735Y-64368501D01*
X99194737Y-64368497D01*
X99225500Y-64213842D01*
X99225500Y-64056158D01*
X99225500Y-64056155D01*
X99225499Y-64056153D01*
X99194738Y-63901510D01*
X99194737Y-63901503D01*
X99181117Y-63868622D01*
X99134939Y-63757136D01*
X99125500Y-63709684D01*
X99125500Y-62796004D01*
X99099036Y-62662966D01*
X99098580Y-62660672D01*
X99097634Y-62658389D01*
X99087345Y-62633549D01*
X111329500Y-62633549D01*
X111329500Y-62856450D01*
X111329501Y-62856466D01*
X111358594Y-63077452D01*
X111358595Y-63077457D01*
X111358596Y-63077463D01*
X111403269Y-63244185D01*
X111416290Y-63292780D01*
X111416293Y-63292790D01*
X111501593Y-63498722D01*
X111501595Y-63498726D01*
X111613052Y-63691774D01*
X111613057Y-63691780D01*
X111613058Y-63691782D01*
X111748751Y-63868622D01*
X111748757Y-63868629D01*
X111906370Y-64026242D01*
X111906376Y-64026247D01*
X112083226Y-64161948D01*
X112276274Y-64273405D01*
X112406140Y-64327197D01*
X112454462Y-64347213D01*
X112482219Y-64358710D01*
X112697537Y-64416404D01*
X112918543Y-64445500D01*
X112918550Y-64445500D01*
X113141450Y-64445500D01*
X113141457Y-64445500D01*
X113362463Y-64416404D01*
X113577781Y-64358710D01*
X113783726Y-64273405D01*
X113976774Y-64161948D01*
X114153624Y-64026247D01*
X114311247Y-63868624D01*
X114446948Y-63691774D01*
X114558405Y-63498726D01*
X114643710Y-63292781D01*
X114701404Y-63077463D01*
X114730500Y-62856457D01*
X114730500Y-62633543D01*
X114701404Y-62412537D01*
X114643710Y-62197219D01*
X114558405Y-61991274D01*
X114446948Y-61798226D01*
X114357466Y-61681610D01*
X114311248Y-61621377D01*
X114311242Y-61621370D01*
X114153629Y-61463757D01*
X114153622Y-61463751D01*
X113976782Y-61328058D01*
X113976780Y-61328057D01*
X113976774Y-61328052D01*
X113783726Y-61216595D01*
X113783722Y-61216593D01*
X113577790Y-61131293D01*
X113577783Y-61131291D01*
X113577781Y-61131290D01*
X113362463Y-61073596D01*
X113362457Y-61073595D01*
X113362452Y-61073594D01*
X113141466Y-61044501D01*
X113141463Y-61044500D01*
X113141457Y-61044500D01*
X112918543Y-61044500D01*
X112918537Y-61044500D01*
X112918533Y-61044501D01*
X112697547Y-61073594D01*
X112697540Y-61073595D01*
X112697537Y-61073596D01*
X112482219Y-61131290D01*
X112482209Y-61131293D01*
X112276277Y-61216593D01*
X112276273Y-61216595D01*
X112083226Y-61328052D01*
X112083217Y-61328058D01*
X111906377Y-61463751D01*
X111906370Y-61463757D01*
X111748757Y-61621370D01*
X111748751Y-61621377D01*
X111613058Y-61798217D01*
X111613052Y-61798226D01*
X111501595Y-61991273D01*
X111501593Y-61991277D01*
X111416293Y-62197209D01*
X111416290Y-62197219D01*
X111372544Y-62360484D01*
X111358597Y-62412534D01*
X111358594Y-62412547D01*
X111329501Y-62633533D01*
X111329500Y-62633549D01*
X99087345Y-62633549D01*
X99055585Y-62556873D01*
X99045775Y-62533189D01*
X98969114Y-62418458D01*
X98871542Y-62320886D01*
X98251156Y-61700500D01*
X96331546Y-59780888D01*
X96331545Y-59780887D01*
X96216807Y-59704222D01*
X96089332Y-59651421D01*
X96089322Y-59651418D01*
X95953996Y-59624500D01*
X95953994Y-59624500D01*
X95953993Y-59624500D01*
X92006007Y-59624500D01*
X92006003Y-59624500D01*
X91897590Y-59646065D01*
X91897589Y-59646065D01*
X91884131Y-59648742D01*
X91870673Y-59651419D01*
X91844268Y-59662356D01*
X91817866Y-59673292D01*
X91817864Y-59673293D01*
X91817863Y-59673292D01*
X91743191Y-59704223D01*
X91646485Y-59768841D01*
X91628457Y-59780886D01*
X91628451Y-59780891D01*
X89340414Y-62068928D01*
X89300186Y-62095808D01*
X89155823Y-62155604D01*
X89155814Y-62155609D01*
X89024711Y-62243210D01*
X89024707Y-62243213D01*
X88913213Y-62354707D01*
X88913210Y-62354711D01*
X88825609Y-62485814D01*
X88825602Y-62485827D01*
X88765264Y-62631498D01*
X88765261Y-62631510D01*
X88734500Y-62786153D01*
X85088867Y-62786153D01*
X84991971Y-62652786D01*
X84847213Y-62508028D01*
X84681613Y-62387715D01*
X84681612Y-62387714D01*
X84681610Y-62387713D01*
X84628171Y-62360484D01*
X84577376Y-62312510D01*
X84560581Y-62244689D01*
X84583118Y-62178554D01*
X84628172Y-62139515D01*
X84681610Y-62112287D01*
X84774590Y-62044732D01*
X84847213Y-61991971D01*
X84847215Y-61991968D01*
X84847219Y-61991966D01*
X84991966Y-61847219D01*
X84991968Y-61847215D01*
X84991971Y-61847213D01*
X85061425Y-61751616D01*
X85112287Y-61681610D01*
X85205220Y-61499219D01*
X85268477Y-61304534D01*
X85300500Y-61102352D01*
X85300500Y-60897648D01*
X85268477Y-60695466D01*
X85205220Y-60500781D01*
X85205218Y-60500778D01*
X85205218Y-60500776D01*
X85153562Y-60399397D01*
X85112287Y-60318390D01*
X85072176Y-60263181D01*
X84991971Y-60152786D01*
X84847213Y-60008028D01*
X84681613Y-59887715D01*
X84681612Y-59887714D01*
X84681610Y-59887713D01*
X84624653Y-59858691D01*
X84499223Y-59794781D01*
X84304534Y-59731522D01*
X84129995Y-59703878D01*
X84102352Y-59699500D01*
X83897648Y-59699500D01*
X83873329Y-59703351D01*
X83695465Y-59731522D01*
X83500776Y-59794781D01*
X83318386Y-59887715D01*
X83152786Y-60008028D01*
X83008030Y-60152784D01*
X82938575Y-60248384D01*
X82883245Y-60291051D01*
X82838256Y-60299500D01*
X79121519Y-60299500D01*
X79054480Y-60279815D01*
X79033838Y-60263181D01*
X78266071Y-59495414D01*
X78239191Y-59455185D01*
X78179397Y-59310827D01*
X78179390Y-59310814D01*
X78091789Y-59179711D01*
X78091786Y-59179707D01*
X77980292Y-59068213D01*
X77980288Y-59068210D01*
X77849185Y-58980609D01*
X77849172Y-58980602D01*
X77703501Y-58920264D01*
X77703489Y-58920261D01*
X77548845Y-58889500D01*
X77548842Y-58889500D01*
X77391158Y-58889500D01*
X77391155Y-58889500D01*
X77236510Y-58920261D01*
X77236498Y-58920264D01*
X77090827Y-58980602D01*
X77090814Y-58980609D01*
X76959711Y-59068210D01*
X76959707Y-59068213D01*
X76848213Y-59179707D01*
X76848210Y-59179711D01*
X76760609Y-59310814D01*
X76760602Y-59310827D01*
X76700264Y-59456498D01*
X76700261Y-59456510D01*
X76669500Y-59611153D01*
X53840500Y-59611153D01*
X53840500Y-57018872D01*
X55149500Y-57018872D01*
X55149500Y-57281127D01*
X55172331Y-57454534D01*
X55183730Y-57541116D01*
X55233491Y-57726827D01*
X55251602Y-57794418D01*
X55251605Y-57794428D01*
X55351953Y-58036690D01*
X55351958Y-58036700D01*
X55483075Y-58263803D01*
X55642718Y-58471851D01*
X55642726Y-58471860D01*
X55828140Y-58657274D01*
X55828148Y-58657281D01*
X56036196Y-58816924D01*
X56263299Y-58948041D01*
X56263309Y-58948046D01*
X56505571Y-59048394D01*
X56505581Y-59048398D01*
X56758884Y-59116270D01*
X57018880Y-59150500D01*
X57018887Y-59150500D01*
X57281113Y-59150500D01*
X57281120Y-59150500D01*
X57541116Y-59116270D01*
X57794419Y-59048398D01*
X58036697Y-58948043D01*
X58263803Y-58816924D01*
X58471851Y-58657282D01*
X58471855Y-58657277D01*
X58471860Y-58657274D01*
X58657274Y-58471860D01*
X58657277Y-58471855D01*
X58657282Y-58471851D01*
X58816924Y-58263803D01*
X58836744Y-58229474D01*
X58899824Y-58120216D01*
X58899824Y-58120215D01*
X58948041Y-58036700D01*
X58948046Y-58036690D01*
X59032992Y-57831613D01*
X59048398Y-57794419D01*
X59116270Y-57541116D01*
X59150500Y-57281120D01*
X59150500Y-57047682D01*
X91430000Y-57047682D01*
X91430000Y-57252317D01*
X91462009Y-57454417D01*
X91525244Y-57649031D01*
X91618141Y-57831350D01*
X91618147Y-57831359D01*
X91650523Y-57875921D01*
X91650524Y-57875922D01*
X92330000Y-57196446D01*
X92330000Y-57202661D01*
X92357259Y-57304394D01*
X92409920Y-57395606D01*
X92484394Y-57470080D01*
X92575606Y-57522741D01*
X92677339Y-57550000D01*
X92683553Y-57550000D01*
X92004076Y-58229474D01*
X92048650Y-58261859D01*
X92230968Y-58354755D01*
X92425582Y-58417990D01*
X92627683Y-58450000D01*
X92832317Y-58450000D01*
X93034417Y-58417990D01*
X93229031Y-58354755D01*
X93411349Y-58261859D01*
X93455921Y-58229474D01*
X92776447Y-57550000D01*
X92782661Y-57550000D01*
X92884394Y-57522741D01*
X92975606Y-57470080D01*
X93050080Y-57395606D01*
X93102741Y-57304394D01*
X93130000Y-57202661D01*
X93130000Y-57196448D01*
X93809474Y-57875922D01*
X93809474Y-57875921D01*
X93841859Y-57831349D01*
X93869233Y-57777624D01*
X93917207Y-57726827D01*
X93985028Y-57710031D01*
X94051163Y-57732567D01*
X94090203Y-57777621D01*
X94117713Y-57831611D01*
X94238028Y-57997213D01*
X94382786Y-58141971D01*
X94503226Y-58229474D01*
X94548390Y-58262287D01*
X94664607Y-58321503D01*
X94730776Y-58355218D01*
X94730778Y-58355218D01*
X94730781Y-58355220D01*
X94835137Y-58389127D01*
X94925465Y-58418477D01*
X95026557Y-58434488D01*
X95127648Y-58450500D01*
X95127649Y-58450500D01*
X95332351Y-58450500D01*
X95332352Y-58450500D01*
X95534534Y-58418477D01*
X95729219Y-58355220D01*
X95911610Y-58262287D01*
X96004590Y-58194732D01*
X96077213Y-58141971D01*
X96077215Y-58141968D01*
X96077219Y-58141966D01*
X96221966Y-57997219D01*
X96221968Y-57997215D01*
X96221971Y-57997213D01*
X96274732Y-57924590D01*
X96342287Y-57831610D01*
X96435220Y-57649219D01*
X96498477Y-57454534D01*
X96530500Y-57252352D01*
X96530500Y-57047648D01*
X96522257Y-56995606D01*
X96498477Y-56845465D01*
X96467458Y-56750000D01*
X96435220Y-56650781D01*
X96435218Y-56650778D01*
X96435218Y-56650776D01*
X96392750Y-56567429D01*
X96342287Y-56468390D01*
X96310092Y-56424077D01*
X96221971Y-56302786D01*
X96077213Y-56158028D01*
X95911613Y-56037715D01*
X95911612Y-56037714D01*
X95911610Y-56037713D01*
X95854653Y-56008691D01*
X95729223Y-55944781D01*
X95534534Y-55881522D01*
X95359995Y-55853878D01*
X95332352Y-55849500D01*
X95127648Y-55849500D01*
X95103329Y-55853351D01*
X94925465Y-55881522D01*
X94730776Y-55944781D01*
X94548386Y-56037715D01*
X94382786Y-56158028D01*
X94238028Y-56302786D01*
X94117714Y-56468386D01*
X94090203Y-56522379D01*
X94042227Y-56573174D01*
X93974406Y-56589968D01*
X93908272Y-56567429D01*
X93869234Y-56522376D01*
X93841861Y-56468652D01*
X93809474Y-56424077D01*
X93809474Y-56424076D01*
X93130000Y-57103551D01*
X93130000Y-57097339D01*
X93102741Y-56995606D01*
X93050080Y-56904394D01*
X92975606Y-56829920D01*
X92884394Y-56777259D01*
X92782661Y-56750000D01*
X92776446Y-56750000D01*
X93455922Y-56070524D01*
X93455921Y-56070523D01*
X93411359Y-56038147D01*
X93411350Y-56038141D01*
X93229031Y-55945244D01*
X93034417Y-55882009D01*
X92832317Y-55850000D01*
X92627683Y-55850000D01*
X92425582Y-55882009D01*
X92230968Y-55945244D01*
X92048644Y-56038143D01*
X92004077Y-56070523D01*
X92004077Y-56070524D01*
X92683554Y-56750000D01*
X92677339Y-56750000D01*
X92575606Y-56777259D01*
X92484394Y-56829920D01*
X92409920Y-56904394D01*
X92357259Y-56995606D01*
X92330000Y-57097339D01*
X92330000Y-57103553D01*
X91650524Y-56424077D01*
X91650523Y-56424077D01*
X91618143Y-56468644D01*
X91525244Y-56650968D01*
X91462009Y-56845582D01*
X91430000Y-57047682D01*
X59150500Y-57047682D01*
X59150500Y-57018880D01*
X59116270Y-56758884D01*
X59048398Y-56505581D01*
X59048394Y-56505571D01*
X58948046Y-56263309D01*
X58948041Y-56263299D01*
X58816924Y-56036196D01*
X58657281Y-55828148D01*
X58657274Y-55828140D01*
X58471860Y-55642726D01*
X58471851Y-55642718D01*
X58263803Y-55483075D01*
X58036700Y-55351958D01*
X58036690Y-55351953D01*
X57794428Y-55251605D01*
X57794421Y-55251603D01*
X57794419Y-55251602D01*
X57541116Y-55183730D01*
X57483339Y-55176123D01*
X57281127Y-55149500D01*
X57281120Y-55149500D01*
X57018880Y-55149500D01*
X57018872Y-55149500D01*
X56787772Y-55179926D01*
X56758884Y-55183730D01*
X56505581Y-55251602D01*
X56505571Y-55251605D01*
X56263309Y-55351953D01*
X56263299Y-55351958D01*
X56036196Y-55483075D01*
X55828148Y-55642718D01*
X55642718Y-55828148D01*
X55483075Y-56036196D01*
X55351958Y-56263299D01*
X55351953Y-56263309D01*
X55251605Y-56505571D01*
X55251602Y-56505581D01*
X55186111Y-56750000D01*
X55183730Y-56758885D01*
X55149500Y-57018872D01*
X53840500Y-57018872D01*
X53840500Y-54897648D01*
X68699500Y-54897648D01*
X68699500Y-55102351D01*
X68731522Y-55304534D01*
X68794781Y-55499223D01*
X68887715Y-55681613D01*
X69008028Y-55847213D01*
X69152786Y-55991971D01*
X69307749Y-56104556D01*
X69318390Y-56112287D01*
X69434607Y-56171503D01*
X69500776Y-56205218D01*
X69500778Y-56205218D01*
X69500781Y-56205220D01*
X69605137Y-56239127D01*
X69695465Y-56268477D01*
X69796557Y-56284488D01*
X69897648Y-56300500D01*
X69897649Y-56300500D01*
X70102351Y-56300500D01*
X70102352Y-56300500D01*
X70304534Y-56268477D01*
X70499219Y-56205220D01*
X70681610Y-56112287D01*
X70812124Y-56017464D01*
X70812126Y-56017463D01*
X70847212Y-55991971D01*
X70847210Y-55991971D01*
X70847219Y-55991966D01*
X70991966Y-55847219D01*
X70991968Y-55847215D01*
X70991971Y-55847213D01*
X71044732Y-55774590D01*
X71112287Y-55681610D01*
X71205220Y-55499219D01*
X71268477Y-55304534D01*
X71300500Y-55102352D01*
X71300500Y-54897648D01*
X71268477Y-54695466D01*
X71205220Y-54500781D01*
X71205218Y-54500778D01*
X71205218Y-54500776D01*
X71171503Y-54434607D01*
X71112287Y-54318390D01*
X71104556Y-54307749D01*
X70991971Y-54152786D01*
X70847213Y-54008028D01*
X70681613Y-53887715D01*
X70681612Y-53887714D01*
X70681610Y-53887713D01*
X70624653Y-53858691D01*
X70499223Y-53794781D01*
X70304534Y-53731522D01*
X70129995Y-53703878D01*
X70102352Y-53699500D01*
X69897648Y-53699500D01*
X69873329Y-53703351D01*
X69695465Y-53731522D01*
X69500776Y-53794781D01*
X69318386Y-53887715D01*
X69152786Y-54008028D01*
X69008028Y-54152786D01*
X68887715Y-54318386D01*
X68794781Y-54500776D01*
X68731522Y-54695465D01*
X68699500Y-54897648D01*
X53840500Y-54897648D01*
X53840500Y-52018872D01*
X55149500Y-52018872D01*
X55149500Y-52281127D01*
X55174679Y-52472371D01*
X55183730Y-52541116D01*
X55235815Y-52735499D01*
X55251602Y-52794418D01*
X55251605Y-52794428D01*
X55351953Y-53036690D01*
X55351958Y-53036700D01*
X55483075Y-53263803D01*
X55642718Y-53471851D01*
X55642726Y-53471860D01*
X55828140Y-53657274D01*
X55828148Y-53657281D01*
X55828149Y-53657282D01*
X55876554Y-53694424D01*
X56036196Y-53816924D01*
X56263299Y-53948041D01*
X56263309Y-53948046D01*
X56505571Y-54048394D01*
X56505581Y-54048398D01*
X56758884Y-54116270D01*
X57018880Y-54150500D01*
X57018887Y-54150500D01*
X57281113Y-54150500D01*
X57281120Y-54150500D01*
X57541116Y-54116270D01*
X57794419Y-54048398D01*
X58036697Y-53948043D01*
X58263803Y-53816924D01*
X58471851Y-53657282D01*
X58471855Y-53657277D01*
X58471860Y-53657274D01*
X58657274Y-53471860D01*
X58657277Y-53471855D01*
X58657282Y-53471851D01*
X58816924Y-53263803D01*
X58948043Y-53036697D01*
X59048398Y-52794419D01*
X59116270Y-52541116D01*
X59150500Y-52281120D01*
X59150500Y-52018880D01*
X59116270Y-51758884D01*
X59048398Y-51505581D01*
X59040975Y-51487661D01*
X58976781Y-51332682D01*
X91950000Y-51332682D01*
X91950000Y-51537317D01*
X91982009Y-51739417D01*
X92045244Y-51934031D01*
X92138141Y-52116350D01*
X92138147Y-52116359D01*
X92170523Y-52160921D01*
X92170524Y-52160922D01*
X92850000Y-51481446D01*
X92850000Y-51487661D01*
X92877259Y-51589394D01*
X92929920Y-51680606D01*
X93004394Y-51755080D01*
X93095606Y-51807741D01*
X93197339Y-51835000D01*
X93203552Y-51835000D01*
X92524076Y-52514474D01*
X92568650Y-52546859D01*
X92750968Y-52639755D01*
X92945582Y-52702990D01*
X93147683Y-52735000D01*
X93352317Y-52735000D01*
X93554417Y-52702990D01*
X93749031Y-52639755D01*
X93931341Y-52546863D01*
X93931349Y-52546858D01*
X94001552Y-52495852D01*
X94067358Y-52472371D01*
X94135412Y-52488196D01*
X94162120Y-52508488D01*
X94231344Y-52577712D01*
X94380666Y-52669814D01*
X94547203Y-52724999D01*
X94649991Y-52735500D01*
X95850008Y-52735499D01*
X95952797Y-52724999D01*
X96119334Y-52669814D01*
X96268656Y-52577712D01*
X96392712Y-52453656D01*
X96484814Y-52304334D01*
X96539999Y-52137797D01*
X96550500Y-52035009D01*
X96550500Y-51998389D01*
X119709500Y-51998389D01*
X119709500Y-53171610D01*
X119735964Y-53338703D01*
X119736598Y-53342701D01*
X119790127Y-53507445D01*
X119868768Y-53661788D01*
X119970586Y-53801928D01*
X120093072Y-53924414D01*
X120233212Y-54026232D01*
X120387555Y-54104873D01*
X120552299Y-54158402D01*
X120723389Y-54185500D01*
X120723390Y-54185500D01*
X120896610Y-54185500D01*
X120896611Y-54185500D01*
X121067701Y-54158402D01*
X121232445Y-54104873D01*
X121386788Y-54026232D01*
X121526928Y-53924414D01*
X121649414Y-53801928D01*
X121751232Y-53661788D01*
X121829873Y-53507445D01*
X121883402Y-53342701D01*
X121910500Y-53171611D01*
X121910500Y-52501228D01*
X124959500Y-52501228D01*
X124959500Y-52668771D01*
X124992182Y-52833074D01*
X124992184Y-52833082D01*
X125056295Y-52987860D01*
X125149373Y-53127162D01*
X125267837Y-53245626D01*
X125360494Y-53307537D01*
X125407137Y-53338703D01*
X125561918Y-53402816D01*
X125726228Y-53435499D01*
X125726232Y-53435500D01*
X125726233Y-53435500D01*
X125893768Y-53435500D01*
X125893769Y-53435499D01*
X126058082Y-53402816D01*
X126212863Y-53338703D01*
X126352162Y-53245626D01*
X126470626Y-53127162D01*
X126563703Y-52987863D01*
X126627816Y-52833082D01*
X126660500Y-52668767D01*
X126660500Y-52501233D01*
X126627816Y-52336918D01*
X126563703Y-52182137D01*
X126534075Y-52137795D01*
X126483703Y-52062407D01*
X126470628Y-52042840D01*
X126470623Y-52042834D01*
X126426178Y-51998389D01*
X129709500Y-51998389D01*
X129709500Y-53171610D01*
X129735964Y-53338703D01*
X129736598Y-53342701D01*
X129790127Y-53507445D01*
X129868768Y-53661788D01*
X129970586Y-53801928D01*
X130093072Y-53924414D01*
X130233212Y-54026232D01*
X130387555Y-54104873D01*
X130552299Y-54158402D01*
X130723389Y-54185500D01*
X130723390Y-54185500D01*
X130896610Y-54185500D01*
X130896611Y-54185500D01*
X131067701Y-54158402D01*
X131232445Y-54104873D01*
X131386788Y-54026232D01*
X131526928Y-53924414D01*
X131649414Y-53801928D01*
X131751232Y-53661788D01*
X131829873Y-53507445D01*
X131883402Y-53342701D01*
X131910500Y-53171611D01*
X131910500Y-51998389D01*
X131883402Y-51827299D01*
X131829873Y-51662555D01*
X131751232Y-51508212D01*
X131649414Y-51368072D01*
X131526928Y-51245586D01*
X131386788Y-51143768D01*
X131232445Y-51065127D01*
X131067701Y-51011598D01*
X131067699Y-51011597D01*
X131067698Y-51011597D01*
X130936271Y-50990781D01*
X130896611Y-50984500D01*
X130723389Y-50984500D01*
X130683728Y-50990781D01*
X130552302Y-51011597D01*
X130387552Y-51065128D01*
X130233211Y-51143768D01*
X130170413Y-51189394D01*
X130093072Y-51245586D01*
X130093070Y-51245588D01*
X130093069Y-51245588D01*
X129970588Y-51368069D01*
X129970588Y-51368070D01*
X129970586Y-51368072D01*
X129926859Y-51428256D01*
X129868768Y-51508211D01*
X129790128Y-51662552D01*
X129736597Y-51827302D01*
X129709500Y-51998389D01*
X126426178Y-51998389D01*
X126352162Y-51924373D01*
X126212860Y-51831295D01*
X126058082Y-51767184D01*
X126058074Y-51767182D01*
X125893771Y-51734500D01*
X125893767Y-51734500D01*
X125726233Y-51734500D01*
X125726228Y-51734500D01*
X125561925Y-51767182D01*
X125561917Y-51767184D01*
X125407139Y-51831295D01*
X125267837Y-51924373D01*
X125149373Y-52042837D01*
X125056295Y-52182139D01*
X124992184Y-52336917D01*
X124992182Y-52336925D01*
X124959500Y-52501228D01*
X121910500Y-52501228D01*
X121910500Y-51998389D01*
X121883402Y-51827299D01*
X121829873Y-51662555D01*
X121751232Y-51508212D01*
X121649414Y-51368072D01*
X121526928Y-51245586D01*
X121386788Y-51143768D01*
X121232445Y-51065127D01*
X121067701Y-51011598D01*
X121067699Y-51011597D01*
X121067698Y-51011597D01*
X120936271Y-50990781D01*
X120896611Y-50984500D01*
X120723389Y-50984500D01*
X120683728Y-50990781D01*
X120552302Y-51011597D01*
X120387552Y-51065128D01*
X120233211Y-51143768D01*
X120170413Y-51189394D01*
X120093072Y-51245586D01*
X120093070Y-51245588D01*
X120093069Y-51245588D01*
X119970588Y-51368069D01*
X119970588Y-51368070D01*
X119970586Y-51368072D01*
X119926859Y-51428256D01*
X119868768Y-51508211D01*
X119790128Y-51662552D01*
X119736597Y-51827302D01*
X119709500Y-51998389D01*
X96550500Y-51998389D01*
X96550499Y-51435000D01*
X96550499Y-50834998D01*
X96550498Y-50834981D01*
X96539999Y-50732203D01*
X96539998Y-50732200D01*
X96510349Y-50642726D01*
X96484814Y-50565666D01*
X96392712Y-50416344D01*
X96268656Y-50292288D01*
X96119334Y-50200186D01*
X95952797Y-50145001D01*
X95952795Y-50145000D01*
X95850010Y-50134500D01*
X94649998Y-50134500D01*
X94649981Y-50134501D01*
X94547203Y-50145000D01*
X94547200Y-50145001D01*
X94380668Y-50200185D01*
X94380663Y-50200187D01*
X94231345Y-50292287D01*
X94162121Y-50361511D01*
X94100797Y-50394995D01*
X94031106Y-50390010D01*
X94001555Y-50374147D01*
X93931352Y-50323142D01*
X93749031Y-50230244D01*
X93554417Y-50167009D01*
X93352317Y-50135000D01*
X93147683Y-50135000D01*
X92945582Y-50167009D01*
X92750968Y-50230244D01*
X92568644Y-50323143D01*
X92524077Y-50355523D01*
X92524077Y-50355524D01*
X93203553Y-51035000D01*
X93197339Y-51035000D01*
X93095606Y-51062259D01*
X93004394Y-51114920D01*
X92929920Y-51189394D01*
X92877259Y-51280606D01*
X92850000Y-51382339D01*
X92850000Y-51388553D01*
X92170524Y-50709077D01*
X92170523Y-50709077D01*
X92138143Y-50753644D01*
X92045244Y-50935968D01*
X91982009Y-51130582D01*
X91950000Y-51332682D01*
X58976781Y-51332682D01*
X58948046Y-51263309D01*
X58948041Y-51263299D01*
X58816924Y-51036196D01*
X58657281Y-50828148D01*
X58657274Y-50828140D01*
X58471860Y-50642726D01*
X58471851Y-50642718D01*
X58263803Y-50483075D01*
X58036700Y-50351958D01*
X58036690Y-50351953D01*
X57794428Y-50251605D01*
X57794421Y-50251603D01*
X57794419Y-50251602D01*
X57541116Y-50183730D01*
X57483339Y-50176123D01*
X57281127Y-50149500D01*
X57281120Y-50149500D01*
X57018880Y-50149500D01*
X57018872Y-50149500D01*
X56787772Y-50179926D01*
X56758884Y-50183730D01*
X56585291Y-50230244D01*
X56505581Y-50251602D01*
X56505571Y-50251605D01*
X56263309Y-50351953D01*
X56263299Y-50351958D01*
X56036196Y-50483075D01*
X55828148Y-50642718D01*
X55642718Y-50828148D01*
X55483075Y-51036196D01*
X55351958Y-51263299D01*
X55351953Y-51263309D01*
X55251605Y-51505571D01*
X55251602Y-51505581D01*
X55184750Y-51755080D01*
X55183730Y-51758885D01*
X55149500Y-52018872D01*
X53840500Y-52018872D01*
X53840500Y-49897648D01*
X68699500Y-49897648D01*
X68699500Y-50102351D01*
X68731522Y-50304534D01*
X68794781Y-50499223D01*
X68887715Y-50681613D01*
X69008028Y-50847213D01*
X69152786Y-50991971D01*
X69307749Y-51104556D01*
X69318390Y-51112287D01*
X69432722Y-51170542D01*
X69500776Y-51205218D01*
X69500778Y-51205218D01*
X69500781Y-51205220D01*
X69582786Y-51231865D01*
X69695465Y-51268477D01*
X69772044Y-51280606D01*
X69897648Y-51300500D01*
X69897649Y-51300500D01*
X70102351Y-51300500D01*
X70102352Y-51300500D01*
X70304534Y-51268477D01*
X70499219Y-51205220D01*
X70681610Y-51112287D01*
X70820198Y-51011598D01*
X70847213Y-50991971D01*
X70847215Y-50991968D01*
X70847219Y-50991966D01*
X70991966Y-50847219D01*
X70991968Y-50847215D01*
X70991971Y-50847213D01*
X71044732Y-50774590D01*
X71112287Y-50681610D01*
X71205220Y-50499219D01*
X71232148Y-50416342D01*
X71249005Y-50364464D01*
X71249005Y-50364463D01*
X71268476Y-50304538D01*
X71268476Y-50304537D01*
X71268477Y-50304534D01*
X71300500Y-50102352D01*
X71300500Y-49897648D01*
X71268477Y-49695466D01*
X71205220Y-49500781D01*
X71205218Y-49500778D01*
X71205218Y-49500776D01*
X71162227Y-49416402D01*
X71112287Y-49318390D01*
X71104556Y-49307749D01*
X70991971Y-49152786D01*
X70847213Y-49008028D01*
X70681613Y-48887715D01*
X70681612Y-48887714D01*
X70681610Y-48887713D01*
X70624653Y-48858691D01*
X70499223Y-48794781D01*
X70304534Y-48731522D01*
X70129995Y-48703878D01*
X70102352Y-48699500D01*
X69897648Y-48699500D01*
X69873329Y-48703351D01*
X69695465Y-48731522D01*
X69500776Y-48794781D01*
X69318386Y-48887715D01*
X69152786Y-49008028D01*
X69008028Y-49152786D01*
X68887715Y-49318386D01*
X68794781Y-49500776D01*
X68731522Y-49695465D01*
X68699500Y-49897648D01*
X53840500Y-49897648D01*
X53840500Y-45602135D01*
X55149500Y-45602135D01*
X55149500Y-48697870D01*
X55149501Y-48697876D01*
X55155908Y-48757483D01*
X55206202Y-48892328D01*
X55206206Y-48892335D01*
X55292452Y-49007544D01*
X55292455Y-49007547D01*
X55407664Y-49093793D01*
X55407671Y-49093797D01*
X55542517Y-49144091D01*
X55542516Y-49144091D01*
X55549444Y-49144835D01*
X55602127Y-49150500D01*
X58697872Y-49150499D01*
X58757483Y-49144091D01*
X58892331Y-49093796D01*
X59007546Y-49007546D01*
X59093796Y-48892331D01*
X59144091Y-48757483D01*
X59150500Y-48697873D01*
X59150499Y-47633549D01*
X111329500Y-47633549D01*
X111329500Y-47856450D01*
X111329501Y-47856466D01*
X111358594Y-48077452D01*
X111358595Y-48077457D01*
X111358596Y-48077463D01*
X111358597Y-48077465D01*
X111416290Y-48292780D01*
X111416293Y-48292790D01*
X111475406Y-48435500D01*
X111501595Y-48498726D01*
X111613052Y-48691774D01*
X111613057Y-48691780D01*
X111613058Y-48691782D01*
X111748751Y-48868622D01*
X111748757Y-48868629D01*
X111906370Y-49026242D01*
X111906376Y-49026247D01*
X112083226Y-49161948D01*
X112276274Y-49273405D01*
X112482219Y-49358710D01*
X112697537Y-49416404D01*
X112918543Y-49445500D01*
X112918550Y-49445500D01*
X113141450Y-49445500D01*
X113141457Y-49445500D01*
X113362463Y-49416404D01*
X113577781Y-49358710D01*
X113783726Y-49273405D01*
X113976774Y-49161948D01*
X114153624Y-49026247D01*
X114311247Y-48868624D01*
X114446948Y-48691774D01*
X114558405Y-48498726D01*
X114643710Y-48292781D01*
X114701404Y-48077463D01*
X114730500Y-47856457D01*
X114730500Y-47633543D01*
X114713080Y-47501228D01*
X119959500Y-47501228D01*
X119959500Y-47668771D01*
X119992182Y-47833074D01*
X119992184Y-47833082D01*
X120056295Y-47987860D01*
X120149373Y-48127162D01*
X120267837Y-48245626D01*
X120351612Y-48301602D01*
X120407137Y-48338703D01*
X120561918Y-48402816D01*
X120726228Y-48435499D01*
X120726232Y-48435500D01*
X120726233Y-48435500D01*
X120893768Y-48435500D01*
X120893769Y-48435499D01*
X121058082Y-48402816D01*
X121212863Y-48338703D01*
X121352162Y-48245626D01*
X121470626Y-48127162D01*
X121563703Y-47987863D01*
X121627022Y-47835000D01*
X124235885Y-47835000D01*
X124237085Y-47842584D01*
X124290591Y-48007255D01*
X124369195Y-48161524D01*
X124470967Y-48301602D01*
X124593397Y-48424032D01*
X124733475Y-48525804D01*
X124887742Y-48604408D01*
X125052415Y-48657914D01*
X125223429Y-48685000D01*
X125560000Y-48685000D01*
X126060000Y-48685000D01*
X126396571Y-48685000D01*
X126567584Y-48657914D01*
X126732257Y-48604408D01*
X126886524Y-48525804D01*
X127026602Y-48424032D01*
X127149032Y-48301602D01*
X127250804Y-48161524D01*
X127329408Y-48007255D01*
X127382914Y-47842584D01*
X127384115Y-47835000D01*
X126060000Y-47835000D01*
X126060000Y-48685000D01*
X125560000Y-48685000D01*
X125560000Y-47835000D01*
X124235885Y-47835000D01*
X121627022Y-47835000D01*
X121627816Y-47833082D01*
X121660500Y-47668767D01*
X121660500Y-47545218D01*
X125110000Y-47545218D01*
X125110000Y-47624782D01*
X125140448Y-47698291D01*
X125196709Y-47754552D01*
X125270218Y-47785000D01*
X126349782Y-47785000D01*
X126423291Y-47754552D01*
X126479552Y-47698291D01*
X126510000Y-47624782D01*
X126510000Y-47545218D01*
X126491779Y-47501228D01*
X129959500Y-47501228D01*
X129959500Y-47668771D01*
X129992182Y-47833074D01*
X129992184Y-47833082D01*
X130056295Y-47987860D01*
X130149373Y-48127162D01*
X130267837Y-48245626D01*
X130351612Y-48301602D01*
X130407137Y-48338703D01*
X130561918Y-48402816D01*
X130726228Y-48435499D01*
X130726232Y-48435500D01*
X130726233Y-48435500D01*
X130893768Y-48435500D01*
X130893769Y-48435499D01*
X131058082Y-48402816D01*
X131212863Y-48338703D01*
X131352162Y-48245626D01*
X131470626Y-48127162D01*
X131563703Y-47987863D01*
X131627816Y-47833082D01*
X131660500Y-47668767D01*
X131660500Y-47501233D01*
X131627816Y-47336918D01*
X131563703Y-47182137D01*
X131532537Y-47135494D01*
X131470626Y-47042837D01*
X131352162Y-46924373D01*
X131212860Y-46831295D01*
X131058082Y-46767184D01*
X131058074Y-46767182D01*
X130893771Y-46734500D01*
X130893767Y-46734500D01*
X130726233Y-46734500D01*
X130726228Y-46734500D01*
X130561925Y-46767182D01*
X130561917Y-46767184D01*
X130407139Y-46831295D01*
X130267837Y-46924373D01*
X130149373Y-47042837D01*
X130056295Y-47182139D01*
X129992184Y-47336917D01*
X129992182Y-47336925D01*
X129959500Y-47501228D01*
X126491779Y-47501228D01*
X126479552Y-47471709D01*
X126423291Y-47415448D01*
X126349782Y-47385000D01*
X125270218Y-47385000D01*
X125196709Y-47415448D01*
X125140448Y-47471709D01*
X125110000Y-47545218D01*
X121660500Y-47545218D01*
X121660500Y-47501233D01*
X121627816Y-47336918D01*
X121627021Y-47334999D01*
X124235884Y-47334999D01*
X124235885Y-47335000D01*
X125560000Y-47335000D01*
X126060000Y-47335000D01*
X127384115Y-47335000D01*
X127384115Y-47334999D01*
X127382914Y-47327415D01*
X127329408Y-47162744D01*
X127250804Y-47008475D01*
X127149032Y-46868397D01*
X127026602Y-46745967D01*
X126886524Y-46644195D01*
X126732257Y-46565591D01*
X126567584Y-46512085D01*
X126396571Y-46485000D01*
X126060000Y-46485000D01*
X126060000Y-47335000D01*
X125560000Y-47335000D01*
X125560000Y-46485000D01*
X125223429Y-46485000D01*
X125052415Y-46512085D01*
X124887742Y-46565591D01*
X124733475Y-46644195D01*
X124593397Y-46745967D01*
X124470967Y-46868397D01*
X124369195Y-47008475D01*
X124290591Y-47162744D01*
X124237085Y-47327415D01*
X124235884Y-47334999D01*
X121627021Y-47334999D01*
X121563703Y-47182137D01*
X121532537Y-47135494D01*
X121470626Y-47042837D01*
X121352162Y-46924373D01*
X121212860Y-46831295D01*
X121058082Y-46767184D01*
X121058074Y-46767182D01*
X120893771Y-46734500D01*
X120893767Y-46734500D01*
X120726233Y-46734500D01*
X120726228Y-46734500D01*
X120561925Y-46767182D01*
X120561917Y-46767184D01*
X120407139Y-46831295D01*
X120267837Y-46924373D01*
X120149373Y-47042837D01*
X120056295Y-47182139D01*
X119992184Y-47336917D01*
X119992182Y-47336925D01*
X119959500Y-47501228D01*
X114713080Y-47501228D01*
X114701404Y-47412537D01*
X114643710Y-47197219D01*
X114558405Y-46991274D01*
X114446948Y-46798226D01*
X114311247Y-46621376D01*
X114311242Y-46621370D01*
X114153629Y-46463757D01*
X114153622Y-46463751D01*
X113976782Y-46328058D01*
X113976780Y-46328057D01*
X113976774Y-46328052D01*
X113783726Y-46216595D01*
X113783722Y-46216593D01*
X113577790Y-46131293D01*
X113577783Y-46131291D01*
X113577781Y-46131290D01*
X113362463Y-46073596D01*
X113362457Y-46073595D01*
X113362452Y-46073594D01*
X113141466Y-46044501D01*
X113141463Y-46044500D01*
X113141457Y-46044500D01*
X112918543Y-46044500D01*
X112918537Y-46044500D01*
X112918533Y-46044501D01*
X112697547Y-46073594D01*
X112697540Y-46073595D01*
X112697537Y-46073596D01*
X112482219Y-46131290D01*
X112482209Y-46131293D01*
X112276277Y-46216593D01*
X112276273Y-46216595D01*
X112083226Y-46328052D01*
X112083217Y-46328058D01*
X111906377Y-46463751D01*
X111906370Y-46463757D01*
X111748757Y-46621370D01*
X111748751Y-46621377D01*
X111613058Y-46798217D01*
X111613052Y-46798226D01*
X111501595Y-46991273D01*
X111501593Y-46991277D01*
X111416293Y-47197209D01*
X111416290Y-47197219D01*
X111363093Y-47395756D01*
X111358597Y-47412534D01*
X111358594Y-47412547D01*
X111329501Y-47633533D01*
X111329500Y-47633549D01*
X59150499Y-47633549D01*
X59150499Y-47042838D01*
X59150499Y-45602129D01*
X59150498Y-45602123D01*
X59150497Y-45602116D01*
X59144091Y-45542517D01*
X59123706Y-45487863D01*
X59093797Y-45407671D01*
X59093793Y-45407664D01*
X59007547Y-45292455D01*
X59007544Y-45292452D01*
X58892335Y-45206206D01*
X58892328Y-45206202D01*
X58757482Y-45155908D01*
X58757483Y-45155908D01*
X58697883Y-45149501D01*
X58697881Y-45149500D01*
X58697873Y-45149500D01*
X58697864Y-45149500D01*
X55602129Y-45149500D01*
X55602123Y-45149501D01*
X55542516Y-45155908D01*
X55407671Y-45206202D01*
X55407664Y-45206206D01*
X55292455Y-45292452D01*
X55292452Y-45292455D01*
X55206206Y-45407664D01*
X55206202Y-45407671D01*
X55155908Y-45542517D01*
X55149501Y-45602116D01*
X55149501Y-45602123D01*
X55149500Y-45602135D01*
X53840500Y-45602135D01*
X53840500Y-45001228D01*
X119959500Y-45001228D01*
X119959500Y-45168771D01*
X119992182Y-45333074D01*
X119992184Y-45333082D01*
X120056295Y-45487860D01*
X120149373Y-45627162D01*
X120267837Y-45745626D01*
X120360494Y-45807537D01*
X120407137Y-45838703D01*
X120561918Y-45902816D01*
X120726228Y-45935499D01*
X120726232Y-45935500D01*
X120726233Y-45935500D01*
X120893768Y-45935500D01*
X120893769Y-45935499D01*
X121058082Y-45902816D01*
X121212863Y-45838703D01*
X121352162Y-45745626D01*
X121470626Y-45627162D01*
X121563703Y-45487863D01*
X121627816Y-45333082D01*
X121660500Y-45168767D01*
X121660500Y-45001233D01*
X121660499Y-45001228D01*
X129959500Y-45001228D01*
X129959500Y-45168771D01*
X129992182Y-45333074D01*
X129992184Y-45333082D01*
X130056295Y-45487860D01*
X130149373Y-45627162D01*
X130267837Y-45745626D01*
X130360494Y-45807537D01*
X130407137Y-45838703D01*
X130561918Y-45902816D01*
X130726228Y-45935499D01*
X130726232Y-45935500D01*
X130726233Y-45935500D01*
X130893768Y-45935500D01*
X130893769Y-45935499D01*
X131058082Y-45902816D01*
X131212863Y-45838703D01*
X131352162Y-45745626D01*
X131470626Y-45627162D01*
X131563703Y-45487863D01*
X131627816Y-45333082D01*
X131660500Y-45168767D01*
X131660500Y-45001233D01*
X131627816Y-44836918D01*
X131563703Y-44682137D01*
X131532537Y-44635494D01*
X131470626Y-44542837D01*
X131352162Y-44424373D01*
X131212860Y-44331295D01*
X131058082Y-44267184D01*
X131058074Y-44267182D01*
X130893771Y-44234500D01*
X130893767Y-44234500D01*
X130726233Y-44234500D01*
X130726228Y-44234500D01*
X130561925Y-44267182D01*
X130561917Y-44267184D01*
X130407139Y-44331295D01*
X130267837Y-44424373D01*
X130149373Y-44542837D01*
X130056295Y-44682139D01*
X129992184Y-44836917D01*
X129992182Y-44836925D01*
X129959500Y-45001228D01*
X121660499Y-45001228D01*
X121627816Y-44836918D01*
X121563703Y-44682137D01*
X121532537Y-44635494D01*
X121470626Y-44542837D01*
X121352162Y-44424373D01*
X121212860Y-44331295D01*
X121058082Y-44267184D01*
X121058074Y-44267182D01*
X120893771Y-44234500D01*
X120893767Y-44234500D01*
X120726233Y-44234500D01*
X120726228Y-44234500D01*
X120561925Y-44267182D01*
X120561917Y-44267184D01*
X120407139Y-44331295D01*
X120267837Y-44424373D01*
X120149373Y-44542837D01*
X120056295Y-44682139D01*
X119992184Y-44836917D01*
X119992182Y-44836925D01*
X119959500Y-45001228D01*
X53840500Y-45001228D01*
X53840500Y-43804500D01*
X53860185Y-43737461D01*
X53912989Y-43691706D01*
X53964500Y-43680500D01*
X133995500Y-43680500D01*
X134062539Y-43700185D01*
G37*
%TD.AperFunction*%
%TD*%
M02*
