%TF.GenerationSoftware,KiCad,Pcbnew,9.0.7*%
%TF.CreationDate,2026-03-03T11:19:44-06:00*%
%TF.ProjectId,aio_pcb,61696f5f-7063-4622-9e6b-696361645f70,0*%
%TF.SameCoordinates,Original*%
%TF.FileFunction,Soldermask,Top*%
%TF.FilePolarity,Negative*%
%FSLAX46Y46*%
G04 Gerber Fmt 4.6, Leading zero omitted, Abs format (unit mm)*
G04 Created by KiCad (PCBNEW 9.0.7) date 2026-03-03 11:19:44*
%MOMM*%
%LPD*%
G01*
G04 APERTURE LIST*
G04 Aperture macros list*
%AMRoundRect*
0 Rectangle with rounded corners*
0 $1 Rounding radius*
0 $2 $3 $4 $5 $6 $7 $8 $9 X,Y pos of 4 corners*
0 Add a 4 corners polygon primitive as box body*
4,1,4,$2,$3,$4,$5,$6,$7,$8,$9,$2,$3,0*
0 Add four circle primitives for the rounded corners*
1,1,$1+$1,$2,$3*
1,1,$1+$1,$4,$5*
1,1,$1+$1,$6,$7*
1,1,$1+$1,$8,$9*
0 Add four rect primitives between the rounded corners*
20,1,$1+$1,$2,$3,$4,$5,0*
20,1,$1+$1,$4,$5,$6,$7,0*
20,1,$1+$1,$6,$7,$8,$9,0*
20,1,$1+$1,$8,$9,$2,$3,0*%
G04 Aperture macros list end*
%ADD10RoundRect,0.250000X-0.550000X-0.550000X0.550000X-0.550000X0.550000X0.550000X-0.550000X0.550000X0*%
%ADD11C,1.600000*%
%ADD12RoundRect,0.102000X0.754000X0.754000X-0.754000X0.754000X-0.754000X-0.754000X0.754000X-0.754000X0*%
%ADD13C,1.712000*%
%ADD14RoundRect,0.250000X0.625000X-0.312500X0.625000X0.312500X-0.625000X0.312500X-0.625000X-0.312500X0*%
%ADD15RoundRect,0.250000X0.550000X0.550000X-0.550000X0.550000X-0.550000X-0.550000X0.550000X-0.550000X0*%
%ADD16RoundRect,0.200000X-0.275000X0.200000X-0.275000X-0.200000X0.275000X-0.200000X0.275000X0.200000X0*%
%ADD17RoundRect,0.250000X0.312500X0.625000X-0.312500X0.625000X-0.312500X-0.625000X0.312500X-0.625000X0*%
%ADD18C,2.154000*%
%ADD19R,1.700000X1.700000*%
%ADD20C,1.700000*%
%ADD21RoundRect,0.250000X0.550000X-0.550000X0.550000X0.550000X-0.550000X0.550000X-0.550000X-0.550000X0*%
%ADD22RoundRect,0.150000X-0.825000X-0.150000X0.825000X-0.150000X0.825000X0.150000X-0.825000X0.150000X0*%
%ADD23R,1.473200X0.355600*%
%ADD24RoundRect,0.225000X0.250000X-0.225000X0.250000X0.225000X-0.250000X0.225000X-0.250000X-0.225000X0*%
%ADD25RoundRect,0.250000X-0.650000X0.325000X-0.650000X-0.325000X0.650000X-0.325000X0.650000X0.325000X0*%
%ADD26RoundRect,0.250000X-0.475000X0.250000X-0.475000X-0.250000X0.475000X-0.250000X0.475000X0.250000X0*%
%ADD27RoundRect,0.218750X-0.218750X-0.381250X0.218750X-0.381250X0.218750X0.381250X-0.218750X0.381250X0*%
%ADD28RoundRect,0.250000X-0.312500X-0.625000X0.312500X-0.625000X0.312500X0.625000X-0.312500X0.625000X0*%
%ADD29RoundRect,0.250000X-0.625000X0.312500X-0.625000X-0.312500X0.625000X-0.312500X0.625000X0.312500X0*%
%ADD30O,2.204000X4.204000*%
%ADD31O,4.204000X2.204000*%
%ADD32C,2.400000*%
%ADD33RoundRect,0.200000X0.275000X-0.200000X0.275000X0.200000X-0.275000X0.200000X-0.275000X-0.200000X0*%
%ADD34R,1.000000X0.599999*%
%ADD35C,1.200000*%
%ADD36O,1.512000X2.820000*%
%ADD37O,2.820000X1.512000*%
%ADD38RoundRect,0.250000X-0.375000X-0.850000X0.375000X-0.850000X0.375000X0.850000X-0.375000X0.850000X0*%
%ADD39R,0.889000X1.498600*%
%ADD40R,0.812800X0.812800*%
G04 APERTURE END LIST*
D10*
%TO.C,C21*%
X145320000Y-69850000D03*
D11*
X147320000Y-69850000D03*
%TD*%
D12*
%TO.C,S1*%
X163068000Y-87558000D03*
D13*
X156568000Y-87558000D03*
X163068000Y-83058000D03*
X156568000Y-83058000D03*
%TD*%
D14*
%TO.C,R25*%
X176276000Y-49407000D03*
X176276000Y-46482000D03*
%TD*%
D15*
%TO.C,C24*%
X67757000Y-77502000D03*
D11*
X65757000Y-77502000D03*
%TD*%
D16*
%TO.C,R23*%
X88077000Y-64641000D03*
X88077000Y-66291000D03*
%TD*%
D17*
%TO.C,R3*%
X99887500Y-81915000D03*
X96962500Y-81915000D03*
%TD*%
D10*
%TO.C,C23*%
X69850000Y-89408000D03*
D11*
X71850000Y-89408000D03*
%TD*%
D18*
%TO.C,J33V1*%
X206248000Y-89408000D03*
X206248000Y-91948000D03*
%TD*%
D16*
%TO.C,R21*%
X88392000Y-76582000D03*
X88392000Y-78232000D03*
%TD*%
D11*
%TO.C,C18*%
X121493600Y-95148400D03*
X118993600Y-95148400D03*
%TD*%
%TO.C,C16*%
X207224000Y-33274000D03*
X204724000Y-33274000D03*
%TD*%
D19*
%TO.C,J5*%
X182880000Y-62484000D03*
D20*
X185420000Y-62484000D03*
X187960000Y-62484000D03*
X190500000Y-62484000D03*
X193040000Y-62484000D03*
X195580000Y-62484000D03*
X198120000Y-62484000D03*
X200660000Y-62484000D03*
%TD*%
D11*
%TO.C,C38*%
X161885000Y-66675000D03*
X159385000Y-66675000D03*
%TD*%
D17*
%TO.C,R19*%
X208726500Y-35560000D03*
X205801500Y-35560000D03*
%TD*%
D11*
%TO.C,C9*%
X95885000Y-48240000D03*
X95885000Y-45740000D03*
%TD*%
D21*
%TO.C,C37*%
X153670000Y-66770000D03*
D11*
X153670000Y-64770000D03*
%TD*%
D14*
%TO.C,R6*%
X113030000Y-53725000D03*
X113030000Y-50800000D03*
%TD*%
%TO.C,R5*%
X114300000Y-78932500D03*
X114300000Y-76007500D03*
%TD*%
D22*
%TO.C,U2*%
X102870000Y-64770000D03*
X102870000Y-66040000D03*
X102870000Y-67310000D03*
X102870000Y-68580000D03*
X107820000Y-68580000D03*
X107820000Y-67310000D03*
X107820000Y-66040000D03*
X107820000Y-64770000D03*
%TD*%
D23*
%TO.C,UVol1*%
X148869400Y-81960001D03*
X148869400Y-81310000D03*
X148869400Y-80659999D03*
X148869400Y-80010000D03*
X148869400Y-79360001D03*
X148869400Y-78710000D03*
X148869400Y-78060001D03*
X143230600Y-78059999D03*
X143230600Y-78710000D03*
X143230600Y-79359999D03*
X143230600Y-80010000D03*
X143230600Y-80659999D03*
X143230600Y-81310000D03*
X143230600Y-81959999D03*
%TD*%
D12*
%TO.C,S2*%
X177292000Y-87512500D03*
D13*
X170792000Y-87512500D03*
X177292000Y-83012500D03*
X170792000Y-83012500D03*
%TD*%
D24*
%TO.C,C27*%
X82677000Y-79352000D03*
X82677000Y-77802000D03*
%TD*%
D17*
%TO.C,R18*%
X130367500Y-41910000D03*
X127442500Y-41910000D03*
%TD*%
D11*
%TO.C,C15*%
X205232000Y-58928000D03*
X207732000Y-58928000D03*
%TD*%
D25*
%TO.C,C34*%
X166930000Y-83882000D03*
X166930000Y-86832000D03*
%TD*%
D10*
%TO.C,C28*%
X88392000Y-83312000D03*
D11*
X90392000Y-83312000D03*
%TD*%
D26*
%TO.C,C30*%
X71567000Y-67056000D03*
X71567000Y-68956000D03*
%TD*%
D27*
%TO.C,L2*%
X81299500Y-69276000D03*
X83424500Y-69276000D03*
%TD*%
D17*
%TO.C,R14*%
X123321000Y-75692000D03*
X120396000Y-75692000D03*
%TD*%
D28*
%TO.C,R11*%
X120396000Y-61722000D03*
X123321000Y-61722000D03*
%TD*%
D17*
%TO.C,R2*%
X77154500Y-57150000D03*
X74229500Y-57150000D03*
%TD*%
D28*
%TO.C,R24*%
X185989500Y-38862000D03*
X188914500Y-38862000D03*
%TD*%
D11*
%TO.C,C22*%
X139700000Y-67310000D03*
X142200000Y-67310000D03*
%TD*%
D29*
%TO.C,R13*%
X121858500Y-69784500D03*
X121858500Y-72709500D03*
%TD*%
D22*
%TO.C,U1*%
X94045000Y-50800000D03*
X94045000Y-52070000D03*
X94045000Y-53340000D03*
X94045000Y-54610000D03*
X98995000Y-54610000D03*
X98995000Y-53340000D03*
X98995000Y-52070000D03*
X98995000Y-50800000D03*
%TD*%
D21*
%TO.C,C19*%
X117856000Y-40862000D03*
D11*
X117856000Y-38862000D03*
%TD*%
%TO.C,C6*%
X104140000Y-48260000D03*
X101640000Y-48260000D03*
%TD*%
D28*
%TO.C,R28*%
X173605000Y-71755000D03*
X176530000Y-71755000D03*
%TD*%
D30*
%TO.C,J7*%
X68892000Y-98460000D03*
X63092000Y-98460000D03*
D31*
X65892000Y-103260000D03*
%TD*%
D29*
%TO.C,R8*%
X117602000Y-46543500D03*
X117602000Y-49468500D03*
%TD*%
D23*
%TO.C,UMid1*%
X148869400Y-62910001D03*
X148869400Y-62260000D03*
X148869400Y-61609999D03*
X148869400Y-60960000D03*
X148869400Y-60310001D03*
X148869400Y-59660000D03*
X148869400Y-59010001D03*
X143230600Y-59009999D03*
X143230600Y-59660000D03*
X143230600Y-60309999D03*
X143230600Y-60960000D03*
X143230600Y-61609999D03*
X143230600Y-62260000D03*
X143230600Y-62909999D03*
%TD*%
D29*
%TO.C,R12*%
X121858500Y-64704500D03*
X121858500Y-67629500D03*
%TD*%
D28*
%TO.C,R16*%
X72005000Y-36068000D03*
X74930000Y-36068000D03*
%TD*%
D18*
%TO.C,JAUDIO1*%
X206248000Y-70358000D03*
X206248000Y-72898000D03*
%TD*%
D23*
%TO.C,UBass1*%
X123190000Y-88392000D03*
X123190000Y-87741999D03*
X123190000Y-87091998D03*
X123190000Y-86441999D03*
X123190000Y-85792000D03*
X123190000Y-85141999D03*
X123190000Y-84492000D03*
X117551200Y-84491998D03*
X117551200Y-85141999D03*
X117551200Y-85791998D03*
X117551200Y-86441999D03*
X117551200Y-87091998D03*
X117551200Y-87741999D03*
X117551200Y-88391998D03*
%TD*%
D14*
%TO.C,R7*%
X106680000Y-80202500D03*
X106680000Y-77277500D03*
%TD*%
D11*
%TO.C,C4*%
X96774000Y-66294000D03*
X99274000Y-66294000D03*
%TD*%
%TO.C,C8*%
X116546000Y-61722000D03*
X114046000Y-61722000D03*
%TD*%
D32*
%TO.C,C13*%
X194564000Y-93479000D03*
X194564000Y-78479000D03*
%TD*%
D29*
%TO.C,R15*%
X129235200Y-84999100D03*
X129235200Y-87924100D03*
%TD*%
%TO.C,R27*%
X152400000Y-78547500D03*
X152400000Y-81472500D03*
%TD*%
D33*
%TO.C,R22*%
X84902000Y-66291000D03*
X84902000Y-64641000D03*
%TD*%
D11*
%TO.C,C2*%
X109220000Y-88860000D03*
X109220000Y-83860000D03*
%TD*%
D34*
%TO.C,U_5V2*%
X80137000Y-79496999D03*
X80137000Y-78546998D03*
X80137000Y-77597000D03*
X77387000Y-77597000D03*
X77387000Y-78546998D03*
X77387000Y-79496999D03*
%TD*%
D11*
%TO.C,C20*%
X122174000Y-39497000D03*
X124674000Y-39497000D03*
%TD*%
D26*
%TO.C,C25*%
X75057000Y-78552000D03*
X75057000Y-80452000D03*
%TD*%
D11*
%TO.C,C12*%
X130175000Y-72390000D03*
X130175000Y-67390000D03*
%TD*%
D10*
%TO.C,C7*%
X114300000Y-57150000D03*
D11*
X116300000Y-57150000D03*
%TD*%
D19*
%TO.C,J2*%
X145288000Y-38608000D03*
D20*
X147828000Y-38608000D03*
X150368000Y-38608000D03*
X152908000Y-38608000D03*
X155448000Y-38608000D03*
X157988000Y-38608000D03*
X160528000Y-38608000D03*
X163068000Y-38608000D03*
X165608000Y-38608000D03*
X168148000Y-38608000D03*
X170688000Y-38608000D03*
X173228000Y-38608000D03*
X175768000Y-38608000D03*
X178308000Y-38608000D03*
X180848000Y-38608000D03*
%TD*%
D11*
%TO.C,C3*%
X109220000Y-42545000D03*
X109220000Y-47545000D03*
%TD*%
%TO.C,C11*%
X130175000Y-58460000D03*
X130175000Y-63460000D03*
%TD*%
D23*
%TO.C,UTreb1*%
X128732825Y-48663501D03*
X128732825Y-48013500D03*
X128732825Y-47363499D03*
X128732825Y-46713500D03*
X128732825Y-46063501D03*
X128732825Y-45413500D03*
X128732825Y-44763501D03*
X123094025Y-44763499D03*
X123094025Y-45413500D03*
X123094025Y-46063499D03*
X123094025Y-46713500D03*
X123094025Y-47363499D03*
X123094025Y-48013500D03*
X123094025Y-48663499D03*
%TD*%
D14*
%TO.C,R9*%
X97536000Y-39308500D03*
X97536000Y-36383500D03*
%TD*%
%TO.C,R1*%
X86868000Y-58358500D03*
X86868000Y-55433500D03*
%TD*%
D29*
%TO.C,R26*%
X153035000Y-58227500D03*
X153035000Y-61152500D03*
%TD*%
D32*
%TO.C,C1*%
X80772000Y-35934000D03*
X80772000Y-50934000D03*
%TD*%
D14*
%TO.C,R4*%
X106680000Y-53532500D03*
X106680000Y-50607500D03*
%TD*%
D26*
%TO.C,C31*%
X74742000Y-67056000D03*
X74742000Y-68956000D03*
%TD*%
D35*
%TO.C,J1*%
X60786000Y-35894000D03*
X58286000Y-35894000D03*
X65786000Y-40894000D03*
X60786000Y-45894000D03*
X58286000Y-45894000D03*
D36*
X60786000Y-40894000D03*
D37*
X65786000Y-45894000D03*
X65786000Y-35894000D03*
%TD*%
D15*
%TO.C,C10*%
X90170000Y-43180000D03*
D11*
X88170000Y-43180000D03*
%TD*%
D38*
%TO.C,L1*%
X79472000Y-83312000D03*
X81622000Y-83312000D03*
%TD*%
D33*
%TO.C,R20*%
X85217000Y-78232000D03*
X85217000Y-76582000D03*
%TD*%
D18*
%TO.C,J4*%
X206248000Y-98933000D03*
X206248000Y-101473000D03*
%TD*%
D15*
%TO.C,C29*%
X67757000Y-67371000D03*
D11*
X65757000Y-67371000D03*
%TD*%
D29*
%TO.C,R17*%
X72136000Y-42225500D03*
X72136000Y-45150500D03*
%TD*%
D26*
%TO.C,C26*%
X71882000Y-78552000D03*
X71882000Y-80452000D03*
%TD*%
D10*
%TO.C,C17*%
X128270000Y-93116400D03*
D11*
X130270000Y-93116400D03*
%TD*%
D17*
%TO.C,R10*%
X91632500Y-36195000D03*
X88707500Y-36195000D03*
%TD*%
D24*
%TO.C,C32*%
X82362000Y-66876000D03*
X82362000Y-65326000D03*
%TD*%
D10*
%TO.C,C33*%
X88077000Y-71181000D03*
D11*
X90077000Y-71181000D03*
%TD*%
D39*
%TO.C,U6*%
X208915000Y-38380000D03*
X207645000Y-38380000D03*
X206375000Y-38380000D03*
X205105000Y-38380000D03*
X203835000Y-38380000D03*
X202565000Y-38380000D03*
X201295000Y-38380000D03*
X200025000Y-38380000D03*
X198755000Y-38380000D03*
X197485000Y-38380000D03*
X196215000Y-38380000D03*
X194945000Y-38380000D03*
X193675000Y-38380000D03*
X192405000Y-38380000D03*
X192405000Y-55880000D03*
X193675000Y-55880000D03*
X194945000Y-55880000D03*
X196215000Y-55880000D03*
X197485000Y-55880000D03*
X198755000Y-55880000D03*
X200025000Y-55880000D03*
X201295000Y-55880000D03*
X202565000Y-55880000D03*
X203835000Y-55880000D03*
X205105000Y-55880000D03*
X206375000Y-55880000D03*
X207645000Y-55880000D03*
X208915000Y-55880000D03*
D40*
X203195000Y-45625000D03*
X204445000Y-44375000D03*
X203195000Y-44375000D03*
X201945000Y-44375000D03*
X201945000Y-45625000D03*
X201945000Y-46875000D03*
X203195000Y-46875000D03*
X204445000Y-46875000D03*
X204445000Y-45625000D03*
%TD*%
D34*
%TO.C,U_33*%
X79822000Y-66730999D03*
X79822000Y-65780998D03*
X79822000Y-64831000D03*
X77072000Y-64831000D03*
X77072000Y-65780998D03*
X77072000Y-66730999D03*
%TD*%
D10*
%TO.C,C14*%
X205740000Y-63500000D03*
D11*
X207740000Y-63500000D03*
%TD*%
D10*
%TO.C,C5*%
X101600000Y-43180000D03*
D11*
X103600000Y-43180000D03*
%TD*%
D22*
%TO.C,U3*%
X156275000Y-70485000D03*
X156275000Y-71755000D03*
X156275000Y-73025000D03*
X156275000Y-74295000D03*
X161225000Y-74295000D03*
X161225000Y-73025000D03*
X161225000Y-71755000D03*
X161225000Y-70485000D03*
%TD*%
D18*
%TO.C,J5V1*%
X206248000Y-79883000D03*
X206248000Y-82423000D03*
%TD*%
M02*
