%TF.GenerationSoftware,KiCad,Pcbnew,9.0.5*%
%TF.CreationDate,2025-10-20T10:37:31-05:00*%
%TF.ProjectId,preamp_better,70726561-6d70-45f6-9265-747465722e6b,0*%
%TF.SameCoordinates,Original*%
%TF.FileFunction,Copper,L1,Top*%
%TF.FilePolarity,Positive*%
%FSLAX46Y46*%
G04 Gerber Fmt 4.6, Leading zero omitted, Abs format (unit mm)*
G04 Created by KiCad (PCBNEW 9.0.5) date 2025-10-20 10:37:31*
%MOMM*%
%LPD*%
G01*
G04 APERTURE LIST*
G04 Aperture macros list*
%AMRoundRect*
0 Rectangle with rounded corners*
0 $1 Rounding radius*
0 $2 $3 $4 $5 $6 $7 $8 $9 X,Y pos of 4 corners*
0 Add a 4 corners polygon primitive as box body*
4,1,4,$2,$3,$4,$5,$6,$7,$8,$9,$2,$3,0*
0 Add four circle primitives for the rounded corners*
1,1,$1+$1,$2,$3*
1,1,$1+$1,$4,$5*
1,1,$1+$1,$6,$7*
1,1,$1+$1,$8,$9*
0 Add four rect primitives between the rounded corners*
20,1,$1+$1,$2,$3,$4,$5,0*
20,1,$1+$1,$4,$5,$6,$7,0*
20,1,$1+$1,$6,$7,$8,$9,0*
20,1,$1+$1,$8,$9,$2,$3,0*%
G04 Aperture macros list end*
%TA.AperFunction,SMDPad,CuDef*%
%ADD10RoundRect,0.250000X-0.312500X-0.625000X0.312500X-0.625000X0.312500X0.625000X-0.312500X0.625000X0*%
%TD*%
%TA.AperFunction,SMDPad,CuDef*%
%ADD11RoundRect,0.250000X0.625000X-0.312500X0.625000X0.312500X-0.625000X0.312500X-0.625000X-0.312500X0*%
%TD*%
%TA.AperFunction,ComponentPad*%
%ADD12C,1.600000*%
%TD*%
%TA.AperFunction,SMDPad,CuDef*%
%ADD13RoundRect,0.250000X-0.625000X0.312500X-0.625000X-0.312500X0.625000X-0.312500X0.625000X0.312500X0*%
%TD*%
%TA.AperFunction,SMDPad,CuDef*%
%ADD14RoundRect,0.150000X-0.825000X-0.150000X0.825000X-0.150000X0.825000X0.150000X-0.825000X0.150000X0*%
%TD*%
%TA.AperFunction,ComponentPad*%
%ADD15RoundRect,0.250000X0.550000X0.550000X-0.550000X0.550000X-0.550000X-0.550000X0.550000X-0.550000X0*%
%TD*%
%TA.AperFunction,ComponentPad*%
%ADD16C,1.950000*%
%TD*%
%TA.AperFunction,ComponentPad*%
%ADD17C,2.400000*%
%TD*%
%TA.AperFunction,SMDPad,CuDef*%
%ADD18RoundRect,0.250000X0.312500X0.625000X-0.312500X0.625000X-0.312500X-0.625000X0.312500X-0.625000X0*%
%TD*%
%TA.AperFunction,ComponentPad*%
%ADD19O,1.200000X2.200000*%
%TD*%
%TA.AperFunction,ComponentPad*%
%ADD20O,2.200000X1.200000*%
%TD*%
%TA.AperFunction,ComponentPad*%
%ADD21R,3.000000X3.000000*%
%TD*%
%TA.AperFunction,ComponentPad*%
%ADD22C,3.000000*%
%TD*%
%TA.AperFunction,ComponentPad*%
%ADD23RoundRect,0.250000X-0.550000X-0.550000X0.550000X-0.550000X0.550000X0.550000X-0.550000X0.550000X0*%
%TD*%
%TA.AperFunction,ViaPad*%
%ADD24C,0.600000*%
%TD*%
%TA.AperFunction,Conductor*%
%ADD25C,0.400000*%
%TD*%
%TA.AperFunction,Conductor*%
%ADD26C,0.500000*%
%TD*%
G04 APERTURE END LIST*
D10*
%TO.P,R1,1*%
%TO.N,+12V*%
X103537500Y-95000000D03*
%TO.P,R1,2*%
%TO.N,Net-(U1A-+)*%
X106462500Y-95000000D03*
%TD*%
%TO.P,R4,1*%
%TO.N,Net-(U1A--)*%
X73537500Y-65000000D03*
%TO.P,R4,2*%
%TO.N,Net-(R4-Pad2)*%
X76462500Y-65000000D03*
%TD*%
D11*
%TO.P,R17,1*%
%TO.N,Net-(J1-PadT)*%
X131000000Y-95462500D03*
%TO.P,R17,2*%
%TO.N,Net-(C1-Pad1)*%
X131000000Y-92537500D03*
%TD*%
D12*
%TO.P,C9,1*%
%TO.N,Net-(U1B-+)*%
X92730000Y-102235000D03*
%TO.P,C9,2*%
%TO.N,GND*%
X95230000Y-102235000D03*
%TD*%
D11*
%TO.P,R3,1*%
%TO.N,Net-(C2-Pad1)*%
X82000000Y-104462500D03*
%TO.P,R3,2*%
%TO.N,Net-(U1A--)*%
X82000000Y-101537500D03*
%TD*%
D12*
%TO.P,C6,1*%
%TO.N,GND*%
X92710000Y-92075000D03*
%TO.P,C6,2*%
%TO.N,+12V*%
X95210000Y-92075000D03*
%TD*%
%TO.P,C2,1*%
%TO.N,Net-(C2-Pad1)*%
X70000000Y-105000000D03*
%TO.P,C2,2*%
%TO.N,Net-(C2-Pad2)*%
X70000000Y-100000000D03*
%TD*%
D10*
%TO.P,R9,1*%
%TO.N,+12V*%
X107537500Y-80000000D03*
%TO.P,R9,2*%
%TO.N,Net-(U1B-+)*%
X110462500Y-80000000D03*
%TD*%
D11*
%TO.P,R6,1*%
%TO.N,Net-(U2A--)*%
X77000000Y-53462500D03*
%TO.P,R6,2*%
%TO.N,Net-(C3-Pad2)*%
X77000000Y-50537500D03*
%TD*%
D10*
%TO.P,R13,1*%
%TO.N,Net-(C11-Pad1)*%
X73537500Y-70000000D03*
%TO.P,R13,2*%
%TO.N,Net-(C4-Pad1)*%
X76462500Y-70000000D03*
%TD*%
D13*
%TO.P,R12,1*%
%TO.N,Net-(C13-Pad1)*%
X106000000Y-60537500D03*
%TO.P,R12,2*%
%TO.N,Net-(U2B--)*%
X106000000Y-63462500D03*
%TD*%
D14*
%TO.P,U1,1*%
%TO.N,Net-(U1A--)*%
X91505000Y-94615000D03*
%TO.P,U1,2,-*%
X91505000Y-95885000D03*
%TO.P,U1,3,+*%
%TO.N,Net-(U1A-+)*%
X91505000Y-97155000D03*
%TO.P,U1,4,V-*%
%TO.N,GND*%
X91505000Y-98425000D03*
%TO.P,U1,5,+*%
%TO.N,Net-(U1B-+)*%
X96455000Y-98425000D03*
%TO.P,U1,6,-*%
%TO.N,Net-(U1B--)*%
X96455000Y-97155000D03*
%TO.P,U1,7*%
X96455000Y-95885000D03*
%TO.P,U1,8,V+*%
%TO.N,+12V*%
X96455000Y-94615000D03*
%TD*%
D15*
%TO.P,C7,1*%
%TO.N,+12V*%
X95250000Y-51435000D03*
D12*
%TO.P,C7,2*%
%TO.N,GND*%
X93250000Y-51435000D03*
%TD*%
D16*
%TO.P,J2,1,Pin_1*%
%TO.N,+12V*%
X129286000Y-69088000D03*
%TO.P,J2,2,Pin_2*%
%TO.N,GND*%
X129286000Y-74088000D03*
%TD*%
D11*
%TO.P,R18,1*%
%TO.N,Net-(C13-Pad2)*%
X121000000Y-61462500D03*
%TO.P,R18,2*%
%TO.N,Net-(J3-PadR)*%
X121000000Y-58537500D03*
%TD*%
D13*
%TO.P,R14,1*%
%TO.N,Net-(U2B--)*%
X102000000Y-60537500D03*
%TO.P,R14,2*%
%TO.N,Net-(C4-Pad1)*%
X102000000Y-63462500D03*
%TD*%
%TO.P,R15,1*%
%TO.N,Net-(J3-PadR)*%
X130000000Y-58537500D03*
%TO.P,R15,2*%
%TO.N,GND*%
X130000000Y-61462500D03*
%TD*%
D17*
%TO.P,C13,1*%
%TO.N,Net-(C13-Pad1)*%
X113030000Y-62745000D03*
%TO.P,C13,2*%
%TO.N,Net-(C13-Pad2)*%
X113030000Y-47745000D03*
%TD*%
D12*
%TO.P,C3,1*%
%TO.N,Net-(C3-Pad1)*%
X70000000Y-55000000D03*
%TO.P,C3,2*%
%TO.N,Net-(C3-Pad2)*%
X70000000Y-50000000D03*
%TD*%
D10*
%TO.P,R10,1*%
%TO.N,Net-(U1B-+)*%
X116537500Y-80000000D03*
%TO.P,R10,2*%
%TO.N,GND*%
X119462500Y-80000000D03*
%TD*%
D12*
%TO.P,C12,1*%
%TO.N,Net-(U2B--)*%
X78740000Y-79970000D03*
%TO.P,C12,2*%
%TO.N,Net-(C12-Pad2)*%
X78740000Y-74970000D03*
%TD*%
%TO.P,C8,1*%
%TO.N,GND*%
X92730000Y-57150000D03*
%TO.P,C8,2*%
%TO.N,+12V*%
X95230000Y-57150000D03*
%TD*%
D18*
%TO.P,R11,1*%
%TO.N,Net-(C13-Pad1)*%
X95442500Y-69000000D03*
%TO.P,R11,2*%
%TO.N,Net-(C11-Pad2)*%
X92517500Y-69000000D03*
%TD*%
D19*
%TO.P,J3,R*%
%TO.N,Net-(J3-PadR)*%
X130810000Y-52585000D03*
D20*
%TO.P,J3,S*%
%TO.N,GND*%
X125810000Y-47585000D03*
D19*
%TO.P,J3,T*%
%TO.N,Net-(J3-PadR)*%
X120810000Y-52585000D03*
%TD*%
D12*
%TO.P,C11,1*%
%TO.N,Net-(C11-Pad1)*%
X70000000Y-80000000D03*
%TO.P,C11,2*%
%TO.N,Net-(C11-Pad2)*%
X70000000Y-75000000D03*
%TD*%
D21*
%TO.P,RV2,1,1*%
%TO.N,Net-(C2-Pad2)*%
X57150000Y-97950000D03*
D22*
%TO.P,RV2,2,2*%
%TO.N,Net-(R5-Pad1)*%
X57150000Y-102950000D03*
%TO.P,RV2,3,3*%
%TO.N,Net-(C2-Pad1)*%
X57150000Y-107950000D03*
%TD*%
D17*
%TO.P,C1,1*%
%TO.N,Net-(C1-Pad1)*%
X113030000Y-92195000D03*
%TO.P,C1,2*%
%TO.N,Net-(U1A-+)*%
X113030000Y-107195000D03*
%TD*%
D19*
%TO.P,J1,R*%
%TO.N,Net-(J1-PadR)*%
X120810000Y-102315000D03*
D20*
%TO.P,J1,S*%
%TO.N,GND*%
X125810000Y-107315000D03*
D19*
%TO.P,J1,T*%
%TO.N,Net-(J1-PadT)*%
X130810000Y-102315000D03*
%TD*%
D12*
%TO.P,C4,1*%
%TO.N,Net-(C4-Pad1)*%
X84000000Y-61000000D03*
%TO.P,C4,2*%
%TO.N,Net-(U2A--)*%
X84000000Y-63500000D03*
%TD*%
D23*
%TO.P,C10,1*%
%TO.N,Net-(U1B-+)*%
X93250000Y-107950000D03*
D12*
%TO.P,C10,2*%
%TO.N,GND*%
X95250000Y-107950000D03*
%TD*%
D10*
%TO.P,R7,1*%
%TO.N,Net-(C2-Pad2)*%
X73537500Y-90000000D03*
%TO.P,R7,2*%
%TO.N,Net-(C4-Pad1)*%
X76462500Y-90000000D03*
%TD*%
D14*
%TO.P,U2,1*%
%TO.N,Net-(C4-Pad1)*%
X91505000Y-60325000D03*
%TO.P,U2,2,-*%
%TO.N,Net-(U2A--)*%
X91505000Y-61595000D03*
%TO.P,U2,3,+*%
%TO.N,Net-(U1B--)*%
X91505000Y-62865000D03*
%TO.P,U2,4,V-*%
%TO.N,GND*%
X91505000Y-64135000D03*
%TO.P,U2,5,+*%
%TO.N,Net-(U1B--)*%
X96455000Y-64135000D03*
%TO.P,U2,6,-*%
%TO.N,Net-(U2B--)*%
X96455000Y-62865000D03*
%TO.P,U2,7*%
%TO.N,Net-(C13-Pad1)*%
X96455000Y-61595000D03*
%TO.P,U2,8,V+*%
%TO.N,+12V*%
X96455000Y-60325000D03*
%TD*%
D21*
%TO.P,RV1,1,1*%
%TO.N,Net-(R4-Pad2)*%
X57150000Y-47150000D03*
D22*
%TO.P,RV1,2,2*%
%TO.N,Net-(C3-Pad1)*%
X57150000Y-52150000D03*
%TO.P,RV1,3,3*%
%TO.N,Net-(R8-Pad1)*%
X57150000Y-57150000D03*
%TD*%
D10*
%TO.P,R8,1*%
%TO.N,Net-(R8-Pad1)*%
X73537500Y-60000000D03*
%TO.P,R8,2*%
%TO.N,Net-(C4-Pad1)*%
X76462500Y-60000000D03*
%TD*%
D11*
%TO.P,R5,1*%
%TO.N,Net-(R5-Pad1)*%
X86360000Y-73852500D03*
%TO.P,R5,2*%
%TO.N,Net-(U2A--)*%
X86360000Y-70927500D03*
%TD*%
D10*
%TO.P,R2,1*%
%TO.N,Net-(U1A-+)*%
X103537500Y-100000000D03*
%TO.P,R2,2*%
%TO.N,GND*%
X106462500Y-100000000D03*
%TD*%
D21*
%TO.P,RV3,1,1*%
%TO.N,Net-(C11-Pad2)*%
X57150000Y-72550000D03*
D22*
%TO.P,RV3,2,2*%
%TO.N,Net-(C12-Pad2)*%
X57150000Y-77550000D03*
%TO.P,RV3,3,3*%
%TO.N,Net-(C11-Pad1)*%
X57150000Y-82550000D03*
%TD*%
D23*
%TO.P,C5,1*%
%TO.N,+12V*%
X93250000Y-86360000D03*
D12*
%TO.P,C5,2*%
%TO.N,GND*%
X95250000Y-86360000D03*
%TD*%
D11*
%TO.P,R16,1*%
%TO.N,Net-(J1-PadR)*%
X121000000Y-95462500D03*
%TO.P,R16,2*%
%TO.N,Net-(C1-Pad1)*%
X121000000Y-92537500D03*
%TD*%
D24*
%TO.N,Net-(U1A-+)*%
X93345000Y-97155000D03*
X101600000Y-102235000D03*
%TO.N,Net-(C4-Pad1)*%
X77470000Y-59690000D03*
%TO.N,GND*%
X130000000Y-63000000D03*
X89535000Y-64135000D03*
%TO.N,Net-(C11-Pad2)*%
X72390000Y-74930000D03*
X78740000Y-72390000D03*
%TO.N,Net-(C12-Pad2)*%
X63500000Y-77470000D03*
%TO.N,Net-(C13-Pad1)*%
X94615000Y-61595000D03*
X94615000Y-66675000D03*
%TO.N,Net-(R5-Pad1)*%
X77470000Y-100330000D03*
X80010000Y-97790000D03*
X83820000Y-78740000D03*
X83820000Y-81280000D03*
%TO.N,Net-(U1B--)*%
X98425000Y-64135000D03*
X89535000Y-62865000D03*
X98425000Y-95885000D03*
%TD*%
D25*
%TO.N,Net-(U1A-+)*%
X91505000Y-97155000D02*
X93345000Y-97155000D01*
X103537500Y-99962500D02*
X106462500Y-97037500D01*
X101600000Y-102235000D02*
X101600000Y-101937500D01*
X110732500Y-107195000D02*
X103537500Y-100000000D01*
X103537500Y-100000000D02*
X103537500Y-99962500D01*
X101600000Y-101937500D02*
X103537500Y-100000000D01*
X106462500Y-97037500D02*
X106462500Y-95000000D01*
X113030000Y-107195000D02*
X110732500Y-107195000D01*
%TO.N,Net-(C1-Pad1)*%
X121000000Y-92537500D02*
X113372500Y-92537500D01*
X131000000Y-92537500D02*
X121000000Y-92537500D01*
X113372500Y-92537500D02*
X113030000Y-92195000D01*
%TO.N,Net-(C2-Pad1)*%
X70000000Y-105000000D02*
X60100000Y-105000000D01*
X60100000Y-105000000D02*
X57150000Y-107950000D01*
X80662501Y-105799999D02*
X70799999Y-105799999D01*
X82000000Y-104462500D02*
X80662501Y-105799999D01*
X70799999Y-105799999D02*
X70000000Y-105000000D01*
%TO.N,Net-(C2-Pad2)*%
X73537500Y-95962500D02*
X73537500Y-90000000D01*
X70000000Y-100000000D02*
X59200000Y-100000000D01*
X59200000Y-100000000D02*
X57150000Y-97950000D01*
X70000000Y-100000000D02*
X70000000Y-99500000D01*
X70000000Y-99500000D02*
X73537500Y-95962500D01*
%TO.N,Net-(C3-Pad1)*%
X67150000Y-52150000D02*
X70000000Y-55000000D01*
X57150000Y-52150000D02*
X67150000Y-52150000D01*
%TO.N,Net-(C3-Pad2)*%
X70537500Y-50537500D02*
X70000000Y-50000000D01*
X77000000Y-50537500D02*
X70537500Y-50537500D01*
%TO.N,Net-(C4-Pad1)*%
X102000000Y-63462500D02*
X100626500Y-64836000D01*
X84675000Y-60325000D02*
X91505000Y-60325000D01*
X76462500Y-70000000D02*
X75499000Y-69036500D01*
X100626500Y-64836000D02*
X95397612Y-64836000D01*
X92881000Y-62319388D02*
X92881000Y-60726001D01*
X92479999Y-60325000D02*
X91505000Y-60325000D01*
X84000000Y-61000000D02*
X84675000Y-60325000D01*
X92881000Y-60726001D02*
X92479999Y-60325000D01*
X76462500Y-60000000D02*
X77160000Y-60000000D01*
X77160000Y-60000000D02*
X77470000Y-59690000D01*
X75799000Y-89336500D02*
X75799000Y-70663500D01*
X75799000Y-70663500D02*
X76462500Y-70000000D01*
X75499000Y-69036500D02*
X75499000Y-60963500D01*
X76462500Y-90000000D02*
X75799000Y-89336500D01*
X95397612Y-64836000D02*
X92881000Y-62319388D01*
X75499000Y-60963500D02*
X76462500Y-60000000D01*
%TO.N,Net-(U2A--)*%
X77000000Y-53462500D02*
X78811028Y-53462500D01*
X84000000Y-63500000D02*
X85905000Y-61595000D01*
X83600000Y-58251472D02*
X83600000Y-58748528D01*
X81748528Y-61248528D02*
X84000000Y-63500000D01*
X78811028Y-53462500D02*
X83600000Y-58251472D01*
X85905000Y-61595000D02*
X91505000Y-61595000D01*
X81748528Y-60600000D02*
X81748528Y-61248528D01*
X86360000Y-70927500D02*
X84000000Y-68567500D01*
X84000000Y-68567500D02*
X84000000Y-63500000D01*
X83600000Y-58748528D02*
X81748528Y-60600000D01*
D26*
%TO.N,+12V*%
X107537500Y-80000000D02*
X111317500Y-76220000D01*
X118745000Y-63500000D02*
X118745000Y-67818000D01*
X118745000Y-74295000D02*
X116840000Y-76200000D01*
X95230000Y-57150000D02*
X95230000Y-59100000D01*
X129286000Y-69088000D02*
X120015000Y-69088000D01*
X95250000Y-51435000D02*
X95250000Y-57130000D01*
X106151250Y-81386250D02*
X107537500Y-80000000D01*
X116840000Y-76200000D02*
X116840000Y-76220000D01*
X111317500Y-76220000D02*
X116840000Y-76220000D01*
X103537500Y-84000000D02*
X104018750Y-83518750D01*
X95250000Y-57130000D02*
X95230000Y-57150000D01*
X93250000Y-86360000D02*
X93250000Y-86750000D01*
X95250000Y-51435000D02*
X106680000Y-51435000D01*
X120015000Y-69088000D02*
X118745000Y-67818000D01*
X103537500Y-95000000D02*
X103537500Y-84000000D01*
X96455000Y-94615000D02*
X96455000Y-93320000D01*
X96455000Y-93320000D02*
X95210000Y-92075000D01*
X98223750Y-81386250D02*
X106151250Y-81386250D01*
X104018750Y-83518750D02*
X106151250Y-81386250D01*
X93250000Y-86360000D02*
X98223750Y-81386250D01*
X93250000Y-86750000D02*
X95210000Y-88710000D01*
X118745000Y-67818000D02*
X118745000Y-74295000D01*
X106680000Y-51435000D02*
X118745000Y-63500000D01*
X95230000Y-59100000D02*
X96455000Y-60325000D01*
X95210000Y-88710000D02*
X95210000Y-92075000D01*
D25*
%TO.N,GND*%
X130000000Y-63000000D02*
X130000000Y-61462500D01*
X106792500Y-100330000D02*
X106462500Y-100000000D01*
X91505000Y-64135000D02*
X89535000Y-64135000D01*
%TO.N,Net-(U1B-+)*%
X110462500Y-80000000D02*
X108547500Y-81915000D01*
X104501000Y-85364000D02*
X104501000Y-96699000D01*
X92730000Y-102235000D02*
X92730000Y-107430000D01*
X108547500Y-81915000D02*
X107950000Y-81915000D01*
X92730000Y-102235000D02*
X96455000Y-98510000D01*
X116537500Y-80000000D02*
X110462500Y-80000000D01*
X96455000Y-98510000D02*
X96455000Y-98425000D01*
X104501000Y-96699000D02*
X93250000Y-107950000D01*
X92730000Y-107430000D02*
X93250000Y-107950000D01*
X107950000Y-81915000D02*
X104501000Y-85364000D01*
%TO.N,Net-(C11-Pad2)*%
X59600000Y-75000000D02*
X57150000Y-72550000D01*
X78740000Y-72390000D02*
X89127500Y-72390000D01*
X72320000Y-75000000D02*
X72390000Y-74930000D01*
X70000000Y-75000000D02*
X59600000Y-75000000D01*
X70000000Y-75000000D02*
X72320000Y-75000000D01*
X89127500Y-72390000D02*
X92517500Y-69000000D01*
%TO.N,Net-(C11-Pad1)*%
X70000000Y-80000000D02*
X59700000Y-80000000D01*
X59700000Y-80000000D02*
X57150000Y-82550000D01*
X70000000Y-80000000D02*
X73537500Y-76462500D01*
X73537500Y-76462500D02*
X73537500Y-70000000D01*
%TO.N,Net-(C12-Pad2)*%
X62150000Y-77550000D02*
X57150000Y-77550000D01*
X63500000Y-77470000D02*
X62230000Y-77470000D01*
X62230000Y-77470000D02*
X62150000Y-77550000D01*
%TO.N,Net-(U2B--)*%
X102000000Y-60537500D02*
X99672500Y-62865000D01*
X103075000Y-60537500D02*
X106000000Y-63462500D01*
X102000000Y-60537500D02*
X103075000Y-60537500D01*
X89492500Y-79970000D02*
X106000000Y-63462500D01*
X99672500Y-62865000D02*
X96455000Y-62865000D01*
X78740000Y-79970000D02*
X89492500Y-79970000D01*
%TO.N,Net-(C13-Pad2)*%
X113030000Y-53492500D02*
X113030000Y-47745000D01*
X121000000Y-61462500D02*
X113030000Y-53492500D01*
%TO.N,Net-(C13-Pad1)*%
X94615000Y-68172500D02*
X95442500Y-69000000D01*
X113030000Y-62745000D02*
X108207500Y-62745000D01*
X96455000Y-61595000D02*
X99077420Y-61595000D01*
X101098420Y-59574000D02*
X105036500Y-59574000D01*
X96455000Y-61595000D02*
X94615000Y-61595000D01*
X94615000Y-66675000D02*
X94615000Y-68172500D01*
X105036500Y-59574000D02*
X106000000Y-60537500D01*
X108207500Y-62745000D02*
X106000000Y-60537500D01*
X99077420Y-61595000D02*
X101098420Y-59574000D01*
%TO.N,Net-(J1-PadR)*%
X120810000Y-95652500D02*
X121000000Y-95462500D01*
X120810000Y-102315000D02*
X120810000Y-95652500D01*
%TO.N,Net-(J1-PadT)*%
X130810000Y-102315000D02*
X130810000Y-95652500D01*
X130810000Y-95652500D02*
X131000000Y-95462500D01*
%TO.N,Net-(U1A--)*%
X82000000Y-101537500D02*
X87652500Y-95885000D01*
X91505000Y-95885000D02*
X91505000Y-94615000D01*
X74501000Y-94038500D02*
X82000000Y-101537500D01*
X87652500Y-95885000D02*
X91505000Y-95885000D01*
X73537500Y-65000000D02*
X74501000Y-65963500D01*
X74501000Y-65963500D02*
X74501000Y-94038500D01*
%TO.N,Net-(R4-Pad2)*%
X57150000Y-47150000D02*
X64930000Y-47150000D01*
X80010000Y-61452500D02*
X76462500Y-65000000D01*
X77470000Y-55880000D02*
X80010000Y-58420000D01*
X80010000Y-58420000D02*
X80010000Y-61452500D01*
X73660000Y-55880000D02*
X77470000Y-55880000D01*
X64930000Y-47150000D02*
X73660000Y-55880000D01*
%TO.N,Net-(R5-Pad1)*%
X80010000Y-97790000D02*
X80010000Y-85090000D01*
X83820000Y-76392500D02*
X86360000Y-73852500D01*
X74850000Y-102950000D02*
X77470000Y-100330000D01*
X57150000Y-102950000D02*
X74850000Y-102950000D01*
X83820000Y-78740000D02*
X83820000Y-76392500D01*
X80010000Y-85090000D02*
X83820000Y-81280000D01*
%TO.N,Net-(R8-Pad1)*%
X70687500Y-57150000D02*
X57150000Y-57150000D01*
X73537500Y-60000000D02*
X70687500Y-57150000D01*
%TO.N,Net-(U1B--)*%
X96455000Y-95885000D02*
X96455000Y-97155000D01*
X89535000Y-62865000D02*
X91505000Y-62865000D01*
X98425000Y-95885000D02*
X96455000Y-95885000D01*
X96455000Y-64135000D02*
X98425000Y-64135000D01*
%TO.N,Net-(J3-PadR)*%
X121000000Y-58537500D02*
X130000000Y-58537500D01*
X121000000Y-52775000D02*
X120810000Y-52585000D01*
X130810000Y-57727500D02*
X130810000Y-52585000D01*
X130000000Y-58537500D02*
X130810000Y-57727500D01*
X121000000Y-58537500D02*
X121000000Y-52775000D01*
%TD*%
%TA.AperFunction,Conductor*%
%TO.N,GND*%
G36*
X104107059Y-82156435D02*
G01*
X104152814Y-82209239D01*
X104162758Y-82278397D01*
X104133733Y-82341953D01*
X104127701Y-82348431D01*
X103435796Y-83040336D01*
X102954552Y-83521578D01*
X102954549Y-83521581D01*
X102922282Y-83569872D01*
X102922283Y-83569873D01*
X102872414Y-83644508D01*
X102815843Y-83781082D01*
X102815840Y-83781092D01*
X102787000Y-83926079D01*
X102787000Y-93700270D01*
X102767315Y-93767309D01*
X102750681Y-93787951D01*
X102632289Y-93906342D01*
X102540187Y-94055663D01*
X102540186Y-94055666D01*
X102485001Y-94222203D01*
X102485001Y-94222204D01*
X102485000Y-94222204D01*
X102474500Y-94324983D01*
X102474500Y-95675001D01*
X102474501Y-95675018D01*
X102485000Y-95777796D01*
X102485001Y-95777799D01*
X102540185Y-95944331D01*
X102540187Y-95944336D01*
X102552220Y-95963844D01*
X102632288Y-96093656D01*
X102756344Y-96217712D01*
X102905666Y-96309814D01*
X103072203Y-96364999D01*
X103174991Y-96375500D01*
X103534482Y-96375499D01*
X103601520Y-96395183D01*
X103647275Y-96447987D01*
X103657219Y-96517146D01*
X103628194Y-96580701D01*
X103622162Y-96587180D01*
X93642181Y-106567161D01*
X93580858Y-106600646D01*
X93511166Y-106595662D01*
X93455233Y-106553790D01*
X93430816Y-106488326D01*
X93430500Y-106479480D01*
X93430500Y-103396744D01*
X93430985Y-103395091D01*
X93430544Y-103393424D01*
X93440795Y-103361681D01*
X93450185Y-103329705D01*
X93451656Y-103328051D01*
X93452017Y-103326936D01*
X93459700Y-103319015D01*
X93475835Y-103300891D01*
X93478663Y-103298569D01*
X93577219Y-103226966D01*
X93721966Y-103082219D01*
X93721968Y-103082215D01*
X93721971Y-103082213D01*
X93842286Y-102916611D01*
X93842415Y-102916359D01*
X93869795Y-102862621D01*
X93917769Y-102811826D01*
X93985589Y-102795030D01*
X94051725Y-102817567D01*
X94090765Y-102862621D01*
X94118141Y-102916350D01*
X94118147Y-102916359D01*
X94150523Y-102960921D01*
X94150524Y-102960922D01*
X94830000Y-102281446D01*
X94830000Y-102287661D01*
X94857259Y-102389394D01*
X94909920Y-102480606D01*
X94984394Y-102555080D01*
X95075606Y-102607741D01*
X95177339Y-102635000D01*
X95183553Y-102635000D01*
X94504076Y-103314474D01*
X94548650Y-103346859D01*
X94730968Y-103439755D01*
X94925582Y-103502990D01*
X95127683Y-103535000D01*
X95332317Y-103535000D01*
X95534417Y-103502990D01*
X95729031Y-103439755D01*
X95911349Y-103346859D01*
X95955921Y-103314474D01*
X95276447Y-102635000D01*
X95282661Y-102635000D01*
X95384394Y-102607741D01*
X95475606Y-102555080D01*
X95550080Y-102480606D01*
X95602741Y-102389394D01*
X95630000Y-102287661D01*
X95630000Y-102281447D01*
X96309474Y-102960921D01*
X96341859Y-102916349D01*
X96434755Y-102734031D01*
X96497990Y-102539417D01*
X96530000Y-102337317D01*
X96530000Y-102132682D01*
X96497990Y-101930582D01*
X96434755Y-101735968D01*
X96341859Y-101553650D01*
X96309474Y-101509077D01*
X96309474Y-101509076D01*
X95630000Y-102188551D01*
X95630000Y-102182339D01*
X95602741Y-102080606D01*
X95550080Y-101989394D01*
X95475606Y-101914920D01*
X95384394Y-101862259D01*
X95282661Y-101835000D01*
X95276446Y-101835000D01*
X95955922Y-101155524D01*
X95955921Y-101155523D01*
X95911359Y-101123147D01*
X95911350Y-101123141D01*
X95729031Y-101030244D01*
X95534417Y-100967009D01*
X95332317Y-100935000D01*
X95320018Y-100935000D01*
X95252979Y-100915315D01*
X95207224Y-100862511D01*
X95197280Y-100793353D01*
X95226305Y-100729797D01*
X95232337Y-100723319D01*
X95383175Y-100572482D01*
X96693838Y-99261819D01*
X96755161Y-99228334D01*
X96781519Y-99225500D01*
X97345686Y-99225500D01*
X97345694Y-99225500D01*
X97382569Y-99222598D01*
X97382571Y-99222597D01*
X97382573Y-99222597D01*
X97424191Y-99210505D01*
X97540398Y-99176744D01*
X97681865Y-99093081D01*
X97798081Y-98976865D01*
X97881744Y-98835398D01*
X97916426Y-98716024D01*
X97927597Y-98677573D01*
X97927598Y-98677567D01*
X97930500Y-98640694D01*
X97930500Y-98209306D01*
X97927598Y-98172431D01*
X97926653Y-98169179D01*
X97881745Y-98014606D01*
X97881744Y-98014603D01*
X97881744Y-98014602D01*
X97798081Y-97873135D01*
X97798078Y-97873132D01*
X97793298Y-97866969D01*
X97795750Y-97865066D01*
X97769155Y-97816421D01*
X97774104Y-97746726D01*
X97794940Y-97714304D01*
X97793298Y-97713031D01*
X97798075Y-97706870D01*
X97798081Y-97706865D01*
X97881744Y-97565398D01*
X97927598Y-97407569D01*
X97930500Y-97370694D01*
X97930500Y-96939306D01*
X97927598Y-96902431D01*
X97882540Y-96747343D01*
X97881732Y-96744560D01*
X97881931Y-96674691D01*
X97919873Y-96616021D01*
X97983511Y-96587177D01*
X98048258Y-96595403D01*
X98191503Y-96654737D01*
X98346153Y-96685499D01*
X98346156Y-96685500D01*
X98346158Y-96685500D01*
X98503844Y-96685500D01*
X98503845Y-96685499D01*
X98658497Y-96654737D01*
X98783076Y-96603135D01*
X98804172Y-96594397D01*
X98804172Y-96594396D01*
X98804179Y-96594394D01*
X98935289Y-96506789D01*
X99046789Y-96395289D01*
X99134394Y-96264179D01*
X99194737Y-96118497D01*
X99225500Y-95963842D01*
X99225500Y-95806158D01*
X99225500Y-95806155D01*
X99225499Y-95806153D01*
X99219858Y-95777795D01*
X99194737Y-95651503D01*
X99182094Y-95620980D01*
X99134397Y-95505827D01*
X99134390Y-95505814D01*
X99046789Y-95374711D01*
X99046786Y-95374707D01*
X98935292Y-95263213D01*
X98935288Y-95263210D01*
X98804185Y-95175609D01*
X98804172Y-95175602D01*
X98658501Y-95115264D01*
X98658489Y-95115261D01*
X98503845Y-95084500D01*
X98503842Y-95084500D01*
X98346158Y-95084500D01*
X98346155Y-95084500D01*
X98191510Y-95115261D01*
X98191498Y-95115264D01*
X98048260Y-95174595D01*
X97978791Y-95182064D01*
X97916312Y-95150788D01*
X97880660Y-95090699D01*
X97881732Y-95025438D01*
X97881744Y-95025398D01*
X97927598Y-94867569D01*
X97930500Y-94830694D01*
X97930500Y-94399306D01*
X97927598Y-94362431D01*
X97916718Y-94324983D01*
X97881745Y-94204606D01*
X97881744Y-94204603D01*
X97881744Y-94204602D01*
X97798081Y-94063135D01*
X97798079Y-94063133D01*
X97798076Y-94063129D01*
X97681870Y-93946923D01*
X97681862Y-93946917D01*
X97594916Y-93895498D01*
X97540398Y-93863256D01*
X97540397Y-93863255D01*
X97540396Y-93863255D01*
X97540393Y-93863254D01*
X97382573Y-93817402D01*
X97382567Y-93817401D01*
X97345701Y-93814500D01*
X97345694Y-93814500D01*
X97329500Y-93814500D01*
X97262461Y-93794815D01*
X97216706Y-93742011D01*
X97205500Y-93690500D01*
X97205500Y-93246079D01*
X97176659Y-93101092D01*
X97176658Y-93101091D01*
X97176658Y-93101087D01*
X97120084Y-92964505D01*
X97076989Y-92900008D01*
X97076989Y-92900007D01*
X97037950Y-92841581D01*
X97037947Y-92841578D01*
X96536473Y-92340105D01*
X96502988Y-92278782D01*
X96501681Y-92233027D01*
X96510500Y-92177352D01*
X96510500Y-91972648D01*
X96499890Y-91905663D01*
X96478477Y-91770465D01*
X96447458Y-91675000D01*
X96415220Y-91575781D01*
X96415218Y-91575778D01*
X96415218Y-91575776D01*
X96368965Y-91485001D01*
X96322287Y-91393390D01*
X96290092Y-91349077D01*
X96201971Y-91227786D01*
X96057217Y-91083032D01*
X96057212Y-91083028D01*
X96011615Y-91049900D01*
X95968949Y-90994571D01*
X95960500Y-90949582D01*
X95960500Y-88636081D01*
X95954763Y-88607242D01*
X95954763Y-88607240D01*
X95931660Y-88491095D01*
X95931659Y-88491088D01*
X95877408Y-88360117D01*
X95875764Y-88355522D01*
X95792954Y-88231588D01*
X95792953Y-88231587D01*
X95792951Y-88231584D01*
X95688416Y-88127049D01*
X95411354Y-87849987D01*
X95377870Y-87788665D01*
X95382854Y-87718973D01*
X95424726Y-87663040D01*
X95479638Y-87639834D01*
X95554417Y-87627990D01*
X95749031Y-87564755D01*
X95931349Y-87471859D01*
X95975921Y-87439474D01*
X95296447Y-86760000D01*
X95302661Y-86760000D01*
X95404394Y-86732741D01*
X95495606Y-86680080D01*
X95570080Y-86605606D01*
X95622741Y-86514394D01*
X95650000Y-86412661D01*
X95650000Y-86406447D01*
X96329474Y-87085921D01*
X96361859Y-87041349D01*
X96454755Y-86859031D01*
X96517990Y-86664417D01*
X96550000Y-86462317D01*
X96550000Y-86257682D01*
X96517990Y-86055582D01*
X96454755Y-85860968D01*
X96361859Y-85678650D01*
X96329474Y-85634077D01*
X96329474Y-85634076D01*
X95650000Y-86313551D01*
X95650000Y-86307339D01*
X95622741Y-86205606D01*
X95570080Y-86114394D01*
X95495606Y-86039920D01*
X95404394Y-85987259D01*
X95302661Y-85960000D01*
X95296446Y-85960000D01*
X95975922Y-85280524D01*
X95975921Y-85280523D01*
X95931359Y-85248147D01*
X95931350Y-85248141D01*
X95746806Y-85154111D01*
X95696010Y-85106136D01*
X95679215Y-85038315D01*
X95701752Y-84972180D01*
X95715407Y-84955959D01*
X98498299Y-82173069D01*
X98559622Y-82139584D01*
X98585980Y-82136750D01*
X104040020Y-82136750D01*
X104107059Y-82156435D01*
G37*
%TD.AperFunction*%
%TA.AperFunction,Conductor*%
G36*
X103079871Y-61536376D02*
G01*
X103098598Y-61551755D01*
X104588181Y-63041338D01*
X104621666Y-63102661D01*
X104624500Y-63129019D01*
X104624500Y-63795980D01*
X104604815Y-63863019D01*
X104588181Y-63883661D01*
X89238662Y-79233181D01*
X89177339Y-79266666D01*
X89150981Y-79269500D01*
X84652708Y-79269500D01*
X84585669Y-79249815D01*
X84539914Y-79197011D01*
X84529970Y-79127853D01*
X84538147Y-79098048D01*
X84575434Y-79008028D01*
X84589737Y-78973497D01*
X84620500Y-78818842D01*
X84620500Y-78661158D01*
X84620500Y-78661155D01*
X84620499Y-78661153D01*
X84612644Y-78621666D01*
X84589737Y-78506503D01*
X84560818Y-78436685D01*
X84529939Y-78362136D01*
X84520500Y-78314684D01*
X84520500Y-76734017D01*
X84540185Y-76666978D01*
X84556814Y-76646341D01*
X86251337Y-74951817D01*
X86312660Y-74918333D01*
X86339018Y-74915499D01*
X87035002Y-74915499D01*
X87035008Y-74915499D01*
X87137797Y-74904999D01*
X87304334Y-74849814D01*
X87453656Y-74757712D01*
X87577712Y-74633656D01*
X87669814Y-74484334D01*
X87724999Y-74317797D01*
X87735500Y-74215009D01*
X87735499Y-73489992D01*
X87724999Y-73387203D01*
X87680694Y-73253502D01*
X87678293Y-73183676D01*
X87714024Y-73123634D01*
X87776545Y-73092441D01*
X87798401Y-73090500D01*
X89196496Y-73090500D01*
X89287540Y-73072389D01*
X89331828Y-73063580D01*
X89395569Y-73037177D01*
X89459307Y-73010777D01*
X89459308Y-73010776D01*
X89459311Y-73010775D01*
X89574043Y-72934114D01*
X92096339Y-70411816D01*
X92157660Y-70378333D01*
X92184009Y-70375499D01*
X92880008Y-70375499D01*
X92880016Y-70375498D01*
X92880019Y-70375498D01*
X92936302Y-70369748D01*
X92982797Y-70364999D01*
X93149334Y-70309814D01*
X93298656Y-70217712D01*
X93422712Y-70093656D01*
X93514814Y-69944334D01*
X93569999Y-69777797D01*
X93580500Y-69675009D01*
X93580499Y-68324992D01*
X93579444Y-68314669D01*
X93569999Y-68222203D01*
X93569998Y-68222200D01*
X93514814Y-68055666D01*
X93422712Y-67906344D01*
X93298656Y-67782288D01*
X93149334Y-67690186D01*
X92982797Y-67635001D01*
X92982795Y-67635000D01*
X92880010Y-67624500D01*
X92154998Y-67624500D01*
X92154980Y-67624501D01*
X92052203Y-67635000D01*
X92052200Y-67635001D01*
X91885668Y-67690185D01*
X91885663Y-67690187D01*
X91736342Y-67782289D01*
X91612289Y-67906342D01*
X91520187Y-68055663D01*
X91520186Y-68055666D01*
X91465001Y-68222203D01*
X91465001Y-68222204D01*
X91465000Y-68222204D01*
X91454500Y-68324983D01*
X91454500Y-69020980D01*
X91434815Y-69088019D01*
X91418181Y-69108661D01*
X88873662Y-71653181D01*
X88812339Y-71686666D01*
X88785981Y-71689500D01*
X87798401Y-71689500D01*
X87731362Y-71669815D01*
X87685607Y-71617011D01*
X87675663Y-71547853D01*
X87680695Y-71526496D01*
X87724999Y-71392797D01*
X87735500Y-71290009D01*
X87735499Y-70564992D01*
X87733916Y-70549500D01*
X87724999Y-70462203D01*
X87724998Y-70462200D01*
X87696268Y-70375499D01*
X87669814Y-70295666D01*
X87577712Y-70146344D01*
X87453656Y-70022288D01*
X87304334Y-69930186D01*
X87137797Y-69875001D01*
X87137795Y-69875000D01*
X87035016Y-69864500D01*
X87035009Y-69864500D01*
X86339019Y-69864500D01*
X86271980Y-69844815D01*
X86251338Y-69828181D01*
X84736819Y-68313662D01*
X84703334Y-68252339D01*
X84700500Y-68225981D01*
X84700500Y-66596153D01*
X93814500Y-66596153D01*
X93814500Y-66753846D01*
X93845261Y-66908489D01*
X93845264Y-66908501D01*
X93905061Y-67052864D01*
X93914500Y-67100316D01*
X93914500Y-68103506D01*
X93914500Y-68241494D01*
X93914500Y-68241496D01*
X93914499Y-68241496D01*
X93941418Y-68376822D01*
X93941421Y-68376832D01*
X93994222Y-68504307D01*
X94070887Y-68619045D01*
X94070888Y-68619046D01*
X94343181Y-68891338D01*
X94376666Y-68952661D01*
X94379500Y-68979019D01*
X94379500Y-69675001D01*
X94379501Y-69675019D01*
X94390000Y-69777796D01*
X94390001Y-69777799D01*
X94420796Y-69870730D01*
X94445186Y-69944334D01*
X94537288Y-70093656D01*
X94661344Y-70217712D01*
X94810666Y-70309814D01*
X94977203Y-70364999D01*
X95079991Y-70375500D01*
X95805008Y-70375499D01*
X95805016Y-70375498D01*
X95805019Y-70375498D01*
X95861302Y-70369748D01*
X95907797Y-70364999D01*
X96074334Y-70309814D01*
X96223656Y-70217712D01*
X96347712Y-70093656D01*
X96439814Y-69944334D01*
X96494999Y-69777797D01*
X96505500Y-69675009D01*
X96505499Y-68324992D01*
X96504444Y-68314669D01*
X96494999Y-68222203D01*
X96494998Y-68222200D01*
X96439814Y-68055666D01*
X96347712Y-67906344D01*
X96223656Y-67782288D01*
X96074334Y-67690186D01*
X95907797Y-67635001D01*
X95907795Y-67635000D01*
X95805016Y-67624500D01*
X95805009Y-67624500D01*
X95439500Y-67624500D01*
X95372461Y-67604815D01*
X95326706Y-67552011D01*
X95315500Y-67500500D01*
X95315500Y-67100316D01*
X95324939Y-67052864D01*
X95384735Y-66908501D01*
X95384737Y-66908497D01*
X95415500Y-66753842D01*
X95415500Y-66596158D01*
X95415500Y-66596155D01*
X95415499Y-66596153D01*
X95396273Y-66499499D01*
X95384737Y-66441503D01*
X95357398Y-66375500D01*
X95324397Y-66295827D01*
X95324390Y-66295814D01*
X95236789Y-66164711D01*
X95236786Y-66164707D01*
X95125292Y-66053213D01*
X95125288Y-66053210D01*
X94994185Y-65965609D01*
X94994172Y-65965602D01*
X94848501Y-65905264D01*
X94848489Y-65905261D01*
X94693845Y-65874500D01*
X94693842Y-65874500D01*
X94536158Y-65874500D01*
X94536155Y-65874500D01*
X94381510Y-65905261D01*
X94381498Y-65905264D01*
X94235827Y-65965602D01*
X94235814Y-65965609D01*
X94104711Y-66053210D01*
X94104707Y-66053213D01*
X93993213Y-66164707D01*
X93993210Y-66164711D01*
X93905609Y-66295814D01*
X93905602Y-66295827D01*
X93845264Y-66441498D01*
X93845261Y-66441510D01*
X93814500Y-66596153D01*
X84700500Y-66596153D01*
X84700500Y-64661744D01*
X84720185Y-64594705D01*
X84751615Y-64561426D01*
X84847215Y-64491969D01*
X84847215Y-64491968D01*
X84847219Y-64491966D01*
X84954184Y-64385001D01*
X90032704Y-64385001D01*
X90032899Y-64387486D01*
X90078718Y-64545198D01*
X90162314Y-64686552D01*
X90162321Y-64686561D01*
X90278438Y-64802678D01*
X90278447Y-64802685D01*
X90419803Y-64886282D01*
X90419806Y-64886283D01*
X90577504Y-64932099D01*
X90577510Y-64932100D01*
X90614350Y-64934999D01*
X90614366Y-64935000D01*
X91255000Y-64935000D01*
X91755000Y-64935000D01*
X92395634Y-64935000D01*
X92395649Y-64934999D01*
X92432489Y-64932100D01*
X92432495Y-64932099D01*
X92590193Y-64886283D01*
X92590196Y-64886282D01*
X92731552Y-64802685D01*
X92731561Y-64802678D01*
X92847678Y-64686561D01*
X92847685Y-64686552D01*
X92931281Y-64545198D01*
X92977100Y-64387486D01*
X92977295Y-64385001D01*
X92977295Y-64385000D01*
X91755000Y-64385000D01*
X91755000Y-64935000D01*
X91255000Y-64935000D01*
X91255000Y-64385000D01*
X90032705Y-64385000D01*
X90032704Y-64385001D01*
X84954184Y-64385001D01*
X84991966Y-64347219D01*
X85045595Y-64273405D01*
X85049686Y-64267774D01*
X85049688Y-64267771D01*
X85058568Y-64255548D01*
X85112287Y-64181610D01*
X85205220Y-63999219D01*
X85268477Y-63804534D01*
X85300500Y-63602352D01*
X85300500Y-63397648D01*
X85283890Y-63292780D01*
X85282013Y-63280929D01*
X85290967Y-63211636D01*
X85316802Y-63173853D01*
X86158838Y-62331819D01*
X86220161Y-62298334D01*
X86246519Y-62295500D01*
X88720786Y-62295500D01*
X88787825Y-62315185D01*
X88833580Y-62367989D01*
X88843524Y-62437147D01*
X88827195Y-62479760D01*
X88828479Y-62480446D01*
X88825602Y-62485827D01*
X88765264Y-62631498D01*
X88765261Y-62631510D01*
X88734500Y-62786153D01*
X88734500Y-62943846D01*
X88765261Y-63098489D01*
X88765264Y-63098501D01*
X88825602Y-63244172D01*
X88825609Y-63244185D01*
X88913210Y-63375288D01*
X88913213Y-63375292D01*
X89024707Y-63486786D01*
X89024711Y-63486789D01*
X89155814Y-63574390D01*
X89155827Y-63574397D01*
X89276791Y-63624501D01*
X89301503Y-63634737D01*
X89423752Y-63659054D01*
X89456153Y-63665499D01*
X89456156Y-63665500D01*
X89456158Y-63665500D01*
X89613844Y-63665500D01*
X89613845Y-63665499D01*
X89768497Y-63634737D01*
X89912333Y-63575158D01*
X89981798Y-63567690D01*
X90044277Y-63598965D01*
X90079930Y-63659054D01*
X90078859Y-63724314D01*
X90032899Y-63882511D01*
X90032704Y-63884998D01*
X90032705Y-63885000D01*
X92977295Y-63885000D01*
X92977295Y-63884998D01*
X92977100Y-63882513D01*
X92931281Y-63724801D01*
X92903405Y-63677665D01*
X92886222Y-63609941D01*
X92908382Y-63543679D01*
X92962848Y-63499915D01*
X93032328Y-63492546D01*
X93094762Y-63523910D01*
X93097818Y-63526863D01*
X94951065Y-65380111D01*
X94951066Y-65380112D01*
X95065804Y-65456777D01*
X95193279Y-65509578D01*
X95193284Y-65509580D01*
X95193288Y-65509580D01*
X95193289Y-65509581D01*
X95328615Y-65536500D01*
X95328618Y-65536500D01*
X100695496Y-65536500D01*
X100786540Y-65518389D01*
X100830828Y-65509580D01*
X100894569Y-65483177D01*
X100958307Y-65456777D01*
X100958308Y-65456776D01*
X100958311Y-65456775D01*
X101073043Y-65380114D01*
X101891337Y-64561817D01*
X101952660Y-64528333D01*
X101979018Y-64525499D01*
X102675002Y-64525499D01*
X102675008Y-64525499D01*
X102777797Y-64514999D01*
X102944334Y-64459814D01*
X103093656Y-64367712D01*
X103217712Y-64243656D01*
X103309814Y-64094334D01*
X103364999Y-63927797D01*
X103375500Y-63825009D01*
X103375499Y-63099992D01*
X103375346Y-63098497D01*
X103364999Y-62997203D01*
X103364998Y-62997200D01*
X103318360Y-62856457D01*
X103309814Y-62830666D01*
X103217712Y-62681344D01*
X103093656Y-62557288D01*
X102969075Y-62480446D01*
X102944336Y-62465187D01*
X102944331Y-62465185D01*
X102942862Y-62464698D01*
X102777797Y-62410001D01*
X102777795Y-62410000D01*
X102675016Y-62399500D01*
X101428017Y-62399500D01*
X101360978Y-62379815D01*
X101315223Y-62327011D01*
X101305279Y-62257853D01*
X101334304Y-62194297D01*
X101340322Y-62187833D01*
X101891338Y-61636818D01*
X101952661Y-61603333D01*
X101979019Y-61600499D01*
X102675002Y-61600499D01*
X102675008Y-61600499D01*
X102777797Y-61589999D01*
X102944334Y-61534814D01*
X102944884Y-61534474D01*
X102945815Y-61533901D01*
X102946968Y-61533585D01*
X102950883Y-61531760D01*
X102951194Y-61532428D01*
X103013206Y-61515457D01*
X103079871Y-61536376D01*
G37*
%TD.AperFunction*%
%TA.AperFunction,Conductor*%
G36*
X134062539Y-43700185D02*
G01*
X134108294Y-43752989D01*
X134119500Y-43804500D01*
X134119500Y-111135500D01*
X134099815Y-111202539D01*
X134047011Y-111248294D01*
X133995500Y-111259500D01*
X53964500Y-111259500D01*
X53897461Y-111239815D01*
X53851706Y-111187011D01*
X53840500Y-111135500D01*
X53840500Y-102818872D01*
X55149500Y-102818872D01*
X55149500Y-103081127D01*
X55160609Y-103165500D01*
X55183730Y-103341116D01*
X55235681Y-103535000D01*
X55251602Y-103594418D01*
X55251605Y-103594428D01*
X55351953Y-103836690D01*
X55351958Y-103836700D01*
X55483075Y-104063803D01*
X55642718Y-104271851D01*
X55642726Y-104271860D01*
X55828140Y-104457274D01*
X55828148Y-104457281D01*
X56036196Y-104616924D01*
X56263299Y-104748041D01*
X56263309Y-104748046D01*
X56498034Y-104845272D01*
X56505581Y-104848398D01*
X56758884Y-104916270D01*
X57018880Y-104950500D01*
X57018887Y-104950500D01*
X57281113Y-104950500D01*
X57281120Y-104950500D01*
X57541116Y-104916270D01*
X57794419Y-104848398D01*
X58036697Y-104748043D01*
X58263803Y-104616924D01*
X58471851Y-104457282D01*
X58471855Y-104457277D01*
X58471860Y-104457274D01*
X58657274Y-104271860D01*
X58657277Y-104271855D01*
X58657282Y-104271851D01*
X58816924Y-104063803D01*
X58948043Y-103836697D01*
X58993461Y-103727048D01*
X59037301Y-103672644D01*
X59103595Y-103650579D01*
X59108022Y-103650500D01*
X69267449Y-103650500D01*
X69334488Y-103670185D01*
X69380243Y-103722989D01*
X69390187Y-103792147D01*
X69361162Y-103855703D01*
X69323745Y-103884984D01*
X69318388Y-103887713D01*
X69152786Y-104008028D01*
X69008030Y-104152784D01*
X68938575Y-104248384D01*
X68883245Y-104291051D01*
X68838256Y-104299500D01*
X60031004Y-104299500D01*
X59895677Y-104326418D01*
X59895667Y-104326421D01*
X59768192Y-104379222D01*
X59653454Y-104455887D01*
X58039201Y-106070140D01*
X57977878Y-106103625D01*
X57908186Y-106098641D01*
X57904079Y-106097024D01*
X57875425Y-106085155D01*
X57794428Y-106051605D01*
X57794421Y-106051603D01*
X57794419Y-106051602D01*
X57541116Y-105983730D01*
X57483339Y-105976123D01*
X57281127Y-105949500D01*
X57281120Y-105949500D01*
X57018880Y-105949500D01*
X57018872Y-105949500D01*
X56787772Y-105979926D01*
X56758884Y-105983730D01*
X56505581Y-106051602D01*
X56505571Y-106051605D01*
X56263309Y-106151953D01*
X56263299Y-106151958D01*
X56036196Y-106283075D01*
X55828148Y-106442718D01*
X55642718Y-106628148D01*
X55483075Y-106836196D01*
X55351958Y-107063299D01*
X55351953Y-107063309D01*
X55251605Y-107305571D01*
X55251602Y-107305581D01*
X55186111Y-107550000D01*
X55183730Y-107558885D01*
X55149500Y-107818872D01*
X55149500Y-108081127D01*
X55172498Y-108255804D01*
X55183730Y-108341116D01*
X55239705Y-108550018D01*
X55251602Y-108594418D01*
X55251605Y-108594428D01*
X55351953Y-108836690D01*
X55351958Y-108836700D01*
X55483075Y-109063803D01*
X55642718Y-109271851D01*
X55642726Y-109271860D01*
X55828140Y-109457274D01*
X55828148Y-109457281D01*
X56036196Y-109616924D01*
X56263299Y-109748041D01*
X56263309Y-109748046D01*
X56505571Y-109848394D01*
X56505581Y-109848398D01*
X56758884Y-109916270D01*
X57018880Y-109950500D01*
X57018887Y-109950500D01*
X57281113Y-109950500D01*
X57281120Y-109950500D01*
X57541116Y-109916270D01*
X57794419Y-109848398D01*
X58036697Y-109748043D01*
X58065821Y-109731228D01*
X119959500Y-109731228D01*
X119959500Y-109898771D01*
X119992182Y-110063074D01*
X119992184Y-110063082D01*
X120056295Y-110217860D01*
X120149373Y-110357162D01*
X120267837Y-110475626D01*
X120360494Y-110537537D01*
X120407137Y-110568703D01*
X120561918Y-110632816D01*
X120726228Y-110665499D01*
X120726232Y-110665500D01*
X120726233Y-110665500D01*
X120893768Y-110665500D01*
X120893769Y-110665499D01*
X121058082Y-110632816D01*
X121212863Y-110568703D01*
X121352162Y-110475626D01*
X121470626Y-110357162D01*
X121563703Y-110217863D01*
X121627816Y-110063082D01*
X121660500Y-109898767D01*
X121660500Y-109731233D01*
X121660499Y-109731228D01*
X129959500Y-109731228D01*
X129959500Y-109898771D01*
X129992182Y-110063074D01*
X129992184Y-110063082D01*
X130056295Y-110217860D01*
X130149373Y-110357162D01*
X130267837Y-110475626D01*
X130360494Y-110537537D01*
X130407137Y-110568703D01*
X130561918Y-110632816D01*
X130726228Y-110665499D01*
X130726232Y-110665500D01*
X130726233Y-110665500D01*
X130893768Y-110665500D01*
X130893769Y-110665499D01*
X131058082Y-110632816D01*
X131212863Y-110568703D01*
X131352162Y-110475626D01*
X131470626Y-110357162D01*
X131563703Y-110217863D01*
X131627816Y-110063082D01*
X131660500Y-109898767D01*
X131660500Y-109731233D01*
X131627816Y-109566918D01*
X131563703Y-109412137D01*
X131532537Y-109365494D01*
X131470626Y-109272837D01*
X131352162Y-109154373D01*
X131212860Y-109061295D01*
X131058082Y-108997184D01*
X131058074Y-108997182D01*
X130893771Y-108964500D01*
X130893767Y-108964500D01*
X130726233Y-108964500D01*
X130726228Y-108964500D01*
X130561925Y-108997182D01*
X130561917Y-108997184D01*
X130407139Y-109061295D01*
X130267837Y-109154373D01*
X130149373Y-109272837D01*
X130056295Y-109412139D01*
X129992184Y-109566917D01*
X129992182Y-109566925D01*
X129959500Y-109731228D01*
X121660499Y-109731228D01*
X121627816Y-109566918D01*
X121563703Y-109412137D01*
X121532537Y-109365494D01*
X121470626Y-109272837D01*
X121352162Y-109154373D01*
X121212860Y-109061295D01*
X121058082Y-108997184D01*
X121058074Y-108997182D01*
X120893771Y-108964500D01*
X120893767Y-108964500D01*
X120726233Y-108964500D01*
X120726228Y-108964500D01*
X120561925Y-108997182D01*
X120561917Y-108997184D01*
X120407139Y-109061295D01*
X120267837Y-109154373D01*
X120149373Y-109272837D01*
X120056295Y-109412139D01*
X119992184Y-109566917D01*
X119992182Y-109566925D01*
X119959500Y-109731228D01*
X58065821Y-109731228D01*
X58134212Y-109691742D01*
X58262366Y-109617754D01*
X58262367Y-109617753D01*
X58263803Y-109616924D01*
X58471851Y-109457282D01*
X58471855Y-109457277D01*
X58471860Y-109457274D01*
X58657274Y-109271860D01*
X58657277Y-109271855D01*
X58657282Y-109271851D01*
X58816924Y-109063803D01*
X58948043Y-108836697D01*
X59048398Y-108594419D01*
X59116270Y-108341116D01*
X59150500Y-108081120D01*
X59150500Y-107818880D01*
X59150091Y-107815777D01*
X59139998Y-107739111D01*
X59116270Y-107558884D01*
X59048398Y-107305581D01*
X59002977Y-107195927D01*
X58995509Y-107126462D01*
X59026783Y-107063983D01*
X59029829Y-107060826D01*
X60353838Y-105736819D01*
X60415161Y-105703334D01*
X60441519Y-105700500D01*
X68838256Y-105700500D01*
X68905295Y-105720185D01*
X68938575Y-105751616D01*
X69008030Y-105847215D01*
X69152786Y-105991971D01*
X69299608Y-106098641D01*
X69318390Y-106112287D01*
X69396239Y-106151953D01*
X69500776Y-106205218D01*
X69500778Y-106205218D01*
X69500781Y-106205220D01*
X69605137Y-106239127D01*
X69695465Y-106268477D01*
X69787633Y-106283075D01*
X69897648Y-106300500D01*
X69897649Y-106300500D01*
X70102350Y-106300500D01*
X70102352Y-106300500D01*
X70219069Y-106282013D01*
X70288362Y-106290967D01*
X70326148Y-106316805D01*
X70353453Y-106344110D01*
X70353457Y-106344113D01*
X70468183Y-106420771D01*
X70468184Y-106420771D01*
X70468188Y-106420774D01*
X70517680Y-106441274D01*
X70595670Y-106473579D01*
X70618259Y-106478072D01*
X70669809Y-106488326D01*
X70731004Y-106500499D01*
X70731006Y-106500499D01*
X80731497Y-106500499D01*
X80844241Y-106478072D01*
X80866829Y-106473579D01*
X80941334Y-106442718D01*
X80994308Y-106420776D01*
X80994309Y-106420775D01*
X80994312Y-106420774D01*
X81109044Y-106344113D01*
X81891338Y-105561817D01*
X81952661Y-105528333D01*
X81979019Y-105525499D01*
X82675002Y-105525499D01*
X82675008Y-105525499D01*
X82777797Y-105514999D01*
X82944334Y-105459814D01*
X83093656Y-105367712D01*
X83217712Y-105243656D01*
X83309814Y-105094334D01*
X83364999Y-104927797D01*
X83375500Y-104825009D01*
X83375499Y-104099992D01*
X83364999Y-103997203D01*
X83309814Y-103830666D01*
X83217712Y-103681344D01*
X83093656Y-103557288D01*
X82944334Y-103465186D01*
X82777797Y-103410001D01*
X82777795Y-103410000D01*
X82675010Y-103399500D01*
X81324998Y-103399500D01*
X81324981Y-103399501D01*
X81222203Y-103410000D01*
X81222200Y-103410001D01*
X81055668Y-103465185D01*
X81055663Y-103465187D01*
X80906342Y-103557289D01*
X80782289Y-103681342D01*
X80690187Y-103830663D01*
X80690185Y-103830668D01*
X80672187Y-103884984D01*
X80635001Y-103997203D01*
X80635001Y-103997204D01*
X80635000Y-103997204D01*
X80624500Y-104099983D01*
X80624500Y-104795979D01*
X80604815Y-104863018D01*
X80588181Y-104883660D01*
X80408661Y-105063181D01*
X80347341Y-105096665D01*
X80320982Y-105099499D01*
X71424500Y-105099499D01*
X71357461Y-105079814D01*
X71311706Y-105027010D01*
X71300500Y-104975499D01*
X71300500Y-104897648D01*
X71268477Y-104695465D01*
X71205218Y-104500776D01*
X71143284Y-104379225D01*
X71112287Y-104318390D01*
X71092424Y-104291051D01*
X70991971Y-104152786D01*
X70847213Y-104008028D01*
X70681611Y-103887713D01*
X70676255Y-103884984D01*
X70625459Y-103837009D01*
X70608665Y-103769188D01*
X70631203Y-103703053D01*
X70685919Y-103659602D01*
X70732551Y-103650500D01*
X74918996Y-103650500D01*
X75010040Y-103632389D01*
X75054328Y-103623580D01*
X75124732Y-103594418D01*
X75181807Y-103570777D01*
X75181808Y-103570776D01*
X75181811Y-103570775D01*
X75296543Y-103494114D01*
X77664586Y-101126069D01*
X77704810Y-101099192D01*
X77759435Y-101076566D01*
X77849173Y-101039397D01*
X77849176Y-101039395D01*
X77849179Y-101039394D01*
X77980289Y-100951789D01*
X78091789Y-100840289D01*
X78179394Y-100709179D01*
X78239737Y-100563497D01*
X78270500Y-100408842D01*
X78270500Y-100251158D01*
X78270500Y-100251155D01*
X78270499Y-100251153D01*
X78270270Y-100250000D01*
X78239737Y-100096503D01*
X78220357Y-100049714D01*
X78179397Y-99950827D01*
X78179390Y-99950814D01*
X78091789Y-99819711D01*
X78091786Y-99819707D01*
X77980292Y-99708213D01*
X77980288Y-99708210D01*
X77849185Y-99620609D01*
X77849172Y-99620602D01*
X77703501Y-99560264D01*
X77703489Y-99560261D01*
X77548845Y-99529500D01*
X77548842Y-99529500D01*
X77391158Y-99529500D01*
X77391155Y-99529500D01*
X77236510Y-99560261D01*
X77236498Y-99560264D01*
X77090827Y-99620602D01*
X77090814Y-99620609D01*
X76959711Y-99708210D01*
X76959707Y-99708213D01*
X76848213Y-99819707D01*
X76848210Y-99819711D01*
X76760609Y-99950814D01*
X76760604Y-99950823D01*
X76700809Y-100095184D01*
X76673929Y-100135412D01*
X74596162Y-102213181D01*
X74534839Y-102246666D01*
X74508481Y-102249500D01*
X59108022Y-102249500D01*
X59040983Y-102229815D01*
X58995228Y-102177011D01*
X58993461Y-102172952D01*
X58948048Y-102063314D01*
X58948041Y-102063299D01*
X58816924Y-101836196D01*
X58677405Y-101654374D01*
X58657282Y-101628149D01*
X58657281Y-101628148D01*
X58657274Y-101628140D01*
X58471860Y-101442726D01*
X58471851Y-101442718D01*
X58263803Y-101283075D01*
X58036700Y-101151958D01*
X58036690Y-101151953D01*
X57794428Y-101051605D01*
X57794421Y-101051603D01*
X57794419Y-101051602D01*
X57541116Y-100983730D01*
X57473546Y-100974834D01*
X57281127Y-100949500D01*
X57281120Y-100949500D01*
X57018880Y-100949500D01*
X57018872Y-100949500D01*
X56787772Y-100979926D01*
X56758884Y-100983730D01*
X56585291Y-101030244D01*
X56505581Y-101051602D01*
X56505571Y-101051605D01*
X56263309Y-101151953D01*
X56263299Y-101151958D01*
X56036196Y-101283075D01*
X55828148Y-101442718D01*
X55642718Y-101628148D01*
X55483075Y-101836196D01*
X55351958Y-102063299D01*
X55351953Y-102063309D01*
X55251605Y-102305571D01*
X55251602Y-102305581D01*
X55184750Y-102555080D01*
X55183730Y-102558885D01*
X55149500Y-102818872D01*
X53840500Y-102818872D01*
X53840500Y-77418872D01*
X55149500Y-77418872D01*
X55149500Y-77681127D01*
X55171625Y-77849172D01*
X55183730Y-77941116D01*
X55224102Y-78091786D01*
X55251602Y-78194418D01*
X55251605Y-78194428D01*
X55351953Y-78436690D01*
X55351958Y-78436700D01*
X55483075Y-78663803D01*
X55642718Y-78871851D01*
X55642726Y-78871860D01*
X55828140Y-79057274D01*
X55828148Y-79057281D01*
X56036196Y-79216924D01*
X56263299Y-79348041D01*
X56263309Y-79348046D01*
X56505571Y-79448394D01*
X56505581Y-79448398D01*
X56758884Y-79516270D01*
X57018880Y-79550500D01*
X57018887Y-79550500D01*
X57281113Y-79550500D01*
X57281120Y-79550500D01*
X57541116Y-79516270D01*
X57794419Y-79448398D01*
X58036697Y-79348043D01*
X58263803Y-79216924D01*
X58471851Y-79057282D01*
X58471855Y-79057277D01*
X58471860Y-79057274D01*
X58657274Y-78871860D01*
X58657277Y-78871855D01*
X58657282Y-78871851D01*
X58816924Y-78663803D01*
X58948043Y-78436697D01*
X58993461Y-78327048D01*
X59037301Y-78272644D01*
X59103595Y-78250579D01*
X59108022Y-78250500D01*
X62218996Y-78250500D01*
X62310040Y-78232389D01*
X62354328Y-78223580D01*
X62385954Y-78210479D01*
X62459689Y-78179939D01*
X62507141Y-78170500D01*
X63074684Y-78170500D01*
X63122136Y-78179939D01*
X63266498Y-78239735D01*
X63266503Y-78239737D01*
X63421153Y-78270499D01*
X63421156Y-78270500D01*
X63421158Y-78270500D01*
X63578844Y-78270500D01*
X63578845Y-78270499D01*
X63733497Y-78239737D01*
X63879179Y-78179394D01*
X64010289Y-78091789D01*
X64121789Y-77980289D01*
X64209394Y-77849179D01*
X64269737Y-77703497D01*
X64300500Y-77548842D01*
X64300500Y-77391158D01*
X64300500Y-77391155D01*
X64300499Y-77391153D01*
X64269738Y-77236510D01*
X64269737Y-77236503D01*
X64237587Y-77158885D01*
X64209397Y-77090827D01*
X64209390Y-77090814D01*
X64121789Y-76959711D01*
X64121786Y-76959707D01*
X64010292Y-76848213D01*
X64010288Y-76848210D01*
X63879185Y-76760609D01*
X63879172Y-76760602D01*
X63733501Y-76700264D01*
X63733489Y-76700261D01*
X63578845Y-76669500D01*
X63578842Y-76669500D01*
X63421158Y-76669500D01*
X63421155Y-76669500D01*
X63266510Y-76700261D01*
X63266498Y-76700264D01*
X63122136Y-76760061D01*
X63074684Y-76769500D01*
X62161004Y-76769500D01*
X62025677Y-76796418D01*
X62025667Y-76796421D01*
X61920311Y-76840061D01*
X61872859Y-76849500D01*
X59108022Y-76849500D01*
X59040983Y-76829815D01*
X58995228Y-76777011D01*
X58993461Y-76772952D01*
X58948048Y-76663314D01*
X58948041Y-76663299D01*
X58816924Y-76436196D01*
X58657281Y-76228148D01*
X58657274Y-76228140D01*
X58471860Y-76042726D01*
X58471851Y-76042718D01*
X58263803Y-75883075D01*
X58036700Y-75751958D01*
X58036690Y-75751953D01*
X57794428Y-75651605D01*
X57794421Y-75651603D01*
X57794419Y-75651602D01*
X57541116Y-75583730D01*
X57483339Y-75576123D01*
X57281127Y-75549500D01*
X57281120Y-75549500D01*
X57018880Y-75549500D01*
X57018872Y-75549500D01*
X56787772Y-75579926D01*
X56758884Y-75583730D01*
X56551142Y-75639394D01*
X56505581Y-75651602D01*
X56505571Y-75651605D01*
X56263309Y-75751953D01*
X56263299Y-75751958D01*
X56036196Y-75883075D01*
X55828148Y-76042718D01*
X55642718Y-76228148D01*
X55483075Y-76436196D01*
X55351958Y-76663299D01*
X55351953Y-76663309D01*
X55251605Y-76905571D01*
X55251602Y-76905581D01*
X55201968Y-77090821D01*
X55183730Y-77158885D01*
X55149500Y-77418872D01*
X53840500Y-77418872D01*
X53840500Y-45602135D01*
X55149500Y-45602135D01*
X55149500Y-48697870D01*
X55149501Y-48697876D01*
X55155908Y-48757483D01*
X55206202Y-48892328D01*
X55206206Y-48892335D01*
X55292452Y-49007544D01*
X55292455Y-49007547D01*
X55407664Y-49093793D01*
X55407671Y-49093797D01*
X55542517Y-49144091D01*
X55542516Y-49144091D01*
X55549444Y-49144835D01*
X55602127Y-49150500D01*
X58697872Y-49150499D01*
X58757483Y-49144091D01*
X58892331Y-49093796D01*
X59007546Y-49007546D01*
X59093796Y-48892331D01*
X59144091Y-48757483D01*
X59150500Y-48697873D01*
X59150500Y-47974500D01*
X59170185Y-47907461D01*
X59222989Y-47861706D01*
X59274500Y-47850500D01*
X64588481Y-47850500D01*
X64655520Y-47870185D01*
X64676162Y-47886819D01*
X67641395Y-50852052D01*
X70291724Y-53502380D01*
X70325209Y-53563703D01*
X70320225Y-53633395D01*
X70278353Y-53689328D01*
X70212889Y-53713745D01*
X70184645Y-53712534D01*
X70136225Y-53704865D01*
X70102352Y-53699500D01*
X69897648Y-53699500D01*
X69780929Y-53717986D01*
X69711636Y-53709031D01*
X69673851Y-53683194D01*
X67596546Y-51605888D01*
X67596545Y-51605887D01*
X67481807Y-51529222D01*
X67354332Y-51476421D01*
X67354322Y-51476418D01*
X67218996Y-51449500D01*
X67218994Y-51449500D01*
X67218993Y-51449500D01*
X59108022Y-51449500D01*
X59040983Y-51429815D01*
X58995228Y-51377011D01*
X58993461Y-51372952D01*
X58948048Y-51263314D01*
X58948041Y-51263299D01*
X58816924Y-51036196D01*
X58694424Y-50876554D01*
X58657282Y-50828149D01*
X58657281Y-50828148D01*
X58657274Y-50828140D01*
X58471860Y-50642726D01*
X58471851Y-50642718D01*
X58263803Y-50483075D01*
X58036700Y-50351958D01*
X58036690Y-50351953D01*
X57794428Y-50251605D01*
X57794421Y-50251603D01*
X57794419Y-50251602D01*
X57541116Y-50183730D01*
X57474655Y-50174980D01*
X57281127Y-50149500D01*
X57281120Y-50149500D01*
X57018880Y-50149500D01*
X57018872Y-50149500D01*
X56787772Y-50179926D01*
X56758884Y-50183730D01*
X56585291Y-50230244D01*
X56505581Y-50251602D01*
X56505571Y-50251605D01*
X56263309Y-50351953D01*
X56263299Y-50351958D01*
X56036196Y-50483075D01*
X55828148Y-50642718D01*
X55642718Y-50828148D01*
X55483075Y-51036196D01*
X55351958Y-51263299D01*
X55351953Y-51263309D01*
X55251605Y-51505571D01*
X55251602Y-51505581D01*
X55184750Y-51755080D01*
X55183730Y-51758885D01*
X55149500Y-52018872D01*
X55149500Y-52281127D01*
X55174679Y-52472371D01*
X55183730Y-52541116D01*
X55249162Y-52785311D01*
X55251602Y-52794418D01*
X55251605Y-52794428D01*
X55351953Y-53036690D01*
X55351958Y-53036700D01*
X55483075Y-53263803D01*
X55642718Y-53471851D01*
X55642726Y-53471860D01*
X55828140Y-53657274D01*
X55828148Y-53657281D01*
X55828149Y-53657282D01*
X55834023Y-53661789D01*
X56036196Y-53816924D01*
X56263299Y-53948041D01*
X56263309Y-53948046D01*
X56505571Y-54048394D01*
X56505581Y-54048398D01*
X56758884Y-54116270D01*
X57018880Y-54150500D01*
X57018887Y-54150500D01*
X57281113Y-54150500D01*
X57281120Y-54150500D01*
X57541116Y-54116270D01*
X57794419Y-54048398D01*
X58036697Y-53948043D01*
X58263803Y-53816924D01*
X58471851Y-53657282D01*
X58471855Y-53657277D01*
X58471860Y-53657274D01*
X58657274Y-53471860D01*
X58657277Y-53471855D01*
X58657282Y-53471851D01*
X58816924Y-53263803D01*
X58948043Y-53036697D01*
X58948048Y-53036685D01*
X58993461Y-52927048D01*
X59037301Y-52872644D01*
X59103595Y-52850579D01*
X59108022Y-52850500D01*
X66808481Y-52850500D01*
X66875520Y-52870185D01*
X66896162Y-52886819D01*
X68683194Y-54673851D01*
X68716679Y-54735174D01*
X68717986Y-54780929D01*
X68699500Y-54897647D01*
X68699500Y-55102351D01*
X68731522Y-55304534D01*
X68794781Y-55499223D01*
X68887715Y-55681613D01*
X69008028Y-55847213D01*
X69152786Y-55991971D01*
X69304636Y-56102294D01*
X69318390Y-56112287D01*
X69500781Y-56205220D01*
X69508013Y-56207569D01*
X69565687Y-56247008D01*
X69592885Y-56311366D01*
X69580970Y-56380213D01*
X69533725Y-56431688D01*
X69469693Y-56449500D01*
X59108022Y-56449500D01*
X59040983Y-56429815D01*
X58995228Y-56377011D01*
X58993461Y-56372952D01*
X58948048Y-56263314D01*
X58948041Y-56263299D01*
X58816924Y-56036196D01*
X58657281Y-55828148D01*
X58657274Y-55828140D01*
X58471860Y-55642726D01*
X58471851Y-55642718D01*
X58263803Y-55483075D01*
X58036700Y-55351958D01*
X58036690Y-55351953D01*
X57794428Y-55251605D01*
X57794421Y-55251603D01*
X57794419Y-55251602D01*
X57541116Y-55183730D01*
X57483339Y-55176123D01*
X57281127Y-55149500D01*
X57281120Y-55149500D01*
X57018880Y-55149500D01*
X57018872Y-55149500D01*
X56791013Y-55179500D01*
X56758884Y-55183730D01*
X56674200Y-55206421D01*
X56505581Y-55251602D01*
X56505571Y-55251605D01*
X56263309Y-55351953D01*
X56263299Y-55351958D01*
X56036196Y-55483075D01*
X55828148Y-55642718D01*
X55642718Y-55828148D01*
X55483075Y-56036196D01*
X55351958Y-56263299D01*
X55351953Y-56263309D01*
X55251605Y-56505571D01*
X55251602Y-56505581D01*
X55186111Y-56750000D01*
X55183730Y-56758885D01*
X55149500Y-57018872D01*
X55149500Y-57281127D01*
X55172331Y-57454534D01*
X55183730Y-57541116D01*
X55241400Y-57756343D01*
X55251602Y-57794418D01*
X55251605Y-57794428D01*
X55351953Y-58036690D01*
X55351958Y-58036700D01*
X55483075Y-58263803D01*
X55642718Y-58471851D01*
X55642726Y-58471860D01*
X55828140Y-58657274D01*
X55828148Y-58657281D01*
X56036196Y-58816924D01*
X56263299Y-58948041D01*
X56263309Y-58948046D01*
X56505571Y-59048394D01*
X56505581Y-59048398D01*
X56758884Y-59116270D01*
X57018880Y-59150500D01*
X57018887Y-59150500D01*
X57281113Y-59150500D01*
X57281120Y-59150500D01*
X57541116Y-59116270D01*
X57794419Y-59048398D01*
X58025068Y-58952860D01*
X58036690Y-58948046D01*
X58036691Y-58948045D01*
X58036697Y-58948043D01*
X58263803Y-58816924D01*
X58471851Y-58657282D01*
X58471855Y-58657277D01*
X58471860Y-58657274D01*
X58657274Y-58471860D01*
X58657277Y-58471855D01*
X58657282Y-58471851D01*
X58816924Y-58263803D01*
X58948043Y-58036697D01*
X58991481Y-57931828D01*
X58993461Y-57927048D01*
X59037301Y-57872644D01*
X59103595Y-57850579D01*
X59108022Y-57850500D01*
X70345981Y-57850500D01*
X70413020Y-57870185D01*
X70433662Y-57886819D01*
X72438181Y-59891338D01*
X72471666Y-59952661D01*
X72474500Y-59979019D01*
X72474500Y-60675001D01*
X72474501Y-60675019D01*
X72485000Y-60777796D01*
X72485001Y-60777799D01*
X72540185Y-60944331D01*
X72540187Y-60944336D01*
X72572794Y-60997200D01*
X72632288Y-61093656D01*
X72756344Y-61217712D01*
X72905666Y-61309814D01*
X73072203Y-61364999D01*
X73174991Y-61375500D01*
X73900008Y-61375499D01*
X73900016Y-61375498D01*
X73900019Y-61375498D01*
X73956302Y-61369748D01*
X74002797Y-61364999D01*
X74169334Y-61309814D01*
X74318656Y-61217712D01*
X74442712Y-61093656D01*
X74534814Y-60944334D01*
X74589999Y-60777797D01*
X74600500Y-60675009D01*
X74600499Y-59324992D01*
X74599878Y-59318917D01*
X74589999Y-59222203D01*
X74589998Y-59222200D01*
X74581008Y-59195071D01*
X74534814Y-59055666D01*
X74442712Y-58906344D01*
X74318656Y-58782288D01*
X74169334Y-58690186D01*
X74002797Y-58635001D01*
X74002795Y-58635000D01*
X73900016Y-58624500D01*
X73204019Y-58624500D01*
X73136980Y-58604815D01*
X73116338Y-58588181D01*
X71134046Y-56605888D01*
X71134045Y-56605887D01*
X71019307Y-56529222D01*
X70891832Y-56476421D01*
X70891822Y-56476418D01*
X70756496Y-56449500D01*
X70756494Y-56449500D01*
X70756493Y-56449500D01*
X70530307Y-56449500D01*
X70463268Y-56429815D01*
X70417513Y-56377011D01*
X70407569Y-56307853D01*
X70436594Y-56244297D01*
X70491986Y-56207569D01*
X70499219Y-56205220D01*
X70681610Y-56112287D01*
X70786341Y-56036196D01*
X70847213Y-55991971D01*
X70847215Y-55991968D01*
X70847219Y-55991966D01*
X70991966Y-55847219D01*
X70991968Y-55847215D01*
X70991971Y-55847213D01*
X71044732Y-55774590D01*
X71112287Y-55681610D01*
X71205220Y-55499219D01*
X71268477Y-55304534D01*
X71300500Y-55102352D01*
X71300500Y-54897648D01*
X71287465Y-54815352D01*
X71296419Y-54746061D01*
X71341415Y-54692609D01*
X71408166Y-54671969D01*
X71475480Y-54690693D01*
X71497619Y-54708275D01*
X73115886Y-56326542D01*
X73166355Y-56377011D01*
X73213459Y-56424115D01*
X73328182Y-56500771D01*
X73328189Y-56500775D01*
X73396874Y-56529225D01*
X73455671Y-56553580D01*
X73482591Y-56558934D01*
X73575669Y-56577449D01*
X73591006Y-56580500D01*
X73591007Y-56580500D01*
X77128481Y-56580500D01*
X77195520Y-56600185D01*
X77216162Y-56616819D01*
X79273181Y-58673837D01*
X79306666Y-58735160D01*
X79309500Y-58761518D01*
X79309500Y-61110980D01*
X79289815Y-61178019D01*
X79273181Y-61198661D01*
X76883661Y-63588181D01*
X76822338Y-63621666D01*
X76795980Y-63624500D01*
X76323500Y-63624500D01*
X76256461Y-63604815D01*
X76210706Y-63552011D01*
X76199500Y-63500500D01*
X76199500Y-61499499D01*
X76219185Y-61432460D01*
X76271989Y-61386705D01*
X76323500Y-61375499D01*
X76825002Y-61375499D01*
X76825008Y-61375499D01*
X76927797Y-61364999D01*
X77094334Y-61309814D01*
X77243656Y-61217712D01*
X77367712Y-61093656D01*
X77459814Y-60944334D01*
X77514999Y-60777797D01*
X77525500Y-60675009D01*
X77525499Y-60664550D01*
X77535178Y-60631579D01*
X77544544Y-60598510D01*
X77545033Y-60598006D01*
X77545179Y-60597512D01*
X77567399Y-60571616D01*
X77573658Y-60566086D01*
X77606543Y-60544114D01*
X77667301Y-60483354D01*
X77670166Y-60480824D01*
X77677761Y-60477266D01*
X77704812Y-60459192D01*
X77787703Y-60424858D01*
X77849173Y-60399397D01*
X77849176Y-60399395D01*
X77849179Y-60399394D01*
X77980289Y-60311789D01*
X78091789Y-60200289D01*
X78179394Y-60069179D01*
X78239737Y-59923497D01*
X78270500Y-59768842D01*
X78270500Y-59611158D01*
X78270500Y-59611155D01*
X78270499Y-59611153D01*
X78262961Y-59573256D01*
X78239737Y-59456503D01*
X78239735Y-59456498D01*
X78179397Y-59310827D01*
X78179390Y-59310814D01*
X78091789Y-59179711D01*
X78091786Y-59179707D01*
X77980292Y-59068213D01*
X77980288Y-59068210D01*
X77849185Y-58980609D01*
X77849172Y-58980602D01*
X77703501Y-58920264D01*
X77703489Y-58920261D01*
X77548845Y-58889500D01*
X77548842Y-58889500D01*
X77402230Y-58889500D01*
X77335191Y-58869815D01*
X77314549Y-58853181D01*
X77243657Y-58782289D01*
X77243656Y-58782288D01*
X77094334Y-58690186D01*
X76927797Y-58635001D01*
X76927795Y-58635000D01*
X76825010Y-58624500D01*
X76099998Y-58624500D01*
X76099980Y-58624501D01*
X75997203Y-58635000D01*
X75997200Y-58635001D01*
X75830668Y-58690185D01*
X75830663Y-58690187D01*
X75681342Y-58782289D01*
X75557289Y-58906342D01*
X75465187Y-59055663D01*
X75465186Y-59055666D01*
X75410001Y-59222203D01*
X75410001Y-59222204D01*
X75410000Y-59222204D01*
X75399500Y-59324983D01*
X75399500Y-60020980D01*
X75379815Y-60088019D01*
X75363181Y-60108661D01*
X74954888Y-60516953D01*
X74954887Y-60516954D01*
X74878224Y-60631689D01*
X74843447Y-60715648D01*
X74843445Y-60715653D01*
X74825420Y-60759172D01*
X74800271Y-60885606D01*
X74798500Y-60894507D01*
X74798500Y-60929874D01*
X74798500Y-64082993D01*
X74778815Y-64150032D01*
X74726011Y-64195787D01*
X74656853Y-64205731D01*
X74593297Y-64176706D01*
X74556794Y-64121998D01*
X74549233Y-64099181D01*
X74534814Y-64055666D01*
X74442712Y-63906344D01*
X74318656Y-63782288D01*
X74169334Y-63690186D01*
X74002797Y-63635001D01*
X74002795Y-63635000D01*
X73900010Y-63624500D01*
X73174998Y-63624500D01*
X73174980Y-63624501D01*
X73072203Y-63635000D01*
X73072200Y-63635001D01*
X72905668Y-63690185D01*
X72905663Y-63690187D01*
X72756342Y-63782289D01*
X72632289Y-63906342D01*
X72540187Y-64055663D01*
X72540185Y-64055668D01*
X72518206Y-64121998D01*
X72485001Y-64222203D01*
X72485001Y-64222204D01*
X72485000Y-64222204D01*
X72474500Y-64324983D01*
X72474500Y-65675001D01*
X72474501Y-65675018D01*
X72485000Y-65777796D01*
X72485001Y-65777799D01*
X72540185Y-65944331D01*
X72540187Y-65944336D01*
X72553308Y-65965609D01*
X72632288Y-66093656D01*
X72756344Y-66217712D01*
X72905666Y-66309814D01*
X73072203Y-66364999D01*
X73174991Y-66375500D01*
X73676500Y-66375499D01*
X73743539Y-66395183D01*
X73789294Y-66447987D01*
X73800500Y-66499499D01*
X73800500Y-68500500D01*
X73780815Y-68567539D01*
X73728011Y-68613294D01*
X73676500Y-68624500D01*
X73174998Y-68624500D01*
X73174980Y-68624501D01*
X73072203Y-68635000D01*
X73072200Y-68635001D01*
X72905668Y-68690185D01*
X72905663Y-68690187D01*
X72756342Y-68782289D01*
X72632289Y-68906342D01*
X72540187Y-69055663D01*
X72540186Y-69055666D01*
X72485001Y-69222203D01*
X72485001Y-69222204D01*
X72485000Y-69222204D01*
X72474500Y-69324983D01*
X72474500Y-70675001D01*
X72474501Y-70675018D01*
X72485000Y-70777796D01*
X72485001Y-70777799D01*
X72494900Y-70807671D01*
X72540186Y-70944334D01*
X72632288Y-71093656D01*
X72756344Y-71217712D01*
X72778094Y-71231127D01*
X72824820Y-71283073D01*
X72837000Y-71336667D01*
X72837000Y-74063119D01*
X72817315Y-74130158D01*
X72764511Y-74175913D01*
X72695353Y-74185857D01*
X72665549Y-74177681D01*
X72645542Y-74169394D01*
X72623497Y-74160263D01*
X72623493Y-74160262D01*
X72623489Y-74160261D01*
X72468845Y-74129500D01*
X72468842Y-74129500D01*
X72311158Y-74129500D01*
X72311155Y-74129500D01*
X72156510Y-74160261D01*
X72156498Y-74160264D01*
X72010827Y-74220602D01*
X72010815Y-74220609D01*
X71924024Y-74278602D01*
X71857347Y-74299480D01*
X71855133Y-74299500D01*
X71161744Y-74299500D01*
X71094705Y-74279815D01*
X71061425Y-74248384D01*
X70991969Y-74152784D01*
X70847213Y-74008028D01*
X70681613Y-73887715D01*
X70681612Y-73887714D01*
X70681610Y-73887713D01*
X70622732Y-73857713D01*
X70499223Y-73794781D01*
X70304534Y-73731522D01*
X70129995Y-73703878D01*
X70102352Y-73699500D01*
X69897648Y-73699500D01*
X69873329Y-73703351D01*
X69695465Y-73731522D01*
X69500776Y-73794781D01*
X69318386Y-73887715D01*
X69152786Y-74008028D01*
X69008030Y-74152784D01*
X68938575Y-74248384D01*
X68883245Y-74291051D01*
X68838256Y-74299500D01*
X59941519Y-74299500D01*
X59874480Y-74279815D01*
X59853838Y-74263181D01*
X59186818Y-73596161D01*
X59153333Y-73534838D01*
X59150499Y-73508480D01*
X59150499Y-71002129D01*
X59150498Y-71002123D01*
X59150497Y-71002116D01*
X59144091Y-70942517D01*
X59093796Y-70807669D01*
X59093795Y-70807668D01*
X59093793Y-70807664D01*
X59007547Y-70692455D01*
X59007544Y-70692452D01*
X58892335Y-70606206D01*
X58892328Y-70606202D01*
X58757482Y-70555908D01*
X58757483Y-70555908D01*
X58697883Y-70549501D01*
X58697881Y-70549500D01*
X58697873Y-70549500D01*
X58697864Y-70549500D01*
X55602129Y-70549500D01*
X55602123Y-70549501D01*
X55542516Y-70555908D01*
X55407671Y-70606202D01*
X55407664Y-70606206D01*
X55292455Y-70692452D01*
X55292452Y-70692455D01*
X55206206Y-70807664D01*
X55206202Y-70807671D01*
X55155908Y-70942517D01*
X55149501Y-71002116D01*
X55149501Y-71002123D01*
X55149500Y-71002135D01*
X55149500Y-74097870D01*
X55149501Y-74097876D01*
X55155908Y-74157483D01*
X55206202Y-74292328D01*
X55206206Y-74292335D01*
X55292452Y-74407544D01*
X55292455Y-74407547D01*
X55407664Y-74493793D01*
X55407671Y-74493797D01*
X55542517Y-74544091D01*
X55542516Y-74544091D01*
X55549444Y-74544835D01*
X55602127Y-74550500D01*
X58108479Y-74550499D01*
X58175518Y-74570184D01*
X58196160Y-74586818D01*
X59153454Y-75544112D01*
X59268190Y-75620776D01*
X59342619Y-75651605D01*
X59395671Y-75673580D01*
X59395672Y-75673580D01*
X59395677Y-75673582D01*
X59422545Y-75678925D01*
X59422551Y-75678926D01*
X59422591Y-75678934D01*
X59512937Y-75696905D01*
X59531006Y-75700500D01*
X59531007Y-75700500D01*
X68838256Y-75700500D01*
X68905295Y-75720185D01*
X68938574Y-75751615D01*
X68938823Y-75751958D01*
X69008030Y-75847215D01*
X69152786Y-75991971D01*
X69277094Y-76082284D01*
X69318390Y-76112287D01*
X69434607Y-76171503D01*
X69500776Y-76205218D01*
X69500778Y-76205218D01*
X69500781Y-76205220D01*
X69603136Y-76238477D01*
X69695465Y-76268477D01*
X69796557Y-76284488D01*
X69897648Y-76300500D01*
X69897649Y-76300500D01*
X70102351Y-76300500D01*
X70102352Y-76300500D01*
X70304534Y-76268477D01*
X70499219Y-76205220D01*
X70681610Y-76112287D01*
X70777364Y-76042718D01*
X70847213Y-75991971D01*
X70847220Y-75991965D01*
X70893232Y-75945953D01*
X70991966Y-75847219D01*
X71061425Y-75751615D01*
X71116755Y-75708949D01*
X71161744Y-75700500D01*
X72148128Y-75700500D01*
X72172318Y-75702882D01*
X72188618Y-75706125D01*
X72311155Y-75730500D01*
X72311158Y-75730500D01*
X72468844Y-75730500D01*
X72468845Y-75730499D01*
X72623497Y-75699737D01*
X72665548Y-75682318D01*
X72735016Y-75674850D01*
X72797496Y-75706125D01*
X72833148Y-75766214D01*
X72837000Y-75796880D01*
X72837000Y-76120980D01*
X72817315Y-76188019D01*
X72800681Y-76208661D01*
X70326147Y-78683194D01*
X70264824Y-78716679D01*
X70219068Y-78717986D01*
X70169969Y-78710209D01*
X70102352Y-78699500D01*
X69897648Y-78699500D01*
X69873329Y-78703351D01*
X69695465Y-78731522D01*
X69500776Y-78794781D01*
X69318386Y-78887715D01*
X69152786Y-79008028D01*
X69008030Y-79152784D01*
X68938575Y-79248384D01*
X68883245Y-79291051D01*
X68838256Y-79299500D01*
X59631004Y-79299500D01*
X59495677Y-79326418D01*
X59495667Y-79326421D01*
X59368192Y-79379222D01*
X59253454Y-79455887D01*
X58039201Y-80670140D01*
X57977878Y-80703625D01*
X57908186Y-80698641D01*
X57904079Y-80697024D01*
X57866865Y-80681610D01*
X57794428Y-80651605D01*
X57794421Y-80651603D01*
X57794419Y-80651602D01*
X57541116Y-80583730D01*
X57483339Y-80576123D01*
X57281127Y-80549500D01*
X57281120Y-80549500D01*
X57018880Y-80549500D01*
X57018872Y-80549500D01*
X56787772Y-80579926D01*
X56758884Y-80583730D01*
X56564742Y-80635750D01*
X56505581Y-80651602D01*
X56505571Y-80651605D01*
X56263309Y-80751953D01*
X56263303Y-80751957D01*
X56036196Y-80883075D01*
X55828148Y-81042718D01*
X55642718Y-81228148D01*
X55483075Y-81436196D01*
X55351958Y-81663299D01*
X55351953Y-81663309D01*
X55251605Y-81905571D01*
X55251602Y-81905581D01*
X55183730Y-82158884D01*
X55179926Y-82187772D01*
X55149500Y-82418872D01*
X55149500Y-82681127D01*
X55176123Y-82883339D01*
X55183730Y-82941116D01*
X55210316Y-83040336D01*
X55251602Y-83194418D01*
X55251605Y-83194428D01*
X55351953Y-83436690D01*
X55351958Y-83436700D01*
X55483075Y-83663803D01*
X55642718Y-83871851D01*
X55642726Y-83871860D01*
X55828140Y-84057274D01*
X55828148Y-84057281D01*
X56036196Y-84216924D01*
X56263299Y-84348041D01*
X56263309Y-84348046D01*
X56505571Y-84448394D01*
X56505581Y-84448398D01*
X56758884Y-84516270D01*
X57018880Y-84550500D01*
X57018887Y-84550500D01*
X57281113Y-84550500D01*
X57281120Y-84550500D01*
X57541116Y-84516270D01*
X57794419Y-84448398D01*
X58036697Y-84348043D01*
X58263803Y-84216924D01*
X58471851Y-84057282D01*
X58471855Y-84057277D01*
X58471860Y-84057274D01*
X58657274Y-83871860D01*
X58657277Y-83871855D01*
X58657282Y-83871851D01*
X58816924Y-83663803D01*
X58948043Y-83436697D01*
X59048398Y-83194419D01*
X59116270Y-82941116D01*
X59150500Y-82681120D01*
X59150500Y-82418880D01*
X59116270Y-82158884D01*
X59048398Y-81905581D01*
X59002977Y-81795927D01*
X58995509Y-81726462D01*
X59026783Y-81663983D01*
X59029828Y-81660827D01*
X59953838Y-80736819D01*
X60015161Y-80703334D01*
X60041519Y-80700500D01*
X68838256Y-80700500D01*
X68905295Y-80720185D01*
X68938574Y-80751615D01*
X68951721Y-80769711D01*
X69008030Y-80847215D01*
X69152786Y-80991971D01*
X69249453Y-81062202D01*
X69318390Y-81112287D01*
X69434607Y-81171503D01*
X69500776Y-81205218D01*
X69500778Y-81205218D01*
X69500781Y-81205220D01*
X69603136Y-81238477D01*
X69695465Y-81268477D01*
X69796557Y-81284488D01*
X69897648Y-81300500D01*
X69897649Y-81300500D01*
X70102351Y-81300500D01*
X70102352Y-81300500D01*
X70304534Y-81268477D01*
X70499219Y-81205220D01*
X70681610Y-81112287D01*
X70777364Y-81042718D01*
X70847213Y-80991971D01*
X70847215Y-80991968D01*
X70847219Y-80991966D01*
X70991966Y-80847219D01*
X70991968Y-80847215D01*
X70991971Y-80847213D01*
X71067693Y-80742989D01*
X71112287Y-80681610D01*
X71205220Y-80499219D01*
X71268477Y-80304534D01*
X71300500Y-80102352D01*
X71300500Y-79897648D01*
X71282013Y-79780929D01*
X71290967Y-79711636D01*
X71316802Y-79673853D01*
X73588819Y-77401837D01*
X73650142Y-77368352D01*
X73719834Y-77373336D01*
X73775767Y-77415208D01*
X73800184Y-77480672D01*
X73800500Y-77489518D01*
X73800500Y-88500500D01*
X73780815Y-88567539D01*
X73728011Y-88613294D01*
X73676500Y-88624500D01*
X73174998Y-88624500D01*
X73174980Y-88624501D01*
X73072203Y-88635000D01*
X73072200Y-88635001D01*
X72905668Y-88690185D01*
X72905663Y-88690187D01*
X72756342Y-88782289D01*
X72632289Y-88906342D01*
X72540187Y-89055663D01*
X72540185Y-89055668D01*
X72512349Y-89139670D01*
X72485001Y-89222203D01*
X72485001Y-89222204D01*
X72485000Y-89222204D01*
X72474500Y-89324983D01*
X72474500Y-90675001D01*
X72474501Y-90675018D01*
X72485000Y-90777796D01*
X72485001Y-90777799D01*
X72530052Y-90913751D01*
X72540186Y-90944334D01*
X72632288Y-91093656D01*
X72756344Y-91217712D01*
X72778094Y-91231127D01*
X72824820Y-91283073D01*
X72837000Y-91336667D01*
X72837000Y-95620980D01*
X72817315Y-95688019D01*
X72800681Y-95708661D01*
X69821807Y-98687534D01*
X69760484Y-98721019D01*
X69753526Y-98722326D01*
X69695468Y-98731522D01*
X69500778Y-98794781D01*
X69318386Y-98887715D01*
X69152786Y-99008028D01*
X69008030Y-99152784D01*
X68938575Y-99248384D01*
X68883245Y-99291051D01*
X68838256Y-99299500D01*
X59541519Y-99299500D01*
X59474480Y-99279815D01*
X59453838Y-99263181D01*
X59186818Y-98996161D01*
X59153333Y-98934838D01*
X59150499Y-98908480D01*
X59150499Y-96402128D01*
X59150498Y-96402123D01*
X59150497Y-96402116D01*
X59144091Y-96342517D01*
X59126111Y-96294311D01*
X59093797Y-96207671D01*
X59093793Y-96207664D01*
X59007547Y-96092455D01*
X59007544Y-96092452D01*
X58892335Y-96006206D01*
X58892328Y-96006202D01*
X58757482Y-95955908D01*
X58757483Y-95955908D01*
X58697883Y-95949501D01*
X58697881Y-95949500D01*
X58697873Y-95949500D01*
X58697864Y-95949500D01*
X55602129Y-95949500D01*
X55602123Y-95949501D01*
X55542516Y-95955908D01*
X55407671Y-96006202D01*
X55407664Y-96006206D01*
X55292455Y-96092452D01*
X55292452Y-96092455D01*
X55206206Y-96207664D01*
X55206202Y-96207671D01*
X55155908Y-96342517D01*
X55149501Y-96402116D01*
X55149500Y-96402128D01*
X55149500Y-99497870D01*
X55149501Y-99497876D01*
X55155908Y-99557483D01*
X55206202Y-99692328D01*
X55206206Y-99692335D01*
X55292452Y-99807544D01*
X55292455Y-99807547D01*
X55407664Y-99893793D01*
X55407671Y-99893797D01*
X55542517Y-99944091D01*
X55542516Y-99944091D01*
X55549444Y-99944835D01*
X55602127Y-99950500D01*
X58108479Y-99950499D01*
X58175518Y-99970184D01*
X58196160Y-99986818D01*
X58753454Y-100544112D01*
X58868192Y-100620777D01*
X58963280Y-100660163D01*
X58995672Y-100673580D01*
X58995676Y-100673580D01*
X58995677Y-100673581D01*
X59131003Y-100700500D01*
X59131006Y-100700500D01*
X59131007Y-100700500D01*
X68838256Y-100700500D01*
X68905295Y-100720185D01*
X68938575Y-100751616D01*
X69008030Y-100847215D01*
X69152786Y-100991971D01*
X69298826Y-101098073D01*
X69318390Y-101112287D01*
X69434607Y-101171503D01*
X69500776Y-101205218D01*
X69500778Y-101205218D01*
X69500781Y-101205220D01*
X69538006Y-101217315D01*
X69695465Y-101268477D01*
X69787633Y-101283075D01*
X69897648Y-101300500D01*
X69897649Y-101300500D01*
X70102351Y-101300500D01*
X70102352Y-101300500D01*
X70304534Y-101268477D01*
X70499219Y-101205220D01*
X70681610Y-101112287D01*
X70781935Y-101039397D01*
X70847213Y-100991971D01*
X70847215Y-100991968D01*
X70847219Y-100991966D01*
X70991966Y-100847219D01*
X70991968Y-100847215D01*
X70991971Y-100847213D01*
X71077277Y-100729797D01*
X71112287Y-100681610D01*
X71205220Y-100499219D01*
X71268477Y-100304534D01*
X71300500Y-100102352D01*
X71300500Y-99897648D01*
X71286229Y-99807544D01*
X71268477Y-99695465D01*
X71244154Y-99620609D01*
X71205220Y-99500781D01*
X71205217Y-99500777D01*
X71205217Y-99500774D01*
X71173433Y-99438396D01*
X71160536Y-99369727D01*
X71186812Y-99304986D01*
X71196227Y-99294428D01*
X74081613Y-96409043D01*
X74086234Y-96402128D01*
X74090804Y-96395288D01*
X74158271Y-96294317D01*
X74158271Y-96294316D01*
X74158275Y-96294311D01*
X74211080Y-96166828D01*
X74213456Y-96154886D01*
X74216900Y-96137573D01*
X74225874Y-96092457D01*
X74225874Y-96092452D01*
X74238000Y-96031493D01*
X74238000Y-95065519D01*
X74257685Y-94998480D01*
X74310489Y-94952725D01*
X74379647Y-94942781D01*
X74443203Y-94971806D01*
X74449681Y-94977838D01*
X80588181Y-101116338D01*
X80621666Y-101177661D01*
X80624500Y-101204019D01*
X80624500Y-101900001D01*
X80624501Y-101900019D01*
X80635000Y-102002796D01*
X80635001Y-102002799D01*
X80690185Y-102169331D01*
X80690187Y-102169336D01*
X80717231Y-102213181D01*
X80782288Y-102318656D01*
X80906344Y-102442712D01*
X81055666Y-102534814D01*
X81222203Y-102589999D01*
X81324991Y-102600500D01*
X82675008Y-102600499D01*
X82777797Y-102589999D01*
X82944334Y-102534814D01*
X83093656Y-102442712D01*
X83217712Y-102318656D01*
X83309814Y-102169334D01*
X83364999Y-102002797D01*
X83375500Y-101900009D01*
X83375499Y-101204017D01*
X83395183Y-101136979D01*
X83411813Y-101116342D01*
X85853155Y-98675001D01*
X90032704Y-98675001D01*
X90032899Y-98677486D01*
X90078718Y-98835198D01*
X90162314Y-98976552D01*
X90162321Y-98976561D01*
X90278438Y-99092678D01*
X90278447Y-99092685D01*
X90419803Y-99176282D01*
X90419806Y-99176283D01*
X90577504Y-99222099D01*
X90577510Y-99222100D01*
X90614350Y-99224999D01*
X90614366Y-99225000D01*
X91255000Y-99225000D01*
X91755000Y-99225000D01*
X92395634Y-99225000D01*
X92395649Y-99224999D01*
X92432489Y-99222100D01*
X92432495Y-99222099D01*
X92590193Y-99176283D01*
X92590196Y-99176282D01*
X92731552Y-99092685D01*
X92731561Y-99092678D01*
X92847678Y-98976561D01*
X92847685Y-98976552D01*
X92931281Y-98835198D01*
X92977100Y-98677486D01*
X92977295Y-98675001D01*
X92977295Y-98675000D01*
X91755000Y-98675000D01*
X91755000Y-99225000D01*
X91255000Y-99225000D01*
X91255000Y-98675000D01*
X90032705Y-98675000D01*
X90032704Y-98675001D01*
X85853155Y-98675001D01*
X87906338Y-96621819D01*
X87967661Y-96588334D01*
X87994019Y-96585500D01*
X89959327Y-96585500D01*
X90026366Y-96605185D01*
X90072121Y-96657989D01*
X90082065Y-96727147D01*
X90078403Y-96744095D01*
X90032402Y-96902426D01*
X90032401Y-96902432D01*
X90029500Y-96939298D01*
X90029500Y-97370701D01*
X90032401Y-97407567D01*
X90032402Y-97407573D01*
X90078254Y-97565393D01*
X90078255Y-97565396D01*
X90161917Y-97706862D01*
X90166702Y-97713031D01*
X90164369Y-97714840D01*
X90191210Y-97763995D01*
X90186226Y-97833687D01*
X90165470Y-97866021D01*
X90167097Y-97867283D01*
X90162313Y-97873449D01*
X90078718Y-98014801D01*
X90032899Y-98172513D01*
X90032704Y-98174998D01*
X90032705Y-98175000D01*
X92977295Y-98175000D01*
X92977295Y-98174998D01*
X92977100Y-98172511D01*
X92977099Y-98172505D01*
X92948925Y-98075529D01*
X92949124Y-98005659D01*
X92987066Y-97946989D01*
X93050705Y-97918146D01*
X93105043Y-97925055D01*
X93105676Y-97922969D01*
X93111492Y-97924732D01*
X93111503Y-97924737D01*
X93223371Y-97946989D01*
X93266153Y-97955499D01*
X93266156Y-97955500D01*
X93266158Y-97955500D01*
X93423844Y-97955500D01*
X93423845Y-97955499D01*
X93578497Y-97924737D01*
X93713436Y-97868844D01*
X93724172Y-97864397D01*
X93724172Y-97864396D01*
X93724179Y-97864394D01*
X93855289Y-97776789D01*
X93966789Y-97665289D01*
X94054394Y-97534179D01*
X94114737Y-97388497D01*
X94145500Y-97233842D01*
X94145500Y-97076158D01*
X94145500Y-97076155D01*
X94145499Y-97076153D01*
X94136479Y-97030805D01*
X94114737Y-96921503D01*
X94114735Y-96921498D01*
X94054397Y-96775827D01*
X94054390Y-96775814D01*
X93966789Y-96644711D01*
X93966786Y-96644707D01*
X93855292Y-96533213D01*
X93855288Y-96533210D01*
X93724185Y-96445609D01*
X93724172Y-96445602D01*
X93578501Y-96385264D01*
X93578489Y-96385261D01*
X93423845Y-96354500D01*
X93423842Y-96354500D01*
X93266158Y-96354500D01*
X93266155Y-96354500D01*
X93111510Y-96385261D01*
X93105676Y-96387031D01*
X93104933Y-96384583D01*
X93046536Y-96390842D01*
X92984067Y-96359547D01*
X92948435Y-96299446D01*
X92949517Y-96234225D01*
X92977597Y-96137573D01*
X92977598Y-96137567D01*
X92980500Y-96100694D01*
X92980500Y-95669306D01*
X92977598Y-95632431D01*
X92974271Y-95620980D01*
X92931745Y-95474606D01*
X92931744Y-95474603D01*
X92931744Y-95474602D01*
X92848081Y-95333135D01*
X92848078Y-95333132D01*
X92843298Y-95326969D01*
X92845750Y-95325066D01*
X92819155Y-95276421D01*
X92824104Y-95206726D01*
X92844940Y-95174304D01*
X92843298Y-95173031D01*
X92848075Y-95166870D01*
X92848081Y-95166865D01*
X92931744Y-95025398D01*
X92977598Y-94867569D01*
X92980500Y-94830694D01*
X92980500Y-94399306D01*
X92977598Y-94362431D01*
X92966718Y-94324983D01*
X92931745Y-94204606D01*
X92931744Y-94204603D01*
X92931744Y-94204602D01*
X92848081Y-94063135D01*
X92848079Y-94063133D01*
X92848076Y-94063129D01*
X92731870Y-93946923D01*
X92731862Y-93946917D01*
X92644916Y-93895498D01*
X92590398Y-93863256D01*
X92590397Y-93863255D01*
X92590396Y-93863255D01*
X92590393Y-93863254D01*
X92432573Y-93817402D01*
X92432567Y-93817401D01*
X92395701Y-93814500D01*
X92395694Y-93814500D01*
X90614306Y-93814500D01*
X90614298Y-93814500D01*
X90577432Y-93817401D01*
X90577426Y-93817402D01*
X90419606Y-93863254D01*
X90419603Y-93863255D01*
X90278137Y-93946917D01*
X90278129Y-93946923D01*
X90161923Y-94063129D01*
X90161917Y-94063137D01*
X90078255Y-94204603D01*
X90078254Y-94204606D01*
X90032402Y-94362426D01*
X90032401Y-94362432D01*
X90029500Y-94399298D01*
X90029500Y-94830701D01*
X90032401Y-94867567D01*
X90032402Y-94867573D01*
X90078403Y-95025905D01*
X90078204Y-95095774D01*
X90040262Y-95154444D01*
X89976624Y-95183288D01*
X89959327Y-95184500D01*
X87583505Y-95184500D01*
X87511593Y-95198804D01*
X87475636Y-95205957D01*
X87448171Y-95211420D01*
X87448170Y-95211420D01*
X87320690Y-95264224D01*
X87205954Y-95340887D01*
X87205953Y-95340888D01*
X82108661Y-100438181D01*
X82081733Y-100452884D01*
X82055915Y-100469477D01*
X82049714Y-100470368D01*
X82047338Y-100471666D01*
X82020980Y-100474500D01*
X81979019Y-100474500D01*
X81911980Y-100454815D01*
X81891338Y-100438181D01*
X80211660Y-98758503D01*
X80178175Y-98697180D01*
X80183159Y-98627488D01*
X80225031Y-98571555D01*
X80251889Y-98556261D01*
X80389172Y-98499397D01*
X80389172Y-98499396D01*
X80389179Y-98499394D01*
X80520289Y-98411789D01*
X80631789Y-98300289D01*
X80719394Y-98169179D01*
X80779737Y-98023497D01*
X80810500Y-97868842D01*
X80810500Y-97711158D01*
X80810500Y-97711155D01*
X80810499Y-97711153D01*
X80788889Y-97602514D01*
X80779737Y-97556503D01*
X80749724Y-97484045D01*
X80719939Y-97412136D01*
X80710500Y-97364684D01*
X80710500Y-85431518D01*
X80730185Y-85364479D01*
X80746814Y-85343842D01*
X84014586Y-82076069D01*
X84054810Y-82049192D01*
X84109435Y-82026566D01*
X84199173Y-81989397D01*
X84199176Y-81989395D01*
X84199179Y-81989394D01*
X84330289Y-81901789D01*
X84441789Y-81790289D01*
X84529394Y-81659179D01*
X84589737Y-81513497D01*
X84620500Y-81358842D01*
X84620500Y-81201158D01*
X84620500Y-81201155D01*
X84620499Y-81201153D01*
X84602822Y-81112284D01*
X84589737Y-81046503D01*
X84588169Y-81042718D01*
X84529397Y-80900827D01*
X84529391Y-80900816D01*
X84504384Y-80863390D01*
X84483507Y-80796713D01*
X84501992Y-80729333D01*
X84553971Y-80682643D01*
X84607487Y-80670500D01*
X89561496Y-80670500D01*
X89656499Y-80651602D01*
X89696828Y-80643580D01*
X89760569Y-80617177D01*
X89824307Y-80590777D01*
X89824308Y-80590776D01*
X89824311Y-80590775D01*
X89939043Y-80514114D01*
X105891337Y-64561817D01*
X105952660Y-64528333D01*
X105979018Y-64525499D01*
X106675002Y-64525499D01*
X106675008Y-64525499D01*
X106777797Y-64514999D01*
X106944334Y-64459814D01*
X107093656Y-64367712D01*
X107217712Y-64243656D01*
X107309814Y-64094334D01*
X107364999Y-63927797D01*
X107375500Y-63825009D01*
X107375499Y-63203016D01*
X107381737Y-63181770D01*
X107383317Y-63159683D01*
X107391388Y-63148900D01*
X107395183Y-63135978D01*
X107411919Y-63121476D01*
X107425189Y-63103750D01*
X107437807Y-63099043D01*
X107447987Y-63090223D01*
X107469905Y-63087071D01*
X107490653Y-63079333D01*
X107503813Y-63082195D01*
X107517146Y-63080279D01*
X107537289Y-63089478D01*
X107558926Y-63094185D01*
X107576651Y-63107453D01*
X107580702Y-63109304D01*
X107587176Y-63115333D01*
X107663386Y-63191542D01*
X107716016Y-63244172D01*
X107760959Y-63289115D01*
X107875682Y-63365771D01*
X107875689Y-63365775D01*
X107942638Y-63393506D01*
X108003171Y-63418580D01*
X108030091Y-63423934D01*
X108127587Y-63443327D01*
X108138506Y-63445500D01*
X108138507Y-63445500D01*
X111399273Y-63445500D01*
X111466312Y-63465185D01*
X111506660Y-63507499D01*
X111613052Y-63691774D01*
X111613057Y-63691780D01*
X111613058Y-63691782D01*
X111748751Y-63868622D01*
X111748757Y-63868629D01*
X111906370Y-64026242D01*
X111906377Y-64026248D01*
X111944712Y-64055663D01*
X112083226Y-64161948D01*
X112276274Y-64273405D01*
X112400795Y-64324983D01*
X112454462Y-64347213D01*
X112482219Y-64358710D01*
X112697537Y-64416404D01*
X112918543Y-64445500D01*
X112918550Y-64445500D01*
X113141450Y-64445500D01*
X113141457Y-64445500D01*
X113362463Y-64416404D01*
X113577781Y-64358710D01*
X113783726Y-64273405D01*
X113976774Y-64161948D01*
X114153624Y-64026247D01*
X114311247Y-63868624D01*
X114446948Y-63691774D01*
X114558405Y-63498726D01*
X114643710Y-63292781D01*
X114701404Y-63077463D01*
X114730500Y-62856457D01*
X114730500Y-62633543D01*
X114701404Y-62412537D01*
X114643710Y-62197219D01*
X114639816Y-62187819D01*
X114601094Y-62094334D01*
X114558405Y-61991274D01*
X114446948Y-61798226D01*
X114367300Y-61694426D01*
X114311248Y-61621377D01*
X114311242Y-61621370D01*
X114153629Y-61463757D01*
X114153622Y-61463751D01*
X113976782Y-61328058D01*
X113976780Y-61328057D01*
X113976774Y-61328052D01*
X113783726Y-61216595D01*
X113783722Y-61216593D01*
X113577790Y-61131293D01*
X113577783Y-61131291D01*
X113577781Y-61131290D01*
X113362463Y-61073596D01*
X113362457Y-61073595D01*
X113362452Y-61073594D01*
X113141466Y-61044501D01*
X113141463Y-61044500D01*
X113141457Y-61044500D01*
X112918543Y-61044500D01*
X112918537Y-61044500D01*
X112918533Y-61044501D01*
X112697547Y-61073594D01*
X112697540Y-61073595D01*
X112697537Y-61073596D01*
X112490695Y-61129019D01*
X112482219Y-61131290D01*
X112482209Y-61131293D01*
X112276277Y-61216593D01*
X112276273Y-61216595D01*
X112083226Y-61328052D01*
X112083217Y-61328058D01*
X111906377Y-61463751D01*
X111906370Y-61463757D01*
X111748757Y-61621370D01*
X111748751Y-61621377D01*
X111613058Y-61798217D01*
X111613052Y-61798226D01*
X111506660Y-61982501D01*
X111456092Y-62030716D01*
X111399273Y-62044500D01*
X108549018Y-62044500D01*
X108481979Y-62024815D01*
X108461337Y-62008181D01*
X107411818Y-60958662D01*
X107378333Y-60897339D01*
X107375499Y-60870989D01*
X107375499Y-60174992D01*
X107364999Y-60072203D01*
X107309814Y-59905666D01*
X107217712Y-59756344D01*
X107093656Y-59632288D01*
X106944334Y-59540186D01*
X106777797Y-59485001D01*
X106777795Y-59485000D01*
X106675016Y-59474500D01*
X106675009Y-59474500D01*
X105979019Y-59474500D01*
X105911980Y-59454815D01*
X105891338Y-59438181D01*
X105483046Y-59029888D01*
X105483045Y-59029887D01*
X105368307Y-58953222D01*
X105240832Y-58900421D01*
X105240822Y-58900418D01*
X105105496Y-58873500D01*
X105105494Y-58873500D01*
X105105493Y-58873500D01*
X101167414Y-58873500D01*
X101029426Y-58873500D01*
X101029424Y-58873500D01*
X100894097Y-58900418D01*
X100894087Y-58900421D01*
X100766612Y-58953222D01*
X100651874Y-59029887D01*
X100651873Y-59029888D01*
X98823582Y-60858181D01*
X98762259Y-60891666D01*
X98735901Y-60894500D01*
X98000673Y-60894500D01*
X97933634Y-60874815D01*
X97887879Y-60822011D01*
X97877935Y-60752853D01*
X97881597Y-60735905D01*
X97927597Y-60577573D01*
X97927598Y-60577567D01*
X97928066Y-60571616D01*
X97930500Y-60540694D01*
X97930500Y-60109306D01*
X97927598Y-60072431D01*
X97927572Y-60072342D01*
X97881745Y-59914606D01*
X97881744Y-59914603D01*
X97881744Y-59914602D01*
X97798081Y-59773135D01*
X97798079Y-59773133D01*
X97798076Y-59773129D01*
X97681870Y-59656923D01*
X97681862Y-59656917D01*
X97603681Y-59610681D01*
X97540398Y-59573256D01*
X97540397Y-59573255D01*
X97540396Y-59573255D01*
X97540393Y-59573254D01*
X97382573Y-59527402D01*
X97382567Y-59527401D01*
X97345701Y-59524500D01*
X97345694Y-59524500D01*
X96767229Y-59524500D01*
X96700190Y-59504815D01*
X96679548Y-59488181D01*
X96016819Y-58825451D01*
X95983334Y-58764128D01*
X95980500Y-58737770D01*
X95980500Y-58275416D01*
X96000185Y-58208377D01*
X96031613Y-58175099D01*
X96077219Y-58141966D01*
X96221966Y-57997219D01*
X96221968Y-57997215D01*
X96221971Y-57997213D01*
X96288481Y-57905668D01*
X96342287Y-57831610D01*
X96435220Y-57649219D01*
X96498477Y-57454534D01*
X96530500Y-57252352D01*
X96530500Y-57047648D01*
X96522257Y-56995606D01*
X96498477Y-56845465D01*
X96467458Y-56750000D01*
X96435220Y-56650781D01*
X96435218Y-56650778D01*
X96435218Y-56650776D01*
X96389217Y-56560496D01*
X96342287Y-56468390D01*
X96310092Y-56424077D01*
X96221971Y-56302786D01*
X96077218Y-56158033D01*
X96051613Y-56139430D01*
X96008948Y-56084100D01*
X96000500Y-56039113D01*
X96000500Y-52798732D01*
X96020185Y-52731693D01*
X96072989Y-52685938D01*
X96085495Y-52681026D01*
X96119334Y-52669814D01*
X96268656Y-52577712D01*
X96392712Y-52453656D01*
X96484814Y-52304334D01*
X96496028Y-52270494D01*
X96535801Y-52213050D01*
X96600317Y-52186228D01*
X96613733Y-52185500D01*
X106317770Y-52185500D01*
X106384809Y-52205185D01*
X106405451Y-52221819D01*
X117958181Y-63774548D01*
X117991666Y-63835871D01*
X117994500Y-63862229D01*
X117994500Y-73932770D01*
X117974815Y-73999809D01*
X117958181Y-74020451D01*
X116545451Y-75433181D01*
X116484128Y-75466666D01*
X116457770Y-75469500D01*
X111243580Y-75469500D01*
X111098592Y-75498340D01*
X111098582Y-75498343D01*
X110962011Y-75554912D01*
X110961998Y-75554919D01*
X110839084Y-75637048D01*
X110839080Y-75637051D01*
X107887950Y-78588181D01*
X107826627Y-78621666D01*
X107800269Y-78624500D01*
X107174998Y-78624500D01*
X107174980Y-78624501D01*
X107072203Y-78635000D01*
X107072200Y-78635001D01*
X106905668Y-78690185D01*
X106905663Y-78690187D01*
X106756342Y-78782289D01*
X106632289Y-78906342D01*
X106540187Y-79055663D01*
X106540185Y-79055668D01*
X106526142Y-79098048D01*
X106485001Y-79222203D01*
X106485001Y-79222204D01*
X106485000Y-79222204D01*
X106474500Y-79324983D01*
X106474500Y-79950270D01*
X106454815Y-80017309D01*
X106438181Y-80037951D01*
X105876701Y-80599431D01*
X105815378Y-80632916D01*
X105789020Y-80635750D01*
X98149826Y-80635750D01*
X98120992Y-80641484D01*
X98120993Y-80641485D01*
X98004843Y-80664589D01*
X98004833Y-80664592D01*
X97924831Y-80697729D01*
X97924832Y-80697730D01*
X97868256Y-80721165D01*
X97822173Y-80751957D01*
X97745332Y-80803299D01*
X97745331Y-80803300D01*
X93525449Y-85023181D01*
X93464126Y-85056666D01*
X93437768Y-85059500D01*
X92649998Y-85059500D01*
X92649980Y-85059501D01*
X92547203Y-85070000D01*
X92547200Y-85070001D01*
X92380668Y-85125185D01*
X92380663Y-85125187D01*
X92231342Y-85217289D01*
X92107289Y-85341342D01*
X92015187Y-85490663D01*
X92015186Y-85490666D01*
X91960001Y-85657203D01*
X91960001Y-85657204D01*
X91960000Y-85657204D01*
X91949500Y-85759983D01*
X91949500Y-86960001D01*
X91949501Y-86960018D01*
X91960000Y-87062796D01*
X91960001Y-87062799D01*
X92015185Y-87229331D01*
X92015186Y-87229334D01*
X92107288Y-87378656D01*
X92231344Y-87502712D01*
X92380666Y-87594814D01*
X92547203Y-87649999D01*
X92649991Y-87660500D01*
X93047769Y-87660499D01*
X93114808Y-87680183D01*
X93135450Y-87696818D01*
X94423181Y-88984548D01*
X94456666Y-89045871D01*
X94459500Y-89072229D01*
X94459500Y-90949582D01*
X94439815Y-91016621D01*
X94408385Y-91049900D01*
X94362787Y-91083028D01*
X94362782Y-91083032D01*
X94218028Y-91227786D01*
X94097714Y-91393386D01*
X94070203Y-91447379D01*
X94022227Y-91498174D01*
X93954406Y-91514968D01*
X93888272Y-91492429D01*
X93849234Y-91447376D01*
X93821861Y-91393652D01*
X93789474Y-91349077D01*
X93789474Y-91349076D01*
X93110000Y-92028551D01*
X93110000Y-92022339D01*
X93082741Y-91920606D01*
X93030080Y-91829394D01*
X92955606Y-91754920D01*
X92864394Y-91702259D01*
X92762661Y-91675000D01*
X92756446Y-91675000D01*
X93435922Y-90995524D01*
X93435921Y-90995523D01*
X93391359Y-90963147D01*
X93391350Y-90963141D01*
X93209031Y-90870244D01*
X93014417Y-90807009D01*
X92812317Y-90775000D01*
X92607683Y-90775000D01*
X92405582Y-90807009D01*
X92210968Y-90870244D01*
X92028644Y-90963143D01*
X91984077Y-90995523D01*
X91984077Y-90995524D01*
X92663554Y-91675000D01*
X92657339Y-91675000D01*
X92555606Y-91702259D01*
X92464394Y-91754920D01*
X92389920Y-91829394D01*
X92337259Y-91920606D01*
X92310000Y-92022339D01*
X92310000Y-92028553D01*
X91630524Y-91349077D01*
X91630523Y-91349077D01*
X91598143Y-91393644D01*
X91505244Y-91575968D01*
X91442009Y-91770582D01*
X91410000Y-91972682D01*
X91410000Y-92177317D01*
X91442009Y-92379417D01*
X91505244Y-92574031D01*
X91598141Y-92756350D01*
X91598147Y-92756359D01*
X91630523Y-92800921D01*
X91630524Y-92800922D01*
X92310000Y-92121446D01*
X92310000Y-92127661D01*
X92337259Y-92229394D01*
X92389920Y-92320606D01*
X92464394Y-92395080D01*
X92555606Y-92447741D01*
X92657339Y-92475000D01*
X92663553Y-92475000D01*
X91984076Y-93154474D01*
X92028650Y-93186859D01*
X92210968Y-93279755D01*
X92405582Y-93342990D01*
X92607683Y-93375000D01*
X92812317Y-93375000D01*
X93014417Y-93342990D01*
X93209031Y-93279755D01*
X93391349Y-93186859D01*
X93435921Y-93154474D01*
X92756447Y-92475000D01*
X92762661Y-92475000D01*
X92864394Y-92447741D01*
X92955606Y-92395080D01*
X93030080Y-92320606D01*
X93082741Y-92229394D01*
X93110000Y-92127661D01*
X93110000Y-92121447D01*
X93789474Y-92800921D01*
X93821859Y-92756349D01*
X93849233Y-92702624D01*
X93897207Y-92651827D01*
X93965028Y-92635031D01*
X94031163Y-92657567D01*
X94070203Y-92702621D01*
X94097713Y-92756611D01*
X94218028Y-92922213D01*
X94362786Y-93066971D01*
X94503682Y-93169336D01*
X94528390Y-93187287D01*
X94627920Y-93238000D01*
X94710776Y-93280218D01*
X94710778Y-93280218D01*
X94710781Y-93280220D01*
X94815137Y-93314127D01*
X94905465Y-93343477D01*
X94989564Y-93356797D01*
X95107648Y-93375500D01*
X95107649Y-93375500D01*
X95312350Y-93375500D01*
X95312352Y-93375500D01*
X95368026Y-93366681D01*
X95437318Y-93375635D01*
X95475105Y-93401473D01*
X95668181Y-93594549D01*
X95682884Y-93621476D01*
X95699477Y-93647295D01*
X95700368Y-93653495D01*
X95701666Y-93655872D01*
X95704500Y-93682230D01*
X95704500Y-93690500D01*
X95684815Y-93757539D01*
X95632011Y-93803294D01*
X95580500Y-93814500D01*
X95564298Y-93814500D01*
X95527432Y-93817401D01*
X95527426Y-93817402D01*
X95369606Y-93863254D01*
X95369603Y-93863255D01*
X95228137Y-93946917D01*
X95228129Y-93946923D01*
X95111923Y-94063129D01*
X95111917Y-94063137D01*
X95028255Y-94204603D01*
X95028254Y-94204606D01*
X94982402Y-94362426D01*
X94982401Y-94362432D01*
X94979500Y-94399298D01*
X94979500Y-94830701D01*
X94982401Y-94867567D01*
X94982402Y-94867573D01*
X95028254Y-95025393D01*
X95028255Y-95025396D01*
X95111917Y-95166862D01*
X95116702Y-95173031D01*
X95114256Y-95174927D01*
X95140857Y-95223642D01*
X95135873Y-95293334D01*
X95115069Y-95325703D01*
X95116702Y-95326969D01*
X95111917Y-95333137D01*
X95028255Y-95474603D01*
X95028254Y-95474606D01*
X94982402Y-95632426D01*
X94982401Y-95632432D01*
X94979500Y-95669298D01*
X94979500Y-96100701D01*
X94982401Y-96137567D01*
X94982402Y-96137573D01*
X95028254Y-96295393D01*
X95028255Y-96295396D01*
X95028256Y-96295398D01*
X95036782Y-96309814D01*
X95111917Y-96436862D01*
X95116702Y-96443031D01*
X95114256Y-96444927D01*
X95140857Y-96493642D01*
X95135873Y-96563334D01*
X95115069Y-96595703D01*
X95116702Y-96596969D01*
X95111917Y-96603137D01*
X95028255Y-96744603D01*
X95028254Y-96744606D01*
X94982402Y-96902426D01*
X94982401Y-96902432D01*
X94979500Y-96939298D01*
X94979500Y-97370701D01*
X94982401Y-97407567D01*
X94982402Y-97407573D01*
X95028254Y-97565393D01*
X95028255Y-97565396D01*
X95111917Y-97706862D01*
X95116702Y-97713031D01*
X95114256Y-97714927D01*
X95140857Y-97763642D01*
X95135873Y-97833334D01*
X95115069Y-97865703D01*
X95116702Y-97866969D01*
X95111917Y-97873137D01*
X95028255Y-98014603D01*
X95028254Y-98014606D01*
X94982402Y-98172426D01*
X94982401Y-98172432D01*
X94979500Y-98209298D01*
X94979500Y-98640701D01*
X94982401Y-98677567D01*
X94982402Y-98677573D01*
X95030432Y-98842890D01*
X95029199Y-98843248D01*
X95036778Y-98904659D01*
X95006488Y-98967622D01*
X95002099Y-98972242D01*
X93056147Y-100918194D01*
X92994824Y-100951679D01*
X92949068Y-100952986D01*
X92893115Y-100944124D01*
X92832352Y-100934500D01*
X92627648Y-100934500D01*
X92603329Y-100938351D01*
X92425465Y-100966522D01*
X92230776Y-101029781D01*
X92048386Y-101122715D01*
X91882786Y-101243028D01*
X91738028Y-101387786D01*
X91617715Y-101553386D01*
X91524781Y-101735776D01*
X91461522Y-101930465D01*
X91429500Y-102132648D01*
X91429500Y-102337351D01*
X91461522Y-102539534D01*
X91524781Y-102734223D01*
X91567248Y-102817567D01*
X91617585Y-102916359D01*
X91617715Y-102916613D01*
X91738028Y-103082213D01*
X91882784Y-103226969D01*
X91978385Y-103296426D01*
X92021051Y-103351755D01*
X92029500Y-103396744D01*
X92029500Y-107022479D01*
X92017884Y-107074879D01*
X92015188Y-107080660D01*
X92015186Y-107080665D01*
X92015186Y-107080666D01*
X91960001Y-107247203D01*
X91960001Y-107247204D01*
X91960000Y-107247204D01*
X91949500Y-107349983D01*
X91949500Y-108550001D01*
X91949501Y-108550018D01*
X91960000Y-108652796D01*
X91960001Y-108652799D01*
X92015185Y-108819331D01*
X92015187Y-108819336D01*
X92025897Y-108836700D01*
X92107288Y-108968656D01*
X92231344Y-109092712D01*
X92380666Y-109184814D01*
X92547203Y-109239999D01*
X92649991Y-109250500D01*
X93850008Y-109250499D01*
X93952797Y-109239999D01*
X94119334Y-109184814D01*
X94268656Y-109092712D01*
X94337879Y-109023489D01*
X94399202Y-108990004D01*
X94468894Y-108994988D01*
X94498446Y-109010853D01*
X94568646Y-109061857D01*
X94750968Y-109154755D01*
X94945582Y-109217990D01*
X95147683Y-109250000D01*
X95352317Y-109250000D01*
X95554417Y-109217990D01*
X95749031Y-109154755D01*
X95931349Y-109061859D01*
X95975921Y-109029474D01*
X95296447Y-108350000D01*
X95302661Y-108350000D01*
X95404394Y-108322741D01*
X95495606Y-108270080D01*
X95570080Y-108195606D01*
X95622741Y-108104394D01*
X95650000Y-108002661D01*
X95650000Y-107996447D01*
X96329474Y-108675921D01*
X96361859Y-108631349D01*
X96454755Y-108449031D01*
X96517990Y-108254417D01*
X96550000Y-108052317D01*
X96550000Y-107847682D01*
X96517990Y-107645582D01*
X96454755Y-107450968D01*
X96361859Y-107268650D01*
X96329474Y-107224077D01*
X96329474Y-107224076D01*
X95650000Y-107903551D01*
X95650000Y-107897339D01*
X95622741Y-107795606D01*
X95570080Y-107704394D01*
X95495606Y-107629920D01*
X95404394Y-107577259D01*
X95302661Y-107550000D01*
X95296446Y-107550000D01*
X95975922Y-106870524D01*
X95975921Y-106870523D01*
X95931359Y-106838147D01*
X95931350Y-106838141D01*
X95749027Y-106745242D01*
X95712313Y-106733313D01*
X95654638Y-106693875D01*
X95627441Y-106629516D01*
X95639357Y-106560669D01*
X95662946Y-106527709D01*
X102262821Y-99927834D01*
X102282255Y-99917223D01*
X102298989Y-99902723D01*
X102312320Y-99900806D01*
X102324142Y-99894351D01*
X102346228Y-99895930D01*
X102368147Y-99892779D01*
X102380398Y-99898374D01*
X102393834Y-99899335D01*
X102411560Y-99912605D01*
X102431703Y-99921804D01*
X102438985Y-99933135D01*
X102449767Y-99941207D01*
X102457504Y-99961952D01*
X102469477Y-99980582D01*
X102472628Y-100002500D01*
X102474184Y-100006671D01*
X102474500Y-100015517D01*
X102474500Y-100020980D01*
X102454815Y-100088019D01*
X102438181Y-100108661D01*
X101055888Y-101490953D01*
X101055887Y-101490954D01*
X100979223Y-101605692D01*
X100926421Y-101733168D01*
X100926418Y-101733178D01*
X100911675Y-101807298D01*
X100893166Y-101851988D01*
X100890612Y-101855810D01*
X100890602Y-101855828D01*
X100830264Y-102001498D01*
X100830261Y-102001510D01*
X100799500Y-102156153D01*
X100799500Y-102313846D01*
X100830261Y-102468489D01*
X100830264Y-102468501D01*
X100890602Y-102614172D01*
X100890609Y-102614185D01*
X100978210Y-102745288D01*
X100978213Y-102745292D01*
X101089707Y-102856786D01*
X101089711Y-102856789D01*
X101220814Y-102944390D01*
X101220827Y-102944397D01*
X101296222Y-102975626D01*
X101366503Y-103004737D01*
X101521153Y-103035499D01*
X101521156Y-103035500D01*
X101521158Y-103035500D01*
X101678844Y-103035500D01*
X101678845Y-103035499D01*
X101833497Y-103004737D01*
X101979179Y-102944394D01*
X102110289Y-102856789D01*
X102221789Y-102745289D01*
X102309394Y-102614179D01*
X102369737Y-102468497D01*
X102400500Y-102313842D01*
X102400500Y-102179018D01*
X102420185Y-102111979D01*
X102436819Y-102091337D01*
X102755319Y-101772837D01*
X103116339Y-101411816D01*
X103177660Y-101378333D01*
X103204009Y-101375499D01*
X103870980Y-101375499D01*
X103938019Y-101395184D01*
X103958661Y-101411818D01*
X110285953Y-107739111D01*
X110285954Y-107739112D01*
X110400692Y-107815777D01*
X110500606Y-107857162D01*
X110528172Y-107868580D01*
X110528176Y-107868580D01*
X110528177Y-107868581D01*
X110663503Y-107895500D01*
X110663506Y-107895500D01*
X110663507Y-107895500D01*
X111399273Y-107895500D01*
X111466312Y-107915185D01*
X111506660Y-107957499D01*
X111613052Y-108141774D01*
X111613057Y-108141780D01*
X111613058Y-108141782D01*
X111748751Y-108318622D01*
X111748757Y-108318629D01*
X111906370Y-108476242D01*
X111906376Y-108476247D01*
X112083226Y-108611948D01*
X112276274Y-108723405D01*
X112482219Y-108808710D01*
X112697537Y-108866404D01*
X112918543Y-108895500D01*
X112918550Y-108895500D01*
X113141450Y-108895500D01*
X113141457Y-108895500D01*
X113362463Y-108866404D01*
X113577781Y-108808710D01*
X113783726Y-108723405D01*
X113976774Y-108611948D01*
X114153624Y-108476247D01*
X114311247Y-108318624D01*
X114446948Y-108141774D01*
X114558405Y-107948726D01*
X114643710Y-107742781D01*
X114701404Y-107527463D01*
X114730500Y-107306457D01*
X114730500Y-107231228D01*
X119959500Y-107231228D01*
X119959500Y-107398771D01*
X119992182Y-107563074D01*
X119992184Y-107563082D01*
X120056295Y-107717860D01*
X120149373Y-107857162D01*
X120267837Y-107975626D01*
X120351612Y-108031602D01*
X120407137Y-108068703D01*
X120561918Y-108132816D01*
X120726228Y-108165499D01*
X120726232Y-108165500D01*
X120726233Y-108165500D01*
X120893768Y-108165500D01*
X120893769Y-108165499D01*
X121058082Y-108132816D01*
X121212863Y-108068703D01*
X121352162Y-107975626D01*
X121470626Y-107857162D01*
X121563703Y-107717863D01*
X121627022Y-107565000D01*
X124235885Y-107565000D01*
X124237085Y-107572584D01*
X124290591Y-107737255D01*
X124369195Y-107891524D01*
X124470967Y-108031602D01*
X124593397Y-108154032D01*
X124733475Y-108255804D01*
X124887742Y-108334408D01*
X125052415Y-108387914D01*
X125223429Y-108415000D01*
X125560000Y-108415000D01*
X126060000Y-108415000D01*
X126396571Y-108415000D01*
X126567584Y-108387914D01*
X126732257Y-108334408D01*
X126886524Y-108255804D01*
X127026602Y-108154032D01*
X127149032Y-108031602D01*
X127250804Y-107891524D01*
X127329408Y-107737255D01*
X127382914Y-107572584D01*
X127384115Y-107565000D01*
X126060000Y-107565000D01*
X126060000Y-108415000D01*
X125560000Y-108415000D01*
X125560000Y-107565000D01*
X124235885Y-107565000D01*
X121627022Y-107565000D01*
X121627816Y-107563082D01*
X121660500Y-107398767D01*
X121660500Y-107275218D01*
X125110000Y-107275218D01*
X125110000Y-107354782D01*
X125140448Y-107428291D01*
X125196709Y-107484552D01*
X125270218Y-107515000D01*
X126349782Y-107515000D01*
X126423291Y-107484552D01*
X126479552Y-107428291D01*
X126510000Y-107354782D01*
X126510000Y-107275218D01*
X126491779Y-107231228D01*
X129959500Y-107231228D01*
X129959500Y-107398771D01*
X129992182Y-107563074D01*
X129992184Y-107563082D01*
X130056295Y-107717860D01*
X130149373Y-107857162D01*
X130267837Y-107975626D01*
X130351612Y-108031602D01*
X130407137Y-108068703D01*
X130561918Y-108132816D01*
X130726228Y-108165499D01*
X130726232Y-108165500D01*
X130726233Y-108165500D01*
X130893768Y-108165500D01*
X130893769Y-108165499D01*
X131058082Y-108132816D01*
X131212863Y-108068703D01*
X131352162Y-107975626D01*
X131470626Y-107857162D01*
X131563703Y-107717863D01*
X131627816Y-107563082D01*
X131660500Y-107398767D01*
X131660500Y-107231233D01*
X131627816Y-107066918D01*
X131563703Y-106912137D01*
X131514260Y-106838141D01*
X131470626Y-106772837D01*
X131352162Y-106654373D01*
X131212860Y-106561295D01*
X131058082Y-106497184D01*
X131058074Y-106497182D01*
X130893771Y-106464500D01*
X130893767Y-106464500D01*
X130726233Y-106464500D01*
X130726228Y-106464500D01*
X130561925Y-106497182D01*
X130561917Y-106497184D01*
X130407139Y-106561295D01*
X130267837Y-106654373D01*
X130149373Y-106772837D01*
X130056295Y-106912139D01*
X129992184Y-107066917D01*
X129992182Y-107066925D01*
X129959500Y-107231228D01*
X126491779Y-107231228D01*
X126479552Y-107201709D01*
X126423291Y-107145448D01*
X126349782Y-107115000D01*
X125270218Y-107115000D01*
X125196709Y-107145448D01*
X125140448Y-107201709D01*
X125110000Y-107275218D01*
X121660500Y-107275218D01*
X121660500Y-107231233D01*
X121627816Y-107066918D01*
X121627021Y-107064999D01*
X124235884Y-107064999D01*
X124235885Y-107065000D01*
X125560000Y-107065000D01*
X126060000Y-107065000D01*
X127384115Y-107065000D01*
X127384115Y-107064999D01*
X127382914Y-107057415D01*
X127329408Y-106892744D01*
X127250804Y-106738475D01*
X127149032Y-106598397D01*
X127026602Y-106475967D01*
X126886524Y-106374195D01*
X126732257Y-106295591D01*
X126567584Y-106242085D01*
X126396571Y-106215000D01*
X126060000Y-106215000D01*
X126060000Y-107065000D01*
X125560000Y-107065000D01*
X125560000Y-106215000D01*
X125223429Y-106215000D01*
X125052415Y-106242085D01*
X124887742Y-106295591D01*
X124733475Y-106374195D01*
X124593397Y-106475967D01*
X124470967Y-106598397D01*
X124369195Y-106738475D01*
X124290591Y-106892744D01*
X124237085Y-107057415D01*
X124235884Y-107064999D01*
X121627021Y-107064999D01*
X121563703Y-106912137D01*
X121514260Y-106838141D01*
X121470626Y-106772837D01*
X121352162Y-106654373D01*
X121212860Y-106561295D01*
X121058082Y-106497184D01*
X121058074Y-106497182D01*
X120893771Y-106464500D01*
X120893767Y-106464500D01*
X120726233Y-106464500D01*
X120726228Y-106464500D01*
X120561925Y-106497182D01*
X120561917Y-106497184D01*
X120407139Y-106561295D01*
X120267837Y-106654373D01*
X120149373Y-106772837D01*
X120056295Y-106912139D01*
X119992184Y-107066917D01*
X119992182Y-107066925D01*
X119959500Y-107231228D01*
X114730500Y-107231228D01*
X114730500Y-107083543D01*
X114701404Y-106862537D01*
X114643710Y-106647219D01*
X114622354Y-106595662D01*
X114580452Y-106494500D01*
X114558405Y-106441274D01*
X114446948Y-106248226D01*
X114342637Y-106112284D01*
X114311248Y-106071377D01*
X114311242Y-106071370D01*
X114153629Y-105913757D01*
X114153622Y-105913751D01*
X113976782Y-105778058D01*
X113976780Y-105778057D01*
X113976774Y-105778052D01*
X113783726Y-105666595D01*
X113783722Y-105666593D01*
X113577790Y-105581293D01*
X113577783Y-105581291D01*
X113577781Y-105581290D01*
X113362463Y-105523596D01*
X113362457Y-105523595D01*
X113362452Y-105523594D01*
X113141466Y-105494501D01*
X113141463Y-105494500D01*
X113141457Y-105494500D01*
X112918543Y-105494500D01*
X112918537Y-105494500D01*
X112918533Y-105494501D01*
X112697547Y-105523594D01*
X112697540Y-105523595D01*
X112697537Y-105523596D01*
X112554890Y-105561818D01*
X112482219Y-105581290D01*
X112482209Y-105581293D01*
X112276277Y-105666593D01*
X112276273Y-105666595D01*
X112083226Y-105778052D01*
X112083217Y-105778058D01*
X111906377Y-105913751D01*
X111906370Y-105913757D01*
X111748757Y-106071370D01*
X111748751Y-106071377D01*
X111613058Y-106248217D01*
X111613052Y-106248226D01*
X111506660Y-106432501D01*
X111456092Y-106480716D01*
X111399273Y-106494500D01*
X111074019Y-106494500D01*
X111006980Y-106474815D01*
X110986338Y-106458181D01*
X106114837Y-101586680D01*
X106081352Y-101525357D01*
X106086336Y-101455665D01*
X106128208Y-101399732D01*
X106193672Y-101375315D01*
X106202518Y-101374999D01*
X106212499Y-101374999D01*
X106712500Y-101374999D01*
X106824972Y-101374999D01*
X106824986Y-101374998D01*
X106927697Y-101364505D01*
X107094119Y-101309358D01*
X107094124Y-101309356D01*
X107243345Y-101217315D01*
X107367315Y-101093345D01*
X107459356Y-100944124D01*
X107459358Y-100944119D01*
X107514505Y-100777697D01*
X107514506Y-100777690D01*
X107524999Y-100674986D01*
X107525000Y-100674973D01*
X107525000Y-100250000D01*
X106712500Y-100250000D01*
X106712500Y-101374999D01*
X106212499Y-101374999D01*
X106212500Y-101374998D01*
X106212500Y-100250000D01*
X105400001Y-100250000D01*
X105400001Y-100572482D01*
X105380316Y-100639521D01*
X105327512Y-100685276D01*
X105258354Y-100695220D01*
X105194798Y-100666195D01*
X105188320Y-100660163D01*
X104636818Y-100108661D01*
X104622114Y-100081733D01*
X104605522Y-100055915D01*
X104604630Y-100049714D01*
X104603333Y-100047338D01*
X104600499Y-100020980D01*
X104600499Y-99941518D01*
X104620184Y-99874479D01*
X104636813Y-99853842D01*
X105188321Y-99302334D01*
X105249642Y-99268851D01*
X105319334Y-99273835D01*
X105375267Y-99315707D01*
X105399684Y-99381171D01*
X105400000Y-99390017D01*
X105400000Y-99750000D01*
X106212500Y-99750000D01*
X106712500Y-99750000D01*
X107524999Y-99750000D01*
X107524999Y-99325028D01*
X107524998Y-99325013D01*
X107514505Y-99222302D01*
X107459358Y-99055880D01*
X107459356Y-99055875D01*
X107367315Y-98906654D01*
X107243345Y-98782684D01*
X107094124Y-98690643D01*
X107094119Y-98690641D01*
X106927697Y-98635494D01*
X106927690Y-98635493D01*
X106824986Y-98625000D01*
X106712500Y-98625000D01*
X106712500Y-99750000D01*
X106212500Y-99750000D01*
X106212500Y-98655778D01*
X106116652Y-98615179D01*
X106108314Y-98608350D01*
X106097978Y-98605315D01*
X106081763Y-98586602D01*
X106062600Y-98570906D01*
X106059278Y-98560653D01*
X106052223Y-98552511D01*
X106048698Y-98527998D01*
X106041065Y-98504438D01*
X106043812Y-98494019D01*
X106042279Y-98483353D01*
X106052567Y-98460824D01*
X106058883Y-98436878D01*
X106066827Y-98429598D01*
X106071304Y-98419797D01*
X106077314Y-98413342D01*
X107006614Y-97484043D01*
X107083275Y-97369311D01*
X107136080Y-97241828D01*
X107163000Y-97106494D01*
X107163000Y-96968506D01*
X107163000Y-96336667D01*
X107182685Y-96269628D01*
X107221905Y-96231127D01*
X107243656Y-96217712D01*
X107367712Y-96093656D01*
X107459814Y-95944334D01*
X107514999Y-95777797D01*
X107525500Y-95675009D01*
X107525499Y-95099983D01*
X119624500Y-95099983D01*
X119624500Y-95825001D01*
X119624501Y-95825019D01*
X119635000Y-95927796D01*
X119635001Y-95927799D01*
X119689562Y-96092450D01*
X119690186Y-96094334D01*
X119782288Y-96243656D01*
X119906344Y-96367712D01*
X120050597Y-96456687D01*
X120097321Y-96508633D01*
X120109500Y-96562225D01*
X120109500Y-100907795D01*
X120089815Y-100974834D01*
X120073182Y-100995476D01*
X119970585Y-101098073D01*
X119868768Y-101238211D01*
X119790128Y-101392552D01*
X119736597Y-101557302D01*
X119725376Y-101628149D01*
X119709500Y-101728389D01*
X119709500Y-102901611D01*
X119711836Y-102916359D01*
X119735964Y-103068703D01*
X119736598Y-103072701D01*
X119790127Y-103237445D01*
X119868768Y-103391788D01*
X119970586Y-103531928D01*
X120093072Y-103654414D01*
X120233212Y-103756232D01*
X120387555Y-103834873D01*
X120552299Y-103888402D01*
X120723389Y-103915500D01*
X120723390Y-103915500D01*
X120896610Y-103915500D01*
X120896611Y-103915500D01*
X121067701Y-103888402D01*
X121232445Y-103834873D01*
X121386788Y-103756232D01*
X121526928Y-103654414D01*
X121649414Y-103531928D01*
X121751232Y-103391788D01*
X121829873Y-103237445D01*
X121883402Y-103072701D01*
X121910500Y-102901611D01*
X121910500Y-102231228D01*
X124959500Y-102231228D01*
X124959500Y-102398771D01*
X124992182Y-102563074D01*
X124992184Y-102563082D01*
X125056295Y-102717860D01*
X125149373Y-102857162D01*
X125267837Y-102975626D01*
X125357444Y-103035499D01*
X125407137Y-103068703D01*
X125561918Y-103132816D01*
X125726228Y-103165499D01*
X125726232Y-103165500D01*
X125726233Y-103165500D01*
X125893768Y-103165500D01*
X125893769Y-103165499D01*
X126058082Y-103132816D01*
X126212863Y-103068703D01*
X126352162Y-102975626D01*
X126470626Y-102857162D01*
X126563703Y-102717863D01*
X126627816Y-102563082D01*
X126660500Y-102398767D01*
X126660500Y-102231233D01*
X126627816Y-102066918D01*
X126563703Y-101912137D01*
X126523513Y-101851988D01*
X126470626Y-101772837D01*
X126352162Y-101654373D01*
X126212860Y-101561295D01*
X126058082Y-101497184D01*
X126058074Y-101497182D01*
X125893771Y-101464500D01*
X125893767Y-101464500D01*
X125726233Y-101464500D01*
X125726228Y-101464500D01*
X125561925Y-101497182D01*
X125561917Y-101497184D01*
X125407139Y-101561295D01*
X125267837Y-101654373D01*
X125149373Y-101772837D01*
X125056295Y-101912139D01*
X124992184Y-102066917D01*
X124992182Y-102066925D01*
X124959500Y-102231228D01*
X121910500Y-102231228D01*
X121910500Y-101728389D01*
X121883402Y-101557299D01*
X121829873Y-101392555D01*
X121751232Y-101238212D01*
X121649414Y-101098072D01*
X121546818Y-100995476D01*
X121513334Y-100934153D01*
X121510500Y-100907795D01*
X121510500Y-96649499D01*
X121530185Y-96582460D01*
X121582989Y-96536705D01*
X121634500Y-96525499D01*
X121675002Y-96525499D01*
X121675008Y-96525499D01*
X121777797Y-96514999D01*
X121944334Y-96459814D01*
X122093656Y-96367712D01*
X122217712Y-96243656D01*
X122309814Y-96094334D01*
X122364999Y-95927797D01*
X122375500Y-95825009D01*
X122375499Y-95099992D01*
X122375498Y-95099983D01*
X129624500Y-95099983D01*
X129624500Y-95825001D01*
X129624501Y-95825019D01*
X129635000Y-95927796D01*
X129635001Y-95927799D01*
X129689562Y-96092450D01*
X129690186Y-96094334D01*
X129782288Y-96243656D01*
X129906344Y-96367712D01*
X130050597Y-96456687D01*
X130097321Y-96508633D01*
X130109500Y-96562225D01*
X130109500Y-100907795D01*
X130089815Y-100974834D01*
X130073182Y-100995476D01*
X129970585Y-101098073D01*
X129868768Y-101238211D01*
X129790128Y-101392552D01*
X129736597Y-101557302D01*
X129725376Y-101628149D01*
X129709500Y-101728389D01*
X129709500Y-102901611D01*
X129711836Y-102916359D01*
X129735964Y-103068703D01*
X129736598Y-103072701D01*
X129790127Y-103237445D01*
X129868768Y-103391788D01*
X129970586Y-103531928D01*
X130093072Y-103654414D01*
X130233212Y-103756232D01*
X130387555Y-103834873D01*
X130552299Y-103888402D01*
X130723389Y-103915500D01*
X130723390Y-103915500D01*
X130896610Y-103915500D01*
X130896611Y-103915500D01*
X131067701Y-103888402D01*
X131232445Y-103834873D01*
X131386788Y-103756232D01*
X131526928Y-103654414D01*
X131649414Y-103531928D01*
X131751232Y-103391788D01*
X131829873Y-103237445D01*
X131883402Y-103072701D01*
X131910500Y-102901611D01*
X131910500Y-101728389D01*
X131883402Y-101557299D01*
X131829873Y-101392555D01*
X131751232Y-101238212D01*
X131649414Y-101098072D01*
X131546818Y-100995476D01*
X131513334Y-100934153D01*
X131510500Y-100907795D01*
X131510500Y-96649499D01*
X131530185Y-96582460D01*
X131582989Y-96536705D01*
X131634500Y-96525499D01*
X131675002Y-96525499D01*
X131675008Y-96525499D01*
X131777797Y-96514999D01*
X131944334Y-96459814D01*
X132093656Y-96367712D01*
X132217712Y-96243656D01*
X132309814Y-96094334D01*
X132364999Y-95927797D01*
X132375500Y-95825009D01*
X132375499Y-95099992D01*
X132375176Y-95096834D01*
X132364999Y-94997203D01*
X132364998Y-94997200D01*
X132346965Y-94942781D01*
X132309814Y-94830666D01*
X132217712Y-94681344D01*
X132093656Y-94557288D01*
X131944334Y-94465186D01*
X131777797Y-94410001D01*
X131777795Y-94410000D01*
X131675010Y-94399500D01*
X130324998Y-94399500D01*
X130324981Y-94399501D01*
X130222203Y-94410000D01*
X130222200Y-94410001D01*
X130055668Y-94465185D01*
X130055663Y-94465187D01*
X129906342Y-94557289D01*
X129782289Y-94681342D01*
X129690187Y-94830663D01*
X129690185Y-94830668D01*
X129677957Y-94867570D01*
X129635001Y-94997203D01*
X129635001Y-94997204D01*
X129635000Y-94997204D01*
X129624500Y-95099983D01*
X122375498Y-95099983D01*
X122375176Y-95096834D01*
X122364999Y-94997203D01*
X122364998Y-94997200D01*
X122346965Y-94942781D01*
X122309814Y-94830666D01*
X122217712Y-94681344D01*
X122093656Y-94557288D01*
X121944334Y-94465186D01*
X121777797Y-94410001D01*
X121777795Y-94410000D01*
X121675010Y-94399500D01*
X120324998Y-94399500D01*
X120324981Y-94399501D01*
X120222203Y-94410000D01*
X120222200Y-94410001D01*
X120055668Y-94465185D01*
X120055663Y-94465187D01*
X119906342Y-94557289D01*
X119782289Y-94681342D01*
X119690187Y-94830663D01*
X119690185Y-94830668D01*
X119677957Y-94867570D01*
X119635001Y-94997203D01*
X119635001Y-94997204D01*
X119635000Y-94997204D01*
X119624500Y-95099983D01*
X107525499Y-95099983D01*
X107525499Y-94998480D01*
X107525499Y-94324998D01*
X107525498Y-94324981D01*
X107514999Y-94222203D01*
X107514998Y-94222200D01*
X107481794Y-94121998D01*
X107459814Y-94055666D01*
X107367712Y-93906344D01*
X107243656Y-93782288D01*
X107094334Y-93690186D01*
X106927797Y-93635001D01*
X106927795Y-93635000D01*
X106825010Y-93624500D01*
X106099998Y-93624500D01*
X106099980Y-93624501D01*
X105997203Y-93635000D01*
X105997200Y-93635001D01*
X105830668Y-93690185D01*
X105830663Y-93690187D01*
X105681342Y-93782289D01*
X105557289Y-93906342D01*
X105465187Y-94055663D01*
X105465185Y-94055668D01*
X105443206Y-94121998D01*
X105403433Y-94179443D01*
X105338917Y-94206266D01*
X105270141Y-94193951D01*
X105218942Y-94146408D01*
X105201500Y-94082994D01*
X105201500Y-92083549D01*
X111329500Y-92083549D01*
X111329500Y-92306450D01*
X111329501Y-92306466D01*
X111358594Y-92527452D01*
X111358595Y-92527457D01*
X111358596Y-92527463D01*
X111405530Y-92702624D01*
X111416290Y-92742780D01*
X111416293Y-92742790D01*
X111490613Y-92922213D01*
X111501595Y-92948726D01*
X111613052Y-93141774D01*
X111613057Y-93141780D01*
X111613058Y-93141782D01*
X111748751Y-93318622D01*
X111748757Y-93318629D01*
X111906370Y-93476242D01*
X111906376Y-93476247D01*
X112083226Y-93611948D01*
X112276274Y-93723405D01*
X112321193Y-93742011D01*
X112469143Y-93803294D01*
X112482219Y-93808710D01*
X112697537Y-93866404D01*
X112918543Y-93895500D01*
X112918550Y-93895500D01*
X113141450Y-93895500D01*
X113141457Y-93895500D01*
X113362463Y-93866404D01*
X113577781Y-93808710D01*
X113783726Y-93723405D01*
X113976774Y-93611948D01*
X114153624Y-93476247D01*
X114311247Y-93318624D01*
X114335886Y-93286514D01*
X114392313Y-93245311D01*
X114434262Y-93238000D01*
X119663332Y-93238000D01*
X119730371Y-93257685D01*
X119768870Y-93296903D01*
X119782285Y-93318652D01*
X119782288Y-93318656D01*
X119906344Y-93442712D01*
X120055666Y-93534814D01*
X120222203Y-93589999D01*
X120324991Y-93600500D01*
X121675008Y-93600499D01*
X121777797Y-93589999D01*
X121944334Y-93534814D01*
X122093656Y-93442712D01*
X122217712Y-93318656D01*
X122223337Y-93309534D01*
X122231130Y-93296903D01*
X122283078Y-93250178D01*
X122336668Y-93238000D01*
X129663332Y-93238000D01*
X129730371Y-93257685D01*
X129768870Y-93296903D01*
X129782285Y-93318652D01*
X129782288Y-93318656D01*
X129906344Y-93442712D01*
X130055666Y-93534814D01*
X130222203Y-93589999D01*
X130324991Y-93600500D01*
X131675008Y-93600499D01*
X131777797Y-93589999D01*
X131944334Y-93534814D01*
X132093656Y-93442712D01*
X132217712Y-93318656D01*
X132309814Y-93169334D01*
X132364999Y-93002797D01*
X132375500Y-92900009D01*
X132375499Y-92174992D01*
X132364999Y-92072203D01*
X132309814Y-91905666D01*
X132217712Y-91756344D01*
X132093656Y-91632288D01*
X131944334Y-91540186D01*
X131777797Y-91485001D01*
X131777795Y-91485000D01*
X131675010Y-91474500D01*
X130324998Y-91474500D01*
X130324981Y-91474501D01*
X130222203Y-91485000D01*
X130222200Y-91485001D01*
X130055668Y-91540185D01*
X130055663Y-91540187D01*
X129906342Y-91632289D01*
X129782288Y-91756343D01*
X129782285Y-91756347D01*
X129768870Y-91778097D01*
X129716922Y-91824822D01*
X129663332Y-91837000D01*
X122336668Y-91837000D01*
X122269629Y-91817315D01*
X122231130Y-91778097D01*
X122217714Y-91756347D01*
X122217711Y-91756343D01*
X122093657Y-91632289D01*
X122093656Y-91632288D01*
X121944334Y-91540186D01*
X121777797Y-91485001D01*
X121777795Y-91485000D01*
X121675010Y-91474500D01*
X120324998Y-91474500D01*
X120324981Y-91474501D01*
X120222203Y-91485000D01*
X120222200Y-91485001D01*
X120055668Y-91540185D01*
X120055663Y-91540187D01*
X119906342Y-91632289D01*
X119782288Y-91756343D01*
X119782285Y-91756347D01*
X119768870Y-91778097D01*
X119716922Y-91824822D01*
X119663332Y-91837000D01*
X114789710Y-91837000D01*
X114722671Y-91817315D01*
X114676916Y-91764511D01*
X114669935Y-91745094D01*
X114643710Y-91647219D01*
X114637525Y-91632288D01*
X114572168Y-91474501D01*
X114558405Y-91441274D01*
X114446948Y-91248226D01*
X114328343Y-91093656D01*
X114311248Y-91071377D01*
X114311242Y-91071370D01*
X114153629Y-90913757D01*
X114153622Y-90913751D01*
X113976782Y-90778058D01*
X113976780Y-90778057D01*
X113976774Y-90778052D01*
X113783726Y-90666595D01*
X113783722Y-90666593D01*
X113577790Y-90581293D01*
X113577783Y-90581291D01*
X113577781Y-90581290D01*
X113362463Y-90523596D01*
X113362457Y-90523595D01*
X113362452Y-90523594D01*
X113141466Y-90494501D01*
X113141463Y-90494500D01*
X113141457Y-90494500D01*
X112918543Y-90494500D01*
X112918537Y-90494500D01*
X112918533Y-90494501D01*
X112697547Y-90523594D01*
X112697540Y-90523595D01*
X112697537Y-90523596D01*
X112482219Y-90581290D01*
X112482209Y-90581293D01*
X112276277Y-90666593D01*
X112276273Y-90666595D01*
X112083226Y-90778052D01*
X112083217Y-90778058D01*
X111906377Y-90913751D01*
X111906370Y-90913757D01*
X111748757Y-91071370D01*
X111748751Y-91071377D01*
X111613058Y-91248217D01*
X111613052Y-91248226D01*
X111501595Y-91441273D01*
X111501593Y-91441277D01*
X111416293Y-91647209D01*
X111416291Y-91647216D01*
X111416290Y-91647219D01*
X111383267Y-91770465D01*
X111358597Y-91862534D01*
X111358594Y-91862547D01*
X111329501Y-92083533D01*
X111329500Y-92083549D01*
X105201500Y-92083549D01*
X105201500Y-85705519D01*
X105221185Y-85638480D01*
X105237819Y-85617838D01*
X108203838Y-82651819D01*
X108265161Y-82618334D01*
X108291519Y-82615500D01*
X108616496Y-82615500D01*
X108707540Y-82597389D01*
X108751828Y-82588580D01*
X108815569Y-82562177D01*
X108879307Y-82535777D01*
X108879308Y-82535776D01*
X108879311Y-82535775D01*
X108994043Y-82459114D01*
X110041339Y-81411816D01*
X110102660Y-81378333D01*
X110129009Y-81375499D01*
X110825008Y-81375499D01*
X110825016Y-81375498D01*
X110825019Y-81375498D01*
X110881302Y-81369748D01*
X110927797Y-81364999D01*
X111094334Y-81309814D01*
X111243656Y-81217712D01*
X111367712Y-81093656D01*
X111459814Y-80944334D01*
X111512448Y-80785493D01*
X111552219Y-80728051D01*
X111616735Y-80701228D01*
X111630153Y-80700500D01*
X115369846Y-80700500D01*
X115436885Y-80720185D01*
X115482640Y-80772989D01*
X115487552Y-80785496D01*
X115540185Y-80944331D01*
X115540187Y-80944336D01*
X115569565Y-80991966D01*
X115632288Y-81093656D01*
X115756344Y-81217712D01*
X115905666Y-81309814D01*
X116072203Y-81364999D01*
X116174991Y-81375500D01*
X116900008Y-81375499D01*
X116900016Y-81375498D01*
X116900019Y-81375498D01*
X116956302Y-81369748D01*
X117002797Y-81364999D01*
X117169334Y-81309814D01*
X117318656Y-81217712D01*
X117442712Y-81093656D01*
X117534814Y-80944334D01*
X117589999Y-80777797D01*
X117600500Y-80675009D01*
X117600500Y-80674986D01*
X118400001Y-80674986D01*
X118410494Y-80777697D01*
X118465641Y-80944119D01*
X118465643Y-80944124D01*
X118557684Y-81093345D01*
X118681654Y-81217315D01*
X118830875Y-81309356D01*
X118830880Y-81309358D01*
X118997302Y-81364505D01*
X118997309Y-81364506D01*
X119100019Y-81374999D01*
X119212499Y-81374999D01*
X119712500Y-81374999D01*
X119824972Y-81374999D01*
X119824986Y-81374998D01*
X119927697Y-81364505D01*
X120094119Y-81309358D01*
X120094124Y-81309356D01*
X120243345Y-81217315D01*
X120367315Y-81093345D01*
X120459356Y-80944124D01*
X120459358Y-80944119D01*
X120514505Y-80777697D01*
X120514506Y-80777690D01*
X120524999Y-80674986D01*
X120525000Y-80674973D01*
X120525000Y-80250000D01*
X119712500Y-80250000D01*
X119712500Y-81374999D01*
X119212499Y-81374999D01*
X119212500Y-81374998D01*
X119212500Y-80250000D01*
X118400001Y-80250000D01*
X118400001Y-80674986D01*
X117600500Y-80674986D01*
X117600499Y-79998368D01*
X117600499Y-79325013D01*
X118400000Y-79325013D01*
X118400000Y-79750000D01*
X119212500Y-79750000D01*
X119712500Y-79750000D01*
X120524999Y-79750000D01*
X120524999Y-79325028D01*
X120524998Y-79325013D01*
X120514505Y-79222302D01*
X120459358Y-79055880D01*
X120459356Y-79055875D01*
X120367315Y-78906654D01*
X120243345Y-78782684D01*
X120094124Y-78690643D01*
X120094119Y-78690641D01*
X119927697Y-78635494D01*
X119927690Y-78635493D01*
X119824986Y-78625000D01*
X119712500Y-78625000D01*
X119712500Y-79750000D01*
X119212500Y-79750000D01*
X119212500Y-78625000D01*
X119100027Y-78625000D01*
X119100012Y-78625001D01*
X118997302Y-78635494D01*
X118830880Y-78690641D01*
X118830875Y-78690643D01*
X118681654Y-78782684D01*
X118557684Y-78906654D01*
X118465643Y-79055875D01*
X118465641Y-79055880D01*
X118410494Y-79222302D01*
X118410493Y-79222309D01*
X118400000Y-79325013D01*
X117600499Y-79325013D01*
X117600499Y-79324998D01*
X117600498Y-79324981D01*
X117589999Y-79222203D01*
X117589998Y-79222200D01*
X117534814Y-79055666D01*
X117442712Y-78906344D01*
X117318656Y-78782288D01*
X117212286Y-78716679D01*
X117169336Y-78690187D01*
X117169331Y-78690185D01*
X117167862Y-78689698D01*
X117002797Y-78635001D01*
X117002795Y-78635000D01*
X116900010Y-78624500D01*
X116174998Y-78624500D01*
X116174980Y-78624501D01*
X116072203Y-78635000D01*
X116072200Y-78635001D01*
X115905668Y-78690185D01*
X115905663Y-78690187D01*
X115756342Y-78782289D01*
X115632289Y-78906342D01*
X115540187Y-79055663D01*
X115540185Y-79055668D01*
X115526142Y-79098048D01*
X115487551Y-79214506D01*
X115447781Y-79271949D01*
X115383265Y-79298772D01*
X115369847Y-79299500D01*
X111630154Y-79299500D01*
X111563115Y-79279815D01*
X111517360Y-79227011D01*
X111512448Y-79214504D01*
X111482055Y-79122786D01*
X111459814Y-79055666D01*
X111367712Y-78906344D01*
X111243656Y-78782288D01*
X111137286Y-78716679D01*
X111094336Y-78690187D01*
X111094331Y-78690185D01*
X111092862Y-78689698D01*
X110927797Y-78635001D01*
X110927795Y-78635000D01*
X110825016Y-78624500D01*
X110273728Y-78624500D01*
X110206689Y-78604815D01*
X110160934Y-78552011D01*
X110150990Y-78482853D01*
X110180015Y-78419297D01*
X110186033Y-78412833D01*
X111592048Y-77006819D01*
X111653371Y-76973334D01*
X111679729Y-76970500D01*
X116913920Y-76970500D01*
X117011462Y-76951096D01*
X117058913Y-76941658D01*
X117195495Y-76885084D01*
X117318416Y-76802951D01*
X117422951Y-76698416D01*
X117456439Y-76648296D01*
X117471854Y-76629512D01*
X119327952Y-74773416D01*
X119377186Y-74699729D01*
X119410084Y-74650495D01*
X119466658Y-74513913D01*
X119495500Y-74368918D01*
X119495500Y-73971909D01*
X127811000Y-73971909D01*
X127811000Y-74204090D01*
X127847318Y-74433393D01*
X127919065Y-74654205D01*
X128024465Y-74861064D01*
X128081238Y-74939207D01*
X128684958Y-74335487D01*
X128709978Y-74395890D01*
X128781112Y-74502351D01*
X128871649Y-74592888D01*
X128978110Y-74664022D01*
X129038510Y-74689041D01*
X128434791Y-75292759D01*
X128434791Y-75292760D01*
X128512935Y-75349534D01*
X128719794Y-75454934D01*
X128940606Y-75526681D01*
X129169910Y-75563000D01*
X129402090Y-75563000D01*
X129631393Y-75526681D01*
X129852205Y-75454934D01*
X130059071Y-75349530D01*
X130137207Y-75292762D01*
X130137208Y-75292760D01*
X129533488Y-74689041D01*
X129593890Y-74664022D01*
X129700351Y-74592888D01*
X129790888Y-74502351D01*
X129862022Y-74395890D01*
X129887041Y-74335489D01*
X130490760Y-74939208D01*
X130490762Y-74939207D01*
X130547530Y-74861071D01*
X130652934Y-74654205D01*
X130724681Y-74433393D01*
X130761000Y-74204090D01*
X130761000Y-73971909D01*
X130724681Y-73742606D01*
X130652934Y-73521794D01*
X130547534Y-73314935D01*
X130490760Y-73236791D01*
X130490759Y-73236791D01*
X129887041Y-73840510D01*
X129862022Y-73780110D01*
X129790888Y-73673649D01*
X129700351Y-73583112D01*
X129593890Y-73511978D01*
X129533487Y-73486957D01*
X130137207Y-72883238D01*
X130059064Y-72826465D01*
X129852205Y-72721065D01*
X129631393Y-72649318D01*
X129402090Y-72613000D01*
X129169910Y-72613000D01*
X128940606Y-72649318D01*
X128719794Y-72721065D01*
X128512925Y-72826470D01*
X128434791Y-72883237D01*
X128434791Y-72883238D01*
X129038511Y-73486958D01*
X128978110Y-73511978D01*
X128871649Y-73583112D01*
X128781112Y-73673649D01*
X128709978Y-73780110D01*
X128684958Y-73840511D01*
X128081238Y-73236791D01*
X128081237Y-73236791D01*
X128024470Y-73314925D01*
X127919065Y-73521794D01*
X127847318Y-73742606D01*
X127811000Y-73971909D01*
X119495500Y-73971909D01*
X119495500Y-69870730D01*
X119515185Y-69803691D01*
X119567989Y-69757936D01*
X119637147Y-69747992D01*
X119666952Y-69756168D01*
X119796087Y-69809658D01*
X119796091Y-69809658D01*
X119796092Y-69809659D01*
X119941079Y-69838500D01*
X119941082Y-69838500D01*
X120088917Y-69838500D01*
X127944270Y-69838500D01*
X128011309Y-69858185D01*
X128044588Y-69889615D01*
X128160548Y-70049220D01*
X128160551Y-70049224D01*
X128324776Y-70213449D01*
X128512669Y-70349961D01*
X128562788Y-70375498D01*
X128719599Y-70455398D01*
X128719601Y-70455398D01*
X128719604Y-70455400D01*
X128940486Y-70527169D01*
X129058668Y-70545886D01*
X129169871Y-70563500D01*
X129169876Y-70563500D01*
X129402129Y-70563500D01*
X129503502Y-70547443D01*
X129631514Y-70527169D01*
X129852396Y-70455400D01*
X130059331Y-70349961D01*
X130247224Y-70213449D01*
X130411449Y-70049224D01*
X130547961Y-69861331D01*
X130653400Y-69654396D01*
X130725169Y-69433514D01*
X130745443Y-69305502D01*
X130761500Y-69204129D01*
X130761500Y-68971870D01*
X130731473Y-68782289D01*
X130725169Y-68742486D01*
X130653400Y-68521604D01*
X130653398Y-68521601D01*
X130653398Y-68521599D01*
X130579633Y-68376828D01*
X130547961Y-68314669D01*
X130411449Y-68126776D01*
X130247224Y-67962551D01*
X130059331Y-67826039D01*
X129852400Y-67720601D01*
X129631514Y-67648831D01*
X129402129Y-67612500D01*
X129402124Y-67612500D01*
X129169876Y-67612500D01*
X129169871Y-67612500D01*
X128940485Y-67648831D01*
X128719599Y-67720601D01*
X128512668Y-67826039D01*
X128324773Y-67962553D01*
X128160553Y-68126773D01*
X128160548Y-68126779D01*
X128044588Y-68286385D01*
X127989258Y-68329051D01*
X127944270Y-68337500D01*
X120377229Y-68337500D01*
X120310190Y-68317815D01*
X120289548Y-68301181D01*
X119531819Y-67543451D01*
X119498334Y-67482128D01*
X119495500Y-67455770D01*
X119495500Y-63426081D01*
X119492125Y-63409114D01*
X119486981Y-63383256D01*
X119466659Y-63281088D01*
X119429567Y-63191542D01*
X119410084Y-63144505D01*
X119350108Y-63054744D01*
X119327952Y-63021585D01*
X119327950Y-63021583D01*
X119327948Y-63021580D01*
X107158421Y-50852052D01*
X107158420Y-50852051D01*
X107132887Y-50834991D01*
X107077545Y-50798013D01*
X107077544Y-50798012D01*
X107035500Y-50769919D01*
X107035488Y-50769912D01*
X106898917Y-50713343D01*
X106898907Y-50713340D01*
X106753920Y-50684500D01*
X106753918Y-50684500D01*
X96613733Y-50684500D01*
X96546694Y-50664815D01*
X96500939Y-50612011D01*
X96496028Y-50599506D01*
X96491495Y-50585829D01*
X96484814Y-50565666D01*
X96392712Y-50416344D01*
X96268656Y-50292288D01*
X96119334Y-50200186D01*
X95952797Y-50145001D01*
X95952795Y-50145000D01*
X95850010Y-50134500D01*
X94649998Y-50134500D01*
X94649981Y-50134501D01*
X94547203Y-50145000D01*
X94547200Y-50145001D01*
X94380668Y-50200185D01*
X94380663Y-50200187D01*
X94231345Y-50292287D01*
X94162121Y-50361511D01*
X94100797Y-50394995D01*
X94031106Y-50390010D01*
X94001555Y-50374147D01*
X93931352Y-50323142D01*
X93749031Y-50230244D01*
X93554417Y-50167009D01*
X93352317Y-50135000D01*
X93147683Y-50135000D01*
X92945582Y-50167009D01*
X92750968Y-50230244D01*
X92568644Y-50323143D01*
X92524077Y-50355523D01*
X92524077Y-50355524D01*
X93203553Y-51035000D01*
X93197339Y-51035000D01*
X93095606Y-51062259D01*
X93004394Y-51114920D01*
X92929920Y-51189394D01*
X92877259Y-51280606D01*
X92850000Y-51382339D01*
X92850000Y-51388553D01*
X92170524Y-50709077D01*
X92170523Y-50709077D01*
X92138143Y-50753644D01*
X92045244Y-50935968D01*
X91982009Y-51130582D01*
X91950000Y-51332682D01*
X91950000Y-51537317D01*
X91982009Y-51739417D01*
X92045244Y-51934031D01*
X92138141Y-52116350D01*
X92138147Y-52116359D01*
X92170523Y-52160921D01*
X92170524Y-52160922D01*
X92850000Y-51481446D01*
X92850000Y-51487661D01*
X92877259Y-51589394D01*
X92929920Y-51680606D01*
X93004394Y-51755080D01*
X93095606Y-51807741D01*
X93197339Y-51835000D01*
X93203552Y-51835000D01*
X92524076Y-52514474D01*
X92568650Y-52546859D01*
X92750968Y-52639755D01*
X92945582Y-52702990D01*
X93147683Y-52735000D01*
X93352317Y-52735000D01*
X93554417Y-52702990D01*
X93749031Y-52639755D01*
X93931341Y-52546863D01*
X93931349Y-52546858D01*
X94001552Y-52495852D01*
X94067358Y-52472371D01*
X94135412Y-52488196D01*
X94162120Y-52508488D01*
X94231344Y-52577712D01*
X94380666Y-52669814D01*
X94414500Y-52681025D01*
X94471947Y-52720796D01*
X94498772Y-52785311D01*
X94499500Y-52798732D01*
X94499500Y-56010051D01*
X94479815Y-56077090D01*
X94448385Y-56110369D01*
X94382787Y-56158028D01*
X94382782Y-56158032D01*
X94238028Y-56302786D01*
X94117714Y-56468386D01*
X94090203Y-56522379D01*
X94042227Y-56573174D01*
X93974406Y-56589968D01*
X93908272Y-56567429D01*
X93869234Y-56522376D01*
X93841861Y-56468652D01*
X93809474Y-56424077D01*
X93809474Y-56424076D01*
X93130000Y-57103551D01*
X93130000Y-57097339D01*
X93102741Y-56995606D01*
X93050080Y-56904394D01*
X92975606Y-56829920D01*
X92884394Y-56777259D01*
X92782661Y-56750000D01*
X92776446Y-56750000D01*
X93455922Y-56070524D01*
X93455921Y-56070523D01*
X93411359Y-56038147D01*
X93411350Y-56038141D01*
X93229031Y-55945244D01*
X93034417Y-55882009D01*
X92832317Y-55850000D01*
X92627683Y-55850000D01*
X92425582Y-55882009D01*
X92230968Y-55945244D01*
X92048644Y-56038143D01*
X92004077Y-56070523D01*
X92004077Y-56070524D01*
X92683554Y-56750000D01*
X92677339Y-56750000D01*
X92575606Y-56777259D01*
X92484394Y-56829920D01*
X92409920Y-56904394D01*
X92357259Y-56995606D01*
X92330000Y-57097339D01*
X92330000Y-57103553D01*
X91650524Y-56424077D01*
X91650523Y-56424077D01*
X91618143Y-56468644D01*
X91525244Y-56650968D01*
X91462009Y-56845582D01*
X91430000Y-57047682D01*
X91430000Y-57252317D01*
X91462009Y-57454417D01*
X91525244Y-57649031D01*
X91618141Y-57831350D01*
X91618147Y-57831359D01*
X91650523Y-57875921D01*
X91650524Y-57875922D01*
X92330000Y-57196446D01*
X92330000Y-57202661D01*
X92357259Y-57304394D01*
X92409920Y-57395606D01*
X92484394Y-57470080D01*
X92575606Y-57522741D01*
X92677339Y-57550000D01*
X92683553Y-57550000D01*
X92004076Y-58229474D01*
X92048650Y-58261859D01*
X92230968Y-58354755D01*
X92425582Y-58417990D01*
X92627683Y-58450000D01*
X92832317Y-58450000D01*
X93034417Y-58417990D01*
X93229031Y-58354755D01*
X93411349Y-58261859D01*
X93455921Y-58229474D01*
X92776447Y-57550000D01*
X92782661Y-57550000D01*
X92884394Y-57522741D01*
X92975606Y-57470080D01*
X93050080Y-57395606D01*
X93102741Y-57304394D01*
X93130000Y-57202661D01*
X93130000Y-57196448D01*
X93809474Y-57875922D01*
X93809474Y-57875921D01*
X93841859Y-57831349D01*
X93869233Y-57777624D01*
X93917207Y-57726827D01*
X93985028Y-57710031D01*
X94051163Y-57732567D01*
X94090203Y-57777621D01*
X94117713Y-57831611D01*
X94238028Y-57997213D01*
X94238034Y-57997219D01*
X94382781Y-58141966D01*
X94428384Y-58175098D01*
X94471050Y-58230425D01*
X94479500Y-58275416D01*
X94479500Y-59173918D01*
X94479500Y-59173920D01*
X94479499Y-59173920D01*
X94508340Y-59318907D01*
X94508343Y-59318917D01*
X94564913Y-59455490D01*
X94564916Y-59455495D01*
X94585080Y-59485674D01*
X94585081Y-59485674D01*
X94611023Y-59524500D01*
X94643600Y-59573256D01*
X94647047Y-59578414D01*
X94647047Y-59578415D01*
X94966265Y-59897633D01*
X94999750Y-59958956D01*
X94997661Y-60019907D01*
X94982403Y-60072427D01*
X94982401Y-60072436D01*
X94979500Y-60109298D01*
X94979500Y-60540701D01*
X94982401Y-60577567D01*
X95010483Y-60674226D01*
X95010283Y-60744095D01*
X94972340Y-60802765D01*
X94908702Y-60831608D01*
X94855005Y-60824785D01*
X94854324Y-60827031D01*
X94848500Y-60825264D01*
X94848497Y-60825263D01*
X94848492Y-60825262D01*
X94848489Y-60825261D01*
X94693845Y-60794500D01*
X94693842Y-60794500D01*
X94536158Y-60794500D01*
X94536155Y-60794500D01*
X94381510Y-60825261D01*
X94381498Y-60825264D01*
X94235827Y-60885602D01*
X94235814Y-60885609D01*
X94104711Y-60973210D01*
X94104707Y-60973213D01*
X93993213Y-61084707D01*
X93993210Y-61084711D01*
X93905609Y-61215814D01*
X93905602Y-61215827D01*
X93845264Y-61361498D01*
X93845261Y-61361508D01*
X93827117Y-61452726D01*
X93794732Y-61514637D01*
X93734016Y-61549211D01*
X93664247Y-61545471D01*
X93607575Y-61504604D01*
X93581994Y-61439586D01*
X93581500Y-61428534D01*
X93581500Y-60657007D01*
X93577549Y-60637148D01*
X93565698Y-60577569D01*
X93554580Y-60521673D01*
X93552625Y-60516954D01*
X93504182Y-60400001D01*
X93501775Y-60394190D01*
X93425114Y-60279458D01*
X93425112Y-60279455D01*
X92926542Y-59780885D01*
X92811816Y-59704228D01*
X92811804Y-59704222D01*
X92778876Y-59690582D01*
X92738650Y-59663703D01*
X92731870Y-59656923D01*
X92731862Y-59656917D01*
X92653681Y-59610681D01*
X92590398Y-59573256D01*
X92590397Y-59573255D01*
X92590396Y-59573255D01*
X92590393Y-59573254D01*
X92432573Y-59527402D01*
X92432567Y-59527401D01*
X92395701Y-59524500D01*
X92395694Y-59524500D01*
X90614306Y-59524500D01*
X90614298Y-59524500D01*
X90577432Y-59527401D01*
X90577426Y-59527402D01*
X90419606Y-59573254D01*
X90419603Y-59573255D01*
X90362152Y-59607232D01*
X90299031Y-59624500D01*
X84606003Y-59624500D01*
X84508034Y-59643987D01*
X84508029Y-59643988D01*
X84497591Y-59646065D01*
X84470671Y-59651420D01*
X84343189Y-59704225D01*
X84331652Y-59711933D01*
X84318793Y-59716887D01*
X84297150Y-59718667D01*
X84276425Y-59725156D01*
X84254821Y-59723649D01*
X84102352Y-59699500D01*
X83939047Y-59699500D01*
X83872008Y-59679815D01*
X83826253Y-59627011D01*
X83816309Y-59557853D01*
X83845334Y-59494297D01*
X83851366Y-59487819D01*
X84144112Y-59195073D01*
X84144112Y-59195072D01*
X84144114Y-59195071D01*
X84220775Y-59080339D01*
X84234006Y-59048398D01*
X84262084Y-58980609D01*
X84273580Y-58952856D01*
X84285945Y-58890694D01*
X84300500Y-58817524D01*
X84300500Y-58197205D01*
X84300500Y-58182479D01*
X84273580Y-58047144D01*
X84252900Y-57997219D01*
X84220775Y-57919661D01*
X84144114Y-57804929D01*
X84144112Y-57804926D01*
X79257573Y-52918387D01*
X79142835Y-52841722D01*
X79015360Y-52788921D01*
X79015350Y-52788918D01*
X78880024Y-52762000D01*
X78880022Y-52762000D01*
X78880021Y-52762000D01*
X78336668Y-52762000D01*
X78269629Y-52742315D01*
X78231130Y-52703097D01*
X78217714Y-52681347D01*
X78217711Y-52681343D01*
X78093657Y-52557289D01*
X78093656Y-52557288D01*
X77944334Y-52465186D01*
X77777797Y-52410001D01*
X77777795Y-52410000D01*
X77675010Y-52399500D01*
X76324998Y-52399500D01*
X76324981Y-52399501D01*
X76222203Y-52410000D01*
X76222200Y-52410001D01*
X76055668Y-52465185D01*
X76055663Y-52465187D01*
X75906342Y-52557289D01*
X75782289Y-52681342D01*
X75690187Y-52830663D01*
X75690185Y-52830668D01*
X75676276Y-52872644D01*
X75635001Y-52997203D01*
X75635001Y-52997204D01*
X75635000Y-52997204D01*
X75624500Y-53099983D01*
X75624500Y-53825001D01*
X75624501Y-53825019D01*
X75635000Y-53927796D01*
X75635001Y-53927799D01*
X75690185Y-54094331D01*
X75690187Y-54094336D01*
X75703716Y-54116270D01*
X75782288Y-54243656D01*
X75906344Y-54367712D01*
X76055666Y-54459814D01*
X76222203Y-54514999D01*
X76324991Y-54525500D01*
X77675008Y-54525499D01*
X77777797Y-54514999D01*
X77944334Y-54459814D01*
X78093656Y-54367712D01*
X78217712Y-54243656D01*
X78223337Y-54234534D01*
X78231130Y-54221903D01*
X78238715Y-54215080D01*
X78242955Y-54205797D01*
X78264255Y-54192108D01*
X78283078Y-54175178D01*
X78294714Y-54172533D01*
X78301733Y-54168023D01*
X78336668Y-54163000D01*
X78469509Y-54163000D01*
X78536548Y-54182685D01*
X78557190Y-54199319D01*
X82770189Y-58412318D01*
X82803674Y-58473641D01*
X82798690Y-58543333D01*
X82770189Y-58587680D01*
X81204415Y-60153454D01*
X81127750Y-60268192D01*
X81074949Y-60395667D01*
X81074946Y-60395678D01*
X81061030Y-60465641D01*
X81049885Y-60521673D01*
X81048028Y-60531007D01*
X81048028Y-61179534D01*
X81048028Y-61317522D01*
X81048028Y-61317524D01*
X81048027Y-61317524D01*
X81074946Y-61452850D01*
X81074949Y-61452860D01*
X81127750Y-61580335D01*
X81204415Y-61695073D01*
X81204416Y-61695074D01*
X82683194Y-63173851D01*
X82716679Y-63235174D01*
X82717986Y-63280929D01*
X82699500Y-63397647D01*
X82699500Y-63602351D01*
X82731522Y-63804534D01*
X82794781Y-63999223D01*
X82845713Y-64099181D01*
X82887712Y-64181609D01*
X82887715Y-64181613D01*
X83008028Y-64347213D01*
X83152784Y-64491969D01*
X83248385Y-64561426D01*
X83291051Y-64616755D01*
X83299500Y-64661744D01*
X83299500Y-68498506D01*
X83299500Y-68636494D01*
X83299500Y-68636496D01*
X83299499Y-68636496D01*
X83326418Y-68771822D01*
X83326421Y-68771832D01*
X83379222Y-68899307D01*
X83455887Y-69014045D01*
X83455888Y-69014046D01*
X84948181Y-70506338D01*
X84981666Y-70567661D01*
X84984500Y-70594019D01*
X84984500Y-71290001D01*
X84984501Y-71290019D01*
X84995000Y-71392796D01*
X85008144Y-71432460D01*
X85039305Y-71526496D01*
X85041707Y-71596324D01*
X85005976Y-71656366D01*
X84943455Y-71687559D01*
X84921599Y-71689500D01*
X79165316Y-71689500D01*
X79117864Y-71680061D01*
X78973501Y-71620264D01*
X78973489Y-71620261D01*
X78818845Y-71589500D01*
X78818842Y-71589500D01*
X78661158Y-71589500D01*
X78661155Y-71589500D01*
X78506510Y-71620261D01*
X78506498Y-71620264D01*
X78360827Y-71680602D01*
X78360814Y-71680609D01*
X78229711Y-71768210D01*
X78229707Y-71768213D01*
X78118213Y-71879707D01*
X78118210Y-71879711D01*
X78030609Y-72010814D01*
X78030602Y-72010827D01*
X77970264Y-72156498D01*
X77970261Y-72156510D01*
X77939500Y-72311153D01*
X77939500Y-72468846D01*
X77970261Y-72623489D01*
X77970264Y-72623501D01*
X78030602Y-72769172D01*
X78030609Y-72769185D01*
X78118210Y-72900288D01*
X78118213Y-72900292D01*
X78229707Y-73011786D01*
X78229711Y-73011789D01*
X78360814Y-73099390D01*
X78360827Y-73099397D01*
X78506498Y-73159735D01*
X78506503Y-73159737D01*
X78626852Y-73183676D01*
X78661153Y-73190499D01*
X78661156Y-73190500D01*
X78661158Y-73190500D01*
X78818844Y-73190500D01*
X78818845Y-73190499D01*
X78973497Y-73159737D01*
X79060658Y-73123634D01*
X79117864Y-73099939D01*
X79165316Y-73090500D01*
X84921599Y-73090500D01*
X84988638Y-73110185D01*
X85034393Y-73162989D01*
X85044337Y-73232147D01*
X85039306Y-73253499D01*
X84995001Y-73387203D01*
X84995001Y-73387204D01*
X84995000Y-73387204D01*
X84984500Y-73489983D01*
X84984500Y-74185980D01*
X84964815Y-74253019D01*
X84948181Y-74273661D01*
X83275888Y-75945953D01*
X83275884Y-75945958D01*
X83251276Y-75982788D01*
X83245144Y-75991966D01*
X83245141Y-75991971D01*
X83199223Y-76060691D01*
X83146421Y-76188167D01*
X83146418Y-76188177D01*
X83119500Y-76323504D01*
X83119500Y-78314684D01*
X83110061Y-78362136D01*
X83050264Y-78506498D01*
X83050261Y-78506510D01*
X83019500Y-78661153D01*
X83019500Y-78818846D01*
X83050261Y-78973489D01*
X83050264Y-78973501D01*
X83101853Y-79098048D01*
X83109322Y-79167517D01*
X83078047Y-79229996D01*
X83017958Y-79265648D01*
X82987292Y-79269500D01*
X79901744Y-79269500D01*
X79834705Y-79249815D01*
X79801425Y-79218384D01*
X79800364Y-79216924D01*
X79767976Y-79172345D01*
X79731969Y-79122784D01*
X79587213Y-78978028D01*
X79421613Y-78857715D01*
X79421612Y-78857714D01*
X79421610Y-78857713D01*
X79364653Y-78828691D01*
X79239223Y-78764781D01*
X79044534Y-78701522D01*
X78869995Y-78673878D01*
X78842352Y-78669500D01*
X78637648Y-78669500D01*
X78613329Y-78673351D01*
X78435465Y-78701522D01*
X78240776Y-78764781D01*
X78058386Y-78857715D01*
X77892786Y-78978028D01*
X77748028Y-79122786D01*
X77627715Y-79288386D01*
X77534781Y-79470776D01*
X77471522Y-79665465D01*
X77453235Y-79780929D01*
X77439500Y-79867648D01*
X77439500Y-80072352D01*
X77443878Y-80099995D01*
X77471522Y-80274534D01*
X77534781Y-80469223D01*
X77557655Y-80514114D01*
X77627710Y-80651605D01*
X77627715Y-80651613D01*
X77748028Y-80817213D01*
X77892786Y-80961971D01*
X78015069Y-81050813D01*
X78058390Y-81082287D01*
X78174607Y-81141503D01*
X78240776Y-81175218D01*
X78240778Y-81175218D01*
X78240781Y-81175220D01*
X78345137Y-81209127D01*
X78435465Y-81238477D01*
X78536557Y-81254488D01*
X78637648Y-81270500D01*
X78637649Y-81270500D01*
X78842351Y-81270500D01*
X78842352Y-81270500D01*
X79044534Y-81238477D01*
X79239219Y-81175220D01*
X79421610Y-81082287D01*
X79514590Y-81014732D01*
X79587213Y-80961971D01*
X79587215Y-80961968D01*
X79587219Y-80961966D01*
X79731966Y-80817219D01*
X79801425Y-80721615D01*
X79856755Y-80678949D01*
X79901744Y-80670500D01*
X83032513Y-80670500D01*
X83099552Y-80690185D01*
X83145307Y-80742989D01*
X83155251Y-80812147D01*
X83144577Y-80847582D01*
X83140675Y-80855819D01*
X83110606Y-80900821D01*
X83050263Y-81046503D01*
X83050197Y-81046832D01*
X83048312Y-81050813D01*
X83043260Y-81056480D01*
X83023929Y-81085412D01*
X79465887Y-84643454D01*
X79389223Y-84758192D01*
X79336421Y-84885668D01*
X79336418Y-84885680D01*
X79330097Y-84917458D01*
X79330097Y-84917459D01*
X79309500Y-85021004D01*
X79309500Y-97364684D01*
X79307873Y-97372863D01*
X79308789Y-97377940D01*
X79300061Y-97412137D01*
X79243738Y-97548111D01*
X79199897Y-97602514D01*
X79133602Y-97624579D01*
X79065903Y-97607299D01*
X79041496Y-97588339D01*
X75237819Y-93784662D01*
X75204334Y-93723339D01*
X75201500Y-93696981D01*
X75201500Y-90917006D01*
X75221185Y-90849967D01*
X75273989Y-90804212D01*
X75343147Y-90794268D01*
X75406703Y-90823293D01*
X75443205Y-90878001D01*
X75465186Y-90944334D01*
X75557288Y-91093656D01*
X75681344Y-91217712D01*
X75830666Y-91309814D01*
X75997203Y-91364999D01*
X76099991Y-91375500D01*
X76825008Y-91375499D01*
X76825016Y-91375498D01*
X76825019Y-91375498D01*
X76881302Y-91369748D01*
X76927797Y-91364999D01*
X77094334Y-91309814D01*
X77243656Y-91217712D01*
X77367712Y-91093656D01*
X77459814Y-90944334D01*
X77514999Y-90777797D01*
X77525500Y-90675009D01*
X77525499Y-89324992D01*
X77514999Y-89222203D01*
X77459814Y-89055666D01*
X77367712Y-88906344D01*
X77243656Y-88782288D01*
X77094334Y-88690186D01*
X76927797Y-88635001D01*
X76927795Y-88635000D01*
X76825016Y-88624500D01*
X76825009Y-88624500D01*
X76623500Y-88624500D01*
X76556461Y-88604815D01*
X76510706Y-88552011D01*
X76499500Y-88500500D01*
X76499500Y-74867648D01*
X77439500Y-74867648D01*
X77439500Y-75072351D01*
X77471522Y-75274534D01*
X77534781Y-75469223D01*
X77549619Y-75498343D01*
X77627710Y-75651605D01*
X77627715Y-75651613D01*
X77748028Y-75817213D01*
X77892786Y-75961971D01*
X78028665Y-76060691D01*
X78058390Y-76082287D01*
X78174607Y-76141503D01*
X78240776Y-76175218D01*
X78240778Y-76175218D01*
X78240781Y-76175220D01*
X78343702Y-76208661D01*
X78435465Y-76238477D01*
X78536557Y-76254488D01*
X78637648Y-76270500D01*
X78637649Y-76270500D01*
X78842351Y-76270500D01*
X78842352Y-76270500D01*
X79044534Y-76238477D01*
X79239219Y-76175220D01*
X79421610Y-76082287D01*
X79514590Y-76014732D01*
X79587213Y-75961971D01*
X79587215Y-75961968D01*
X79587219Y-75961966D01*
X79731966Y-75817219D01*
X79731968Y-75817215D01*
X79731971Y-75817213D01*
X79784732Y-75744590D01*
X79852287Y-75651610D01*
X79945220Y-75469219D01*
X80008477Y-75274534D01*
X80040500Y-75072352D01*
X80040500Y-74867648D01*
X80023087Y-74757710D01*
X80008477Y-74665465D01*
X79959232Y-74513907D01*
X79945220Y-74470781D01*
X79945218Y-74470778D01*
X79945218Y-74470776D01*
X79893318Y-74368918D01*
X79852287Y-74288390D01*
X79803042Y-74220609D01*
X79731971Y-74122786D01*
X79587213Y-73978028D01*
X79421613Y-73857715D01*
X79421612Y-73857714D01*
X79421610Y-73857713D01*
X79364653Y-73828691D01*
X79239223Y-73764781D01*
X79044534Y-73701522D01*
X78868547Y-73673649D01*
X78842352Y-73669500D01*
X78637648Y-73669500D01*
X78613329Y-73673351D01*
X78435465Y-73701522D01*
X78240776Y-73764781D01*
X78058386Y-73857715D01*
X77892786Y-73978028D01*
X77748028Y-74122786D01*
X77627715Y-74288386D01*
X77534781Y-74470776D01*
X77471522Y-74665465D01*
X77439500Y-74867648D01*
X76499500Y-74867648D01*
X76499500Y-71499499D01*
X76519185Y-71432460D01*
X76571989Y-71386705D01*
X76623500Y-71375499D01*
X76825002Y-71375499D01*
X76825008Y-71375499D01*
X76927797Y-71364999D01*
X77094334Y-71309814D01*
X77243656Y-71217712D01*
X77367712Y-71093656D01*
X77459814Y-70944334D01*
X77514999Y-70777797D01*
X77525500Y-70675009D01*
X77525499Y-69324992D01*
X77514999Y-69222203D01*
X77459814Y-69055666D01*
X77367712Y-68906344D01*
X77243656Y-68782288D01*
X77094334Y-68690186D01*
X76927797Y-68635001D01*
X76927795Y-68635000D01*
X76825016Y-68624500D01*
X76825009Y-68624500D01*
X76323500Y-68624500D01*
X76256461Y-68604815D01*
X76210706Y-68552011D01*
X76199500Y-68500500D01*
X76199500Y-66499499D01*
X76219185Y-66432460D01*
X76271989Y-66386705D01*
X76323500Y-66375499D01*
X76825002Y-66375499D01*
X76825008Y-66375499D01*
X76927797Y-66364999D01*
X77094334Y-66309814D01*
X77243656Y-66217712D01*
X77367712Y-66093656D01*
X77459814Y-65944334D01*
X77514999Y-65777797D01*
X77525500Y-65675009D01*
X77525499Y-64979017D01*
X77545183Y-64911979D01*
X77561813Y-64891342D01*
X80554114Y-61899043D01*
X80630775Y-61784311D01*
X80683580Y-61656828D01*
X80694722Y-61600815D01*
X80710500Y-61521496D01*
X80710500Y-58351004D01*
X80683581Y-58215677D01*
X80683580Y-58215676D01*
X80683580Y-58215672D01*
X80668660Y-58179652D01*
X80666729Y-58174990D01*
X80632035Y-58091232D01*
X80632030Y-58091219D01*
X80630777Y-58088195D01*
X80630775Y-58088189D01*
X80569987Y-57997213D01*
X80554115Y-57973459D01*
X80507704Y-57927048D01*
X80456542Y-57875886D01*
X79832973Y-57252317D01*
X77916546Y-55335888D01*
X77916545Y-55335887D01*
X77801807Y-55259222D01*
X77674332Y-55206421D01*
X77674322Y-55206418D01*
X77538996Y-55179500D01*
X77538994Y-55179500D01*
X77538993Y-55179500D01*
X74001518Y-55179500D01*
X73934479Y-55159815D01*
X73913837Y-55143181D01*
X70247080Y-51476424D01*
X70245679Y-51473858D01*
X70243178Y-51472341D01*
X70229032Y-51443371D01*
X70213595Y-51415101D01*
X70213803Y-51412185D01*
X70212520Y-51409557D01*
X70216280Y-51377551D01*
X70218579Y-51345409D01*
X70220331Y-51343067D01*
X70220673Y-51340164D01*
X70241138Y-51315273D01*
X70260451Y-51289476D01*
X70263753Y-51287768D01*
X70265048Y-51286195D01*
X70277164Y-51280837D01*
X70296762Y-51270709D01*
X70302882Y-51268738D01*
X70304534Y-51268477D01*
X70394523Y-51239236D01*
X70397065Y-51239171D01*
X70456718Y-51235655D01*
X70468506Y-51238000D01*
X70468507Y-51238000D01*
X75663332Y-51238000D01*
X75730371Y-51257685D01*
X75768870Y-51296903D01*
X75782285Y-51318652D01*
X75782288Y-51318656D01*
X75906344Y-51442712D01*
X76055666Y-51534814D01*
X76222203Y-51589999D01*
X76324991Y-51600500D01*
X77675008Y-51600499D01*
X77777797Y-51589999D01*
X77944334Y-51534814D01*
X78093656Y-51442712D01*
X78217712Y-51318656D01*
X78231129Y-51296903D01*
X78252215Y-51262719D01*
X78309810Y-51169340D01*
X78309814Y-51169334D01*
X78364999Y-51002797D01*
X78375500Y-50900009D01*
X78375499Y-50174992D01*
X78372435Y-50145001D01*
X78364999Y-50072203D01*
X78364998Y-50072200D01*
X78317494Y-49928843D01*
X78309814Y-49905666D01*
X78217712Y-49756344D01*
X78093656Y-49632288D01*
X77944334Y-49540186D01*
X77777797Y-49485001D01*
X77777795Y-49485000D01*
X77675010Y-49474500D01*
X76324998Y-49474500D01*
X76324981Y-49474501D01*
X76222203Y-49485000D01*
X76222200Y-49485001D01*
X76055668Y-49540185D01*
X76055663Y-49540187D01*
X75906342Y-49632289D01*
X75782288Y-49756343D01*
X75782285Y-49756347D01*
X75768870Y-49778097D01*
X75716922Y-49824822D01*
X75663332Y-49837000D01*
X71396800Y-49837000D01*
X71329761Y-49817315D01*
X71284006Y-49764511D01*
X71274327Y-49732399D01*
X71272417Y-49720346D01*
X71268477Y-49695466D01*
X71205220Y-49500781D01*
X71205218Y-49500778D01*
X71205218Y-49500776D01*
X71141501Y-49375726D01*
X71112287Y-49318390D01*
X71075923Y-49268339D01*
X70991971Y-49152786D01*
X70847213Y-49008028D01*
X70681613Y-48887715D01*
X70681612Y-48887714D01*
X70681610Y-48887713D01*
X70624653Y-48858691D01*
X70499223Y-48794781D01*
X70304534Y-48731522D01*
X70129995Y-48703878D01*
X70102352Y-48699500D01*
X69897648Y-48699500D01*
X69873329Y-48703351D01*
X69695465Y-48731522D01*
X69500776Y-48794781D01*
X69318386Y-48887715D01*
X69152786Y-49008028D01*
X69008028Y-49152786D01*
X68887715Y-49318386D01*
X68794781Y-49500776D01*
X68730017Y-49700100D01*
X68728684Y-49699667D01*
X68697032Y-49754783D01*
X68635003Y-49786942D01*
X68565435Y-49780460D01*
X68523575Y-49752918D01*
X66487823Y-47717165D01*
X66404207Y-47633549D01*
X111329500Y-47633549D01*
X111329500Y-47856450D01*
X111329501Y-47856466D01*
X111358594Y-48077452D01*
X111358595Y-48077457D01*
X111358596Y-48077463D01*
X111358597Y-48077465D01*
X111416290Y-48292780D01*
X111416293Y-48292790D01*
X111475406Y-48435500D01*
X111501595Y-48498726D01*
X111613052Y-48691774D01*
X111613057Y-48691780D01*
X111613058Y-48691782D01*
X111748751Y-48868622D01*
X111748757Y-48868629D01*
X111906370Y-49026242D01*
X111906376Y-49026247D01*
X112083226Y-49161948D01*
X112083228Y-49161949D01*
X112083232Y-49161952D01*
X112201706Y-49230353D01*
X112267500Y-49268339D01*
X112315716Y-49318906D01*
X112329500Y-49375726D01*
X112329500Y-53423506D01*
X112329500Y-53561494D01*
X112329500Y-53561496D01*
X112329499Y-53561496D01*
X112356418Y-53696822D01*
X112356421Y-53696832D01*
X112409222Y-53824307D01*
X112485887Y-53939045D01*
X112485888Y-53939046D01*
X119588181Y-61041338D01*
X119621666Y-61102661D01*
X119624500Y-61129019D01*
X119624500Y-61825001D01*
X119624501Y-61825019D01*
X119635000Y-61927796D01*
X119635001Y-61927799D01*
X119680648Y-62065550D01*
X119690186Y-62094334D01*
X119782288Y-62243656D01*
X119906344Y-62367712D01*
X120055666Y-62459814D01*
X120222203Y-62514999D01*
X120324991Y-62525500D01*
X121675008Y-62525499D01*
X121777797Y-62514999D01*
X121944334Y-62459814D01*
X122093656Y-62367712D01*
X122217712Y-62243656D01*
X122309814Y-62094334D01*
X122364999Y-61927797D01*
X122375500Y-61825009D01*
X122375500Y-61824986D01*
X128625001Y-61824986D01*
X128635494Y-61927697D01*
X128690641Y-62094119D01*
X128690643Y-62094124D01*
X128782684Y-62243345D01*
X128906654Y-62367315D01*
X129055875Y-62459356D01*
X129055880Y-62459358D01*
X129222302Y-62514505D01*
X129222309Y-62514506D01*
X129325019Y-62524999D01*
X129749999Y-62524999D01*
X130250000Y-62524999D01*
X130674972Y-62524999D01*
X130674986Y-62524998D01*
X130777697Y-62514505D01*
X130944119Y-62459358D01*
X130944124Y-62459356D01*
X131093345Y-62367315D01*
X131217315Y-62243345D01*
X131309356Y-62094124D01*
X131309358Y-62094119D01*
X131364505Y-61927697D01*
X131364506Y-61927690D01*
X131374999Y-61824986D01*
X131375000Y-61824973D01*
X131375000Y-61712500D01*
X130250000Y-61712500D01*
X130250000Y-62524999D01*
X129749999Y-62524999D01*
X129750000Y-62524998D01*
X129750000Y-61712500D01*
X128625001Y-61712500D01*
X128625001Y-61824986D01*
X122375500Y-61824986D01*
X122375499Y-61452860D01*
X122375499Y-61100013D01*
X128625000Y-61100013D01*
X128625000Y-61212500D01*
X129750000Y-61212500D01*
X130250000Y-61212500D01*
X131374999Y-61212500D01*
X131374999Y-61100028D01*
X131374998Y-61100013D01*
X131364505Y-60997302D01*
X131309358Y-60830880D01*
X131309356Y-60830875D01*
X131217315Y-60681654D01*
X131093345Y-60557684D01*
X130944124Y-60465643D01*
X130944119Y-60465641D01*
X130777697Y-60410494D01*
X130777690Y-60410493D01*
X130674986Y-60400000D01*
X130250000Y-60400000D01*
X130250000Y-61212500D01*
X129750000Y-61212500D01*
X129750000Y-60400000D01*
X129325028Y-60400000D01*
X129325012Y-60400001D01*
X129222302Y-60410494D01*
X129055880Y-60465641D01*
X129055875Y-60465643D01*
X128906654Y-60557684D01*
X128782684Y-60681654D01*
X128690643Y-60830875D01*
X128690641Y-60830880D01*
X128635494Y-60997302D01*
X128635493Y-60997309D01*
X128625000Y-61100013D01*
X122375499Y-61100013D01*
X122375499Y-61099998D01*
X122375498Y-61099980D01*
X122364999Y-60997203D01*
X122364998Y-60997200D01*
X122352131Y-60958371D01*
X122309814Y-60830666D01*
X122217712Y-60681344D01*
X122093656Y-60557288D01*
X121978373Y-60486181D01*
X121944336Y-60465187D01*
X121944331Y-60465185D01*
X121926242Y-60459191D01*
X121777797Y-60410001D01*
X121777795Y-60410000D01*
X121675016Y-60399500D01*
X121675009Y-60399500D01*
X120979019Y-60399500D01*
X120911980Y-60379815D01*
X120891338Y-60363181D01*
X120340337Y-59812180D01*
X120306852Y-59750857D01*
X120311836Y-59681165D01*
X120353708Y-59625232D01*
X120419172Y-59600815D01*
X120427992Y-59600499D01*
X121675008Y-59600499D01*
X121777797Y-59589999D01*
X121944334Y-59534814D01*
X122093656Y-59442712D01*
X122217712Y-59318656D01*
X122223337Y-59309534D01*
X122231130Y-59296903D01*
X122283078Y-59250178D01*
X122336668Y-59238000D01*
X128663332Y-59238000D01*
X128730371Y-59257685D01*
X128768870Y-59296903D01*
X128782285Y-59318652D01*
X128782288Y-59318656D01*
X128906344Y-59442712D01*
X129055666Y-59534814D01*
X129222203Y-59589999D01*
X129324991Y-59600500D01*
X130675008Y-59600499D01*
X130777797Y-59589999D01*
X130944334Y-59534814D01*
X131093656Y-59442712D01*
X131217712Y-59318656D01*
X131309814Y-59169334D01*
X131364999Y-59002797D01*
X131375500Y-58900009D01*
X131375499Y-58179651D01*
X131395183Y-58112613D01*
X131396398Y-58110760D01*
X131430770Y-58059319D01*
X131430771Y-58059316D01*
X131430775Y-58059311D01*
X131483580Y-57931828D01*
X131499742Y-57850579D01*
X131510500Y-57796496D01*
X131510500Y-53992204D01*
X131530185Y-53925165D01*
X131546819Y-53904523D01*
X131568360Y-53882982D01*
X131649414Y-53801928D01*
X131751232Y-53661788D01*
X131829873Y-53507445D01*
X131883402Y-53342701D01*
X131910500Y-53171611D01*
X131910500Y-51998389D01*
X131883402Y-51827299D01*
X131829873Y-51662555D01*
X131751232Y-51508212D01*
X131649414Y-51368072D01*
X131526928Y-51245586D01*
X131386788Y-51143768D01*
X131232445Y-51065127D01*
X131067701Y-51011598D01*
X131067699Y-51011597D01*
X131067698Y-51011597D01*
X130936271Y-50990781D01*
X130896611Y-50984500D01*
X130723389Y-50984500D01*
X130683728Y-50990781D01*
X130552302Y-51011597D01*
X130387552Y-51065128D01*
X130233211Y-51143768D01*
X130170413Y-51189394D01*
X130093072Y-51245586D01*
X130093070Y-51245588D01*
X130093069Y-51245588D01*
X129970588Y-51368069D01*
X129970588Y-51368070D01*
X129970586Y-51368072D01*
X129940445Y-51409557D01*
X129868768Y-51508211D01*
X129790128Y-51662552D01*
X129736597Y-51827302D01*
X129735378Y-51835000D01*
X129709500Y-51998389D01*
X129709500Y-53171611D01*
X129717677Y-53223239D01*
X129735964Y-53338703D01*
X129736598Y-53342701D01*
X129790127Y-53507445D01*
X129868768Y-53661788D01*
X129970586Y-53801928D01*
X129970588Y-53801930D01*
X130073181Y-53904523D01*
X130106666Y-53965846D01*
X130109500Y-53992204D01*
X130109500Y-57350500D01*
X130089815Y-57417539D01*
X130037011Y-57463294D01*
X129985500Y-57474500D01*
X129324998Y-57474500D01*
X129324980Y-57474501D01*
X129222203Y-57485000D01*
X129222200Y-57485001D01*
X129055668Y-57540185D01*
X129055663Y-57540187D01*
X128906342Y-57632289D01*
X128782288Y-57756343D01*
X128782285Y-57756347D01*
X128768870Y-57778097D01*
X128716922Y-57824822D01*
X128663332Y-57837000D01*
X122336668Y-57837000D01*
X122269629Y-57817315D01*
X122231130Y-57778097D01*
X122217714Y-57756347D01*
X122217711Y-57756343D01*
X122093657Y-57632289D01*
X122093656Y-57632288D01*
X121944334Y-57540186D01*
X121891689Y-57522741D01*
X121785496Y-57487552D01*
X121728051Y-57447779D01*
X121701228Y-57383263D01*
X121700500Y-57369846D01*
X121700500Y-53771904D01*
X121720185Y-53704865D01*
X121724183Y-53699017D01*
X121725774Y-53696828D01*
X121751232Y-53661788D01*
X121829873Y-53507445D01*
X121883402Y-53342701D01*
X121910500Y-53171611D01*
X121910500Y-52501228D01*
X124959500Y-52501228D01*
X124959500Y-52668771D01*
X124992182Y-52833074D01*
X124992184Y-52833082D01*
X125056295Y-52987860D01*
X125149373Y-53127162D01*
X125267837Y-53245626D01*
X125360494Y-53307537D01*
X125407137Y-53338703D01*
X125561918Y-53402816D01*
X125665935Y-53423506D01*
X125726228Y-53435499D01*
X125726232Y-53435500D01*
X125726233Y-53435500D01*
X125893768Y-53435500D01*
X125893769Y-53435499D01*
X126058082Y-53402816D01*
X126212863Y-53338703D01*
X126352162Y-53245626D01*
X126470626Y-53127162D01*
X126563703Y-52987863D01*
X126627816Y-52833082D01*
X126660500Y-52668767D01*
X126660500Y-52501233D01*
X126627816Y-52336918D01*
X126563703Y-52182137D01*
X126532537Y-52135494D01*
X126470626Y-52042837D01*
X126352162Y-51924373D01*
X126212860Y-51831295D01*
X126058082Y-51767184D01*
X126058074Y-51767182D01*
X125893771Y-51734500D01*
X125893767Y-51734500D01*
X125726233Y-51734500D01*
X125726228Y-51734500D01*
X125561925Y-51767182D01*
X125561917Y-51767184D01*
X125407139Y-51831295D01*
X125267837Y-51924373D01*
X125149373Y-52042837D01*
X125056295Y-52182139D01*
X124992184Y-52336917D01*
X124992182Y-52336925D01*
X124959500Y-52501228D01*
X121910500Y-52501228D01*
X121910500Y-51998389D01*
X121883402Y-51827299D01*
X121829873Y-51662555D01*
X121751232Y-51508212D01*
X121649414Y-51368072D01*
X121526928Y-51245586D01*
X121386788Y-51143768D01*
X121232445Y-51065127D01*
X121067701Y-51011598D01*
X121067699Y-51011597D01*
X121067698Y-51011597D01*
X120936271Y-50990781D01*
X120896611Y-50984500D01*
X120723389Y-50984500D01*
X120683728Y-50990781D01*
X120552302Y-51011597D01*
X120387552Y-51065128D01*
X120233211Y-51143768D01*
X120170413Y-51189394D01*
X120093072Y-51245586D01*
X120093070Y-51245588D01*
X120093069Y-51245588D01*
X119970588Y-51368069D01*
X119970588Y-51368070D01*
X119970586Y-51368072D01*
X119940445Y-51409557D01*
X119868768Y-51508211D01*
X119790128Y-51662552D01*
X119736597Y-51827302D01*
X119735378Y-51835000D01*
X119709500Y-51998389D01*
X119709500Y-53171611D01*
X119717677Y-53223239D01*
X119735964Y-53338703D01*
X119736598Y-53342701D01*
X119790127Y-53507445D01*
X119868768Y-53661788D01*
X119970586Y-53801928D01*
X120093072Y-53924414D01*
X120125599Y-53948046D01*
X120233207Y-54026229D01*
X120237360Y-54028773D01*
X120236585Y-54030037D01*
X120282585Y-54073474D01*
X120299500Y-54135994D01*
X120299500Y-57369845D01*
X120279815Y-57436884D01*
X120227011Y-57482639D01*
X120214505Y-57487551D01*
X120055666Y-57540186D01*
X120055663Y-57540187D01*
X119906342Y-57632289D01*
X119782289Y-57756342D01*
X119690187Y-57905663D01*
X119690185Y-57905668D01*
X119681519Y-57931822D01*
X119635001Y-58072203D01*
X119635001Y-58072204D01*
X119635000Y-58072204D01*
X119624500Y-58174983D01*
X119624500Y-58796981D01*
X119604815Y-58864020D01*
X119552011Y-58909775D01*
X119482853Y-58919719D01*
X119419297Y-58890694D01*
X119412819Y-58884662D01*
X113766819Y-53238662D01*
X113733334Y-53177339D01*
X113730500Y-53150981D01*
X113730500Y-49375726D01*
X113750185Y-49308687D01*
X113792499Y-49268339D01*
X113976774Y-49161948D01*
X114153624Y-49026247D01*
X114311247Y-48868624D01*
X114446948Y-48691774D01*
X114558405Y-48498726D01*
X114643710Y-48292781D01*
X114701404Y-48077463D01*
X114730500Y-47856457D01*
X114730500Y-47633543D01*
X114713080Y-47501228D01*
X119959500Y-47501228D01*
X119959500Y-47668771D01*
X119992182Y-47833074D01*
X119992184Y-47833082D01*
X120056295Y-47987860D01*
X120149373Y-48127162D01*
X120267837Y-48245626D01*
X120351612Y-48301602D01*
X120407137Y-48338703D01*
X120561918Y-48402816D01*
X120726228Y-48435499D01*
X120726232Y-48435500D01*
X120726233Y-48435500D01*
X120893768Y-48435500D01*
X120893769Y-48435499D01*
X121058082Y-48402816D01*
X121212863Y-48338703D01*
X121352162Y-48245626D01*
X121470626Y-48127162D01*
X121563703Y-47987863D01*
X121627022Y-47835000D01*
X124235885Y-47835000D01*
X124237085Y-47842584D01*
X124290591Y-48007255D01*
X124369195Y-48161524D01*
X124470967Y-48301602D01*
X124593397Y-48424032D01*
X124733475Y-48525804D01*
X124887742Y-48604408D01*
X125052415Y-48657914D01*
X125223429Y-48685000D01*
X125560000Y-48685000D01*
X126060000Y-48685000D01*
X126396571Y-48685000D01*
X126567584Y-48657914D01*
X126732257Y-48604408D01*
X126886524Y-48525804D01*
X127026602Y-48424032D01*
X127149032Y-48301602D01*
X127250804Y-48161524D01*
X127329408Y-48007255D01*
X127382914Y-47842584D01*
X127384115Y-47835000D01*
X126060000Y-47835000D01*
X126060000Y-48685000D01*
X125560000Y-48685000D01*
X125560000Y-47835000D01*
X124235885Y-47835000D01*
X121627022Y-47835000D01*
X121627816Y-47833082D01*
X121660500Y-47668767D01*
X121660500Y-47545218D01*
X125110000Y-47545218D01*
X125110000Y-47624782D01*
X125140448Y-47698291D01*
X125196709Y-47754552D01*
X125270218Y-47785000D01*
X126349782Y-47785000D01*
X126423291Y-47754552D01*
X126479552Y-47698291D01*
X126510000Y-47624782D01*
X126510000Y-47545218D01*
X126491779Y-47501228D01*
X129959500Y-47501228D01*
X129959500Y-47668771D01*
X129992182Y-47833074D01*
X129992184Y-47833082D01*
X130056295Y-47987860D01*
X130149373Y-48127162D01*
X130267837Y-48245626D01*
X130351612Y-48301602D01*
X130407137Y-48338703D01*
X130561918Y-48402816D01*
X130726228Y-48435499D01*
X130726232Y-48435500D01*
X130726233Y-48435500D01*
X130893768Y-48435500D01*
X130893769Y-48435499D01*
X131058082Y-48402816D01*
X131212863Y-48338703D01*
X131352162Y-48245626D01*
X131470626Y-48127162D01*
X131563703Y-47987863D01*
X131627816Y-47833082D01*
X131660500Y-47668767D01*
X131660500Y-47501233D01*
X131627816Y-47336918D01*
X131563703Y-47182137D01*
X131532537Y-47135494D01*
X131470626Y-47042837D01*
X131352162Y-46924373D01*
X131212860Y-46831295D01*
X131058082Y-46767184D01*
X131058074Y-46767182D01*
X130893771Y-46734500D01*
X130893767Y-46734500D01*
X130726233Y-46734500D01*
X130726228Y-46734500D01*
X130561925Y-46767182D01*
X130561917Y-46767184D01*
X130407139Y-46831295D01*
X130267837Y-46924373D01*
X130149373Y-47042837D01*
X130056295Y-47182139D01*
X129992184Y-47336917D01*
X129992182Y-47336925D01*
X129959500Y-47501228D01*
X126491779Y-47501228D01*
X126479552Y-47471709D01*
X126423291Y-47415448D01*
X126349782Y-47385000D01*
X125270218Y-47385000D01*
X125196709Y-47415448D01*
X125140448Y-47471709D01*
X125110000Y-47545218D01*
X121660500Y-47545218D01*
X121660500Y-47501233D01*
X121627816Y-47336918D01*
X121627021Y-47334999D01*
X124235884Y-47334999D01*
X124235885Y-47335000D01*
X125560000Y-47335000D01*
X126060000Y-47335000D01*
X127384115Y-47335000D01*
X127384115Y-47334999D01*
X127382914Y-47327415D01*
X127329408Y-47162744D01*
X127250804Y-47008475D01*
X127149032Y-46868397D01*
X127026602Y-46745967D01*
X126886524Y-46644195D01*
X126732257Y-46565591D01*
X126567584Y-46512085D01*
X126396571Y-46485000D01*
X126060000Y-46485000D01*
X126060000Y-47335000D01*
X125560000Y-47335000D01*
X125560000Y-46485000D01*
X125223429Y-46485000D01*
X125052415Y-46512085D01*
X124887742Y-46565591D01*
X124733475Y-46644195D01*
X124593397Y-46745967D01*
X124470967Y-46868397D01*
X124369195Y-47008475D01*
X124290591Y-47162744D01*
X124237085Y-47327415D01*
X124235884Y-47334999D01*
X121627021Y-47334999D01*
X121563703Y-47182137D01*
X121532537Y-47135494D01*
X121470626Y-47042837D01*
X121352162Y-46924373D01*
X121212860Y-46831295D01*
X121058082Y-46767184D01*
X121058074Y-46767182D01*
X120893771Y-46734500D01*
X120893767Y-46734500D01*
X120726233Y-46734500D01*
X120726228Y-46734500D01*
X120561925Y-46767182D01*
X120561917Y-46767184D01*
X120407139Y-46831295D01*
X120267837Y-46924373D01*
X120149373Y-47042837D01*
X120056295Y-47182139D01*
X119992184Y-47336917D01*
X119992182Y-47336925D01*
X119959500Y-47501228D01*
X114713080Y-47501228D01*
X114701404Y-47412537D01*
X114643710Y-47197219D01*
X114558405Y-46991274D01*
X114446948Y-46798226D01*
X114311247Y-46621376D01*
X114311242Y-46621370D01*
X114153629Y-46463757D01*
X114153622Y-46463751D01*
X113976782Y-46328058D01*
X113976780Y-46328057D01*
X113976774Y-46328052D01*
X113783726Y-46216595D01*
X113783722Y-46216593D01*
X113577790Y-46131293D01*
X113577783Y-46131291D01*
X113577781Y-46131290D01*
X113362463Y-46073596D01*
X113362457Y-46073595D01*
X113362452Y-46073594D01*
X113141466Y-46044501D01*
X113141463Y-46044500D01*
X113141457Y-46044500D01*
X112918543Y-46044500D01*
X112918537Y-46044500D01*
X112918533Y-46044501D01*
X112697547Y-46073594D01*
X112697540Y-46073595D01*
X112697537Y-46073596D01*
X112482219Y-46131290D01*
X112482209Y-46131293D01*
X112276277Y-46216593D01*
X112276273Y-46216595D01*
X112083226Y-46328052D01*
X112083217Y-46328058D01*
X111906377Y-46463751D01*
X111906370Y-46463757D01*
X111748757Y-46621370D01*
X111748751Y-46621377D01*
X111613058Y-46798217D01*
X111613052Y-46798226D01*
X111501595Y-46991273D01*
X111501593Y-46991277D01*
X111416293Y-47197209D01*
X111416290Y-47197219D01*
X111363093Y-47395756D01*
X111358597Y-47412534D01*
X111358594Y-47412547D01*
X111329501Y-47633533D01*
X111329500Y-47633549D01*
X66404207Y-47633549D01*
X65376545Y-46605887D01*
X65261807Y-46529222D01*
X65134332Y-46476421D01*
X65134322Y-46476418D01*
X64998996Y-46449500D01*
X64998994Y-46449500D01*
X64998993Y-46449500D01*
X59274499Y-46449500D01*
X59207460Y-46429815D01*
X59161705Y-46377011D01*
X59150499Y-46325500D01*
X59150499Y-45602129D01*
X59150498Y-45602123D01*
X59150497Y-45602116D01*
X59144091Y-45542517D01*
X59123706Y-45487863D01*
X59093797Y-45407671D01*
X59093793Y-45407664D01*
X59007547Y-45292455D01*
X59007544Y-45292452D01*
X58892335Y-45206206D01*
X58892328Y-45206202D01*
X58757482Y-45155908D01*
X58757483Y-45155908D01*
X58697883Y-45149501D01*
X58697881Y-45149500D01*
X58697873Y-45149500D01*
X58697864Y-45149500D01*
X55602129Y-45149500D01*
X55602123Y-45149501D01*
X55542516Y-45155908D01*
X55407671Y-45206202D01*
X55407664Y-45206206D01*
X55292455Y-45292452D01*
X55292452Y-45292455D01*
X55206206Y-45407664D01*
X55206202Y-45407671D01*
X55155908Y-45542517D01*
X55149501Y-45602116D01*
X55149501Y-45602123D01*
X55149500Y-45602135D01*
X53840500Y-45602135D01*
X53840500Y-45001228D01*
X119959500Y-45001228D01*
X119959500Y-45168771D01*
X119992182Y-45333074D01*
X119992184Y-45333082D01*
X120056295Y-45487860D01*
X120149373Y-45627162D01*
X120267837Y-45745626D01*
X120360494Y-45807537D01*
X120407137Y-45838703D01*
X120561918Y-45902816D01*
X120726228Y-45935499D01*
X120726232Y-45935500D01*
X120726233Y-45935500D01*
X120893768Y-45935500D01*
X120893769Y-45935499D01*
X121058082Y-45902816D01*
X121212863Y-45838703D01*
X121352162Y-45745626D01*
X121470626Y-45627162D01*
X121563703Y-45487863D01*
X121627816Y-45333082D01*
X121660500Y-45168767D01*
X121660500Y-45001233D01*
X121660499Y-45001228D01*
X129959500Y-45001228D01*
X129959500Y-45168771D01*
X129992182Y-45333074D01*
X129992184Y-45333082D01*
X130056295Y-45487860D01*
X130149373Y-45627162D01*
X130267837Y-45745626D01*
X130360494Y-45807537D01*
X130407137Y-45838703D01*
X130561918Y-45902816D01*
X130726228Y-45935499D01*
X130726232Y-45935500D01*
X130726233Y-45935500D01*
X130893768Y-45935500D01*
X130893769Y-45935499D01*
X131058082Y-45902816D01*
X131212863Y-45838703D01*
X131352162Y-45745626D01*
X131470626Y-45627162D01*
X131563703Y-45487863D01*
X131627816Y-45333082D01*
X131660500Y-45168767D01*
X131660500Y-45001233D01*
X131627816Y-44836918D01*
X131563703Y-44682137D01*
X131532537Y-44635494D01*
X131470626Y-44542837D01*
X131352162Y-44424373D01*
X131212860Y-44331295D01*
X131058082Y-44267184D01*
X131058074Y-44267182D01*
X130893771Y-44234500D01*
X130893767Y-44234500D01*
X130726233Y-44234500D01*
X130726228Y-44234500D01*
X130561925Y-44267182D01*
X130561917Y-44267184D01*
X130407139Y-44331295D01*
X130267837Y-44424373D01*
X130149373Y-44542837D01*
X130056295Y-44682139D01*
X129992184Y-44836917D01*
X129992182Y-44836925D01*
X129959500Y-45001228D01*
X121660499Y-45001228D01*
X121627816Y-44836918D01*
X121563703Y-44682137D01*
X121532537Y-44635494D01*
X121470626Y-44542837D01*
X121352162Y-44424373D01*
X121212860Y-44331295D01*
X121058082Y-44267184D01*
X121058074Y-44267182D01*
X120893771Y-44234500D01*
X120893767Y-44234500D01*
X120726233Y-44234500D01*
X120726228Y-44234500D01*
X120561925Y-44267182D01*
X120561917Y-44267184D01*
X120407139Y-44331295D01*
X120267837Y-44424373D01*
X120149373Y-44542837D01*
X120056295Y-44682139D01*
X119992184Y-44836917D01*
X119992182Y-44836925D01*
X119959500Y-45001228D01*
X53840500Y-45001228D01*
X53840500Y-43804500D01*
X53860185Y-43737461D01*
X53912989Y-43691706D01*
X53964500Y-43680500D01*
X133995500Y-43680500D01*
X134062539Y-43700185D01*
G37*
%TD.AperFunction*%
%TD*%
M02*
