M48
; DRILL file {KiCad 9.0.5} date 2025-10-20T10:32:39-0500
; FORMAT={-:-/ absolute / inch / decimal}
; #@! TF.CreationDate,2025-10-20T10:32:39-05:00
; #@! TF.GenerationSoftware,Kicad,Pcbnew,9.0.5
; #@! TF.FileFunction,Plated,1,2,PTH
FMAT,2
INCH
; #@! TA.AperFunction,Plated,PTH,ViaDrill
T1C0.0118
; #@! TA.AperFunction,Plated,PTH,ComponentDrill
T2C0.0157
; #@! TA.AperFunction,Plated,PTH,ComponentDrill
T3C0.0315
; #@! TA.AperFunction,Plated,PTH,ComponentDrill
T4C0.0472
; #@! TA.AperFunction,Plated,PTH,ComponentDrill
T5C0.0512
%
G90
G05
T1
X2.5Y-3.05
X2.85Y-2.95
X3.05Y-2.35
X3.05Y-3.95
X3.1Y-2.85
X3.15Y-3.85
X3.3Y-3.1
X3.3Y-3.2
X3.525Y-2.475
X3.525Y-2.525
X3.675Y-3.825
X3.725Y-2.425
X3.725Y-2.625
X3.875Y-2.525
X3.875Y-3.775
X4.0Y-4.025
X5.1181Y-2.4803
T3
X2.7559Y-1.9685
X2.7559Y-2.1654
X2.7559Y-2.9528
X2.7559Y-3.1496
X2.7559Y-3.937
X2.7559Y-4.1339
X3.1Y-2.9516
X3.1Y-3.1484
X3.3071Y-2.4016
X3.3071Y-2.5
X3.65Y-3.625
X3.6508Y-2.25
X3.6508Y-4.025
X3.6713Y-2.025
X3.6713Y-3.4
X3.6713Y-4.25
X3.7484Y-3.625
X3.7492Y-2.25
X3.7492Y-4.025
X3.75Y-2.025
X3.75Y-3.4
X3.75Y-4.25
T4
X2.25Y-1.8563
X2.25Y-2.0531
X2.25Y-2.25
X2.25Y-2.8563
X2.25Y-3.0531
X2.25Y-3.25
X2.25Y-3.8563
X2.25Y-4.0531
X2.25Y-4.25
X4.45Y-1.8797
X4.45Y-2.4703
X4.45Y-3.6297
X4.45Y-4.2203
T5
X5.09Y-2.72
X5.09Y-2.9169
T2
G00X4.7563Y-2.0506
M15
G01X4.7563Y-2.09
M16
G05
G00X4.7563Y-4.0085
M15
G01X4.7563Y-4.0478
M16
G05
G00X4.9728Y-1.8734
M15
G01X4.9335Y-1.8734
M16
G05
G00X4.9335Y-4.225
M15
G01X4.9728Y-4.225
M16
G05
G00X5.15Y-2.09
M15
G01X5.15Y-2.0506
M16
G05
G00X5.15Y-4.0478
M15
G01X5.15Y-4.0085
M16
G05
M30
