%TF.GenerationSoftware,KiCad,Pcbnew,9.0.5*%
%TF.CreationDate,2025-10-20T10:37:31-05:00*%
%TF.ProjectId,preamp_better,70726561-6d70-45f6-9265-747465722e6b,0*%
%TF.SameCoordinates,Original*%
%TF.FileFunction,Soldermask,Bot*%
%TF.FilePolarity,Negative*%
%FSLAX46Y46*%
G04 Gerber Fmt 4.6, Leading zero omitted, Abs format (unit mm)*
G04 Created by KiCad (PCBNEW 9.0.5) date 2025-10-20 10:37:31*
%MOMM*%
%LPD*%
G01*
G04 APERTURE LIST*
G04 Aperture macros list*
%AMRoundRect*
0 Rectangle with rounded corners*
0 $1 Rounding radius*
0 $2 $3 $4 $5 $6 $7 $8 $9 X,Y pos of 4 corners*
0 Add a 4 corners polygon primitive as box body*
4,1,4,$2,$3,$4,$5,$6,$7,$8,$9,$2,$3,0*
0 Add four circle primitives for the rounded corners*
1,1,$1+$1,$2,$3*
1,1,$1+$1,$4,$5*
1,1,$1+$1,$6,$7*
1,1,$1+$1,$8,$9*
0 Add four rect primitives between the rounded corners*
20,1,$1+$1,$2,$3,$4,$5,0*
20,1,$1+$1,$4,$5,$6,$7,0*
20,1,$1+$1,$6,$7,$8,$9,0*
20,1,$1+$1,$8,$9,$2,$3,0*%
G04 Aperture macros list end*
%ADD10C,1.600000*%
%ADD11RoundRect,0.250000X0.550000X0.550000X-0.550000X0.550000X-0.550000X-0.550000X0.550000X-0.550000X0*%
%ADD12C,2.154000*%
%ADD13C,2.400000*%
%ADD14C,1.200000*%
%ADD15O,1.200000X2.200000*%
%ADD16O,2.200000X1.200000*%
%ADD17R,3.000000X3.000000*%
%ADD18C,3.000000*%
%ADD19RoundRect,0.250000X-0.550000X-0.550000X0.550000X-0.550000X0.550000X0.550000X-0.550000X0.550000X0*%
G04 APERTURE END LIST*
D10*
%TO.C,C9*%
X92730000Y-102235000D03*
X95230000Y-102235000D03*
%TD*%
%TO.C,C6*%
X92710000Y-92075000D03*
X95210000Y-92075000D03*
%TD*%
%TO.C,C2*%
X70000000Y-105000000D03*
X70000000Y-100000000D03*
%TD*%
D11*
%TO.C,C7*%
X95250000Y-51435000D03*
D10*
X93250000Y-51435000D03*
%TD*%
D12*
%TO.C,J2*%
X129286000Y-69088000D03*
X129286000Y-74088000D03*
%TD*%
D13*
%TO.C,C13*%
X113030000Y-62745000D03*
X113030000Y-47745000D03*
%TD*%
D10*
%TO.C,C3*%
X70000000Y-55000000D03*
X70000000Y-50000000D03*
%TD*%
%TO.C,C12*%
X78740000Y-79970000D03*
X78740000Y-74970000D03*
%TD*%
%TO.C,C8*%
X92730000Y-57150000D03*
X95230000Y-57150000D03*
%TD*%
D14*
%TO.C,J3*%
X130810000Y-47585000D03*
X130810000Y-45085000D03*
X125810000Y-52585000D03*
X120810000Y-47585000D03*
X120810000Y-45085000D03*
D15*
X130810000Y-52585000D03*
D16*
X125810000Y-47585000D03*
D15*
X120810000Y-52585000D03*
%TD*%
D10*
%TO.C,C11*%
X70000000Y-80000000D03*
X70000000Y-75000000D03*
%TD*%
D17*
%TO.C,RV2*%
X57150000Y-97950000D03*
D18*
X57150000Y-102950000D03*
X57150000Y-107950000D03*
%TD*%
D13*
%TO.C,C1*%
X113030000Y-92195000D03*
X113030000Y-107195000D03*
%TD*%
D14*
%TO.C,J1*%
X120810000Y-107315000D03*
X120810000Y-109815000D03*
X125810000Y-102315000D03*
X130810000Y-107315000D03*
X130810000Y-109815000D03*
D15*
X120810000Y-102315000D03*
D16*
X125810000Y-107315000D03*
D15*
X130810000Y-102315000D03*
%TD*%
D10*
%TO.C,C4*%
X84000000Y-61000000D03*
X84000000Y-63500000D03*
%TD*%
D19*
%TO.C,C10*%
X93250000Y-107950000D03*
D10*
X95250000Y-107950000D03*
%TD*%
D17*
%TO.C,RV1*%
X57150000Y-47150000D03*
D18*
X57150000Y-52150000D03*
X57150000Y-57150000D03*
%TD*%
D17*
%TO.C,RV3*%
X57150000Y-72550000D03*
D18*
X57150000Y-77550000D03*
X57150000Y-82550000D03*
%TD*%
D19*
%TO.C,C5*%
X93250000Y-86360000D03*
D10*
X95250000Y-86360000D03*
%TD*%
M02*
