%TF.GenerationSoftware,KiCad,Pcbnew,9.0.5*%
%TF.CreationDate,2025-11-11T15:33:08-06:00*%
%TF.ProjectId,preamp_v2,70726561-6d70-45f7-9632-2e6b69636164,0*%
%TF.SameCoordinates,Original*%
%TF.FileFunction,Soldermask,Bot*%
%TF.FilePolarity,Negative*%
%FSLAX46Y46*%
G04 Gerber Fmt 4.6, Leading zero omitted, Abs format (unit mm)*
G04 Created by KiCad (PCBNEW 9.0.5) date 2025-11-11 15:33:08*
%MOMM*%
%LPD*%
G01*
G04 APERTURE LIST*
G04 Aperture macros list*
%AMRoundRect*
0 Rectangle with rounded corners*
0 $1 Rounding radius*
0 $2 $3 $4 $5 $6 $7 $8 $9 X,Y pos of 4 corners*
0 Add a 4 corners polygon primitive as box body*
4,1,4,$2,$3,$4,$5,$6,$7,$8,$9,$2,$3,0*
0 Add four circle primitives for the rounded corners*
1,1,$1+$1,$2,$3*
1,1,$1+$1,$4,$5*
1,1,$1+$1,$6,$7*
1,1,$1+$1,$8,$9*
0 Add four rect primitives between the rounded corners*
20,1,$1+$1,$2,$3,$4,$5,0*
20,1,$1+$1,$4,$5,$6,$7,0*
20,1,$1+$1,$6,$7,$8,$9,0*
20,1,$1+$1,$8,$9,$2,$3,0*%
G04 Aperture macros list end*
%ADD10C,2.200000*%
%ADD11RoundRect,0.249999X-0.850001X0.850001X-0.850001X-0.850001X0.850001X-0.850001X0.850001X0.850001X0*%
%ADD12C,1.600000*%
%ADD13C,2.754000*%
%ADD14C,3.820000*%
%ADD15C,2.154000*%
%ADD16C,2.400000*%
%ADD17RoundRect,0.250000X-0.550000X0.550000X-0.550000X-0.550000X0.550000X-0.550000X0.550000X0.550000X0*%
%ADD18RoundRect,0.250000X-0.550000X-0.550000X0.550000X-0.550000X0.550000X0.550000X-0.550000X0.550000X0*%
%ADD19R,3.000000X3.000000*%
%ADD20C,3.000000*%
G04 APERTURE END LIST*
D10*
%TO.C,D1*%
X157750000Y-115410000D03*
D11*
X157750000Y-105250000D03*
%TD*%
D12*
%TO.C,C6*%
X152250000Y-105250000D03*
X152250000Y-107750000D03*
%TD*%
%TO.C,C8*%
X149750000Y-87250000D03*
X149750000Y-84750000D03*
%TD*%
D13*
%TO.C,J3*%
X152000000Y-71950000D03*
D14*
X157000000Y-71950000D03*
X147000000Y-71950000D03*
X152000000Y-67450000D03*
%TD*%
D15*
%TO.C,J2*%
X155000000Y-100000000D03*
X155000000Y-95000000D03*
%TD*%
D13*
%TO.C,J1*%
X152000000Y-128050000D03*
D14*
X147000000Y-128050000D03*
X157000000Y-128050000D03*
X152000000Y-132550000D03*
%TD*%
D16*
%TO.C,C13*%
X142500000Y-80000000D03*
X157500000Y-80000000D03*
%TD*%
D12*
%TO.C,C12*%
X140000000Y-97500000D03*
X140000000Y-102500000D03*
%TD*%
%TO.C,C11*%
X135000000Y-102500000D03*
X135000000Y-97500000D03*
%TD*%
D17*
%TO.C,C10*%
X152500000Y-115000000D03*
D12*
X152500000Y-117000000D03*
%TD*%
%TO.C,C9*%
X150500000Y-112000000D03*
X153000000Y-112000000D03*
%TD*%
D18*
%TO.C,C7*%
X154794888Y-87500000D03*
D12*
X156794888Y-87500000D03*
%TD*%
%TO.C,C5*%
X147044888Y-101250000D03*
D18*
X145044888Y-101250000D03*
%TD*%
D12*
%TO.C,C4*%
X134800000Y-90150000D03*
X134800000Y-92650000D03*
%TD*%
%TO.C,C3*%
X135500000Y-76500000D03*
X135500000Y-71500000D03*
%TD*%
%TO.C,C2*%
X135000000Y-127500000D03*
X135000000Y-122500000D03*
%TD*%
D16*
%TO.C,C1*%
X157500000Y-122500000D03*
X142500000Y-122500000D03*
%TD*%
D19*
%TO.C,RV2*%
X125000000Y-120000000D03*
D20*
X125000000Y-125000000D03*
X125000000Y-130000000D03*
%TD*%
D19*
%TO.C,RV1*%
X125000000Y-70000000D03*
D20*
X125000000Y-75000000D03*
X125000000Y-80000000D03*
%TD*%
D19*
%TO.C,RV3*%
X125000000Y-95000000D03*
D20*
X125000000Y-100000000D03*
X125000000Y-105000000D03*
%TD*%
M02*
