M48
; DRILL file {KiCad 9.0.5} date 2025-11-11T15:33:11-0600
; FORMAT={-:-/ absolute / inch / decimal}
; #@! TF.CreationDate,2025-11-11T15:33:11-06:00
; #@! TF.GenerationSoftware,Kicad,Pcbnew,9.0.5
; #@! TF.FileFunction,Plated,1,2,PTH
FMAT,2
INCH
; #@! TA.AperFunction,Plated,PTH,ViaDrill
T1C0.0118
; #@! TA.AperFunction,Plated,PTH,ComponentDrill
T2C0.0315
; #@! TA.AperFunction,Plated,PTH,ComponentDrill
T3C0.0433
; #@! TA.AperFunction,Plated,PTH,ComponentDrill
T4C0.0472
; #@! TA.AperFunction,Plated,PTH,ComponentDrill
T5C0.0512
; #@! TA.AperFunction,Plated,PTH,ComponentDrill
T6C0.0669
; #@! TA.AperFunction,Plated,PTH,ComponentDrill
T7C0.1024
%
G90
G05
T1
X5.0Y-4.4488
X5.1575Y-3.3386
X5.315Y-3.378
X5.4045Y-3.8681
X5.4055Y-4.0482
X5.5039Y-3.622
X5.6102Y-4.3012
X5.689Y-3.6614
X5.7126Y-4.4045
X5.876Y-3.6614
T2
X5.3071Y-3.5492
X5.3071Y-3.6476
X5.315Y-3.8386
X5.315Y-4.0354
X5.315Y-4.8228
X5.315Y-5.0197
X5.3346Y-2.815
X5.3346Y-3.0118
X5.5118Y-3.8386
X5.5118Y-4.0354
X5.7104Y-3.9862
X5.7892Y-3.9862
X5.8957Y-3.3366
X5.8957Y-3.435
X5.9252Y-4.4094
X5.9941Y-4.1437
X5.9941Y-4.2421
X6.0039Y-4.5276
X6.0039Y-4.6063
X6.0236Y-4.4094
X6.0943Y-3.4449
X6.173Y-3.4449
T3
X6.2106Y-4.1437
X6.2106Y-4.5437
T4
X4.9213Y-2.7559
X4.9213Y-2.9528
X4.9213Y-3.1496
X4.9213Y-3.7402
X4.9213Y-3.937
X4.9213Y-4.1339
X4.9213Y-4.7244
X4.9213Y-4.9213
X4.9213Y-5.1181
X5.6102Y-3.1496
X5.6102Y-4.8228
X6.2008Y-3.1496
X6.2008Y-4.8228
T5
X6.1024Y-3.7402
X6.1024Y-3.937
T6
X5.9843Y-2.8327
X5.9843Y-5.0413
T7
X5.7874Y-2.8327
X5.7874Y-5.0413
X5.9843Y-2.6555
X5.9843Y-5.2185
X6.1811Y-2.8327
X6.1811Y-5.0413
M30
