M48
; DRILL file {KiCad 9.0.7} date 2026-02-09T12:34:33-0600
; FORMAT={-:-/ absolute / inch / decimal}
; #@! TF.CreationDate,2026-02-09T12:34:33-06:00
; #@! TF.GenerationSoftware,Kicad,Pcbnew,9.0.7
; #@! TF.FileFunction,Plated,1,2,PTH
FMAT,2
INCH
; #@! TA.AperFunction,Plated,PTH,ViaDrill
T1C0.0118
; #@! TA.AperFunction,Plated,PTH,ComponentDrill
T2C0.0315
; #@! TA.AperFunction,Plated,PTH,ComponentDrill
T3C0.0472
; #@! TA.AperFunction,Plated,PTH,ComponentDrill
T4C0.0512
%
G90
G05
T1
X6.1Y-4.0
X6.11Y-4.48
X6.115Y-4.62
X6.18Y-3.975
X6.195Y-4.81
X6.31Y-3.975
X6.31Y-4.1
X6.325Y-4.68
X6.325Y-4.805
X6.45Y-3.975
X6.45Y-4.1
X6.45Y-4.165
X6.45Y-4.25
X6.45Y-4.35
X6.45Y-4.45
X6.45Y-4.55
X6.465Y-4.68
X6.465Y-4.805
X6.5Y-4.165
X6.5Y-4.25
X6.5Y-4.35
X6.5Y-4.45
X6.5Y-4.55
X6.55Y-4.165
X6.55Y-4.25
X6.55Y-4.35
X6.55Y-4.45
X6.55Y-4.55
X6.58Y-3.975
X6.58Y-4.1
X6.59Y-4.275
X6.59Y-4.355
X6.59Y-4.43
X6.595Y-4.68
X6.595Y-4.805
X7.43Y-4.275
X7.43Y-4.505
T2
X5.79Y-4.655
X5.79Y-5.055
X5.925Y-4.655
X5.925Y-5.055
X7.21Y-3.58
X7.21Y-3.6784
X7.21Y-5.12
X7.21Y-5.2184
X7.36Y-4.13
X7.36Y-4.64
X7.76Y-4.13
X7.76Y-4.64
T3
X5.24Y-4.055
X5.24Y-4.6456
X5.525Y-4.055
X5.525Y-4.6456
T4
X5.2866Y-5.1798
X5.2916Y-3.6948
X5.4834Y-5.1798
X5.4884Y-3.6948
X7.99Y-4.3116
X7.99Y-4.5084
M30
