%TF.GenerationSoftware,KiCad,Pcbnew,9.0.7*%
%TF.CreationDate,2026-02-09T12:34:31-06:00*%
%TF.ProjectId,poweramp,706f7765-7261-46d7-902e-6b696361645f,rev?*%
%TF.SameCoordinates,Original*%
%TF.FileFunction,Copper,L2,Bot*%
%TF.FilePolarity,Positive*%
%FSLAX46Y46*%
G04 Gerber Fmt 4.6, Leading zero omitted, Abs format (unit mm)*
G04 Created by KiCad (PCBNEW 9.0.7) date 2026-02-09 12:34:31*
%MOMM*%
%LPD*%
G01*
G04 APERTURE LIST*
G04 Aperture macros list*
%AMRoundRect*
0 Rectangle with rounded corners*
0 $1 Rounding radius*
0 $2 $3 $4 $5 $6 $7 $8 $9 X,Y pos of 4 corners*
0 Add a 4 corners polygon primitive as box body*
4,1,4,$2,$3,$4,$5,$6,$7,$8,$9,$2,$3,0*
0 Add four circle primitives for the rounded corners*
1,1,$1+$1,$2,$3*
1,1,$1+$1,$4,$5*
1,1,$1+$1,$6,$7*
1,1,$1+$1,$8,$9*
0 Add four rect primitives between the rounded corners*
20,1,$1+$1,$2,$3,$4,$5,0*
20,1,$1+$1,$4,$5,$6,$7,0*
20,1,$1+$1,$6,$7,$8,$9,0*
20,1,$1+$1,$8,$9,$2,$3,0*%
G04 Aperture macros list end*
%TA.AperFunction,ComponentPad*%
%ADD10C,1.950000*%
%TD*%
%TA.AperFunction,ComponentPad*%
%ADD11C,1.600000*%
%TD*%
%TA.AperFunction,ComponentPad*%
%ADD12C,2.400000*%
%TD*%
%TA.AperFunction,ComponentPad*%
%ADD13RoundRect,0.250000X-0.550000X0.550000X-0.550000X-0.550000X0.550000X-0.550000X0.550000X0.550000X0*%
%TD*%
%TA.AperFunction,ComponentPad*%
%ADD14RoundRect,0.250000X0.550000X-0.550000X0.550000X0.550000X-0.550000X0.550000X-0.550000X-0.550000X0*%
%TD*%
%TA.AperFunction,ViaPad*%
%ADD15C,0.600000*%
%TD*%
%TA.AperFunction,Conductor*%
%ADD16C,0.800000*%
%TD*%
G04 APERTURE END LIST*
D10*
%TO.P,Audio_OUT1,1*%
%TO.N,Net-(Audio_OUT1-Pad1)*%
X202946000Y-109514000D03*
%TO.P,Audio_OUT1,2*%
%TO.N,Net-(Audio_OUT1-Pad2)*%
X202946000Y-114514000D03*
%TD*%
D11*
%TO.P,R1,1*%
%TO.N,GND*%
X150495000Y-118237000D03*
%TO.P,R1,2*%
%TO.N,Net-(U1-GAIN{slash}SLV)*%
X150495000Y-128397000D03*
%TD*%
D12*
%TO.P,C15,1*%
%TO.N,Net-(Audio_IN1-Pad1)*%
X133096000Y-102997000D03*
%TO.P,C15,2*%
%TO.N,Net-(U1-RINN)*%
X133096000Y-117997000D03*
%TD*%
D13*
%TO.P,C14,1*%
%TO.N,VCC*%
X183134000Y-130048000D03*
D11*
%TO.P,C14,2*%
%TO.N,GND*%
X183134000Y-132548000D03*
%TD*%
D14*
%TO.P,C11,1*%
%TO.N,VCC*%
X183134000Y-93432000D03*
D11*
%TO.P,C11,2*%
%TO.N,GND*%
X183134000Y-90932000D03*
%TD*%
D10*
%TO.P,Power1,1*%
%TO.N,VCC*%
X139279000Y-131568000D03*
%TO.P,Power1,2*%
%TO.N,GND*%
X134279000Y-131568000D03*
%TD*%
D12*
%TO.P,C3,1*%
%TO.N,Net-(Audio_IN1-Pad2)*%
X140335000Y-102997000D03*
%TO.P,C3,2*%
%TO.N,Net-(U1-RINP)*%
X140335000Y-117997000D03*
%TD*%
D11*
%TO.P,R5,1*%
%TO.N,Net-(Audio_OUT1-Pad1)*%
X197104000Y-104902000D03*
%TO.P,R5,2*%
%TO.N,Net-(C17-Pad2)*%
X186944000Y-104902000D03*
%TD*%
D10*
%TO.P,Audio_IN1,1*%
%TO.N,Net-(Audio_IN1-Pad1)*%
X134406000Y-93849000D03*
%TO.P,Audio_IN1,2*%
%TO.N,Net-(Audio_IN1-Pad2)*%
X139406000Y-93849000D03*
%TD*%
D11*
%TO.P,R2,1*%
%TO.N,Net-(U1-GAIN{slash}SLV)*%
X147066000Y-118237000D03*
%TO.P,R2,2*%
%TO.N,Net-(U1-GVDD)*%
X147066000Y-128397000D03*
%TD*%
%TO.P,R6,1*%
%TO.N,Net-(Audio_OUT1-Pad2)*%
X197104000Y-117856000D03*
%TO.P,R6,2*%
%TO.N,Net-(C18-Pad2)*%
X186944000Y-117856000D03*
%TD*%
D15*
%TO.N,GND*%
X167386000Y-108585000D03*
X167132000Y-100965000D03*
X166370000Y-115570000D03*
X160274000Y-100965000D03*
X164211000Y-122047000D03*
X167386000Y-112522000D03*
X163830000Y-115570000D03*
X164211000Y-118872000D03*
X163830000Y-107950000D03*
X163830000Y-105791000D03*
X163830000Y-104140000D03*
X155194000Y-113792000D03*
X165100000Y-115570000D03*
X188722000Y-114427000D03*
X155321000Y-117348000D03*
X157353000Y-122174000D03*
X163830000Y-100965000D03*
X166370000Y-113030000D03*
X166370000Y-107950000D03*
X163830000Y-110490000D03*
X166370000Y-105791000D03*
X160274000Y-104140000D03*
X165100000Y-105791000D03*
X160655000Y-118872000D03*
X167513000Y-122047000D03*
X188722000Y-108585000D03*
X165100000Y-110490000D03*
X167132000Y-104140000D03*
X156972000Y-100965000D03*
X165100000Y-113030000D03*
X165100000Y-107950000D03*
X163830000Y-113030000D03*
X167386000Y-110617000D03*
X166370000Y-110490000D03*
X167513000Y-118872000D03*
X160655000Y-122047000D03*
%TO.N,VCC*%
X154940000Y-101600000D03*
%TD*%
D16*
%TO.N,VCC*%
X154940000Y-101600000D02*
X152908000Y-99568000D01*
X181614000Y-131568000D02*
X183134000Y-130048000D01*
X152908000Y-99568000D02*
X152908000Y-91059000D01*
X139279000Y-131568000D02*
X181614000Y-131568000D01*
X179364000Y-89662000D02*
X183134000Y-93432000D01*
X183134000Y-130048000D02*
X183134000Y-93432000D01*
X152908000Y-91059000D02*
X154305000Y-89662000D01*
X154305000Y-89662000D02*
X179364000Y-89662000D01*
%TD*%
%TA.AperFunction,Conductor*%
%TO.N,GND*%
G36*
X153838946Y-88647838D02*
G01*
X153871040Y-88656230D01*
X153872341Y-88657644D01*
X153874183Y-88658185D01*
X153895881Y-88683226D01*
X153918351Y-88707645D01*
X153918681Y-88709538D01*
X153919938Y-88710989D01*
X153924655Y-88743798D01*
X153930354Y-88776476D01*
X153929608Y-88778246D01*
X153929882Y-88780147D01*
X153916108Y-88810305D01*
X153903239Y-88840870D01*
X153901362Y-88842597D01*
X153900857Y-88843703D01*
X153883939Y-88858628D01*
X153877267Y-88864768D01*
X153876611Y-88865217D01*
X153730965Y-88962536D01*
X153730964Y-88962537D01*
X153722861Y-88970639D01*
X153722858Y-88970642D01*
X152208538Y-90484960D01*
X152208537Y-90484961D01*
X152169064Y-90544039D01*
X152169063Y-90544040D01*
X152109985Y-90632455D01*
X152076046Y-90714393D01*
X152042106Y-90796329D01*
X152042103Y-90796341D01*
X152007500Y-90970303D01*
X152007500Y-99656696D01*
X152042103Y-99830658D01*
X152042105Y-99830666D01*
X152073526Y-99906524D01*
X152073529Y-99906529D01*
X152076046Y-99912606D01*
X152109987Y-99994547D01*
X152169063Y-100082959D01*
X152172169Y-100087607D01*
X152172172Y-100087613D01*
X152208534Y-100142034D01*
X152208535Y-100142035D01*
X154365958Y-102299459D01*
X154365965Y-102299465D01*
X154513451Y-102398011D01*
X154513452Y-102398011D01*
X154513453Y-102398012D01*
X154677334Y-102465895D01*
X154851303Y-102500499D01*
X154851307Y-102500500D01*
X154851308Y-102500500D01*
X155028693Y-102500500D01*
X155028694Y-102500499D01*
X155202666Y-102465895D01*
X155366547Y-102398012D01*
X155514036Y-102299464D01*
X155639464Y-102174036D01*
X155738012Y-102026547D01*
X155805895Y-101862666D01*
X155840500Y-101688692D01*
X155840500Y-101511308D01*
X155805895Y-101337334D01*
X155738012Y-101173453D01*
X155639464Y-101025964D01*
X155639459Y-101025958D01*
X153844819Y-99231318D01*
X153811334Y-99169995D01*
X153808500Y-99143637D01*
X153808500Y-91483361D01*
X153828185Y-91416322D01*
X153844819Y-91395680D01*
X154641680Y-90598819D01*
X154703003Y-90565334D01*
X154729361Y-90562500D01*
X178939638Y-90562500D01*
X179006677Y-90582185D01*
X179027319Y-90598819D01*
X181797181Y-93368681D01*
X181830666Y-93430004D01*
X181833500Y-93456362D01*
X181833500Y-94032001D01*
X181833501Y-94032019D01*
X181844000Y-94134796D01*
X181844001Y-94134799D01*
X181863789Y-94194514D01*
X181899186Y-94301334D01*
X181991288Y-94450656D01*
X182115344Y-94574712D01*
X182174596Y-94611258D01*
X182221321Y-94663204D01*
X182233500Y-94716797D01*
X182233500Y-128763201D01*
X182213815Y-128830240D01*
X182174598Y-128868739D01*
X182115344Y-128905287D01*
X181991289Y-129029342D01*
X181899187Y-129178663D01*
X181899186Y-129178666D01*
X181844001Y-129345203D01*
X181844001Y-129345204D01*
X181844000Y-129345204D01*
X181833500Y-129447983D01*
X181833500Y-130023638D01*
X181813815Y-130090677D01*
X181797181Y-130111319D01*
X181277319Y-130631181D01*
X181215996Y-130664666D01*
X181189638Y-130667500D01*
X140511749Y-130667500D01*
X140444710Y-130647815D01*
X140411432Y-130616387D01*
X140409441Y-130613647D01*
X140404449Y-130606776D01*
X140240224Y-130442551D01*
X140052331Y-130306039D01*
X139845400Y-130200601D01*
X139624514Y-130128831D01*
X139395129Y-130092500D01*
X139395124Y-130092500D01*
X139162876Y-130092500D01*
X139162871Y-130092500D01*
X138933485Y-130128831D01*
X138712599Y-130200601D01*
X138505668Y-130306039D01*
X138317773Y-130442553D01*
X138153553Y-130606773D01*
X138017039Y-130794668D01*
X137911601Y-131001599D01*
X137839831Y-131222485D01*
X137803500Y-131451870D01*
X137803500Y-131684129D01*
X137839831Y-131913514D01*
X137911601Y-132134400D01*
X137999514Y-132306936D01*
X138017039Y-132341331D01*
X138153551Y-132529224D01*
X138317776Y-132693449D01*
X138505669Y-132829961D01*
X138580482Y-132868080D01*
X138712599Y-132935398D01*
X138712601Y-132935398D01*
X138712604Y-132935400D01*
X138933486Y-133007169D01*
X139051668Y-133025886D01*
X139162871Y-133043500D01*
X139162876Y-133043500D01*
X139395129Y-133043500D01*
X139496502Y-133027443D01*
X139624514Y-133007169D01*
X139845396Y-132935400D01*
X140052331Y-132829961D01*
X140240224Y-132693449D01*
X140404449Y-132529224D01*
X140411432Y-132519613D01*
X140466763Y-132476948D01*
X140511749Y-132468500D01*
X181708784Y-132468500D01*
X181708784Y-132471055D01*
X181766471Y-132481985D01*
X181817190Y-132530040D01*
X181834000Y-132592380D01*
X181834000Y-132650317D01*
X181866009Y-132852417D01*
X181929244Y-133047031D01*
X182022141Y-133229350D01*
X182022147Y-133229359D01*
X182054523Y-133273921D01*
X182054524Y-133273922D01*
X182734000Y-132594446D01*
X182734000Y-132600661D01*
X182761259Y-132702394D01*
X182813920Y-132793606D01*
X182888394Y-132868080D01*
X182979606Y-132920741D01*
X183081339Y-132948000D01*
X183087553Y-132948000D01*
X182408076Y-133627474D01*
X182452650Y-133659859D01*
X182634968Y-133752755D01*
X182829582Y-133815990D01*
X183031683Y-133848000D01*
X183236317Y-133848000D01*
X183438417Y-133815990D01*
X183633031Y-133752755D01*
X183815349Y-133659859D01*
X183859921Y-133627474D01*
X183180447Y-132948000D01*
X183186661Y-132948000D01*
X183288394Y-132920741D01*
X183379606Y-132868080D01*
X183454080Y-132793606D01*
X183506741Y-132702394D01*
X183534000Y-132600661D01*
X183534000Y-132594447D01*
X184213474Y-133273921D01*
X184245859Y-133229349D01*
X184338755Y-133047031D01*
X184401990Y-132852417D01*
X184434000Y-132650317D01*
X184434000Y-132445682D01*
X184401990Y-132243582D01*
X184338755Y-132048968D01*
X184245859Y-131866650D01*
X184213474Y-131822077D01*
X184213474Y-131822076D01*
X183534000Y-132501551D01*
X183534000Y-132495339D01*
X183506741Y-132393606D01*
X183454080Y-132302394D01*
X183379606Y-132227920D01*
X183288394Y-132175259D01*
X183186661Y-132148000D01*
X183180446Y-132148000D01*
X183859921Y-131468525D01*
X183856946Y-131430719D01*
X183871310Y-131362341D01*
X183920361Y-131312584D01*
X183941555Y-131303285D01*
X184003334Y-131282814D01*
X184152656Y-131190712D01*
X184276712Y-131066656D01*
X184368814Y-130917334D01*
X184423999Y-130750797D01*
X184434500Y-130648009D01*
X184434499Y-129447992D01*
X184423999Y-129345203D01*
X184368814Y-129178666D01*
X184276712Y-129029344D01*
X184152656Y-128905288D01*
X184152655Y-128905287D01*
X184093402Y-128868739D01*
X184046678Y-128816791D01*
X184034500Y-128763201D01*
X184034500Y-117753648D01*
X185643500Y-117753648D01*
X185643500Y-117958351D01*
X185675522Y-118160534D01*
X185738781Y-118355223D01*
X185831715Y-118537613D01*
X185952028Y-118703213D01*
X186096786Y-118847971D01*
X186228649Y-118943773D01*
X186262390Y-118968287D01*
X186378607Y-119027503D01*
X186444776Y-119061218D01*
X186444778Y-119061218D01*
X186444781Y-119061220D01*
X186515565Y-119084219D01*
X186639465Y-119124477D01*
X186740557Y-119140488D01*
X186841648Y-119156500D01*
X186841649Y-119156500D01*
X187046351Y-119156500D01*
X187046352Y-119156500D01*
X187248534Y-119124477D01*
X187443219Y-119061220D01*
X187625610Y-118968287D01*
X187718590Y-118900732D01*
X187791213Y-118847971D01*
X187791215Y-118847968D01*
X187791219Y-118847966D01*
X187935966Y-118703219D01*
X187935968Y-118703215D01*
X187935971Y-118703213D01*
X188051070Y-118544790D01*
X188056287Y-118537610D01*
X188149220Y-118355219D01*
X188212477Y-118160534D01*
X188244500Y-117958352D01*
X188244500Y-117753648D01*
X195803500Y-117753648D01*
X195803500Y-117958351D01*
X195835522Y-118160534D01*
X195898781Y-118355223D01*
X195991715Y-118537613D01*
X196112028Y-118703213D01*
X196256786Y-118847971D01*
X196388649Y-118943773D01*
X196422390Y-118968287D01*
X196538607Y-119027503D01*
X196604776Y-119061218D01*
X196604778Y-119061218D01*
X196604781Y-119061220D01*
X196675565Y-119084219D01*
X196799465Y-119124477D01*
X196900557Y-119140488D01*
X197001648Y-119156500D01*
X197001649Y-119156500D01*
X197206351Y-119156500D01*
X197206352Y-119156500D01*
X197408534Y-119124477D01*
X197603219Y-119061220D01*
X197785610Y-118968287D01*
X197878590Y-118900732D01*
X197951213Y-118847971D01*
X197951215Y-118847968D01*
X197951219Y-118847966D01*
X198095966Y-118703219D01*
X198095968Y-118703215D01*
X198095971Y-118703213D01*
X198211070Y-118544790D01*
X198216287Y-118537610D01*
X198309220Y-118355219D01*
X198372477Y-118160534D01*
X198404500Y-117958352D01*
X198404500Y-117753648D01*
X198372477Y-117551465D01*
X198309218Y-117356776D01*
X198252279Y-117245028D01*
X198216287Y-117174390D01*
X198180510Y-117125147D01*
X198095971Y-117008786D01*
X197951213Y-116864028D01*
X197785613Y-116743715D01*
X197785612Y-116743714D01*
X197785610Y-116743713D01*
X197728653Y-116714691D01*
X197603223Y-116650781D01*
X197408534Y-116587522D01*
X197233995Y-116559878D01*
X197206352Y-116555500D01*
X197001648Y-116555500D01*
X196977329Y-116559351D01*
X196799465Y-116587522D01*
X196604776Y-116650781D01*
X196422386Y-116743715D01*
X196256786Y-116864028D01*
X196112028Y-117008786D01*
X195991715Y-117174386D01*
X195898781Y-117356776D01*
X195835522Y-117551465D01*
X195803500Y-117753648D01*
X188244500Y-117753648D01*
X188212477Y-117551465D01*
X188149218Y-117356776D01*
X188092279Y-117245028D01*
X188056287Y-117174390D01*
X188020510Y-117125147D01*
X187935971Y-117008786D01*
X187791213Y-116864028D01*
X187625613Y-116743715D01*
X187625612Y-116743714D01*
X187625610Y-116743713D01*
X187568653Y-116714691D01*
X187443223Y-116650781D01*
X187248534Y-116587522D01*
X187073995Y-116559878D01*
X187046352Y-116555500D01*
X186841648Y-116555500D01*
X186817329Y-116559351D01*
X186639465Y-116587522D01*
X186444776Y-116650781D01*
X186262386Y-116743715D01*
X186096786Y-116864028D01*
X185952028Y-117008786D01*
X185831715Y-117174386D01*
X185738781Y-117356776D01*
X185675522Y-117551465D01*
X185643500Y-117753648D01*
X184034500Y-117753648D01*
X184034500Y-114397870D01*
X201470500Y-114397870D01*
X201470500Y-114630129D01*
X201506831Y-114859514D01*
X201578601Y-115080400D01*
X201684039Y-115287331D01*
X201820551Y-115475224D01*
X201984776Y-115639449D01*
X202172669Y-115775961D01*
X202270436Y-115825776D01*
X202379599Y-115881398D01*
X202379601Y-115881398D01*
X202379604Y-115881400D01*
X202600486Y-115953169D01*
X202718668Y-115971886D01*
X202829871Y-115989500D01*
X202829876Y-115989500D01*
X203062129Y-115989500D01*
X203163502Y-115973443D01*
X203291514Y-115953169D01*
X203512396Y-115881400D01*
X203719331Y-115775961D01*
X203907224Y-115639449D01*
X204071449Y-115475224D01*
X204207961Y-115287331D01*
X204313400Y-115080396D01*
X204385169Y-114859514D01*
X204405443Y-114731502D01*
X204421500Y-114630129D01*
X204421500Y-114397870D01*
X204402232Y-114276222D01*
X204385169Y-114168486D01*
X204313400Y-113947604D01*
X204313398Y-113947601D01*
X204313398Y-113947599D01*
X204207960Y-113740668D01*
X204071449Y-113552776D01*
X203907224Y-113388551D01*
X203719331Y-113252039D01*
X203512400Y-113146601D01*
X203291514Y-113074831D01*
X203062129Y-113038500D01*
X203062124Y-113038500D01*
X202829876Y-113038500D01*
X202829871Y-113038500D01*
X202600485Y-113074831D01*
X202379599Y-113146601D01*
X202172668Y-113252039D01*
X201984773Y-113388553D01*
X201820553Y-113552773D01*
X201684039Y-113740668D01*
X201578601Y-113947599D01*
X201506831Y-114168485D01*
X201470500Y-114397870D01*
X184034500Y-114397870D01*
X184034500Y-109397870D01*
X201470500Y-109397870D01*
X201470500Y-109630129D01*
X201506831Y-109859514D01*
X201578601Y-110080400D01*
X201684039Y-110287331D01*
X201820551Y-110475224D01*
X201984776Y-110639449D01*
X202172669Y-110775961D01*
X202270436Y-110825776D01*
X202379599Y-110881398D01*
X202379601Y-110881398D01*
X202379604Y-110881400D01*
X202600486Y-110953169D01*
X202718668Y-110971886D01*
X202829871Y-110989500D01*
X202829876Y-110989500D01*
X203062129Y-110989500D01*
X203163502Y-110973443D01*
X203291514Y-110953169D01*
X203512396Y-110881400D01*
X203719331Y-110775961D01*
X203907224Y-110639449D01*
X204071449Y-110475224D01*
X204207961Y-110287331D01*
X204313400Y-110080396D01*
X204385169Y-109859514D01*
X204405443Y-109731502D01*
X204421500Y-109630129D01*
X204421500Y-109397870D01*
X204402232Y-109276222D01*
X204385169Y-109168486D01*
X204313400Y-108947604D01*
X204313398Y-108947601D01*
X204313398Y-108947599D01*
X204207960Y-108740668D01*
X204071449Y-108552776D01*
X203907224Y-108388551D01*
X203719331Y-108252039D01*
X203512400Y-108146601D01*
X203291514Y-108074831D01*
X203062129Y-108038500D01*
X203062124Y-108038500D01*
X202829876Y-108038500D01*
X202829871Y-108038500D01*
X202600485Y-108074831D01*
X202379599Y-108146601D01*
X202172668Y-108252039D01*
X201984773Y-108388553D01*
X201820553Y-108552773D01*
X201684039Y-108740668D01*
X201578601Y-108947599D01*
X201506831Y-109168485D01*
X201470500Y-109397870D01*
X184034500Y-109397870D01*
X184034500Y-104799648D01*
X185643500Y-104799648D01*
X185643500Y-105004351D01*
X185675522Y-105206534D01*
X185738781Y-105401223D01*
X185831715Y-105583613D01*
X185952028Y-105749213D01*
X186096786Y-105893971D01*
X186251749Y-106006556D01*
X186262390Y-106014287D01*
X186378607Y-106073503D01*
X186444776Y-106107218D01*
X186444778Y-106107218D01*
X186444781Y-106107220D01*
X186549137Y-106141127D01*
X186639465Y-106170477D01*
X186740557Y-106186488D01*
X186841648Y-106202500D01*
X186841649Y-106202500D01*
X187046351Y-106202500D01*
X187046352Y-106202500D01*
X187248534Y-106170477D01*
X187443219Y-106107220D01*
X187625610Y-106014287D01*
X187718590Y-105946732D01*
X187791213Y-105893971D01*
X187791215Y-105893968D01*
X187791219Y-105893966D01*
X187935966Y-105749219D01*
X187935968Y-105749215D01*
X187935971Y-105749213D01*
X187988732Y-105676590D01*
X188056287Y-105583610D01*
X188149220Y-105401219D01*
X188212477Y-105206534D01*
X188244500Y-105004352D01*
X188244500Y-104799648D01*
X195803500Y-104799648D01*
X195803500Y-105004351D01*
X195835522Y-105206534D01*
X195898781Y-105401223D01*
X195991715Y-105583613D01*
X196112028Y-105749213D01*
X196256786Y-105893971D01*
X196411749Y-106006556D01*
X196422390Y-106014287D01*
X196538607Y-106073503D01*
X196604776Y-106107218D01*
X196604778Y-106107218D01*
X196604781Y-106107220D01*
X196709137Y-106141127D01*
X196799465Y-106170477D01*
X196900557Y-106186488D01*
X197001648Y-106202500D01*
X197001649Y-106202500D01*
X197206351Y-106202500D01*
X197206352Y-106202500D01*
X197408534Y-106170477D01*
X197603219Y-106107220D01*
X197785610Y-106014287D01*
X197878590Y-105946732D01*
X197951213Y-105893971D01*
X197951215Y-105893968D01*
X197951219Y-105893966D01*
X198095966Y-105749219D01*
X198095968Y-105749215D01*
X198095971Y-105749213D01*
X198148732Y-105676590D01*
X198216287Y-105583610D01*
X198309220Y-105401219D01*
X198372477Y-105206534D01*
X198404500Y-105004352D01*
X198404500Y-104799648D01*
X198372477Y-104597466D01*
X198309220Y-104402781D01*
X198309218Y-104402778D01*
X198309218Y-104402776D01*
X198245767Y-104278248D01*
X198216287Y-104220390D01*
X198208556Y-104209749D01*
X198095971Y-104054786D01*
X197951213Y-103910028D01*
X197785613Y-103789715D01*
X197785612Y-103789714D01*
X197785610Y-103789713D01*
X197709086Y-103750722D01*
X197603223Y-103696781D01*
X197408534Y-103633522D01*
X197233995Y-103605878D01*
X197206352Y-103601500D01*
X197001648Y-103601500D01*
X196977329Y-103605351D01*
X196799465Y-103633522D01*
X196604776Y-103696781D01*
X196422386Y-103789715D01*
X196256786Y-103910028D01*
X196112028Y-104054786D01*
X195991715Y-104220386D01*
X195898781Y-104402776D01*
X195835522Y-104597465D01*
X195803500Y-104799648D01*
X188244500Y-104799648D01*
X188212477Y-104597466D01*
X188149220Y-104402781D01*
X188149218Y-104402778D01*
X188149218Y-104402776D01*
X188085767Y-104278248D01*
X188056287Y-104220390D01*
X188048556Y-104209749D01*
X187935971Y-104054786D01*
X187791213Y-103910028D01*
X187625613Y-103789715D01*
X187625612Y-103789714D01*
X187625610Y-103789713D01*
X187549086Y-103750722D01*
X187443223Y-103696781D01*
X187248534Y-103633522D01*
X187073995Y-103605878D01*
X187046352Y-103601500D01*
X186841648Y-103601500D01*
X186817329Y-103605351D01*
X186639465Y-103633522D01*
X186444776Y-103696781D01*
X186262386Y-103789715D01*
X186096786Y-103910028D01*
X185952028Y-104054786D01*
X185831715Y-104220386D01*
X185738781Y-104402776D01*
X185675522Y-104597465D01*
X185643500Y-104799648D01*
X184034500Y-104799648D01*
X184034500Y-94716797D01*
X184054185Y-94649758D01*
X184093403Y-94611258D01*
X184152656Y-94574712D01*
X184276712Y-94450656D01*
X184368814Y-94301334D01*
X184423999Y-94134797D01*
X184434500Y-94032009D01*
X184434499Y-92831992D01*
X184423999Y-92729203D01*
X184368814Y-92562666D01*
X184276712Y-92413344D01*
X184152656Y-92289288D01*
X184003334Y-92197186D01*
X183941558Y-92176715D01*
X183884115Y-92136943D01*
X183857292Y-92072427D01*
X183856946Y-92049280D01*
X183859921Y-92011473D01*
X183180446Y-91332000D01*
X183186661Y-91332000D01*
X183288394Y-91304741D01*
X183379606Y-91252080D01*
X183454080Y-91177606D01*
X183506741Y-91086394D01*
X183534000Y-90984661D01*
X183534000Y-90978447D01*
X184213474Y-91657921D01*
X184245859Y-91613349D01*
X184338755Y-91431031D01*
X184401990Y-91236417D01*
X184434000Y-91034317D01*
X184434000Y-90829682D01*
X184401990Y-90627582D01*
X184338755Y-90432968D01*
X184245859Y-90250650D01*
X184213474Y-90206077D01*
X184213474Y-90206076D01*
X183534000Y-90885551D01*
X183534000Y-90879339D01*
X183506741Y-90777606D01*
X183454080Y-90686394D01*
X183379606Y-90611920D01*
X183288394Y-90559259D01*
X183186661Y-90532000D01*
X183180446Y-90532000D01*
X183859922Y-89852524D01*
X183859921Y-89852523D01*
X183815359Y-89820147D01*
X183815350Y-89820141D01*
X183633031Y-89727244D01*
X183438417Y-89664009D01*
X183236317Y-89632000D01*
X183031683Y-89632000D01*
X182829582Y-89664009D01*
X182634968Y-89727244D01*
X182452644Y-89820143D01*
X182408077Y-89852523D01*
X182408077Y-89852524D01*
X183087554Y-90532000D01*
X183081339Y-90532000D01*
X182979606Y-90559259D01*
X182888394Y-90611920D01*
X182813920Y-90686394D01*
X182761259Y-90777606D01*
X182734000Y-90879339D01*
X182734000Y-90885553D01*
X182054524Y-90206077D01*
X182054523Y-90206077D01*
X182022143Y-90250644D01*
X181929244Y-90432968D01*
X181864504Y-90632217D01*
X181862608Y-90631601D01*
X181832005Y-90684899D01*
X181769978Y-90717063D01*
X181700410Y-90710587D01*
X181658541Y-90683041D01*
X179938035Y-88962535D01*
X179938030Y-88962531D01*
X179878961Y-88923064D01*
X179878959Y-88923063D01*
X179792961Y-88865600D01*
X179754821Y-88819961D01*
X179748159Y-88811990D01*
X179739452Y-88742665D01*
X179751799Y-88716859D01*
X179769607Y-88679637D01*
X179829050Y-88642918D01*
X179861855Y-88638500D01*
X206502500Y-88638500D01*
X206569539Y-88658185D01*
X206615294Y-88710989D01*
X206626500Y-88762500D01*
X206626500Y-136513500D01*
X206606815Y-136580539D01*
X206554011Y-136626294D01*
X206502500Y-136637500D01*
X127751500Y-136637500D01*
X127684461Y-136617815D01*
X127638706Y-136565011D01*
X127627500Y-136513500D01*
X127627500Y-131451909D01*
X132804000Y-131451909D01*
X132804000Y-131684090D01*
X132840318Y-131913393D01*
X132912065Y-132134205D01*
X133017465Y-132341064D01*
X133074238Y-132419207D01*
X133677958Y-131815487D01*
X133702978Y-131875890D01*
X133774112Y-131982351D01*
X133864649Y-132072888D01*
X133971110Y-132144022D01*
X134031510Y-132169041D01*
X133427791Y-132772759D01*
X133427791Y-132772760D01*
X133505935Y-132829534D01*
X133712794Y-132934934D01*
X133933606Y-133006681D01*
X134162910Y-133043000D01*
X134395090Y-133043000D01*
X134624393Y-133006681D01*
X134845205Y-132934934D01*
X135052071Y-132829530D01*
X135130207Y-132772762D01*
X135130208Y-132772760D01*
X134526488Y-132169041D01*
X134586890Y-132144022D01*
X134693351Y-132072888D01*
X134783888Y-131982351D01*
X134855022Y-131875890D01*
X134880041Y-131815489D01*
X135483760Y-132419208D01*
X135483762Y-132419207D01*
X135540530Y-132341071D01*
X135645934Y-132134205D01*
X135717681Y-131913393D01*
X135754000Y-131684090D01*
X135754000Y-131451909D01*
X135717681Y-131222606D01*
X135645934Y-131001794D01*
X135540534Y-130794935D01*
X135483760Y-130716791D01*
X135483759Y-130716791D01*
X134880041Y-131320510D01*
X134855022Y-131260110D01*
X134783888Y-131153649D01*
X134693351Y-131063112D01*
X134586890Y-130991978D01*
X134526487Y-130966957D01*
X135130207Y-130363238D01*
X135052064Y-130306465D01*
X134845205Y-130201065D01*
X134624393Y-130129318D01*
X134395090Y-130093000D01*
X134162910Y-130093000D01*
X133933606Y-130129318D01*
X133712794Y-130201065D01*
X133505925Y-130306470D01*
X133427791Y-130363237D01*
X133427791Y-130363238D01*
X134031511Y-130966958D01*
X133971110Y-130991978D01*
X133864649Y-131063112D01*
X133774112Y-131153649D01*
X133702978Y-131260110D01*
X133677958Y-131320511D01*
X133074238Y-130716791D01*
X133074237Y-130716791D01*
X133017470Y-130794925D01*
X132912065Y-131001794D01*
X132840318Y-131222606D01*
X132804000Y-131451909D01*
X127627500Y-131451909D01*
X127627500Y-128294648D01*
X145765500Y-128294648D01*
X145765500Y-128499351D01*
X145797522Y-128701534D01*
X145860781Y-128896223D01*
X145953715Y-129078613D01*
X146074028Y-129244213D01*
X146218786Y-129388971D01*
X146373749Y-129501556D01*
X146384390Y-129509287D01*
X146500607Y-129568503D01*
X146566776Y-129602218D01*
X146566778Y-129602218D01*
X146566781Y-129602220D01*
X146671137Y-129636127D01*
X146761465Y-129665477D01*
X146862557Y-129681488D01*
X146963648Y-129697500D01*
X146963649Y-129697500D01*
X147168351Y-129697500D01*
X147168352Y-129697500D01*
X147370534Y-129665477D01*
X147565219Y-129602220D01*
X147747610Y-129509287D01*
X147840590Y-129441732D01*
X147913213Y-129388971D01*
X147913215Y-129388968D01*
X147913219Y-129388966D01*
X148057966Y-129244219D01*
X148057968Y-129244215D01*
X148057971Y-129244213D01*
X148110732Y-129171590D01*
X148178287Y-129078610D01*
X148271220Y-128896219D01*
X148334477Y-128701534D01*
X148366500Y-128499352D01*
X148366500Y-128294648D01*
X149194500Y-128294648D01*
X149194500Y-128499351D01*
X149226522Y-128701534D01*
X149289781Y-128896223D01*
X149382715Y-129078613D01*
X149503028Y-129244213D01*
X149647786Y-129388971D01*
X149802749Y-129501556D01*
X149813390Y-129509287D01*
X149929607Y-129568503D01*
X149995776Y-129602218D01*
X149995778Y-129602218D01*
X149995781Y-129602220D01*
X150100137Y-129636127D01*
X150190465Y-129665477D01*
X150291557Y-129681488D01*
X150392648Y-129697500D01*
X150392649Y-129697500D01*
X150597351Y-129697500D01*
X150597352Y-129697500D01*
X150799534Y-129665477D01*
X150994219Y-129602220D01*
X151176610Y-129509287D01*
X151269590Y-129441732D01*
X151342213Y-129388971D01*
X151342215Y-129388968D01*
X151342219Y-129388966D01*
X151486966Y-129244219D01*
X151486968Y-129244215D01*
X151486971Y-129244213D01*
X151539732Y-129171590D01*
X151607287Y-129078610D01*
X151700220Y-128896219D01*
X151763477Y-128701534D01*
X151795500Y-128499352D01*
X151795500Y-128294648D01*
X151763477Y-128092466D01*
X151700220Y-127897781D01*
X151700218Y-127897778D01*
X151700218Y-127897776D01*
X151666503Y-127831607D01*
X151607287Y-127715390D01*
X151599556Y-127704749D01*
X151486971Y-127549786D01*
X151342213Y-127405028D01*
X151176613Y-127284715D01*
X151176612Y-127284714D01*
X151176610Y-127284713D01*
X151119653Y-127255691D01*
X150994223Y-127191781D01*
X150799534Y-127128522D01*
X150624995Y-127100878D01*
X150597352Y-127096500D01*
X150392648Y-127096500D01*
X150368329Y-127100351D01*
X150190465Y-127128522D01*
X149995776Y-127191781D01*
X149813386Y-127284715D01*
X149647786Y-127405028D01*
X149503028Y-127549786D01*
X149382715Y-127715386D01*
X149289781Y-127897776D01*
X149226522Y-128092465D01*
X149194500Y-128294648D01*
X148366500Y-128294648D01*
X148334477Y-128092466D01*
X148271220Y-127897781D01*
X148271218Y-127897778D01*
X148271218Y-127897776D01*
X148237503Y-127831607D01*
X148178287Y-127715390D01*
X148170556Y-127704749D01*
X148057971Y-127549786D01*
X147913213Y-127405028D01*
X147747613Y-127284715D01*
X147747612Y-127284714D01*
X147747610Y-127284713D01*
X147690653Y-127255691D01*
X147565223Y-127191781D01*
X147370534Y-127128522D01*
X147195995Y-127100878D01*
X147168352Y-127096500D01*
X146963648Y-127096500D01*
X146939329Y-127100351D01*
X146761465Y-127128522D01*
X146566776Y-127191781D01*
X146384386Y-127284715D01*
X146218786Y-127405028D01*
X146074028Y-127549786D01*
X145953715Y-127715386D01*
X145860781Y-127897776D01*
X145797522Y-128092465D01*
X145765500Y-128294648D01*
X127627500Y-128294648D01*
X127627500Y-117885549D01*
X131395500Y-117885549D01*
X131395500Y-118108450D01*
X131395501Y-118108466D01*
X131424594Y-118329452D01*
X131424595Y-118329457D01*
X131424596Y-118329463D01*
X131481389Y-118541417D01*
X131482290Y-118544780D01*
X131482293Y-118544790D01*
X131567593Y-118750722D01*
X131567595Y-118750726D01*
X131679052Y-118943774D01*
X131679057Y-118943780D01*
X131679058Y-118943782D01*
X131814751Y-119120622D01*
X131814757Y-119120629D01*
X131972370Y-119278242D01*
X131972377Y-119278248D01*
X132064400Y-119348859D01*
X132149226Y-119413948D01*
X132342274Y-119525405D01*
X132548219Y-119610710D01*
X132763537Y-119668404D01*
X132984543Y-119697500D01*
X132984550Y-119697500D01*
X133207450Y-119697500D01*
X133207457Y-119697500D01*
X133428463Y-119668404D01*
X133643781Y-119610710D01*
X133849726Y-119525405D01*
X134042774Y-119413948D01*
X134219624Y-119278247D01*
X134377247Y-119120624D01*
X134512948Y-118943774D01*
X134624405Y-118750726D01*
X134709710Y-118544781D01*
X134767404Y-118329463D01*
X134796500Y-118108457D01*
X134796500Y-117885549D01*
X138634500Y-117885549D01*
X138634500Y-118108450D01*
X138634501Y-118108466D01*
X138663594Y-118329452D01*
X138663595Y-118329457D01*
X138663596Y-118329463D01*
X138720389Y-118541417D01*
X138721290Y-118544780D01*
X138721293Y-118544790D01*
X138806593Y-118750722D01*
X138806595Y-118750726D01*
X138918052Y-118943774D01*
X138918057Y-118943780D01*
X138918058Y-118943782D01*
X139053751Y-119120622D01*
X139053757Y-119120629D01*
X139211370Y-119278242D01*
X139211377Y-119278248D01*
X139303400Y-119348859D01*
X139388226Y-119413948D01*
X139581274Y-119525405D01*
X139787219Y-119610710D01*
X140002537Y-119668404D01*
X140223543Y-119697500D01*
X140223550Y-119697500D01*
X140446450Y-119697500D01*
X140446457Y-119697500D01*
X140667463Y-119668404D01*
X140882781Y-119610710D01*
X141088726Y-119525405D01*
X141281774Y-119413948D01*
X141458624Y-119278247D01*
X141616247Y-119120624D01*
X141751948Y-118943774D01*
X141863405Y-118750726D01*
X141948710Y-118544781D01*
X142006404Y-118329463D01*
X142032052Y-118134648D01*
X145765500Y-118134648D01*
X145765500Y-118339351D01*
X145797522Y-118541534D01*
X145860781Y-118736223D01*
X145924691Y-118861653D01*
X145953585Y-118918359D01*
X145953715Y-118918613D01*
X146074028Y-119084213D01*
X146218786Y-119228971D01*
X146339226Y-119316474D01*
X146384390Y-119349287D01*
X146500607Y-119408503D01*
X146566776Y-119442218D01*
X146566778Y-119442218D01*
X146566781Y-119442220D01*
X146671137Y-119476127D01*
X146761465Y-119505477D01*
X146862557Y-119521488D01*
X146963648Y-119537500D01*
X146963649Y-119537500D01*
X147168351Y-119537500D01*
X147168352Y-119537500D01*
X147370534Y-119505477D01*
X147565219Y-119442220D01*
X147747610Y-119349287D01*
X147845396Y-119278242D01*
X147913213Y-119228971D01*
X147913215Y-119228968D01*
X147913219Y-119228966D01*
X148057966Y-119084219D01*
X148057968Y-119084215D01*
X148057971Y-119084213D01*
X148110732Y-119011590D01*
X148178287Y-118918610D01*
X148271220Y-118736219D01*
X148334477Y-118541534D01*
X148366500Y-118339352D01*
X148366500Y-118134682D01*
X149195000Y-118134682D01*
X149195000Y-118339317D01*
X149227009Y-118541417D01*
X149290244Y-118736031D01*
X149383141Y-118918350D01*
X149383147Y-118918359D01*
X149415523Y-118962921D01*
X149415524Y-118962922D01*
X150095000Y-118283446D01*
X150095000Y-118289661D01*
X150122259Y-118391394D01*
X150174920Y-118482606D01*
X150249394Y-118557080D01*
X150340606Y-118609741D01*
X150442339Y-118637000D01*
X150448553Y-118637000D01*
X149769076Y-119316474D01*
X149813650Y-119348859D01*
X149995968Y-119441755D01*
X150190582Y-119504990D01*
X150392683Y-119537000D01*
X150597317Y-119537000D01*
X150799417Y-119504990D01*
X150994031Y-119441755D01*
X151176349Y-119348859D01*
X151220921Y-119316474D01*
X150541447Y-118637000D01*
X150547661Y-118637000D01*
X150649394Y-118609741D01*
X150740606Y-118557080D01*
X150815080Y-118482606D01*
X150867741Y-118391394D01*
X150895000Y-118289661D01*
X150895000Y-118283448D01*
X151574474Y-118962922D01*
X151574474Y-118962921D01*
X151606859Y-118918349D01*
X151699755Y-118736031D01*
X151762990Y-118541417D01*
X151795000Y-118339317D01*
X151795000Y-118134682D01*
X151762990Y-117932582D01*
X151699755Y-117737968D01*
X151606859Y-117555650D01*
X151574474Y-117511077D01*
X151574474Y-117511076D01*
X150895000Y-118190551D01*
X150895000Y-118184339D01*
X150867741Y-118082606D01*
X150815080Y-117991394D01*
X150740606Y-117916920D01*
X150649394Y-117864259D01*
X150547661Y-117837000D01*
X150541446Y-117837000D01*
X151220922Y-117157524D01*
X151220921Y-117157523D01*
X151176359Y-117125147D01*
X151176350Y-117125141D01*
X150994031Y-117032244D01*
X150799417Y-116969009D01*
X150597317Y-116937000D01*
X150392683Y-116937000D01*
X150190582Y-116969009D01*
X149995968Y-117032244D01*
X149813644Y-117125143D01*
X149769077Y-117157523D01*
X149769077Y-117157524D01*
X150448554Y-117837000D01*
X150442339Y-117837000D01*
X150340606Y-117864259D01*
X150249394Y-117916920D01*
X150174920Y-117991394D01*
X150122259Y-118082606D01*
X150095000Y-118184339D01*
X150095000Y-118190553D01*
X149415524Y-117511077D01*
X149415523Y-117511077D01*
X149383143Y-117555644D01*
X149290244Y-117737968D01*
X149227009Y-117932582D01*
X149195000Y-118134682D01*
X148366500Y-118134682D01*
X148366500Y-118134648D01*
X148358257Y-118082606D01*
X148334477Y-117932465D01*
X148303458Y-117837000D01*
X148271220Y-117737781D01*
X148271218Y-117737778D01*
X148271218Y-117737776D01*
X148178419Y-117555650D01*
X148178287Y-117555390D01*
X148146092Y-117511077D01*
X148057971Y-117389786D01*
X147913213Y-117245028D01*
X147747613Y-117124715D01*
X147747612Y-117124714D01*
X147747610Y-117124713D01*
X147690653Y-117095691D01*
X147565223Y-117031781D01*
X147370534Y-116968522D01*
X147195995Y-116940878D01*
X147168352Y-116936500D01*
X146963648Y-116936500D01*
X146939329Y-116940351D01*
X146761465Y-116968522D01*
X146566776Y-117031781D01*
X146384386Y-117124715D01*
X146218786Y-117245028D01*
X146074028Y-117389786D01*
X145953715Y-117555386D01*
X145860781Y-117737776D01*
X145797522Y-117932465D01*
X145765500Y-118134648D01*
X142032052Y-118134648D01*
X142035500Y-118108457D01*
X142035500Y-117885543D01*
X142006404Y-117664537D01*
X141948710Y-117449219D01*
X141863405Y-117243274D01*
X141751948Y-117050226D01*
X141665067Y-116937000D01*
X141616248Y-116873377D01*
X141616242Y-116873370D01*
X141458629Y-116715757D01*
X141458622Y-116715751D01*
X141281782Y-116580058D01*
X141281780Y-116580057D01*
X141281774Y-116580052D01*
X141088726Y-116468595D01*
X141088722Y-116468593D01*
X140882790Y-116383293D01*
X140882783Y-116383291D01*
X140882781Y-116383290D01*
X140667463Y-116325596D01*
X140667457Y-116325595D01*
X140667452Y-116325594D01*
X140446466Y-116296501D01*
X140446463Y-116296500D01*
X140446457Y-116296500D01*
X140223543Y-116296500D01*
X140223537Y-116296500D01*
X140223533Y-116296501D01*
X140002547Y-116325594D01*
X140002540Y-116325595D01*
X140002537Y-116325596D01*
X139787219Y-116383290D01*
X139787209Y-116383293D01*
X139581277Y-116468593D01*
X139581273Y-116468595D01*
X139388226Y-116580052D01*
X139388217Y-116580058D01*
X139211377Y-116715751D01*
X139211370Y-116715757D01*
X139053757Y-116873370D01*
X139053751Y-116873377D01*
X138918058Y-117050217D01*
X138918052Y-117050226D01*
X138806595Y-117243273D01*
X138806593Y-117243277D01*
X138721293Y-117449209D01*
X138721290Y-117449219D01*
X138663597Y-117664534D01*
X138663594Y-117664547D01*
X138634501Y-117885533D01*
X138634500Y-117885549D01*
X134796500Y-117885549D01*
X134796500Y-117885543D01*
X134767404Y-117664537D01*
X134709710Y-117449219D01*
X134624405Y-117243274D01*
X134512948Y-117050226D01*
X134426067Y-116937000D01*
X134377248Y-116873377D01*
X134377242Y-116873370D01*
X134219629Y-116715757D01*
X134219622Y-116715751D01*
X134042782Y-116580058D01*
X134042780Y-116580057D01*
X134042774Y-116580052D01*
X133849726Y-116468595D01*
X133849722Y-116468593D01*
X133643790Y-116383293D01*
X133643783Y-116383291D01*
X133643781Y-116383290D01*
X133428463Y-116325596D01*
X133428457Y-116325595D01*
X133428452Y-116325594D01*
X133207466Y-116296501D01*
X133207463Y-116296500D01*
X133207457Y-116296500D01*
X132984543Y-116296500D01*
X132984537Y-116296500D01*
X132984533Y-116296501D01*
X132763547Y-116325594D01*
X132763540Y-116325595D01*
X132763537Y-116325596D01*
X132548219Y-116383290D01*
X132548209Y-116383293D01*
X132342277Y-116468593D01*
X132342273Y-116468595D01*
X132149226Y-116580052D01*
X132149217Y-116580058D01*
X131972377Y-116715751D01*
X131972370Y-116715757D01*
X131814757Y-116873370D01*
X131814751Y-116873377D01*
X131679058Y-117050217D01*
X131679052Y-117050226D01*
X131567595Y-117243273D01*
X131567593Y-117243277D01*
X131482293Y-117449209D01*
X131482290Y-117449219D01*
X131424597Y-117664534D01*
X131424594Y-117664547D01*
X131395501Y-117885533D01*
X131395500Y-117885549D01*
X127627500Y-117885549D01*
X127627500Y-102885549D01*
X131395500Y-102885549D01*
X131395500Y-103108450D01*
X131395501Y-103108466D01*
X131424594Y-103329452D01*
X131424595Y-103329457D01*
X131424596Y-103329463D01*
X131424597Y-103329465D01*
X131482290Y-103544780D01*
X131482293Y-103544790D01*
X131545250Y-103696781D01*
X131567595Y-103750726D01*
X131679052Y-103943774D01*
X131679057Y-103943780D01*
X131679058Y-103943782D01*
X131814751Y-104120622D01*
X131814757Y-104120629D01*
X131972370Y-104278242D01*
X131972376Y-104278247D01*
X132149226Y-104413948D01*
X132342274Y-104525405D01*
X132472140Y-104579197D01*
X132516242Y-104597465D01*
X132548219Y-104610710D01*
X132763537Y-104668404D01*
X132984543Y-104697500D01*
X132984550Y-104697500D01*
X133207450Y-104697500D01*
X133207457Y-104697500D01*
X133428463Y-104668404D01*
X133643781Y-104610710D01*
X133849726Y-104525405D01*
X134042774Y-104413948D01*
X134219624Y-104278247D01*
X134377247Y-104120624D01*
X134512948Y-103943774D01*
X134624405Y-103750726D01*
X134709710Y-103544781D01*
X134767404Y-103329463D01*
X134796500Y-103108457D01*
X134796500Y-102885549D01*
X138634500Y-102885549D01*
X138634500Y-103108450D01*
X138634501Y-103108466D01*
X138663594Y-103329452D01*
X138663595Y-103329457D01*
X138663596Y-103329463D01*
X138663597Y-103329465D01*
X138721290Y-103544780D01*
X138721293Y-103544790D01*
X138784250Y-103696781D01*
X138806595Y-103750726D01*
X138918052Y-103943774D01*
X138918057Y-103943780D01*
X138918058Y-103943782D01*
X139053751Y-104120622D01*
X139053757Y-104120629D01*
X139211370Y-104278242D01*
X139211376Y-104278247D01*
X139388226Y-104413948D01*
X139581274Y-104525405D01*
X139711140Y-104579197D01*
X139755242Y-104597465D01*
X139787219Y-104610710D01*
X140002537Y-104668404D01*
X140223543Y-104697500D01*
X140223550Y-104697500D01*
X140446450Y-104697500D01*
X140446457Y-104697500D01*
X140667463Y-104668404D01*
X140882781Y-104610710D01*
X141088726Y-104525405D01*
X141281774Y-104413948D01*
X141458624Y-104278247D01*
X141616247Y-104120624D01*
X141751948Y-103943774D01*
X141863405Y-103750726D01*
X141948710Y-103544781D01*
X142006404Y-103329463D01*
X142035500Y-103108457D01*
X142035500Y-102885543D01*
X142006404Y-102664537D01*
X141948710Y-102449219D01*
X141863405Y-102243274D01*
X141751948Y-102050226D01*
X141616247Y-101873376D01*
X141616242Y-101873370D01*
X141458629Y-101715757D01*
X141458622Y-101715751D01*
X141281782Y-101580058D01*
X141281780Y-101580057D01*
X141281774Y-101580052D01*
X141088726Y-101468595D01*
X141088722Y-101468593D01*
X140882790Y-101383293D01*
X140882783Y-101383291D01*
X140882781Y-101383290D01*
X140667463Y-101325596D01*
X140667457Y-101325595D01*
X140667452Y-101325594D01*
X140446466Y-101296501D01*
X140446463Y-101296500D01*
X140446457Y-101296500D01*
X140223543Y-101296500D01*
X140223537Y-101296500D01*
X140223533Y-101296501D01*
X140002547Y-101325594D01*
X140002540Y-101325595D01*
X140002537Y-101325596D01*
X139958704Y-101337341D01*
X139787219Y-101383290D01*
X139787209Y-101383293D01*
X139581277Y-101468593D01*
X139581273Y-101468595D01*
X139388226Y-101580052D01*
X139388217Y-101580058D01*
X139211377Y-101715751D01*
X139211370Y-101715757D01*
X139053757Y-101873370D01*
X139053751Y-101873377D01*
X138918058Y-102050217D01*
X138918052Y-102050226D01*
X138806595Y-102243273D01*
X138806593Y-102243277D01*
X138721293Y-102449209D01*
X138721290Y-102449219D01*
X138663597Y-102664534D01*
X138663594Y-102664547D01*
X138634501Y-102885533D01*
X138634500Y-102885549D01*
X134796500Y-102885549D01*
X134796500Y-102885543D01*
X134767404Y-102664537D01*
X134709710Y-102449219D01*
X134624405Y-102243274D01*
X134512948Y-102050226D01*
X134377247Y-101873376D01*
X134377242Y-101873370D01*
X134219629Y-101715757D01*
X134219622Y-101715751D01*
X134042782Y-101580058D01*
X134042780Y-101580057D01*
X134042774Y-101580052D01*
X133849726Y-101468595D01*
X133849722Y-101468593D01*
X133643790Y-101383293D01*
X133643783Y-101383291D01*
X133643781Y-101383290D01*
X133428463Y-101325596D01*
X133428457Y-101325595D01*
X133428452Y-101325594D01*
X133207466Y-101296501D01*
X133207463Y-101296500D01*
X133207457Y-101296500D01*
X132984543Y-101296500D01*
X132984537Y-101296500D01*
X132984533Y-101296501D01*
X132763547Y-101325594D01*
X132763540Y-101325595D01*
X132763537Y-101325596D01*
X132719704Y-101337341D01*
X132548219Y-101383290D01*
X132548209Y-101383293D01*
X132342277Y-101468593D01*
X132342273Y-101468595D01*
X132149226Y-101580052D01*
X132149217Y-101580058D01*
X131972377Y-101715751D01*
X131972370Y-101715757D01*
X131814757Y-101873370D01*
X131814751Y-101873377D01*
X131679058Y-102050217D01*
X131679052Y-102050226D01*
X131567595Y-102243273D01*
X131567593Y-102243277D01*
X131482293Y-102449209D01*
X131482290Y-102449219D01*
X131424597Y-102664534D01*
X131424594Y-102664547D01*
X131395501Y-102885533D01*
X131395500Y-102885549D01*
X127627500Y-102885549D01*
X127627500Y-93732870D01*
X132930500Y-93732870D01*
X132930500Y-93965129D01*
X132966831Y-94194514D01*
X133038601Y-94415400D01*
X133056566Y-94450657D01*
X133144039Y-94622331D01*
X133280551Y-94810224D01*
X133444776Y-94974449D01*
X133632669Y-95110961D01*
X133730436Y-95160776D01*
X133839599Y-95216398D01*
X133839601Y-95216398D01*
X133839604Y-95216400D01*
X134060486Y-95288169D01*
X134178668Y-95306886D01*
X134289871Y-95324500D01*
X134289876Y-95324500D01*
X134522129Y-95324500D01*
X134623502Y-95308443D01*
X134751514Y-95288169D01*
X134972396Y-95216400D01*
X135179331Y-95110961D01*
X135367224Y-94974449D01*
X135531449Y-94810224D01*
X135667961Y-94622331D01*
X135773400Y-94415396D01*
X135845169Y-94194514D01*
X135870908Y-94032001D01*
X135881500Y-93965129D01*
X135881500Y-93732870D01*
X137930500Y-93732870D01*
X137930500Y-93965129D01*
X137966831Y-94194514D01*
X138038601Y-94415400D01*
X138056566Y-94450657D01*
X138144039Y-94622331D01*
X138280551Y-94810224D01*
X138444776Y-94974449D01*
X138632669Y-95110961D01*
X138730436Y-95160776D01*
X138839599Y-95216398D01*
X138839601Y-95216398D01*
X138839604Y-95216400D01*
X139060486Y-95288169D01*
X139178668Y-95306886D01*
X139289871Y-95324500D01*
X139289876Y-95324500D01*
X139522129Y-95324500D01*
X139623502Y-95308443D01*
X139751514Y-95288169D01*
X139972396Y-95216400D01*
X140179331Y-95110961D01*
X140367224Y-94974449D01*
X140531449Y-94810224D01*
X140667961Y-94622331D01*
X140773400Y-94415396D01*
X140845169Y-94194514D01*
X140870908Y-94032001D01*
X140881500Y-93965129D01*
X140881500Y-93732870D01*
X140862232Y-93611222D01*
X140845169Y-93503486D01*
X140773400Y-93282604D01*
X140773398Y-93282601D01*
X140773398Y-93282599D01*
X140667960Y-93075668D01*
X140531449Y-92887776D01*
X140367224Y-92723551D01*
X140179331Y-92587039D01*
X139972400Y-92481601D01*
X139751514Y-92409831D01*
X139522129Y-92373500D01*
X139522124Y-92373500D01*
X139289876Y-92373500D01*
X139289871Y-92373500D01*
X139060485Y-92409831D01*
X138839599Y-92481601D01*
X138632668Y-92587039D01*
X138444773Y-92723553D01*
X138280553Y-92887773D01*
X138144039Y-93075668D01*
X138038601Y-93282599D01*
X137966831Y-93503485D01*
X137930500Y-93732870D01*
X135881500Y-93732870D01*
X135862232Y-93611222D01*
X135845169Y-93503486D01*
X135773400Y-93282604D01*
X135773398Y-93282601D01*
X135773398Y-93282599D01*
X135667960Y-93075668D01*
X135531449Y-92887776D01*
X135367224Y-92723551D01*
X135179331Y-92587039D01*
X134972400Y-92481601D01*
X134751514Y-92409831D01*
X134522129Y-92373500D01*
X134522124Y-92373500D01*
X134289876Y-92373500D01*
X134289871Y-92373500D01*
X134060485Y-92409831D01*
X133839599Y-92481601D01*
X133632668Y-92587039D01*
X133444773Y-92723553D01*
X133280553Y-92887773D01*
X133144039Y-93075668D01*
X133038601Y-93282599D01*
X132966831Y-93503485D01*
X132930500Y-93732870D01*
X127627500Y-93732870D01*
X127627500Y-88762500D01*
X127647185Y-88695461D01*
X127699989Y-88649706D01*
X127751500Y-88638500D01*
X153807144Y-88638500D01*
X153838946Y-88647838D01*
G37*
%TD.AperFunction*%
%TD*%
M02*
