%TF.GenerationSoftware,KiCad,Pcbnew,9.0.5*%
%TF.CreationDate,2025-10-20T10:37:31-05:00*%
%TF.ProjectId,preamp_better,70726561-6d70-45f6-9265-747465722e6b,0*%
%TF.SameCoordinates,Original*%
%TF.FileFunction,Soldermask,Top*%
%TF.FilePolarity,Negative*%
%FSLAX46Y46*%
G04 Gerber Fmt 4.6, Leading zero omitted, Abs format (unit mm)*
G04 Created by KiCad (PCBNEW 9.0.5) date 2025-10-20 10:37:31*
%MOMM*%
%LPD*%
G01*
G04 APERTURE LIST*
G04 Aperture macros list*
%AMRoundRect*
0 Rectangle with rounded corners*
0 $1 Rounding radius*
0 $2 $3 $4 $5 $6 $7 $8 $9 X,Y pos of 4 corners*
0 Add a 4 corners polygon primitive as box body*
4,1,4,$2,$3,$4,$5,$6,$7,$8,$9,$2,$3,0*
0 Add four circle primitives for the rounded corners*
1,1,$1+$1,$2,$3*
1,1,$1+$1,$4,$5*
1,1,$1+$1,$6,$7*
1,1,$1+$1,$8,$9*
0 Add four rect primitives between the rounded corners*
20,1,$1+$1,$2,$3,$4,$5,0*
20,1,$1+$1,$4,$5,$6,$7,0*
20,1,$1+$1,$6,$7,$8,$9,0*
20,1,$1+$1,$8,$9,$2,$3,0*%
G04 Aperture macros list end*
%ADD10RoundRect,0.250000X-0.312500X-0.625000X0.312500X-0.625000X0.312500X0.625000X-0.312500X0.625000X0*%
%ADD11RoundRect,0.250000X0.625000X-0.312500X0.625000X0.312500X-0.625000X0.312500X-0.625000X-0.312500X0*%
%ADD12C,1.600000*%
%ADD13RoundRect,0.250000X-0.625000X0.312500X-0.625000X-0.312500X0.625000X-0.312500X0.625000X0.312500X0*%
%ADD14RoundRect,0.150000X-0.825000X-0.150000X0.825000X-0.150000X0.825000X0.150000X-0.825000X0.150000X0*%
%ADD15RoundRect,0.250000X0.550000X0.550000X-0.550000X0.550000X-0.550000X-0.550000X0.550000X-0.550000X0*%
%ADD16C,2.154000*%
%ADD17C,2.400000*%
%ADD18RoundRect,0.250000X0.312500X0.625000X-0.312500X0.625000X-0.312500X-0.625000X0.312500X-0.625000X0*%
%ADD19C,1.200000*%
%ADD20O,1.200000X2.200000*%
%ADD21O,2.200000X1.200000*%
%ADD22R,3.000000X3.000000*%
%ADD23C,3.000000*%
%ADD24RoundRect,0.250000X-0.550000X-0.550000X0.550000X-0.550000X0.550000X0.550000X-0.550000X0.550000X0*%
G04 APERTURE END LIST*
D10*
%TO.C,R1*%
X103537500Y-95000000D03*
X106462500Y-95000000D03*
%TD*%
%TO.C,R4*%
X73537500Y-65000000D03*
X76462500Y-65000000D03*
%TD*%
D11*
%TO.C,R17*%
X131000000Y-95462500D03*
X131000000Y-92537500D03*
%TD*%
D12*
%TO.C,C9*%
X92730000Y-102235000D03*
X95230000Y-102235000D03*
%TD*%
D11*
%TO.C,R3*%
X82000000Y-104462500D03*
X82000000Y-101537500D03*
%TD*%
D12*
%TO.C,C6*%
X92710000Y-92075000D03*
X95210000Y-92075000D03*
%TD*%
%TO.C,C2*%
X70000000Y-105000000D03*
X70000000Y-100000000D03*
%TD*%
D10*
%TO.C,R9*%
X107537500Y-80000000D03*
X110462500Y-80000000D03*
%TD*%
D11*
%TO.C,R6*%
X77000000Y-53462500D03*
X77000000Y-50537500D03*
%TD*%
D10*
%TO.C,R13*%
X73537500Y-70000000D03*
X76462500Y-70000000D03*
%TD*%
D13*
%TO.C,R12*%
X106000000Y-60537500D03*
X106000000Y-63462500D03*
%TD*%
D14*
%TO.C,U1*%
X91505000Y-94615000D03*
X91505000Y-95885000D03*
X91505000Y-97155000D03*
X91505000Y-98425000D03*
X96455000Y-98425000D03*
X96455000Y-97155000D03*
X96455000Y-95885000D03*
X96455000Y-94615000D03*
%TD*%
D15*
%TO.C,C7*%
X95250000Y-51435000D03*
D12*
X93250000Y-51435000D03*
%TD*%
D16*
%TO.C,J2*%
X129286000Y-69088000D03*
X129286000Y-74088000D03*
%TD*%
D11*
%TO.C,R18*%
X121000000Y-61462500D03*
X121000000Y-58537500D03*
%TD*%
D13*
%TO.C,R14*%
X102000000Y-60537500D03*
X102000000Y-63462500D03*
%TD*%
%TO.C,R15*%
X130000000Y-58537500D03*
X130000000Y-61462500D03*
%TD*%
D17*
%TO.C,C13*%
X113030000Y-62745000D03*
X113030000Y-47745000D03*
%TD*%
D12*
%TO.C,C3*%
X70000000Y-55000000D03*
X70000000Y-50000000D03*
%TD*%
D10*
%TO.C,R10*%
X116537500Y-80000000D03*
X119462500Y-80000000D03*
%TD*%
D12*
%TO.C,C12*%
X78740000Y-79970000D03*
X78740000Y-74970000D03*
%TD*%
%TO.C,C8*%
X92730000Y-57150000D03*
X95230000Y-57150000D03*
%TD*%
D18*
%TO.C,R11*%
X95442500Y-69000000D03*
X92517500Y-69000000D03*
%TD*%
D19*
%TO.C,J3*%
X130810000Y-47585000D03*
X130810000Y-45085000D03*
X125810000Y-52585000D03*
X120810000Y-47585000D03*
X120810000Y-45085000D03*
D20*
X130810000Y-52585000D03*
D21*
X125810000Y-47585000D03*
D20*
X120810000Y-52585000D03*
%TD*%
D12*
%TO.C,C11*%
X70000000Y-80000000D03*
X70000000Y-75000000D03*
%TD*%
D22*
%TO.C,RV2*%
X57150000Y-97950000D03*
D23*
X57150000Y-102950000D03*
X57150000Y-107950000D03*
%TD*%
D17*
%TO.C,C1*%
X113030000Y-92195000D03*
X113030000Y-107195000D03*
%TD*%
D19*
%TO.C,J1*%
X120810000Y-107315000D03*
X120810000Y-109815000D03*
X125810000Y-102315000D03*
X130810000Y-107315000D03*
X130810000Y-109815000D03*
D20*
X120810000Y-102315000D03*
D21*
X125810000Y-107315000D03*
D20*
X130810000Y-102315000D03*
%TD*%
D12*
%TO.C,C4*%
X84000000Y-61000000D03*
X84000000Y-63500000D03*
%TD*%
D24*
%TO.C,C10*%
X93250000Y-107950000D03*
D12*
X95250000Y-107950000D03*
%TD*%
D10*
%TO.C,R7*%
X73537500Y-90000000D03*
X76462500Y-90000000D03*
%TD*%
D14*
%TO.C,U2*%
X91505000Y-60325000D03*
X91505000Y-61595000D03*
X91505000Y-62865000D03*
X91505000Y-64135000D03*
X96455000Y-64135000D03*
X96455000Y-62865000D03*
X96455000Y-61595000D03*
X96455000Y-60325000D03*
%TD*%
D22*
%TO.C,RV1*%
X57150000Y-47150000D03*
D23*
X57150000Y-52150000D03*
X57150000Y-57150000D03*
%TD*%
D10*
%TO.C,R8*%
X73537500Y-60000000D03*
X76462500Y-60000000D03*
%TD*%
D11*
%TO.C,R5*%
X86360000Y-73852500D03*
X86360000Y-70927500D03*
%TD*%
D10*
%TO.C,R2*%
X103537500Y-100000000D03*
X106462500Y-100000000D03*
%TD*%
D22*
%TO.C,RV3*%
X57150000Y-72550000D03*
D23*
X57150000Y-77550000D03*
X57150000Y-82550000D03*
%TD*%
D24*
%TO.C,C5*%
X93250000Y-86360000D03*
D12*
X95250000Y-86360000D03*
%TD*%
D11*
%TO.C,R16*%
X121000000Y-95462500D03*
X121000000Y-92537500D03*
%TD*%
M02*
