%TF.GenerationSoftware,KiCad,Pcbnew,9.0.7*%
%TF.CreationDate,2026-02-09T12:37:11-06:00*%
%TF.ProjectId,poweramp,706f7765-7261-46d7-902e-6b696361645f,rev?*%
%TF.SameCoordinates,Original*%
%TF.FileFunction,Soldermask,Top*%
%TF.FilePolarity,Negative*%
%FSLAX46Y46*%
G04 Gerber Fmt 4.6, Leading zero omitted, Abs format (unit mm)*
G04 Created by KiCad (PCBNEW 9.0.7) date 2026-02-09 12:37:11*
%MOMM*%
%LPD*%
G01*
G04 APERTURE LIST*
G04 Aperture macros list*
%AMRoundRect*
0 Rectangle with rounded corners*
0 $1 Rounding radius*
0 $2 $3 $4 $5 $6 $7 $8 $9 X,Y pos of 4 corners*
0 Add a 4 corners polygon primitive as box body*
4,1,4,$2,$3,$4,$5,$6,$7,$8,$9,$2,$3,0*
0 Add four circle primitives for the rounded corners*
1,1,$1+$1,$2,$3*
1,1,$1+$1,$4,$5*
1,1,$1+$1,$6,$7*
1,1,$1+$1,$8,$9*
0 Add four rect primitives between the rounded corners*
20,1,$1+$1,$2,$3,$4,$5,0*
20,1,$1+$1,$4,$5,$6,$7,0*
20,1,$1+$1,$6,$7,$8,$9,0*
20,1,$1+$1,$8,$9,$2,$3,0*%
G04 Aperture macros list end*
%ADD10C,0.100000*%
%ADD11R,1.409700X0.355600*%
%ADD12RoundRect,0.250000X-0.325000X-0.650000X0.325000X-0.650000X0.325000X0.650000X-0.325000X0.650000X0*%
%ADD13C,2.154000*%
%ADD14RoundRect,0.250000X0.650000X-0.325000X0.650000X0.325000X-0.650000X0.325000X-0.650000X-0.325000X0*%
%ADD15C,1.600000*%
%ADD16C,2.400000*%
%ADD17RoundRect,0.250000X-0.650000X0.325000X-0.650000X-0.325000X0.650000X-0.325000X0.650000X0.325000X0*%
%ADD18RoundRect,0.250000X-0.550000X0.550000X-0.550000X-0.550000X0.550000X-0.550000X0.550000X0.550000X0*%
%ADD19RoundRect,0.250000X0.550000X-0.550000X0.550000X0.550000X-0.550000X0.550000X-0.550000X-0.550000X0*%
%ADD20RoundRect,0.475000X2.075000X-0.475000X2.075000X0.475000X-2.075000X0.475000X-2.075000X-0.475000X0*%
%ADD21RoundRect,0.475000X-2.075000X0.475000X-2.075000X-0.475000X2.075000X-0.475000X2.075000X0.475000X0*%
%ADD22RoundRect,0.250000X0.325000X0.650000X-0.325000X0.650000X-0.325000X-0.650000X0.325000X-0.650000X0*%
%ADD23RoundRect,0.250000X-0.312500X-0.625000X0.312500X-0.625000X0.312500X0.625000X-0.312500X0.625000X0*%
%ADD24RoundRect,0.250000X0.625000X-0.312500X0.625000X0.312500X-0.625000X0.312500X-0.625000X-0.312500X0*%
G04 APERTURE END LIST*
D10*
X162560000Y-105410000D02*
X167640000Y-105410000D01*
X167640000Y-116332000D01*
X162560000Y-116332000D01*
X162560000Y-105410000D01*
G36*
X162560000Y-105410000D02*
G01*
X167640000Y-105410000D01*
X167640000Y-116332000D01*
X162560000Y-116332000D01*
X162560000Y-105410000D01*
G37*
D11*
%TO.C,U1*%
X161196350Y-106030001D03*
X161196350Y-106680002D03*
X161196350Y-107330001D03*
X161196350Y-107980002D03*
X161196350Y-108630001D03*
X161196350Y-109280002D03*
X161196350Y-109930001D03*
X161196350Y-110580002D03*
X161196350Y-111230001D03*
X161196350Y-111879999D03*
X161196350Y-112530001D03*
X161196350Y-113179999D03*
X161196350Y-113830000D03*
X161196350Y-114479999D03*
X161196350Y-115130000D03*
X161196350Y-115779999D03*
X168803650Y-115779999D03*
X168803650Y-115129998D03*
X168803650Y-114479999D03*
X168803650Y-113829998D03*
X168803650Y-113179999D03*
X168803650Y-112529998D03*
X168803650Y-111879999D03*
X168803650Y-111229998D03*
X168803650Y-110579999D03*
X168803650Y-109929998D03*
X168803650Y-109279999D03*
X168803650Y-108629998D03*
X168803650Y-107980000D03*
X168803650Y-107329998D03*
X168803650Y-106680000D03*
X168803650Y-106030001D03*
%TD*%
D12*
%TO.C,C17*%
X187247000Y-108585000D03*
X190197000Y-108585000D03*
%TD*%
D13*
%TO.C,Audio_OUT1*%
X202946000Y-109514000D03*
X202946000Y-114514000D03*
%TD*%
D14*
%TO.C,C8*%
X177341000Y-105615000D03*
X177341000Y-102665000D03*
%TD*%
%TO.C,C10*%
X173355000Y-102313000D03*
X173355000Y-99363000D03*
%TD*%
D15*
%TO.C,R1*%
X150495000Y-118237000D03*
X150495000Y-128397000D03*
%TD*%
D12*
%TO.C,C1*%
X191995000Y-93997000D03*
X194945000Y-93997000D03*
%TD*%
%TO.C,C18*%
X187247000Y-114427000D03*
X190197000Y-114427000D03*
%TD*%
D16*
%TO.C,C15*%
X133096000Y-102997000D03*
X133096000Y-117997000D03*
%TD*%
D17*
%TO.C,C13*%
X169926000Y-120572000D03*
X169926000Y-123522000D03*
%TD*%
D18*
%TO.C,C14*%
X183134000Y-130048000D03*
D15*
X183134000Y-132548000D03*
%TD*%
D17*
%TO.C,C5*%
X177546000Y-116254000D03*
X177546000Y-119204000D03*
%TD*%
%TO.C,C6*%
X183261000Y-105459000D03*
X183261000Y-108409000D03*
%TD*%
%TO.C,C2*%
X149860000Y-111428000D03*
X149860000Y-114378000D03*
%TD*%
D14*
%TO.C,C9*%
X169926000Y-102313000D03*
X169926000Y-99363000D03*
%TD*%
D19*
%TO.C,C11*%
X183134000Y-93432000D03*
D15*
X183134000Y-90932000D03*
%TD*%
D13*
%TO.C,Power1*%
X139279000Y-131568000D03*
X134279000Y-131568000D03*
%TD*%
D20*
%TO.C,L1*%
X184023000Y-101863000D03*
X184023000Y-97663000D03*
%TD*%
D14*
%TO.C,C7*%
X183261000Y-116156000D03*
X183261000Y-113206000D03*
%TD*%
D16*
%TO.C,C3*%
X140335000Y-102997000D03*
X140335000Y-117997000D03*
%TD*%
D21*
%TO.C,L4*%
X184015000Y-120921000D03*
X184015000Y-125121000D03*
%TD*%
D15*
%TO.C,R5*%
X197104000Y-104902000D03*
X186944000Y-104902000D03*
%TD*%
D12*
%TO.C,C4*%
X191995000Y-128270000D03*
X194945000Y-128270000D03*
%TD*%
D13*
%TO.C,Audio_IN1*%
X134406000Y-93849000D03*
X139406000Y-93849000D03*
%TD*%
D22*
%TO.C,C16*%
X157304000Y-117348000D03*
X154354000Y-117348000D03*
%TD*%
D23*
%TO.C,R4*%
X154366500Y-113792000D03*
X157291500Y-113792000D03*
%TD*%
D24*
%TO.C,R3*%
X154940000Y-103316500D03*
X154940000Y-100391500D03*
%TD*%
D15*
%TO.C,R2*%
X147066000Y-118237000D03*
X147066000Y-128397000D03*
%TD*%
%TO.C,R6*%
X197104000Y-117856000D03*
X186944000Y-117856000D03*
%TD*%
D17*
%TO.C,C12*%
X173355000Y-120523000D03*
X173355000Y-123473000D03*
%TD*%
M02*
