M48
; DRILL file {KiCad 9.0.7} date 2026-02-09T12:37:38-0600
; FORMAT={-:-/ absolute / metric / decimal}
; #@! TF.CreationDate,2026-02-09T12:37:38-06:00
; #@! TF.GenerationSoftware,Kicad,Pcbnew,9.0.7
; #@! TF.FileFunction,Plated,1,2,PTH
FMAT,2
METRIC
; #@! TA.AperFunction,Plated,PTH,ViaDrill
T1C0.300
; #@! TA.AperFunction,Plated,PTH,ComponentDrill
T2C0.800
; #@! TA.AperFunction,Plated,PTH,ComponentDrill
T3C1.200
; #@! TA.AperFunction,Plated,PTH,ComponentDrill
T4C1.300
%
G90
G05
T1
X154.94Y-101.6
X155.194Y-113.792
X155.321Y-117.348
X156.972Y-100.965
X157.353Y-122.174
X160.274Y-100.965
X160.274Y-104.14
X160.655Y-118.872
X160.655Y-122.047
X163.83Y-100.965
X163.83Y-104.14
X163.83Y-105.791
X163.83Y-107.95
X163.83Y-110.49
X163.83Y-113.03
X163.83Y-115.57
X164.211Y-118.872
X164.211Y-122.047
X165.1Y-105.791
X165.1Y-107.95
X165.1Y-110.49
X165.1Y-113.03
X165.1Y-115.57
X166.37Y-105.791
X166.37Y-107.95
X166.37Y-110.49
X166.37Y-113.03
X166.37Y-115.57
X167.132Y-100.965
X167.132Y-104.14
X167.386Y-108.585
X167.386Y-110.617
X167.386Y-112.522
X167.513Y-118.872
X167.513Y-122.047
X188.722Y-108.585
X188.722Y-114.427
T2
X147.066Y-118.237
X147.066Y-128.397
X150.495Y-118.237
X150.495Y-128.397
X183.134Y-90.932
X183.134Y-93.432
X183.134Y-130.048
X183.134Y-132.548
X186.944Y-104.902
X186.944Y-117.856
X197.104Y-104.902
X197.104Y-117.856
T3
X133.096Y-102.997
X133.096Y-117.997
X140.335Y-102.997
X140.335Y-117.997
T4
X134.279Y-131.568
X134.406Y-93.849
X139.279Y-131.568
X139.406Y-93.849
X202.946Y-109.514
X202.946Y-114.514
M30
