%TF.GenerationSoftware,KiCad,Pcbnew,9.0.5*%
%TF.CreationDate,2025-10-29T12:04:31-05:00*%
%TF.ProjectId,poweramp,706f7765-7261-46d7-902e-6b696361645f,rev?*%
%TF.SameCoordinates,Original*%
%TF.FileFunction,Copper,L1,Top*%
%TF.FilePolarity,Positive*%
%FSLAX46Y46*%
G04 Gerber Fmt 4.6, Leading zero omitted, Abs format (unit mm)*
G04 Created by KiCad (PCBNEW 9.0.5) date 2025-10-29 12:04:31*
%MOMM*%
%LPD*%
G01*
G04 APERTURE LIST*
G04 Aperture macros list*
%AMRoundRect*
0 Rectangle with rounded corners*
0 $1 Rounding radius*
0 $2 $3 $4 $5 $6 $7 $8 $9 X,Y pos of 4 corners*
0 Add a 4 corners polygon primitive as box body*
4,1,4,$2,$3,$4,$5,$6,$7,$8,$9,$2,$3,0*
0 Add four circle primitives for the rounded corners*
1,1,$1+$1,$2,$3*
1,1,$1+$1,$4,$5*
1,1,$1+$1,$6,$7*
1,1,$1+$1,$8,$9*
0 Add four rect primitives between the rounded corners*
20,1,$1+$1,$2,$3,$4,$5,0*
20,1,$1+$1,$4,$5,$6,$7,0*
20,1,$1+$1,$6,$7,$8,$9,0*
20,1,$1+$1,$8,$9,$2,$3,0*%
G04 Aperture macros list end*
%TA.AperFunction,SMDPad,CuDef*%
%ADD10R,1.409700X0.355600*%
%TD*%
%TA.AperFunction,ComponentPad*%
%ADD11RoundRect,0.250000X-0.550000X0.550000X-0.550000X-0.550000X0.550000X-0.550000X0.550000X0.550000X0*%
%TD*%
%TA.AperFunction,ComponentPad*%
%ADD12C,1.600000*%
%TD*%
%TA.AperFunction,ComponentPad*%
%ADD13C,3.616000*%
%TD*%
%TA.AperFunction,ComponentPad*%
%ADD14C,2.550000*%
%TD*%
%TA.AperFunction,SMDPad,CuDef*%
%ADD15RoundRect,0.250000X-0.650000X0.325000X-0.650000X-0.325000X0.650000X-0.325000X0.650000X0.325000X0*%
%TD*%
%TA.AperFunction,ComponentPad*%
%ADD16C,1.950000*%
%TD*%
%TA.AperFunction,SMDPad,CuDef*%
%ADD17RoundRect,0.250000X-0.325000X-0.650000X0.325000X-0.650000X0.325000X0.650000X-0.325000X0.650000X0*%
%TD*%
%TA.AperFunction,SMDPad,CuDef*%
%ADD18RoundRect,0.250000X0.625000X-0.312500X0.625000X0.312500X-0.625000X0.312500X-0.625000X-0.312500X0*%
%TD*%
%TA.AperFunction,SMDPad,CuDef*%
%ADD19RoundRect,0.250000X0.650000X-0.325000X0.650000X0.325000X-0.650000X0.325000X-0.650000X-0.325000X0*%
%TD*%
%TA.AperFunction,SMDPad,CuDef*%
%ADD20RoundRect,0.475000X-0.475000X-2.075000X0.475000X-2.075000X0.475000X2.075000X-0.475000X2.075000X0*%
%TD*%
%TA.AperFunction,ComponentPad*%
%ADD21C,2.400000*%
%TD*%
%TA.AperFunction,SMDPad,CuDef*%
%ADD22RoundRect,0.250000X0.325000X0.650000X-0.325000X0.650000X-0.325000X-0.650000X0.325000X-0.650000X0*%
%TD*%
%TA.AperFunction,ComponentPad*%
%ADD23RoundRect,0.250000X0.550000X-0.550000X0.550000X0.550000X-0.550000X0.550000X-0.550000X-0.550000X0*%
%TD*%
%TA.AperFunction,SMDPad,CuDef*%
%ADD24RoundRect,0.250000X-0.312500X-0.625000X0.312500X-0.625000X0.312500X0.625000X-0.312500X0.625000X0*%
%TD*%
%TA.AperFunction,SMDPad,CuDef*%
%ADD25RoundRect,0.475000X-2.075000X0.475000X-2.075000X-0.475000X2.075000X-0.475000X2.075000X0.475000X0*%
%TD*%
%TA.AperFunction,ViaPad*%
%ADD26C,0.600000*%
%TD*%
%TA.AperFunction,ViaPad*%
%ADD27C,0.800000*%
%TD*%
%TA.AperFunction,Conductor*%
%ADD28C,0.300000*%
%TD*%
%TA.AperFunction,Conductor*%
%ADD29C,0.500000*%
%TD*%
%TA.AperFunction,Conductor*%
%ADD30C,0.800000*%
%TD*%
%TA.AperFunction,Conductor*%
%ADD31C,0.400000*%
%TD*%
%TA.AperFunction,Conductor*%
%ADD32C,0.600000*%
%TD*%
%TA.AperFunction,Conductor*%
%ADD33C,0.700000*%
%TD*%
G04 APERTURE END LIST*
D10*
%TO.P,U1,1,MODSEL*%
%TO.N,GND*%
X148596350Y-101845001D03*
%TO.P,U1,2,SDZ*%
%TO.N,Net-(U1-FAULTZ)*%
X148596350Y-102495002D03*
%TO.P,U1,3,FAULTZ*%
X148596350Y-103145001D03*
%TO.P,U1,4,RINP*%
%TO.N,Net-(U1-RINP)*%
X148596350Y-103795002D03*
%TO.P,U1,5,RINN*%
%TO.N,Net-(U1-RINN)*%
X148596350Y-104445001D03*
%TO.P,U1,6,PLIMIT*%
%TO.N,Net-(U1-GVDD)*%
X148596350Y-105095002D03*
%TO.P,U1,7,GVDD*%
X148596350Y-105745001D03*
%TO.P,U1,8,GAIN/SLV*%
%TO.N,Net-(U1-GAIN{slash}SLV)*%
X148596350Y-106395002D03*
%TO.P,U1,9,GND*%
%TO.N,GND*%
X148596350Y-107045001D03*
%TO.P,U1,10,LINP*%
X148596350Y-107694999D03*
%TO.P,U1,11,LINN*%
X148596350Y-108345001D03*
%TO.P,U1,12,MUTE*%
X148596350Y-108994999D03*
%TO.P,U1,13,AM2*%
X148596350Y-109645000D03*
%TO.P,U1,14,AM1*%
X148596350Y-110294999D03*
%TO.P,U1,15,AM0*%
X148596350Y-110945000D03*
%TO.P,U1,16,SYNC*%
%TO.N,unconnected-(U1-SYNC-Pad16)*%
X148596350Y-111594999D03*
%TO.P,U1,17,AVCC*%
%TO.N,VCC*%
X156203650Y-111594999D03*
%TO.P,U1,18,PVCC*%
X156203650Y-110944998D03*
%TO.P,U1,19,PVCC*%
X156203650Y-110294999D03*
%TO.P,U1,20,BSNL*%
%TO.N,Net-(U1-BSNL)*%
X156203650Y-109644998D03*
%TO.P,U1,21,OUTNL*%
%TO.N,Net-(U1-OUTNL)*%
X156203650Y-108994999D03*
%TO.P,U1,22,GND*%
%TO.N,GND*%
X156203650Y-108344998D03*
%TO.P,U1,23,OUTPL*%
%TO.N,Net-(U1-OUTNL)*%
X156203650Y-107694999D03*
%TO.P,U1,24,BSPL*%
%TO.N,Net-(U1-BSPL)*%
X156203650Y-107044998D03*
%TO.P,U1,25,GND*%
%TO.N,GND*%
X156203650Y-106394999D03*
%TO.P,U1,26,BSNR*%
%TO.N,Net-(U1-BSNR)*%
X156203650Y-105744998D03*
%TO.P,U1,27,OUTNR*%
%TO.N,Net-(U1-OUTNR)*%
X156203650Y-105094999D03*
%TO.P,U1,28,GND*%
%TO.N,GND*%
X156203650Y-104444998D03*
%TO.P,U1,29,OUTPR*%
%TO.N,Net-(U1-OUTNR)*%
X156203650Y-103795000D03*
%TO.P,U1,30,BSPR*%
%TO.N,Net-(U1-BSPR)*%
X156203650Y-103144998D03*
%TO.P,U1,31,PVCC*%
%TO.N,VCC*%
X156203650Y-102495000D03*
%TO.P,U1,32,PVCC*%
X156203650Y-101845001D03*
%TD*%
D11*
%TO.P,C14,1*%
%TO.N,VCC*%
X153416000Y-114808000D03*
D12*
%TO.P,C14,2*%
%TO.N,GND*%
X153416000Y-116808000D03*
%TD*%
D13*
%TO.P,J2,1A,1*%
%TO.N,Net-(J2-1)*%
X143938000Y-98406000D03*
%TO.P,J2,1B,1__1*%
X133938000Y-98406000D03*
%TO.P,J2,1C,1__2*%
X138938000Y-93906000D03*
D14*
%TO.P,J2,2,2*%
%TO.N,Net-(C3-Pad1)*%
X138938000Y-98406000D03*
%TD*%
D15*
%TO.P,C8,1*%
%TO.N,Net-(U1-OUTNR)*%
X163830000Y-102070000D03*
%TO.P,C8,2*%
%TO.N,Net-(U1-BSPR)*%
X163830000Y-105020000D03*
%TD*%
D16*
%TO.P,SpeakerR1,1,Pin_1*%
%TO.N,Net-(SpeakerR1-Pin_1)*%
X177800000Y-111800000D03*
%TO.P,SpeakerR1,2,Pin_2*%
%TO.N,Net-(SpeakerR1-Pin_2)*%
X177800000Y-116800000D03*
%TD*%
D17*
%TO.P,C10,1*%
%TO.N,VCC*%
X159815000Y-99568000D03*
%TO.P,C10,2*%
%TO.N,GND*%
X162765000Y-99568000D03*
%TD*%
D15*
%TO.P,C6,1*%
%TO.N,Net-(U1-OUTNR)*%
X161036000Y-102108000D03*
%TO.P,C6,2*%
%TO.N,Net-(U1-BSNR)*%
X161036000Y-105058000D03*
%TD*%
D18*
%TO.P,R1,1*%
%TO.N,GND*%
X144780000Y-115802500D03*
%TO.P,R1,2*%
%TO.N,Net-(U1-GAIN{slash}SLV)*%
X144780000Y-112877500D03*
%TD*%
D19*
%TO.P,C7,1*%
%TO.N,Net-(U1-OUTNL)*%
X160655000Y-109806000D03*
%TO.P,C7,2*%
%TO.N,Net-(U1-BSPL)*%
X160655000Y-106856000D03*
%TD*%
D20*
%TO.P,L1,1,1*%
%TO.N,Net-(U1-OUTNR)*%
X167318000Y-102362000D03*
%TO.P,L1,2,2*%
%TO.N,Net-(SpeakerR1-Pin_1)*%
X171518000Y-102362000D03*
%TD*%
D17*
%TO.P,C13,1*%
%TO.N,VCC*%
X157021000Y-113538000D03*
%TO.P,C13,2*%
%TO.N,GND*%
X159971000Y-113538000D03*
%TD*%
D21*
%TO.P,C15,1*%
%TO.N,Net-(J2-1)*%
X134600000Y-118000000D03*
%TO.P,C15,2*%
%TO.N,Net-(U1-RINN)*%
X134600000Y-103000000D03*
%TD*%
D22*
%TO.P,C4,1*%
%TO.N,Net-(SpeakerR1-Pin_2)*%
X165305000Y-113538000D03*
%TO.P,C4,2*%
%TO.N,GND*%
X162355000Y-113538000D03*
%TD*%
D15*
%TO.P,C2,1*%
%TO.N,Net-(U1-GVDD)*%
X148590000Y-114095000D03*
%TO.P,C2,2*%
%TO.N,GND*%
X148590000Y-117045000D03*
%TD*%
D21*
%TO.P,C3,1*%
%TO.N,Net-(C3-Pad1)*%
X140400000Y-118000000D03*
%TO.P,C3,2*%
%TO.N,Net-(U1-RINP)*%
X140400000Y-103000000D03*
%TD*%
D22*
%TO.P,C1,1*%
%TO.N,Net-(SpeakerR1-Pin_1)*%
X170844000Y-106934000D03*
%TO.P,C1,2*%
%TO.N,GND*%
X167894000Y-106934000D03*
%TD*%
D23*
%TO.P,C11,1*%
%TO.N,VCC*%
X156464000Y-97790000D03*
D12*
%TO.P,C11,2*%
%TO.N,GND*%
X156464000Y-95790000D03*
%TD*%
D16*
%TO.P,Power1,1,Pin_1*%
%TO.N,VCC*%
X177800000Y-99100000D03*
%TO.P,Power1,2,Pin_2*%
%TO.N,GND*%
X177800000Y-104100000D03*
%TD*%
D17*
%TO.P,C12,1*%
%TO.N,VCC*%
X157021000Y-116078000D03*
%TO.P,C12,2*%
%TO.N,GND*%
X159971000Y-116078000D03*
%TD*%
D24*
%TO.P,R3,1*%
%TO.N,Net-(U1-FAULTZ)*%
X149667500Y-99060000D03*
%TO.P,R3,2*%
%TO.N,VCC*%
X152592500Y-99060000D03*
%TD*%
D25*
%TO.P,L4,1,1*%
%TO.N,Net-(U1-OUTNL)*%
X169672000Y-110100000D03*
%TO.P,L4,2,2*%
%TO.N,Net-(SpeakerR1-Pin_2)*%
X169672000Y-114300000D03*
%TD*%
D15*
%TO.P,C5,1*%
%TO.N,Net-(U1-OUTNL)*%
X164465000Y-107618000D03*
%TO.P,C5,2*%
%TO.N,Net-(U1-BSNL)*%
X164465000Y-110568000D03*
%TD*%
D18*
%TO.P,UNPOP1,1*%
%TO.N,Net-(U1-GAIN{slash}SLV)*%
X144780000Y-109645000D03*
%TO.P,UNPOP1,2*%
%TO.N,Net-(U1-GVDD)*%
X144780000Y-106720000D03*
%TD*%
D17*
%TO.P,C9,1*%
%TO.N,VCC*%
X163371000Y-96774000D03*
%TO.P,C9,2*%
%TO.N,GND*%
X166321000Y-96774000D03*
%TD*%
D26*
%TO.N,GND*%
X153670000Y-111760000D03*
X158400000Y-108800000D03*
X151130000Y-111760000D03*
X157810200Y-104444800D03*
X151130000Y-104140000D03*
X151130000Y-101600000D03*
X152400000Y-111760000D03*
X164592000Y-100330000D03*
X166116000Y-106172000D03*
X157800000Y-106400000D03*
X153670000Y-109220000D03*
X153670000Y-104140000D03*
X151130000Y-106680000D03*
X153670000Y-101600000D03*
X152400000Y-101600000D03*
X152400000Y-106680000D03*
X152400000Y-109220000D03*
X152400000Y-104140000D03*
X151130000Y-109220000D03*
X153670000Y-106680000D03*
D27*
%TO.N,Net-(U1-GVDD)*%
X146685000Y-106045000D03*
X146685000Y-108585000D03*
D26*
%TO.N,Net-(C3-Pad1)*%
X137600000Y-103600000D03*
X137600000Y-106400000D03*
%TO.N,Net-(U1-BSPR)*%
X161400000Y-103600000D03*
X159200000Y-102800000D03*
%TD*%
D28*
%TO.N,GND*%
X156203650Y-108344998D02*
X157944998Y-108344998D01*
X157794999Y-106394999D02*
X157800000Y-106400000D01*
X157810002Y-104444998D02*
X157810200Y-104444800D01*
X156203650Y-106394999D02*
X157794999Y-106394999D01*
X157944998Y-108344998D02*
X158400000Y-108800000D01*
X156203650Y-104444998D02*
X157810002Y-104444998D01*
D29*
%TO.N,Net-(U1-GVDD)*%
X146685000Y-112190000D02*
X146685000Y-108585000D01*
D28*
X144780000Y-106720000D02*
X146010000Y-106720000D01*
X146010000Y-106720000D02*
X146685000Y-106045000D01*
D29*
X148590000Y-114095000D02*
X146685000Y-112190000D01*
D28*
X146984999Y-105745001D02*
X148596350Y-105745001D01*
X148596350Y-105745001D02*
X148596350Y-105095002D01*
X146685000Y-106045000D02*
X146984999Y-105745001D01*
%TO.N,Net-(U1-RINP)*%
X140400000Y-103000000D02*
X141195002Y-103795002D01*
X141195002Y-103795002D02*
X148596350Y-103795002D01*
%TO.N,Net-(C3-Pad1)*%
X140400000Y-118000000D02*
X140400000Y-109200000D01*
X137600000Y-99744000D02*
X138938000Y-98406000D01*
X140400000Y-109200000D02*
X137600000Y-106400000D01*
X137600000Y-103600000D02*
X137600000Y-99744000D01*
D30*
%TO.N,VCC*%
X152592500Y-99060000D02*
X155194000Y-99060000D01*
X155194000Y-99060000D02*
X156464000Y-97790000D01*
X177800000Y-99100000D02*
X169545000Y-99100000D01*
X155751000Y-114808000D02*
X157021000Y-113538000D01*
X159815000Y-99568000D02*
X158480651Y-99568000D01*
X157021000Y-116078000D02*
X157021000Y-113538000D01*
D31*
X156203650Y-102495000D02*
X156203650Y-101845001D01*
D30*
X165697000Y-99100000D02*
X163371000Y-96774000D01*
X156464000Y-101584651D02*
X156203650Y-101845001D01*
X169545000Y-99100000D02*
X165697000Y-99100000D01*
X157021000Y-112412349D02*
X156203650Y-111594999D01*
D32*
X156203650Y-110441004D02*
X156276652Y-110368001D01*
D30*
X163371000Y-96774000D02*
X162609000Y-96774000D01*
D33*
X156203650Y-110944998D02*
X156203650Y-110441004D01*
D30*
X162609000Y-96774000D02*
X159815000Y-99568000D01*
X158480651Y-99568000D02*
X156203650Y-101845001D01*
X156203650Y-111594999D02*
X156203650Y-110944998D01*
X157021000Y-113538000D02*
X157021000Y-112412349D01*
X156464000Y-97790000D02*
X156464000Y-101584651D01*
X153416000Y-114808000D02*
X155751000Y-114808000D01*
D28*
%TO.N,Net-(U1-RINN)*%
X148596350Y-104445001D02*
X146754999Y-104445001D01*
X146754999Y-104445001D02*
X146200000Y-105000000D01*
X136600000Y-105000000D02*
X134600000Y-103000000D01*
X146200000Y-105000000D02*
X136600000Y-105000000D01*
%TO.N,Net-(U1-GAIN{slash}SLV)*%
X144780000Y-109645000D02*
X144780000Y-109082500D01*
X147467498Y-106395002D02*
X148596350Y-106395002D01*
X144780000Y-112877500D02*
X144780000Y-109645000D01*
X144780000Y-109082500D02*
X147467498Y-106395002D01*
%TO.N,Net-(U1-FAULTZ)*%
X148596350Y-102495002D02*
X148596350Y-103145001D01*
D29*
X146812000Y-99568000D02*
X146812000Y-101915502D01*
X147320000Y-99060000D02*
X146812000Y-99568000D01*
X147391500Y-102495002D02*
X148596350Y-102495002D01*
X149667500Y-99060000D02*
X147320000Y-99060000D01*
X146812000Y-101915502D02*
X147391500Y-102495002D01*
D28*
%TO.N,Net-(J2-1)*%
X133938000Y-98406000D02*
X138438000Y-93906000D01*
X132949000Y-116349000D02*
X132949000Y-99395000D01*
X132949000Y-99395000D02*
X133938000Y-98406000D01*
X143438000Y-98406000D02*
X143938000Y-98406000D01*
X134600000Y-118000000D02*
X132949000Y-116349000D01*
X138938000Y-93906000D02*
X143438000Y-98406000D01*
X138438000Y-93906000D02*
X138938000Y-93906000D01*
D30*
%TO.N,Net-(SpeakerR1-Pin_1)*%
X171518000Y-102362000D02*
X171518000Y-106260000D01*
X171518000Y-106260000D02*
X170844000Y-106934000D01*
X177800000Y-111800000D02*
X171518000Y-105518000D01*
X171518000Y-105518000D02*
X171518000Y-102362000D01*
%TO.N,Net-(SpeakerR1-Pin_2)*%
X172172000Y-116800000D02*
X169672000Y-114300000D01*
X168910000Y-113538000D02*
X169672000Y-114300000D01*
X177800000Y-116800000D02*
X172172000Y-116800000D01*
X165305000Y-113538000D02*
X168910000Y-113538000D01*
D28*
%TO.N,Net-(U1-BSNL)*%
X156938299Y-109644998D02*
X156203650Y-109644998D01*
X163890000Y-111143000D02*
X158436301Y-111143000D01*
X158436301Y-111143000D02*
X156938299Y-109644998D01*
X164465000Y-110568000D02*
X163890000Y-111143000D01*
D29*
%TO.N,Net-(U1-OUTNL)*%
X158274629Y-109806000D02*
X160655000Y-109806000D01*
X164465000Y-107618000D02*
X166947000Y-110100000D01*
D28*
X156203650Y-107694999D02*
X158543999Y-107694999D01*
D29*
X160655000Y-109806000D02*
X162277000Y-109806000D01*
X162277000Y-109806000D02*
X164465000Y-107618000D01*
X158543999Y-107694999D02*
X160655000Y-109806000D01*
D28*
X157463628Y-108994999D02*
X158274629Y-109806000D01*
X156203650Y-108994999D02*
X157463628Y-108994999D01*
D29*
X166947000Y-110100000D02*
X169672000Y-110100000D01*
D28*
%TO.N,Net-(U1-BSNR)*%
X160349002Y-105744998D02*
X161036000Y-105058000D01*
X156203650Y-105744998D02*
X160349002Y-105744998D01*
%TO.N,Net-(U1-OUTNR)*%
X156203650Y-105094999D02*
X157399738Y-105094999D01*
D30*
X167318000Y-102362000D02*
X164122000Y-102362000D01*
D28*
X158120861Y-103694800D02*
X157499539Y-103694800D01*
X157399339Y-103795000D02*
X156203650Y-103795000D01*
D30*
X161036000Y-102108000D02*
X163792000Y-102108000D01*
D28*
X158221061Y-103795000D02*
X158120861Y-103694800D01*
X161036000Y-102108000D02*
X159349000Y-103795000D01*
X158120861Y-105194800D02*
X158220662Y-105094999D01*
X157399738Y-105094999D02*
X157499539Y-105194800D01*
X159512000Y-103958000D02*
X159349000Y-103795000D01*
X159512000Y-104648000D02*
X159512000Y-103958000D01*
D29*
X163741200Y-102158800D02*
X163830000Y-102070000D01*
D28*
X158220662Y-105094999D02*
X159065001Y-105094999D01*
X157499539Y-105194800D02*
X158120861Y-105194800D01*
D30*
X164122000Y-102362000D02*
X163830000Y-102070000D01*
D28*
X163792000Y-102108000D02*
X163830000Y-102070000D01*
X159349000Y-103795000D02*
X158221061Y-103795000D01*
X159065001Y-105094999D02*
X159512000Y-104648000D01*
X157499539Y-103694800D02*
X157399339Y-103795000D01*
%TO.N,Net-(U1-BSPL)*%
X156235652Y-107077000D02*
X160434000Y-107077000D01*
X156203650Y-107044998D02*
X156235652Y-107077000D01*
X160434000Y-107077000D02*
X160655000Y-106856000D01*
%TO.N,Net-(U1-BSPR)*%
X157559500Y-102800000D02*
X157214502Y-103144998D01*
X157214502Y-103144998D02*
X156203650Y-103144998D01*
X163830000Y-105020000D02*
X162410000Y-103600000D01*
X159200000Y-102800000D02*
X157559500Y-102800000D01*
X162410000Y-103600000D02*
X161400000Y-103600000D01*
%TD*%
%TA.AperFunction,Conductor*%
%TO.N,GND*%
G36*
X158148808Y-108365184D02*
G01*
X158169450Y-108381818D01*
X158631451Y-108843819D01*
X158642063Y-108863255D01*
X158656564Y-108879989D01*
X158658480Y-108893320D01*
X158664936Y-108905142D01*
X158663356Y-108927228D01*
X158666508Y-108949147D01*
X158660912Y-108961398D01*
X158659952Y-108974834D01*
X158646681Y-108992560D01*
X158637483Y-109012703D01*
X158626151Y-109019985D01*
X158618080Y-109030767D01*
X158597334Y-109038504D01*
X158578705Y-109050477D01*
X158556786Y-109053628D01*
X158552616Y-109055184D01*
X158543770Y-109055500D01*
X158495437Y-109055500D01*
X158428398Y-109035815D01*
X158407756Y-109019181D01*
X157945756Y-108557180D01*
X157912271Y-108495857D01*
X157917255Y-108426165D01*
X157959127Y-108370232D01*
X158024591Y-108345815D01*
X158033437Y-108345499D01*
X158081769Y-108345499D01*
X158148808Y-108365184D01*
G37*
%TD.AperFunction*%
%TA.AperFunction,Conductor*%
G36*
X164030042Y-98709164D02*
G01*
X164046460Y-98722959D01*
X164997536Y-99674035D01*
X165067252Y-99743751D01*
X165122966Y-99799465D01*
X165270449Y-99898011D01*
X165270451Y-99898012D01*
X165290387Y-99906270D01*
X165290390Y-99906271D01*
X165290395Y-99906273D01*
X165434334Y-99965895D01*
X165608303Y-100000499D01*
X165608307Y-100000500D01*
X165608308Y-100000500D01*
X165608309Y-100000500D01*
X165752427Y-100000500D01*
X165819466Y-100020185D01*
X165865221Y-100072989D01*
X165875940Y-100135480D01*
X165867500Y-100230415D01*
X165867500Y-101337500D01*
X165847815Y-101404539D01*
X165795011Y-101450294D01*
X165743500Y-101461500D01*
X165256124Y-101461500D01*
X165189085Y-101441815D01*
X165150585Y-101402597D01*
X165110433Y-101337500D01*
X165072712Y-101276344D01*
X164948656Y-101152288D01*
X164827680Y-101077670D01*
X164799336Y-101060187D01*
X164799331Y-101060185D01*
X164797862Y-101059698D01*
X164632797Y-101005001D01*
X164632795Y-101005000D01*
X164530016Y-100994500D01*
X163673522Y-100994500D01*
X163606483Y-100974815D01*
X163560728Y-100922011D01*
X163550784Y-100852853D01*
X163579809Y-100789297D01*
X163585841Y-100782818D01*
X163682317Y-100686342D01*
X163774356Y-100537124D01*
X163774358Y-100537119D01*
X163829505Y-100370697D01*
X163829506Y-100370690D01*
X163839999Y-100267986D01*
X163840000Y-100267973D01*
X163840000Y-99818000D01*
X161690001Y-99818000D01*
X161690001Y-100267986D01*
X161700494Y-100370697D01*
X161755641Y-100537119D01*
X161755643Y-100537124D01*
X161847684Y-100686345D01*
X161971656Y-100810317D01*
X162038112Y-100851307D01*
X162084837Y-100903255D01*
X162096060Y-100972217D01*
X162068217Y-101036299D01*
X162010148Y-101075156D01*
X161940290Y-101076450D01*
X161934013Y-101074552D01*
X161838799Y-101043001D01*
X161838795Y-101043000D01*
X161736016Y-101032500D01*
X160684905Y-101032500D01*
X160617866Y-101012815D01*
X160572111Y-100960011D01*
X160562167Y-100890853D01*
X160591192Y-100827297D01*
X160608007Y-100811224D01*
X160608645Y-100810718D01*
X160608656Y-100810712D01*
X160732712Y-100686656D01*
X160824814Y-100537334D01*
X160879999Y-100370797D01*
X160890500Y-100268009D01*
X160890499Y-99817360D01*
X160910183Y-99750322D01*
X160926813Y-99729685D01*
X161478320Y-99178178D01*
X161539642Y-99144694D01*
X161609334Y-99149678D01*
X161665267Y-99191550D01*
X161689684Y-99257014D01*
X161690000Y-99265860D01*
X161690000Y-99318000D01*
X163839999Y-99318000D01*
X163839999Y-98868028D01*
X163839998Y-98868013D01*
X163835425Y-98823246D01*
X163848195Y-98754553D01*
X163896075Y-98703669D01*
X163963865Y-98686748D01*
X164030042Y-98709164D01*
G37*
%TD.AperFunction*%
%TA.AperFunction,Conductor*%
G36*
X181839939Y-91325185D02*
G01*
X181885694Y-91377989D01*
X181896900Y-91429500D01*
X181896900Y-120025500D01*
X181877215Y-120092539D01*
X181824411Y-120138294D01*
X181772900Y-120149500D01*
X132221900Y-120149500D01*
X132154861Y-120129815D01*
X132109106Y-120077011D01*
X132097900Y-120025500D01*
X132097900Y-116617489D01*
X132117585Y-116550450D01*
X132170389Y-116504695D01*
X132239547Y-116494751D01*
X132303103Y-116523776D01*
X132336461Y-116570037D01*
X132372532Y-116657123D01*
X132443726Y-116763673D01*
X132443727Y-116763674D01*
X132970460Y-117290406D01*
X133003945Y-117351729D01*
X132998961Y-117421420D01*
X132997341Y-117425538D01*
X132986293Y-117452210D01*
X132986290Y-117452219D01*
X132937455Y-117634477D01*
X132928597Y-117667534D01*
X132928594Y-117667547D01*
X132899501Y-117888533D01*
X132899500Y-117888549D01*
X132899500Y-118111450D01*
X132899501Y-118111466D01*
X132928594Y-118332452D01*
X132928595Y-118332457D01*
X132928596Y-118332463D01*
X132928597Y-118332465D01*
X132986290Y-118547780D01*
X132986293Y-118547790D01*
X133071593Y-118753722D01*
X133071595Y-118753726D01*
X133183052Y-118946774D01*
X133183057Y-118946780D01*
X133183058Y-118946782D01*
X133318751Y-119123622D01*
X133318757Y-119123629D01*
X133476370Y-119281242D01*
X133476376Y-119281247D01*
X133653226Y-119416948D01*
X133846274Y-119528405D01*
X134052219Y-119613710D01*
X134267537Y-119671404D01*
X134488543Y-119700500D01*
X134488550Y-119700500D01*
X134711450Y-119700500D01*
X134711457Y-119700500D01*
X134932463Y-119671404D01*
X135147781Y-119613710D01*
X135353726Y-119528405D01*
X135546774Y-119416948D01*
X135723624Y-119281247D01*
X135881247Y-119123624D01*
X136016948Y-118946774D01*
X136128405Y-118753726D01*
X136213710Y-118547781D01*
X136271404Y-118332463D01*
X136300500Y-118111457D01*
X136300500Y-117888543D01*
X136271404Y-117667537D01*
X136213710Y-117452219D01*
X136128405Y-117246274D01*
X136016948Y-117053226D01*
X135947251Y-116962394D01*
X135881248Y-116876377D01*
X135881242Y-116876370D01*
X135723629Y-116718757D01*
X135723622Y-116718751D01*
X135546782Y-116583058D01*
X135546780Y-116583057D01*
X135546774Y-116583052D01*
X135353726Y-116471595D01*
X135353722Y-116471593D01*
X135147790Y-116386293D01*
X135147783Y-116386291D01*
X135147781Y-116386290D01*
X134932463Y-116328596D01*
X134932457Y-116328595D01*
X134932452Y-116328594D01*
X134711466Y-116299501D01*
X134711463Y-116299500D01*
X134711457Y-116299500D01*
X134488543Y-116299500D01*
X134488537Y-116299500D01*
X134488533Y-116299501D01*
X134267547Y-116328594D01*
X134267540Y-116328595D01*
X134267537Y-116328596D01*
X134202648Y-116345983D01*
X134052219Y-116386290D01*
X134052210Y-116386293D01*
X134025538Y-116397341D01*
X133956069Y-116404808D01*
X133893590Y-116373533D01*
X133890406Y-116370460D01*
X133635819Y-116115873D01*
X133602334Y-116054550D01*
X133599500Y-116028192D01*
X133599500Y-104600704D01*
X133619185Y-104533665D01*
X133671989Y-104487910D01*
X133741147Y-104477966D01*
X133785498Y-104493316D01*
X133846274Y-104528405D01*
X133921714Y-104559653D01*
X134020819Y-104600704D01*
X134052219Y-104613710D01*
X134267537Y-104671404D01*
X134488543Y-104700500D01*
X134488550Y-104700500D01*
X134711450Y-104700500D01*
X134711457Y-104700500D01*
X134932463Y-104671404D01*
X135147781Y-104613710D01*
X135174458Y-104602659D01*
X135243924Y-104595188D01*
X135306404Y-104626461D01*
X135309593Y-104629538D01*
X136094724Y-105414669D01*
X136146989Y-105466934D01*
X136185332Y-105505277D01*
X136291866Y-105576461D01*
X136291872Y-105576464D01*
X136291873Y-105576465D01*
X136410256Y-105625501D01*
X136410260Y-105625501D01*
X136410261Y-105625502D01*
X136535928Y-105650500D01*
X136535931Y-105650500D01*
X136918059Y-105650500D01*
X136985098Y-105670185D01*
X137030853Y-105722989D01*
X137040797Y-105792147D01*
X137011772Y-105855703D01*
X137005740Y-105862181D01*
X136978213Y-105889707D01*
X136978210Y-105889711D01*
X136890609Y-106020814D01*
X136890602Y-106020827D01*
X136830264Y-106166498D01*
X136830261Y-106166510D01*
X136799500Y-106321153D01*
X136799500Y-106478846D01*
X136830261Y-106633489D01*
X136830264Y-106633501D01*
X136890602Y-106779172D01*
X136890609Y-106779185D01*
X136978210Y-106910288D01*
X136978213Y-106910292D01*
X137089707Y-107021786D01*
X137089711Y-107021789D01*
X137220814Y-107109390D01*
X137220827Y-107109397D01*
X137271201Y-107130262D01*
X137366503Y-107169737D01*
X137433580Y-107183079D01*
X137495490Y-107215463D01*
X137497069Y-107217015D01*
X139713181Y-109433127D01*
X139746666Y-109494450D01*
X139749500Y-109520808D01*
X139749500Y-116345983D01*
X139729815Y-116413022D01*
X139677011Y-116458777D01*
X139672956Y-116460543D01*
X139646268Y-116471597D01*
X139453226Y-116583052D01*
X139453217Y-116583058D01*
X139276377Y-116718751D01*
X139276370Y-116718757D01*
X139118757Y-116876370D01*
X139118751Y-116876377D01*
X138983058Y-117053217D01*
X138983052Y-117053226D01*
X138871595Y-117246273D01*
X138871593Y-117246277D01*
X138786293Y-117452209D01*
X138786290Y-117452219D01*
X138737455Y-117634477D01*
X138728597Y-117667534D01*
X138728594Y-117667547D01*
X138699501Y-117888533D01*
X138699500Y-117888549D01*
X138699500Y-118111450D01*
X138699501Y-118111466D01*
X138728594Y-118332452D01*
X138728595Y-118332457D01*
X138728596Y-118332463D01*
X138728597Y-118332465D01*
X138786290Y-118547780D01*
X138786293Y-118547790D01*
X138871593Y-118753722D01*
X138871595Y-118753726D01*
X138983052Y-118946774D01*
X138983057Y-118946780D01*
X138983058Y-118946782D01*
X139118751Y-119123622D01*
X139118757Y-119123629D01*
X139276370Y-119281242D01*
X139276376Y-119281247D01*
X139453226Y-119416948D01*
X139646274Y-119528405D01*
X139852219Y-119613710D01*
X140067537Y-119671404D01*
X140288543Y-119700500D01*
X140288550Y-119700500D01*
X140511450Y-119700500D01*
X140511457Y-119700500D01*
X140732463Y-119671404D01*
X140947781Y-119613710D01*
X141153726Y-119528405D01*
X141346774Y-119416948D01*
X141523624Y-119281247D01*
X141681247Y-119123624D01*
X141816948Y-118946774D01*
X141928405Y-118753726D01*
X142013710Y-118547781D01*
X142071404Y-118332463D01*
X142100500Y-118111457D01*
X142100500Y-117888543D01*
X142071404Y-117667537D01*
X142013710Y-117452219D01*
X142013706Y-117452209D01*
X142000359Y-117419986D01*
X147190001Y-117419986D01*
X147200494Y-117522697D01*
X147255641Y-117689119D01*
X147255643Y-117689124D01*
X147347684Y-117838345D01*
X147471654Y-117962315D01*
X147620875Y-118054356D01*
X147620880Y-118054358D01*
X147787302Y-118109505D01*
X147787309Y-118109506D01*
X147890019Y-118119999D01*
X148339999Y-118119999D01*
X148840000Y-118119999D01*
X149289972Y-118119999D01*
X149289986Y-118119998D01*
X149392697Y-118109505D01*
X149559119Y-118054358D01*
X149559124Y-118054356D01*
X149708345Y-117962315D01*
X149832316Y-117838344D01*
X149832319Y-117838340D01*
X149871313Y-117775121D01*
X149871315Y-117775118D01*
X149924356Y-117689124D01*
X149924358Y-117689119D01*
X149979505Y-117522697D01*
X149979506Y-117522690D01*
X149989999Y-117419986D01*
X149990000Y-117419973D01*
X149990000Y-117295000D01*
X148840000Y-117295000D01*
X148840000Y-118119999D01*
X148339999Y-118119999D01*
X148340000Y-118119998D01*
X148340000Y-117295000D01*
X147190001Y-117295000D01*
X147190001Y-117419986D01*
X142000359Y-117419986D01*
X141946969Y-117291091D01*
X141928406Y-117246277D01*
X141928405Y-117246274D01*
X141816948Y-117053226D01*
X141747251Y-116962394D01*
X141681248Y-116876377D01*
X141681242Y-116876370D01*
X141523629Y-116718757D01*
X141523622Y-116718751D01*
X141346782Y-116583058D01*
X141346780Y-116583057D01*
X141346774Y-116583052D01*
X141211057Y-116504695D01*
X141153731Y-116471597D01*
X141127044Y-116460543D01*
X141072642Y-116416700D01*
X141050579Y-116350406D01*
X141050500Y-116345983D01*
X141050500Y-116164986D01*
X143405001Y-116164986D01*
X143415494Y-116267697D01*
X143470641Y-116434119D01*
X143470643Y-116434124D01*
X143562684Y-116583345D01*
X143686654Y-116707315D01*
X143835875Y-116799356D01*
X143835880Y-116799358D01*
X144002302Y-116854505D01*
X144002309Y-116854506D01*
X144105019Y-116864999D01*
X144529999Y-116864999D01*
X145030000Y-116864999D01*
X145454972Y-116864999D01*
X145454986Y-116864998D01*
X145557697Y-116854505D01*
X145724119Y-116799358D01*
X145724124Y-116799356D01*
X145873345Y-116707315D01*
X145910647Y-116670013D01*
X147190000Y-116670013D01*
X147190000Y-116795000D01*
X148340000Y-116795000D01*
X148840000Y-116795000D01*
X149989999Y-116795000D01*
X149989999Y-116670028D01*
X149989998Y-116670013D01*
X149979505Y-116567302D01*
X149924358Y-116400880D01*
X149924356Y-116400875D01*
X149832315Y-116251654D01*
X149708345Y-116127684D01*
X149559124Y-116035643D01*
X149559119Y-116035641D01*
X149392697Y-115980494D01*
X149392690Y-115980493D01*
X149289986Y-115970000D01*
X148840000Y-115970000D01*
X148840000Y-116795000D01*
X148340000Y-116795000D01*
X148340000Y-115970000D01*
X147890028Y-115970000D01*
X147890012Y-115970001D01*
X147787302Y-115980494D01*
X147620880Y-116035641D01*
X147620875Y-116035643D01*
X147471654Y-116127684D01*
X147347684Y-116251654D01*
X147255643Y-116400875D01*
X147255641Y-116400880D01*
X147200494Y-116567302D01*
X147200493Y-116567309D01*
X147190000Y-116670013D01*
X145910647Y-116670013D01*
X145997315Y-116583345D01*
X146089356Y-116434124D01*
X146089358Y-116434119D01*
X146144505Y-116267697D01*
X146144506Y-116267690D01*
X146154999Y-116164986D01*
X146155000Y-116164973D01*
X146155000Y-116052500D01*
X145030000Y-116052500D01*
X145030000Y-116864999D01*
X144529999Y-116864999D01*
X144530000Y-116864998D01*
X144530000Y-116052500D01*
X143405001Y-116052500D01*
X143405001Y-116164986D01*
X141050500Y-116164986D01*
X141050500Y-115440013D01*
X143405000Y-115440013D01*
X143405000Y-115552500D01*
X144530000Y-115552500D01*
X145030000Y-115552500D01*
X146154999Y-115552500D01*
X146154999Y-115440028D01*
X146154998Y-115440013D01*
X146144505Y-115337302D01*
X146089358Y-115170880D01*
X146089356Y-115170875D01*
X145997315Y-115021654D01*
X145873345Y-114897684D01*
X145724124Y-114805643D01*
X145724119Y-114805641D01*
X145557697Y-114750494D01*
X145557690Y-114750493D01*
X145454986Y-114740000D01*
X145030000Y-114740000D01*
X145030000Y-115552500D01*
X144530000Y-115552500D01*
X144530000Y-114740000D01*
X144105028Y-114740000D01*
X144105012Y-114740001D01*
X144002302Y-114750494D01*
X143835880Y-114805641D01*
X143835875Y-114805643D01*
X143686654Y-114897684D01*
X143562684Y-115021654D01*
X143470643Y-115170875D01*
X143470641Y-115170880D01*
X143415494Y-115337302D01*
X143415493Y-115337309D01*
X143405000Y-115440013D01*
X141050500Y-115440013D01*
X141050500Y-109135928D01*
X141025502Y-109010261D01*
X141025501Y-109010260D01*
X141025501Y-109010256D01*
X140976465Y-108891873D01*
X140946927Y-108847666D01*
X140946926Y-108847664D01*
X140946925Y-108847662D01*
X140905278Y-108785332D01*
X140905272Y-108785325D01*
X138417014Y-106297068D01*
X138383529Y-106235745D01*
X138383105Y-106233714D01*
X138369737Y-106166503D01*
X138321252Y-106049449D01*
X138309397Y-106020827D01*
X138309390Y-106020814D01*
X138221789Y-105889711D01*
X138221786Y-105889707D01*
X138194260Y-105862181D01*
X138160775Y-105800858D01*
X138165759Y-105731166D01*
X138207631Y-105675233D01*
X138273095Y-105650816D01*
X138281941Y-105650500D01*
X143551270Y-105650500D01*
X143618309Y-105670185D01*
X143664064Y-105722989D01*
X143674008Y-105792147D01*
X143644983Y-105855703D01*
X143638951Y-105862181D01*
X143562289Y-105938842D01*
X143470187Y-106088163D01*
X143470185Y-106088168D01*
X143455892Y-106131302D01*
X143415001Y-106254703D01*
X143415001Y-106254704D01*
X143415000Y-106254704D01*
X143404500Y-106357483D01*
X143404500Y-107082501D01*
X143404501Y-107082519D01*
X143415000Y-107185296D01*
X143415001Y-107185299D01*
X143470185Y-107351831D01*
X143470187Y-107351836D01*
X143487292Y-107379567D01*
X143562288Y-107501156D01*
X143686344Y-107625212D01*
X143835666Y-107717314D01*
X144002203Y-107772499D01*
X144104991Y-107783000D01*
X144860191Y-107782999D01*
X144927230Y-107802683D01*
X144972985Y-107855487D01*
X144982929Y-107924646D01*
X144953904Y-107988202D01*
X144947872Y-107994680D01*
X144396871Y-108545681D01*
X144335548Y-108579166D01*
X144309191Y-108582000D01*
X144104999Y-108582000D01*
X144104980Y-108582001D01*
X144002203Y-108592500D01*
X144002200Y-108592501D01*
X143835668Y-108647685D01*
X143835663Y-108647687D01*
X143686342Y-108739789D01*
X143562289Y-108863842D01*
X143470187Y-109013163D01*
X143470185Y-109013168D01*
X143456158Y-109055500D01*
X143415001Y-109179703D01*
X143415001Y-109179704D01*
X143415000Y-109179704D01*
X143404500Y-109282483D01*
X143404500Y-110007501D01*
X143404501Y-110007519D01*
X143415000Y-110110296D01*
X143415001Y-110110299D01*
X143470185Y-110276831D01*
X143470187Y-110276836D01*
X143479272Y-110291565D01*
X143562288Y-110426156D01*
X143686344Y-110550212D01*
X143835666Y-110642314D01*
X144002203Y-110697499D01*
X144018101Y-110699123D01*
X144082793Y-110725518D01*
X144122945Y-110782698D01*
X144129500Y-110822481D01*
X144129500Y-111700018D01*
X144109815Y-111767057D01*
X144057011Y-111812812D01*
X144018107Y-111823376D01*
X144002200Y-111825001D01*
X143835668Y-111880185D01*
X143835663Y-111880187D01*
X143686342Y-111972289D01*
X143562289Y-112096342D01*
X143470187Y-112245663D01*
X143470185Y-112245668D01*
X143453612Y-112295684D01*
X143415001Y-112412203D01*
X143415001Y-112412204D01*
X143415000Y-112412204D01*
X143404500Y-112514983D01*
X143404500Y-113240001D01*
X143404501Y-113240019D01*
X143415000Y-113342796D01*
X143415001Y-113342799D01*
X143450744Y-113450663D01*
X143470186Y-113509334D01*
X143562288Y-113658656D01*
X143686344Y-113782712D01*
X143835666Y-113874814D01*
X144002203Y-113929999D01*
X144104991Y-113940500D01*
X145455008Y-113940499D01*
X145557797Y-113929999D01*
X145724334Y-113874814D01*
X145873656Y-113782712D01*
X145997712Y-113658656D01*
X146089814Y-113509334D01*
X146144999Y-113342797D01*
X146155500Y-113240009D01*
X146155499Y-113021228D01*
X146175183Y-112954190D01*
X146227987Y-112908435D01*
X146297145Y-112898491D01*
X146360701Y-112927516D01*
X146367180Y-112933548D01*
X147153181Y-113719549D01*
X147186666Y-113780872D01*
X147189500Y-113807230D01*
X147189500Y-114470001D01*
X147189501Y-114470019D01*
X147200000Y-114572796D01*
X147200001Y-114572799D01*
X147255185Y-114739331D01*
X147255187Y-114739336D01*
X147270811Y-114764666D01*
X147347288Y-114888656D01*
X147471344Y-115012712D01*
X147620666Y-115104814D01*
X147787203Y-115159999D01*
X147889991Y-115170500D01*
X149290008Y-115170499D01*
X149392797Y-115159999D01*
X149559334Y-115104814D01*
X149708656Y-115012712D01*
X149832712Y-114888656D01*
X149924814Y-114739334D01*
X149979999Y-114572797D01*
X149990500Y-114470009D01*
X149990499Y-113719992D01*
X149984233Y-113658656D01*
X149979999Y-113617203D01*
X149979998Y-113617200D01*
X149924814Y-113450666D01*
X149832712Y-113301344D01*
X149708656Y-113177288D01*
X149559334Y-113085186D01*
X149392797Y-113030001D01*
X149392795Y-113030000D01*
X149290016Y-113019500D01*
X149290009Y-113019500D01*
X148627230Y-113019500D01*
X148560191Y-112999815D01*
X148539549Y-112983181D01*
X148041347Y-112484979D01*
X148007862Y-112423656D01*
X148012846Y-112353964D01*
X148054718Y-112298031D01*
X148120182Y-112273614D01*
X148129005Y-112273298D01*
X149349072Y-112273298D01*
X149408683Y-112266890D01*
X149543531Y-112216595D01*
X149658746Y-112130345D01*
X149744996Y-112015130D01*
X149795291Y-111880282D01*
X149801700Y-111820672D01*
X149801699Y-111369327D01*
X149795291Y-111309716D01*
X149795290Y-111309714D01*
X149795290Y-111309711D01*
X149793508Y-111302168D01*
X149795591Y-111301675D01*
X149791388Y-111242931D01*
X149793414Y-111236033D01*
X149794798Y-111230175D01*
X149801199Y-111170644D01*
X149801200Y-111170627D01*
X149801200Y-111122800D01*
X149768088Y-111122800D01*
X149701049Y-111103115D01*
X149688097Y-111093549D01*
X149677291Y-111084426D01*
X149658746Y-111059653D01*
X149563421Y-110988293D01*
X149560645Y-110985949D01*
X149543304Y-110959714D01*
X149524454Y-110934533D01*
X149524186Y-110930791D01*
X149522118Y-110927662D01*
X149521713Y-110896216D01*
X149519470Y-110864841D01*
X149521268Y-110861547D01*
X149521220Y-110857798D01*
X149537877Y-110831129D01*
X149552955Y-110803518D01*
X149556248Y-110801719D01*
X149558235Y-110798539D01*
X149586677Y-110785105D01*
X149614279Y-110770034D01*
X149619854Y-110769434D01*
X149621412Y-110768699D01*
X149623796Y-110769010D01*
X149640636Y-110767200D01*
X149801200Y-110767200D01*
X149801200Y-110719372D01*
X149801199Y-110719355D01*
X149794797Y-110659822D01*
X149793013Y-110652267D01*
X149795279Y-110651731D01*
X149791118Y-110593657D01*
X149793647Y-110585040D01*
X149794798Y-110580171D01*
X149801199Y-110520643D01*
X149801200Y-110520626D01*
X149801200Y-110472799D01*
X148774150Y-110472799D01*
X148774150Y-110792699D01*
X148771599Y-110801384D01*
X148772888Y-110810346D01*
X148761909Y-110834386D01*
X148754465Y-110859738D01*
X148747624Y-110865665D01*
X148743863Y-110873902D01*
X148721628Y-110888191D01*
X148701661Y-110905493D01*
X148691146Y-110907780D01*
X148685085Y-110911676D01*
X148650150Y-110916699D01*
X148542550Y-110916699D01*
X148475511Y-110897014D01*
X148429756Y-110844210D01*
X148418550Y-110792699D01*
X148418550Y-110117199D01*
X148774150Y-110117199D01*
X149801200Y-110117199D01*
X149801200Y-110069371D01*
X149801199Y-110069354D01*
X149794798Y-110009826D01*
X149793014Y-110002275D01*
X149795279Y-110001739D01*
X149791120Y-109943650D01*
X149793648Y-109935040D01*
X149794798Y-109930175D01*
X149801199Y-109870644D01*
X149801200Y-109870627D01*
X149801200Y-109822800D01*
X148774150Y-109822800D01*
X148774150Y-110117199D01*
X148418550Y-110117199D01*
X148418550Y-109467200D01*
X148774150Y-109467200D01*
X149801200Y-109467200D01*
X149801200Y-109419372D01*
X149801199Y-109419355D01*
X149794797Y-109359822D01*
X149793013Y-109352267D01*
X149795279Y-109351731D01*
X149791118Y-109293657D01*
X149793647Y-109285040D01*
X149794798Y-109280171D01*
X149801199Y-109220643D01*
X149801200Y-109220626D01*
X149801200Y-109172799D01*
X148774150Y-109172799D01*
X148774150Y-109467200D01*
X148418550Y-109467200D01*
X148418550Y-108817199D01*
X148774150Y-108817199D01*
X149801200Y-108817199D01*
X149801200Y-108769371D01*
X149801199Y-108769354D01*
X149794798Y-108709823D01*
X149793014Y-108702273D01*
X149795278Y-108701737D01*
X149791122Y-108643644D01*
X149793650Y-108635031D01*
X149794798Y-108630176D01*
X149801199Y-108570645D01*
X149801200Y-108570628D01*
X149801200Y-108522801D01*
X148774150Y-108522801D01*
X148774150Y-108817199D01*
X148418550Y-108817199D01*
X148418550Y-108167201D01*
X148774150Y-108167201D01*
X149801200Y-108167201D01*
X149801200Y-108119373D01*
X149801199Y-108119356D01*
X149794797Y-108059823D01*
X149793013Y-108052268D01*
X149795281Y-108051732D01*
X149791116Y-107993669D01*
X149793646Y-107985051D01*
X149794797Y-107980176D01*
X149801199Y-107920643D01*
X149801200Y-107920626D01*
X149801200Y-107872799D01*
X148774150Y-107872799D01*
X148774150Y-108167201D01*
X148418550Y-108167201D01*
X148418550Y-107872799D01*
X147382134Y-107872799D01*
X147374900Y-107876748D01*
X147347890Y-107893434D01*
X147344455Y-107893372D01*
X147341440Y-107895019D01*
X147309775Y-107892753D01*
X147278032Y-107892187D01*
X147273842Y-107890182D01*
X147271748Y-107890033D01*
X147246194Y-107876955D01*
X147167587Y-107824432D01*
X147122781Y-107770820D01*
X147114074Y-107701495D01*
X147144228Y-107638467D01*
X147148758Y-107633686D01*
X147240696Y-107541748D01*
X147302013Y-107508267D01*
X147371705Y-107513251D01*
X147377848Y-107517199D01*
X148418550Y-107517199D01*
X148418550Y-107197301D01*
X148421100Y-107188615D01*
X148419812Y-107179654D01*
X148430790Y-107155613D01*
X148438235Y-107130262D01*
X148445075Y-107124334D01*
X148448837Y-107116098D01*
X148471071Y-107101808D01*
X148491039Y-107084507D01*
X148501553Y-107082219D01*
X148507615Y-107078324D01*
X148542546Y-107073301D01*
X148650151Y-107073301D01*
X148717189Y-107092986D01*
X148762944Y-107145790D01*
X148774150Y-107197301D01*
X148774150Y-107517199D01*
X149801200Y-107517199D01*
X149801200Y-107469371D01*
X149801199Y-107469354D01*
X149794798Y-107409823D01*
X149793014Y-107402273D01*
X149795278Y-107401737D01*
X149791122Y-107343644D01*
X149793650Y-107335031D01*
X149794798Y-107330176D01*
X149801199Y-107270645D01*
X149801200Y-107270628D01*
X149801200Y-107222801D01*
X149640636Y-107222801D01*
X149614547Y-107215140D01*
X149587679Y-107210924D01*
X149581512Y-107205440D01*
X149573597Y-107203116D01*
X149555792Y-107182568D01*
X149535467Y-107164494D01*
X149533243Y-107156546D01*
X149527842Y-107150312D01*
X149523972Y-107123399D01*
X149516646Y-107097207D01*
X149519072Y-107089320D01*
X149517898Y-107081154D01*
X149529194Y-107056417D01*
X149537191Y-107030426D01*
X149544701Y-107022462D01*
X149546923Y-107017598D01*
X149560645Y-107004052D01*
X149563421Y-107001707D01*
X149658746Y-106930348D01*
X149677291Y-106905574D01*
X149688097Y-106896452D01*
X149707648Y-106887825D01*
X149724756Y-106875019D01*
X149744913Y-106871382D01*
X149752021Y-106868246D01*
X149757516Y-106869108D01*
X149768088Y-106867201D01*
X149801200Y-106867201D01*
X149801200Y-106819373D01*
X149801199Y-106819356D01*
X149794797Y-106759823D01*
X149793013Y-106752268D01*
X149795490Y-106751682D01*
X149791387Y-106694365D01*
X149794340Y-106684307D01*
X149795288Y-106680292D01*
X149795291Y-106680285D01*
X149801700Y-106620675D01*
X149801699Y-106169330D01*
X149795291Y-106109719D01*
X149795290Y-106109717D01*
X149795290Y-106109714D01*
X149793508Y-106102171D01*
X149795803Y-106101628D01*
X149791654Y-106043646D01*
X149794106Y-106035297D01*
X149795288Y-106030291D01*
X149795291Y-106030284D01*
X149801700Y-105970674D01*
X149801699Y-105519329D01*
X149795291Y-105459718D01*
X149795291Y-105459717D01*
X149793507Y-105452167D01*
X149795802Y-105451624D01*
X149791657Y-105393638D01*
X149794107Y-105385291D01*
X149795289Y-105380291D01*
X149795289Y-105380290D01*
X149795291Y-105380285D01*
X149801700Y-105320675D01*
X149801699Y-104869330D01*
X149795291Y-104809719D01*
X149795290Y-104809716D01*
X149795290Y-104809714D01*
X149793508Y-104802171D01*
X149795803Y-104801628D01*
X149791654Y-104743646D01*
X149794106Y-104735297D01*
X149795288Y-104730291D01*
X149795291Y-104730284D01*
X149801700Y-104670674D01*
X149801699Y-104219329D01*
X149795291Y-104159718D01*
X149795291Y-104159717D01*
X149793507Y-104152167D01*
X149795802Y-104151624D01*
X149791657Y-104093638D01*
X149794107Y-104085291D01*
X149795289Y-104080291D01*
X149795289Y-104080290D01*
X149795291Y-104080285D01*
X149801700Y-104020675D01*
X149801699Y-103569330D01*
X149795291Y-103509719D01*
X149795290Y-103509717D01*
X149795290Y-103509714D01*
X149793508Y-103502171D01*
X149795803Y-103501628D01*
X149791654Y-103443646D01*
X149794106Y-103435297D01*
X149795288Y-103430291D01*
X149795291Y-103430284D01*
X149801700Y-103370674D01*
X149801699Y-102919329D01*
X149795291Y-102859718D01*
X149795291Y-102859717D01*
X149793507Y-102852167D01*
X149795802Y-102851624D01*
X149791657Y-102793638D01*
X149794107Y-102785291D01*
X149795289Y-102780291D01*
X149795289Y-102780290D01*
X149795291Y-102780285D01*
X149801700Y-102720675D01*
X149801699Y-102269330D01*
X149795291Y-102209719D01*
X149795291Y-102209718D01*
X149793507Y-102202168D01*
X149795591Y-102201675D01*
X149791388Y-102142933D01*
X149793411Y-102136044D01*
X149794798Y-102130173D01*
X149801199Y-102070645D01*
X149801200Y-102070628D01*
X149801200Y-102022801D01*
X149768086Y-102022801D01*
X149701047Y-102003116D01*
X149688095Y-101993550D01*
X149677290Y-101984428D01*
X149658746Y-101959656D01*
X149563424Y-101888298D01*
X149560643Y-101885950D01*
X149543302Y-101859715D01*
X149524452Y-101834534D01*
X149524184Y-101830792D01*
X149522116Y-101827663D01*
X149521711Y-101796217D01*
X149519468Y-101764842D01*
X149521266Y-101761548D01*
X149521218Y-101757799D01*
X149537875Y-101731130D01*
X149552953Y-101703519D01*
X149556246Y-101701720D01*
X149558233Y-101698540D01*
X149586675Y-101685106D01*
X149614277Y-101670035D01*
X149619852Y-101669435D01*
X149621410Y-101668700D01*
X149623794Y-101669011D01*
X149640634Y-101667201D01*
X149801200Y-101667201D01*
X149801200Y-101619373D01*
X149801199Y-101619356D01*
X149794798Y-101559828D01*
X149794796Y-101559821D01*
X149744554Y-101425114D01*
X149744550Y-101425107D01*
X149658390Y-101310013D01*
X149658387Y-101310010D01*
X149543293Y-101223850D01*
X149543286Y-101223846D01*
X149408579Y-101173604D01*
X149408572Y-101173602D01*
X149349044Y-101167201D01*
X148774150Y-101167201D01*
X148774150Y-101620502D01*
X148771599Y-101629187D01*
X148772888Y-101638149D01*
X148761909Y-101662189D01*
X148754465Y-101687541D01*
X148747624Y-101693468D01*
X148743863Y-101701705D01*
X148721628Y-101715994D01*
X148701661Y-101733296D01*
X148691146Y-101735583D01*
X148685085Y-101739479D01*
X148650150Y-101744502D01*
X148542550Y-101744502D01*
X148475511Y-101724817D01*
X148429756Y-101672013D01*
X148418550Y-101620502D01*
X148418550Y-101167201D01*
X147843655Y-101167201D01*
X147784127Y-101173602D01*
X147784120Y-101173604D01*
X147729833Y-101193852D01*
X147660141Y-101198836D01*
X147598818Y-101165351D01*
X147565334Y-101104028D01*
X147562500Y-101077670D01*
X147562500Y-99934500D01*
X147582185Y-99867461D01*
X147634989Y-99821706D01*
X147686500Y-99810500D01*
X148516415Y-99810500D01*
X148583454Y-99830185D01*
X148629209Y-99882989D01*
X148634118Y-99895489D01*
X148655661Y-99960500D01*
X148670185Y-100004331D01*
X148670187Y-100004336D01*
X148679963Y-100020185D01*
X148762288Y-100153656D01*
X148886344Y-100277712D01*
X149035666Y-100369814D01*
X149202203Y-100424999D01*
X149304991Y-100435500D01*
X150030008Y-100435499D01*
X150030016Y-100435498D01*
X150030019Y-100435498D01*
X150086302Y-100429748D01*
X150132797Y-100424999D01*
X150299334Y-100369814D01*
X150448656Y-100277712D01*
X150572712Y-100153656D01*
X150664814Y-100004334D01*
X150719999Y-99837797D01*
X150730500Y-99735009D01*
X150730499Y-98384992D01*
X150730498Y-98384983D01*
X151529500Y-98384983D01*
X151529500Y-99735001D01*
X151529501Y-99735018D01*
X151540000Y-99837796D01*
X151540001Y-99837799D01*
X151595185Y-100004331D01*
X151595187Y-100004336D01*
X151604963Y-100020185D01*
X151687288Y-100153656D01*
X151811344Y-100277712D01*
X151960666Y-100369814D01*
X152127203Y-100424999D01*
X152229991Y-100435500D01*
X152955008Y-100435499D01*
X152955016Y-100435498D01*
X152955019Y-100435498D01*
X153011302Y-100429748D01*
X153057797Y-100424999D01*
X153224334Y-100369814D01*
X153373656Y-100277712D01*
X153497712Y-100153656D01*
X153580519Y-100019402D01*
X153632467Y-99972679D01*
X153686058Y-99960500D01*
X155282693Y-99960500D01*
X155282693Y-99960499D01*
X155415309Y-99934121D01*
X155484900Y-99940348D01*
X155540077Y-99983211D01*
X155563322Y-100049101D01*
X155563500Y-100055738D01*
X155563500Y-101043215D01*
X155543815Y-101110254D01*
X155491011Y-101156009D01*
X155452754Y-101166505D01*
X155391316Y-101173109D01*
X155256471Y-101223403D01*
X155256464Y-101223407D01*
X155141255Y-101309653D01*
X155141252Y-101309656D01*
X155055006Y-101424865D01*
X155055002Y-101424872D01*
X155004710Y-101559714D01*
X155004709Y-101559718D01*
X154998300Y-101619328D01*
X154998300Y-101619335D01*
X154998300Y-101619336D01*
X154998300Y-102070671D01*
X154998301Y-102070677D01*
X155004709Y-102130288D01*
X155006492Y-102137832D01*
X155004195Y-102138374D01*
X155008346Y-102196351D01*
X155005890Y-102204717D01*
X155004708Y-102209717D01*
X155000778Y-102246277D01*
X154998301Y-102269325D01*
X154998300Y-102269336D01*
X154998300Y-102720670D01*
X154998301Y-102720676D01*
X155004709Y-102780287D01*
X155006492Y-102787831D01*
X155004200Y-102788372D01*
X155008338Y-102846379D01*
X155005886Y-102854728D01*
X155004710Y-102859706D01*
X155004709Y-102859714D01*
X155004709Y-102859715D01*
X154998300Y-102919325D01*
X154998300Y-102919329D01*
X154998300Y-102919333D01*
X154998300Y-103370668D01*
X154998301Y-103370674D01*
X155004708Y-103430277D01*
X155006492Y-103437824D01*
X155004201Y-103438365D01*
X155008339Y-103496381D01*
X155005883Y-103504743D01*
X155004708Y-103509717D01*
X154998301Y-103569317D01*
X154998301Y-103569325D01*
X154998300Y-103569336D01*
X154998300Y-104020670D01*
X154998301Y-104020676D01*
X155004709Y-104080284D01*
X155006492Y-104087829D01*
X155004410Y-104088320D01*
X155008608Y-104147082D01*
X155006579Y-104153993D01*
X155005201Y-104159822D01*
X154998800Y-104219353D01*
X154998800Y-104267198D01*
X155031912Y-104267198D01*
X155098951Y-104286883D01*
X155118152Y-104302099D01*
X155125254Y-104308973D01*
X155141254Y-104330346D01*
X155168095Y-104350439D01*
X155173737Y-104355900D01*
X155187257Y-104379729D01*
X155203679Y-104401666D01*
X155204252Y-104409681D01*
X155208217Y-104416669D01*
X155206708Y-104444026D01*
X155208663Y-104471358D01*
X155204812Y-104478409D01*
X155204370Y-104486432D01*
X155188311Y-104508629D01*
X155175178Y-104532681D01*
X155163742Y-104542589D01*
X155163416Y-104543041D01*
X155163061Y-104543179D01*
X155161809Y-104544265D01*
X155141257Y-104559650D01*
X155141252Y-104559654D01*
X155131179Y-104573111D01*
X155075245Y-104614981D01*
X155031914Y-104622798D01*
X154998800Y-104622798D01*
X154998800Y-104670642D01*
X155005202Y-104730175D01*
X155006987Y-104737731D01*
X155004514Y-104738314D01*
X155008605Y-104795668D01*
X155005652Y-104805723D01*
X155004708Y-104809716D01*
X154998301Y-104869316D01*
X154998301Y-104869325D01*
X154998300Y-104869335D01*
X154998300Y-105320669D01*
X154998301Y-105320675D01*
X155004709Y-105380286D01*
X155006492Y-105387830D01*
X155004195Y-105388372D01*
X155008346Y-105446349D01*
X155005890Y-105454715D01*
X155004708Y-105459715D01*
X154999810Y-105505276D01*
X154998301Y-105519324D01*
X154998300Y-105519334D01*
X154998300Y-105970668D01*
X154998301Y-105970674D01*
X155004709Y-106030285D01*
X155006492Y-106037829D01*
X155004410Y-106038320D01*
X155008608Y-106097081D01*
X155006582Y-106103982D01*
X155005201Y-106109826D01*
X154998800Y-106169354D01*
X154998800Y-106217199D01*
X155031914Y-106217199D01*
X155098953Y-106236884D01*
X155118154Y-106252100D01*
X155125257Y-106258975D01*
X155141254Y-106280344D01*
X155168090Y-106300434D01*
X155173737Y-106305899D01*
X155187259Y-106329731D01*
X155203679Y-106351666D01*
X155204252Y-106359679D01*
X155208217Y-106366667D01*
X155206708Y-106394025D01*
X155208663Y-106421357D01*
X155204812Y-106428408D01*
X155204370Y-106436431D01*
X155188308Y-106458631D01*
X155175177Y-106482680D01*
X155163743Y-106492587D01*
X155163416Y-106493040D01*
X155163060Y-106493179D01*
X155161810Y-106494263D01*
X155141256Y-106509650D01*
X155141250Y-106509655D01*
X155131178Y-106523111D01*
X155075244Y-106564981D01*
X155031912Y-106572799D01*
X154998800Y-106572799D01*
X154998800Y-106620643D01*
X155005201Y-106680171D01*
X155006987Y-106687729D01*
X155004512Y-106688313D01*
X155008608Y-106745654D01*
X155005654Y-106755713D01*
X155004708Y-106759718D01*
X154998301Y-106819315D01*
X154998300Y-106819334D01*
X154998300Y-107270668D01*
X154998301Y-107270674D01*
X155004709Y-107330282D01*
X155006492Y-107337827D01*
X155004199Y-107338368D01*
X155008341Y-107396371D01*
X155005886Y-107404730D01*
X155004708Y-107409716D01*
X154998301Y-107469316D01*
X154998300Y-107469335D01*
X154998300Y-107920669D01*
X154998301Y-107920675D01*
X155004708Y-107980278D01*
X155006492Y-107987825D01*
X155004412Y-107988316D01*
X155008606Y-108047090D01*
X155006577Y-108053998D01*
X155005201Y-108059822D01*
X154998800Y-108119353D01*
X154998800Y-108167198D01*
X155031912Y-108167198D01*
X155098951Y-108186883D01*
X155118151Y-108202098D01*
X155125257Y-108208975D01*
X155141254Y-108230345D01*
X155168095Y-108250438D01*
X155173736Y-108255898D01*
X155187258Y-108279729D01*
X155203679Y-108301665D01*
X155204252Y-108309678D01*
X155208217Y-108316666D01*
X155206708Y-108344024D01*
X155208663Y-108371357D01*
X155204812Y-108378409D01*
X155204370Y-108386430D01*
X155188312Y-108408626D01*
X155175178Y-108432680D01*
X155163742Y-108442589D01*
X155163417Y-108443039D01*
X155163063Y-108443177D01*
X155161811Y-108444263D01*
X155141256Y-108459651D01*
X155141252Y-108459654D01*
X155131179Y-108473111D01*
X155075245Y-108514981D01*
X155031914Y-108522798D01*
X154998800Y-108522798D01*
X154998800Y-108570642D01*
X155005202Y-108630175D01*
X155006987Y-108637731D01*
X155004514Y-108638314D01*
X155008605Y-108695668D01*
X155005652Y-108705723D01*
X155004708Y-108709716D01*
X154998301Y-108769316D01*
X154998300Y-108769335D01*
X154998300Y-109220669D01*
X154998301Y-109220675D01*
X155004709Y-109280286D01*
X155006492Y-109287830D01*
X155004195Y-109288372D01*
X155008346Y-109346349D01*
X155005890Y-109354715D01*
X155004708Y-109359715D01*
X154998301Y-109419315D01*
X154998300Y-109419334D01*
X154998300Y-109870668D01*
X154998301Y-109870674D01*
X155004709Y-109930282D01*
X155006492Y-109937827D01*
X155004199Y-109938368D01*
X155008341Y-109996371D01*
X155005886Y-110004730D01*
X155004708Y-110009716D01*
X154998301Y-110069316D01*
X154998300Y-110069335D01*
X154998300Y-110520669D01*
X154998301Y-110520675D01*
X155004709Y-110580286D01*
X155006492Y-110587830D01*
X155004195Y-110588372D01*
X155008346Y-110646349D01*
X155005890Y-110654715D01*
X155004708Y-110659715D01*
X154998301Y-110719315D01*
X154998300Y-110719327D01*
X154998300Y-111170668D01*
X154998301Y-111170674D01*
X155004709Y-111230282D01*
X155006492Y-111237827D01*
X155004199Y-111238368D01*
X155008341Y-111296371D01*
X155005886Y-111304730D01*
X155004708Y-111309716D01*
X154998301Y-111369316D01*
X154998301Y-111369325D01*
X154998300Y-111369335D01*
X154998300Y-111820669D01*
X154998301Y-111820675D01*
X155004708Y-111880282D01*
X155055002Y-112015127D01*
X155055006Y-112015134D01*
X155141252Y-112130343D01*
X155141255Y-112130346D01*
X155256464Y-112216592D01*
X155256471Y-112216596D01*
X155301418Y-112233360D01*
X155391317Y-112266890D01*
X155450927Y-112273299D01*
X155557088Y-112273298D01*
X155624127Y-112292982D01*
X155644769Y-112309617D01*
X155930379Y-112595228D01*
X155963864Y-112656551D01*
X155960405Y-112721910D01*
X155956001Y-112735200D01*
X155945500Y-112837983D01*
X155945500Y-113288637D01*
X155925815Y-113355676D01*
X155909181Y-113376318D01*
X155414319Y-113871181D01*
X155352996Y-113904666D01*
X155326638Y-113907500D01*
X154700798Y-113907500D01*
X154633759Y-113887815D01*
X154595259Y-113848597D01*
X154593546Y-113845819D01*
X154558712Y-113789344D01*
X154434656Y-113665288D01*
X154285334Y-113573186D01*
X154118797Y-113518001D01*
X154118795Y-113518000D01*
X154016010Y-113507500D01*
X152815998Y-113507500D01*
X152815981Y-113507501D01*
X152713203Y-113518000D01*
X152713200Y-113518001D01*
X152546668Y-113573185D01*
X152546663Y-113573187D01*
X152397342Y-113665289D01*
X152273289Y-113789342D01*
X152181187Y-113938663D01*
X152181185Y-113938668D01*
X152180578Y-113940500D01*
X152126001Y-114105203D01*
X152126001Y-114105204D01*
X152126000Y-114105204D01*
X152115500Y-114207983D01*
X152115500Y-115408001D01*
X152115501Y-115408018D01*
X152126000Y-115510796D01*
X152126001Y-115510799D01*
X152172366Y-115650716D01*
X152181186Y-115677334D01*
X152248716Y-115786819D01*
X152273289Y-115826657D01*
X152342510Y-115895878D01*
X152375995Y-115957201D01*
X152371011Y-116026893D01*
X152355148Y-116056444D01*
X152304139Y-116126651D01*
X152211244Y-116308968D01*
X152148009Y-116503582D01*
X152116000Y-116705682D01*
X152116000Y-116910317D01*
X152148009Y-117112417D01*
X152211244Y-117307031D01*
X152304141Y-117489350D01*
X152304147Y-117489359D01*
X152336523Y-117533921D01*
X152336524Y-117533922D01*
X153016000Y-116854446D01*
X153016000Y-116860661D01*
X153043259Y-116962394D01*
X153095920Y-117053606D01*
X153170394Y-117128080D01*
X153261606Y-117180741D01*
X153363339Y-117208000D01*
X153369553Y-117208000D01*
X152690076Y-117887474D01*
X152734650Y-117919859D01*
X152916968Y-118012755D01*
X153111582Y-118075990D01*
X153313683Y-118108000D01*
X153518317Y-118108000D01*
X153720417Y-118075990D01*
X153915031Y-118012755D01*
X154097349Y-117919859D01*
X154141921Y-117887474D01*
X153462447Y-117208000D01*
X153468661Y-117208000D01*
X153570394Y-117180741D01*
X153661606Y-117128080D01*
X153736080Y-117053606D01*
X153788741Y-116962394D01*
X153816000Y-116860661D01*
X153816000Y-116854447D01*
X154495474Y-117533921D01*
X154527859Y-117489349D01*
X154620755Y-117307031D01*
X154683990Y-117112417D01*
X154716000Y-116910317D01*
X154716000Y-116705682D01*
X154683990Y-116503582D01*
X154620755Y-116308968D01*
X154527857Y-116126646D01*
X154476853Y-116056446D01*
X154467390Y-116029927D01*
X154454977Y-116004653D01*
X154455805Y-115997459D01*
X154453372Y-115990640D01*
X154459749Y-115963214D01*
X154462971Y-115935242D01*
X154467984Y-115927799D01*
X154469197Y-115922586D01*
X154481210Y-115905026D01*
X154485121Y-115900246D01*
X154558712Y-115826656D01*
X154599598Y-115760367D01*
X154604838Y-115753966D01*
X154627130Y-115738736D01*
X154647207Y-115720679D01*
X154656731Y-115718514D01*
X154662530Y-115714553D01*
X154675807Y-115714179D01*
X154700798Y-115708500D01*
X155821500Y-115708500D01*
X155888539Y-115728185D01*
X155934294Y-115780989D01*
X155945500Y-115832500D01*
X155945500Y-116778001D01*
X155945501Y-116778019D01*
X155956000Y-116880796D01*
X155956001Y-116880799D01*
X156011185Y-117047331D01*
X156011187Y-117047336D01*
X156046069Y-117103888D01*
X156103288Y-117196656D01*
X156227344Y-117320712D01*
X156376666Y-117412814D01*
X156543203Y-117467999D01*
X156645991Y-117478500D01*
X157396008Y-117478499D01*
X157396016Y-117478498D01*
X157396019Y-117478498D01*
X157452302Y-117472748D01*
X157498797Y-117467999D01*
X157665334Y-117412814D01*
X157814656Y-117320712D01*
X157938712Y-117196656D01*
X158030814Y-117047334D01*
X158085999Y-116880797D01*
X158096500Y-116778009D01*
X158096500Y-116777986D01*
X158896001Y-116777986D01*
X158906494Y-116880697D01*
X158961641Y-117047119D01*
X158961643Y-117047124D01*
X159053684Y-117196345D01*
X159177654Y-117320315D01*
X159326875Y-117412356D01*
X159326880Y-117412358D01*
X159493302Y-117467505D01*
X159493309Y-117467506D01*
X159596019Y-117477999D01*
X159720999Y-117477999D01*
X160221000Y-117477999D01*
X160345972Y-117477999D01*
X160345986Y-117477998D01*
X160448697Y-117467505D01*
X160615119Y-117412358D01*
X160615124Y-117412356D01*
X160764345Y-117320315D01*
X160888315Y-117196345D01*
X160980356Y-117047124D01*
X160980358Y-117047119D01*
X161035505Y-116880697D01*
X161035506Y-116880690D01*
X161045999Y-116777986D01*
X161046000Y-116777973D01*
X161046000Y-116328000D01*
X160221000Y-116328000D01*
X160221000Y-117477999D01*
X159720999Y-117477999D01*
X159721000Y-117477998D01*
X159721000Y-116328000D01*
X158896001Y-116328000D01*
X158896001Y-116777986D01*
X158096500Y-116777986D01*
X158096499Y-116056446D01*
X158096499Y-115378013D01*
X158896000Y-115378013D01*
X158896000Y-115828000D01*
X159721000Y-115828000D01*
X160221000Y-115828000D01*
X161045999Y-115828000D01*
X161045999Y-115378028D01*
X161045998Y-115378013D01*
X161035505Y-115275302D01*
X160980358Y-115108880D01*
X160980356Y-115108875D01*
X160888315Y-114959654D01*
X160824342Y-114895681D01*
X160790857Y-114834358D01*
X160795841Y-114764666D01*
X160824342Y-114720319D01*
X160888315Y-114656345D01*
X160980356Y-114507124D01*
X160980358Y-114507119D01*
X161035505Y-114340697D01*
X161035506Y-114340689D01*
X161039642Y-114300211D01*
X161066038Y-114235519D01*
X161123218Y-114195368D01*
X161193029Y-114192504D01*
X161253306Y-114227838D01*
X161284912Y-114290151D01*
X161286358Y-114300211D01*
X161290494Y-114340697D01*
X161345641Y-114507119D01*
X161345643Y-114507124D01*
X161437684Y-114656345D01*
X161561654Y-114780315D01*
X161710875Y-114872356D01*
X161710880Y-114872358D01*
X161877302Y-114927505D01*
X161877309Y-114927506D01*
X161980019Y-114937999D01*
X162104999Y-114937999D01*
X162605000Y-114937999D01*
X162729972Y-114937999D01*
X162729986Y-114937998D01*
X162832697Y-114927505D01*
X162999119Y-114872358D01*
X162999124Y-114872356D01*
X163148345Y-114780315D01*
X163272315Y-114656345D01*
X163364356Y-114507124D01*
X163364358Y-114507119D01*
X163419505Y-114340697D01*
X163419506Y-114340690D01*
X163429999Y-114237986D01*
X163430000Y-114237973D01*
X163430000Y-113788000D01*
X162605000Y-113788000D01*
X162605000Y-114937999D01*
X162104999Y-114937999D01*
X162105000Y-114937998D01*
X162105000Y-113788000D01*
X161280001Y-113788000D01*
X161250681Y-113817320D01*
X161189357Y-113850804D01*
X161119666Y-113845819D01*
X161075319Y-113817319D01*
X161046000Y-113788000D01*
X160221000Y-113788000D01*
X160221000Y-115828000D01*
X159721000Y-115828000D01*
X159721000Y-113788000D01*
X158896001Y-113788000D01*
X158896001Y-114237986D01*
X158906494Y-114340697D01*
X158961641Y-114507119D01*
X158961643Y-114507124D01*
X159053684Y-114656345D01*
X159117658Y-114720319D01*
X159151143Y-114781642D01*
X159146159Y-114851334D01*
X159117658Y-114895681D01*
X159053684Y-114959654D01*
X158961643Y-115108875D01*
X158961641Y-115108880D01*
X158906494Y-115275302D01*
X158906493Y-115275309D01*
X158896000Y-115378013D01*
X158096499Y-115378013D01*
X158096499Y-115377998D01*
X158096498Y-115377981D01*
X158085999Y-115275203D01*
X158085998Y-115275200D01*
X158030814Y-115108666D01*
X157977145Y-115021654D01*
X157939961Y-114961368D01*
X157935265Y-114944810D01*
X157926523Y-114931207D01*
X157921500Y-114896272D01*
X157921500Y-114719727D01*
X157939960Y-114654631D01*
X158030814Y-114507334D01*
X158085999Y-114340797D01*
X158096500Y-114238009D01*
X158096499Y-112838013D01*
X158896000Y-112838013D01*
X158896000Y-113288000D01*
X159721000Y-113288000D01*
X160221000Y-113288000D01*
X161045997Y-113288000D01*
X161075317Y-113258680D01*
X161136640Y-113225195D01*
X161206332Y-113230179D01*
X161250680Y-113258680D01*
X161280000Y-113288000D01*
X162105000Y-113288000D01*
X162605000Y-113288000D01*
X163429999Y-113288000D01*
X163429999Y-112838024D01*
X163429998Y-112838016D01*
X163429995Y-112837983D01*
X164229500Y-112837983D01*
X164229500Y-114238001D01*
X164229501Y-114238018D01*
X164240000Y-114340796D01*
X164240001Y-114340799D01*
X164282815Y-114470001D01*
X164295186Y-114507334D01*
X164387288Y-114656656D01*
X164511344Y-114780712D01*
X164660666Y-114872814D01*
X164827203Y-114927999D01*
X164929991Y-114938500D01*
X165680008Y-114938499D01*
X165680016Y-114938498D01*
X165680019Y-114938498D01*
X165736302Y-114932748D01*
X165782797Y-114927999D01*
X165949334Y-114872814D01*
X166098656Y-114780712D01*
X166222712Y-114656656D01*
X166314814Y-114507334D01*
X166314815Y-114507331D01*
X166318605Y-114501187D01*
X166320399Y-114502293D01*
X166324985Y-114497083D01*
X166332195Y-114481297D01*
X166347593Y-114471401D01*
X166359687Y-114457663D01*
X166376574Y-114452775D01*
X166390973Y-114443523D01*
X166425908Y-114438500D01*
X166497500Y-114438500D01*
X166564539Y-114458185D01*
X166610294Y-114510989D01*
X166621500Y-114562500D01*
X166621500Y-114831586D01*
X166623256Y-114851334D01*
X166631848Y-114947980D01*
X166631848Y-114947982D01*
X166631849Y-114947985D01*
X166686427Y-115138728D01*
X166778284Y-115314579D01*
X166796818Y-115337309D01*
X166903659Y-115468340D01*
X166977141Y-115528256D01*
X167057421Y-115593716D01*
X167233272Y-115685573D01*
X167424015Y-115740151D01*
X167540414Y-115750500D01*
X169797638Y-115750500D01*
X169864677Y-115770185D01*
X169885319Y-115786819D01*
X171597966Y-117499466D01*
X171632326Y-117522423D01*
X171657040Y-117538936D01*
X171745453Y-117598013D01*
X171827393Y-117631953D01*
X171833480Y-117634474D01*
X171833485Y-117634477D01*
X171869940Y-117649577D01*
X171909334Y-117665895D01*
X172083303Y-117700499D01*
X172083307Y-117700500D01*
X172083308Y-117700500D01*
X172083309Y-117700500D01*
X176567251Y-117700500D01*
X176634290Y-117720185D01*
X176667568Y-117751613D01*
X176674551Y-117761224D01*
X176838776Y-117925449D01*
X177026669Y-118061961D01*
X177117025Y-118108000D01*
X177233599Y-118167398D01*
X177233601Y-118167398D01*
X177233604Y-118167400D01*
X177454486Y-118239169D01*
X177572668Y-118257886D01*
X177683871Y-118275500D01*
X177683876Y-118275500D01*
X177916129Y-118275500D01*
X178017502Y-118259443D01*
X178145514Y-118239169D01*
X178366396Y-118167400D01*
X178573331Y-118061961D01*
X178761224Y-117925449D01*
X178925449Y-117761224D01*
X179061961Y-117573331D01*
X179167400Y-117366396D01*
X179239169Y-117145514D01*
X179268172Y-116962394D01*
X179275500Y-116916129D01*
X179275500Y-116683870D01*
X179247121Y-116504695D01*
X179239169Y-116454486D01*
X179167400Y-116233604D01*
X179167398Y-116233601D01*
X179167398Y-116233599D01*
X179103656Y-116108499D01*
X179061961Y-116026669D01*
X178925449Y-115838776D01*
X178761224Y-115674551D01*
X178573331Y-115538039D01*
X178519864Y-115510796D01*
X178366400Y-115432601D01*
X178145514Y-115360831D01*
X177916129Y-115324500D01*
X177916124Y-115324500D01*
X177683876Y-115324500D01*
X177683871Y-115324500D01*
X177454485Y-115360831D01*
X177233599Y-115432601D01*
X177026668Y-115538039D01*
X176838773Y-115674553D01*
X176674552Y-115838774D01*
X176674550Y-115838777D01*
X176667568Y-115848387D01*
X176612237Y-115891052D01*
X176567251Y-115899500D01*
X172596362Y-115899500D01*
X172566921Y-115890855D01*
X172536935Y-115884332D01*
X172531919Y-115880577D01*
X172529323Y-115879815D01*
X172508681Y-115863181D01*
X172357539Y-115712039D01*
X172324054Y-115650716D01*
X172329038Y-115581024D01*
X172366859Y-115528256D01*
X172440340Y-115468340D01*
X172463425Y-115440028D01*
X172565716Y-115314579D01*
X172657573Y-115138728D01*
X172712151Y-114947985D01*
X172722500Y-114831586D01*
X172722500Y-113768414D01*
X172712151Y-113652015D01*
X172657573Y-113461272D01*
X172565716Y-113285421D01*
X172477545Y-113177288D01*
X172440340Y-113131659D01*
X172346052Y-113054778D01*
X172286579Y-113006284D01*
X172110728Y-112914427D01*
X172110727Y-112914426D01*
X172110726Y-112914426D01*
X172002621Y-112883494D01*
X171919985Y-112859849D01*
X171919982Y-112859848D01*
X171919980Y-112859848D01*
X171849017Y-112853539D01*
X171803586Y-112849500D01*
X171803582Y-112849500D01*
X169538060Y-112849500D01*
X169519915Y-112844172D01*
X169501009Y-112843835D01*
X169472785Y-112830333D01*
X169471021Y-112829815D01*
X169469171Y-112828604D01*
X169424959Y-112799063D01*
X169424960Y-112799063D01*
X169424958Y-112799061D01*
X169336544Y-112739985D01*
X169336542Y-112739984D01*
X169241217Y-112700500D01*
X169172666Y-112672105D01*
X169172658Y-112672103D01*
X168998696Y-112637500D01*
X168998692Y-112637500D01*
X168998691Y-112637500D01*
X166425908Y-112637500D01*
X166358869Y-112617815D01*
X166320363Y-112573728D01*
X166318605Y-112574813D01*
X166314812Y-112568663D01*
X166222712Y-112419344D01*
X166098656Y-112295288D01*
X165949334Y-112203186D01*
X165782797Y-112148001D01*
X165782795Y-112148000D01*
X165680010Y-112137500D01*
X164929998Y-112137500D01*
X164929980Y-112137501D01*
X164827203Y-112148000D01*
X164827200Y-112148001D01*
X164660668Y-112203185D01*
X164660663Y-112203187D01*
X164511342Y-112295289D01*
X164387289Y-112419342D01*
X164295187Y-112568663D01*
X164295185Y-112568668D01*
X164272377Y-112637500D01*
X164240001Y-112735203D01*
X164240001Y-112735204D01*
X164240000Y-112735204D01*
X164229500Y-112837983D01*
X163429995Y-112837983D01*
X163419505Y-112735302D01*
X163364358Y-112568880D01*
X163364356Y-112568875D01*
X163272315Y-112419654D01*
X163148345Y-112295684D01*
X162999124Y-112203643D01*
X162999119Y-112203641D01*
X162832697Y-112148494D01*
X162832690Y-112148493D01*
X162729986Y-112138000D01*
X162605000Y-112138000D01*
X162605000Y-113288000D01*
X162105000Y-113288000D01*
X162105000Y-112138000D01*
X161980027Y-112138000D01*
X161980012Y-112138001D01*
X161877302Y-112148494D01*
X161710880Y-112203641D01*
X161710875Y-112203643D01*
X161561654Y-112295684D01*
X161437684Y-112419654D01*
X161345643Y-112568875D01*
X161345641Y-112568880D01*
X161290494Y-112735302D01*
X161290493Y-112735308D01*
X161286357Y-112775791D01*
X161259959Y-112840482D01*
X161202778Y-112880632D01*
X161132967Y-112883494D01*
X161072691Y-112848159D01*
X161041087Y-112785846D01*
X161039641Y-112775786D01*
X161035506Y-112735303D01*
X160980358Y-112568880D01*
X160980356Y-112568875D01*
X160888315Y-112419654D01*
X160764345Y-112295684D01*
X160615124Y-112203643D01*
X160615119Y-112203641D01*
X160448697Y-112148494D01*
X160448690Y-112148493D01*
X160345986Y-112138000D01*
X160221000Y-112138000D01*
X160221000Y-113288000D01*
X159721000Y-113288000D01*
X159721000Y-112138000D01*
X159596027Y-112138000D01*
X159596012Y-112138001D01*
X159493302Y-112148494D01*
X159326880Y-112203641D01*
X159326875Y-112203643D01*
X159177654Y-112295684D01*
X159053684Y-112419654D01*
X158961643Y-112568875D01*
X158961641Y-112568880D01*
X158906494Y-112735302D01*
X158906493Y-112735309D01*
X158896000Y-112838013D01*
X158096499Y-112838013D01*
X158096499Y-112837992D01*
X158085999Y-112735203D01*
X158030814Y-112568666D01*
X158030810Y-112568659D01*
X157939961Y-112421368D01*
X157921500Y-112356272D01*
X157921500Y-112323655D01*
X157921499Y-112323653D01*
X157886896Y-112149690D01*
X157886893Y-112149681D01*
X157886401Y-112148494D01*
X157831160Y-112015127D01*
X157819016Y-111985808D01*
X157819009Y-111985795D01*
X157720465Y-111838315D01*
X157669792Y-111787642D01*
X157595035Y-111712885D01*
X157445318Y-111563168D01*
X157411833Y-111501845D01*
X157408999Y-111475487D01*
X157408999Y-111369328D01*
X157408999Y-111369327D01*
X157406376Y-111344926D01*
X157418783Y-111276167D01*
X157466394Y-111225031D01*
X157534093Y-111207752D01*
X157600387Y-111229818D01*
X157617347Y-111243992D01*
X158021626Y-111648272D01*
X158021629Y-111648275D01*
X158116377Y-111711583D01*
X158116378Y-111711583D01*
X158116379Y-111711584D01*
X158128174Y-111719465D01*
X158246557Y-111768501D01*
X158246561Y-111768501D01*
X158246562Y-111768502D01*
X158372229Y-111793500D01*
X158372232Y-111793500D01*
X163954071Y-111793500D01*
X164038615Y-111776682D01*
X164079744Y-111768501D01*
X164198127Y-111719465D01*
X164209922Y-111711584D01*
X164280543Y-111664396D01*
X164347221Y-111643519D01*
X164349434Y-111643499D01*
X165165002Y-111643499D01*
X165165008Y-111643499D01*
X165267797Y-111632999D01*
X165434334Y-111577814D01*
X165583656Y-111485712D01*
X165707712Y-111361656D01*
X165799814Y-111212334D01*
X165854999Y-111045797D01*
X165865500Y-110943009D01*
X165865499Y-110379228D01*
X165885183Y-110312190D01*
X165937987Y-110266435D01*
X166007146Y-110256491D01*
X166070702Y-110285516D01*
X166077180Y-110291548D01*
X166468586Y-110682954D01*
X166492786Y-110699123D01*
X166523023Y-110719326D01*
X166591505Y-110765084D01*
X166597939Y-110767749D01*
X166607401Y-110773867D01*
X166623143Y-110792137D01*
X166641920Y-110807265D01*
X166648949Y-110822086D01*
X166653009Y-110826798D01*
X166653780Y-110832272D01*
X166659287Y-110843883D01*
X166686425Y-110938724D01*
X166686426Y-110938726D01*
X166686427Y-110938728D01*
X166778284Y-111114579D01*
X166823985Y-111170627D01*
X166903659Y-111268340D01*
X166954397Y-111309711D01*
X167057421Y-111393716D01*
X167233272Y-111485573D01*
X167424015Y-111540151D01*
X167540414Y-111550500D01*
X167540420Y-111550500D01*
X171803580Y-111550500D01*
X171803586Y-111550500D01*
X171919985Y-111540151D01*
X172110728Y-111485573D01*
X172286579Y-111393716D01*
X172440340Y-111268340D01*
X172565716Y-111114579D01*
X172657573Y-110938728D01*
X172712151Y-110747985D01*
X172722500Y-110631586D01*
X172722500Y-109568414D01*
X172712151Y-109452015D01*
X172657573Y-109261272D01*
X172565716Y-109085421D01*
X172475544Y-108974834D01*
X172440340Y-108931659D01*
X172299965Y-108817199D01*
X172286579Y-108806284D01*
X172110728Y-108714427D01*
X172110727Y-108714426D01*
X172110726Y-108714426D01*
X172029139Y-108691081D01*
X171919985Y-108659849D01*
X171919982Y-108659848D01*
X171919980Y-108659848D01*
X171849017Y-108653539D01*
X171803586Y-108649500D01*
X167540414Y-108649500D01*
X167506340Y-108652529D01*
X167424019Y-108659848D01*
X167424016Y-108659848D01*
X167424015Y-108659849D01*
X167375639Y-108673691D01*
X167233273Y-108714426D01*
X167057422Y-108806283D01*
X166955433Y-108889444D01*
X166891036Y-108916553D01*
X166822207Y-108904544D01*
X166789391Y-108881023D01*
X165901818Y-107993450D01*
X165868333Y-107932127D01*
X165865499Y-107905769D01*
X165865499Y-107633986D01*
X166819001Y-107633986D01*
X166829494Y-107736697D01*
X166884641Y-107903119D01*
X166884643Y-107903124D01*
X166976684Y-108052345D01*
X167100654Y-108176315D01*
X167249875Y-108268356D01*
X167249880Y-108268358D01*
X167416302Y-108323505D01*
X167416309Y-108323506D01*
X167519019Y-108333999D01*
X167643999Y-108333999D01*
X168144000Y-108333999D01*
X168268972Y-108333999D01*
X168268986Y-108333998D01*
X168371697Y-108323505D01*
X168538119Y-108268358D01*
X168538124Y-108268356D01*
X168687345Y-108176315D01*
X168811315Y-108052345D01*
X168903356Y-107903124D01*
X168903358Y-107903119D01*
X168958505Y-107736697D01*
X168958506Y-107736690D01*
X168968999Y-107633986D01*
X168969000Y-107633973D01*
X168969000Y-107184000D01*
X168144000Y-107184000D01*
X168144000Y-108333999D01*
X167643999Y-108333999D01*
X167644000Y-108333998D01*
X167644000Y-107184000D01*
X166819001Y-107184000D01*
X166819001Y-107633986D01*
X165865499Y-107633986D01*
X165865499Y-107242998D01*
X165865498Y-107242983D01*
X165861663Y-107205440D01*
X165854999Y-107140203D01*
X165799814Y-106973666D01*
X165707712Y-106824344D01*
X165583656Y-106700288D01*
X165475357Y-106633489D01*
X165434336Y-106608187D01*
X165434331Y-106608185D01*
X165432862Y-106607698D01*
X165267797Y-106553001D01*
X165267795Y-106553000D01*
X165165010Y-106542500D01*
X163764998Y-106542500D01*
X163764981Y-106542501D01*
X163662203Y-106553000D01*
X163662200Y-106553001D01*
X163495668Y-106608185D01*
X163495663Y-106608187D01*
X163346342Y-106700289D01*
X163222289Y-106824342D01*
X163130187Y-106973663D01*
X163130185Y-106973668D01*
X163105457Y-107048294D01*
X163075001Y-107140203D01*
X163075001Y-107140204D01*
X163075000Y-107140204D01*
X163064500Y-107242983D01*
X163064500Y-107905769D01*
X163044815Y-107972808D01*
X163028181Y-107993450D01*
X162041180Y-108980450D01*
X161979857Y-109013935D01*
X161910165Y-109008951D01*
X161865818Y-108980450D01*
X161773657Y-108888289D01*
X161773656Y-108888288D01*
X161624334Y-108796186D01*
X161457797Y-108741001D01*
X161457795Y-108741000D01*
X161355016Y-108730500D01*
X161355009Y-108730500D01*
X160692229Y-108730500D01*
X160625190Y-108710815D01*
X160604548Y-108694181D01*
X160053548Y-108143180D01*
X160020063Y-108081857D01*
X160025047Y-108012165D01*
X160066919Y-107956232D01*
X160132383Y-107931815D01*
X160141204Y-107931499D01*
X161355008Y-107931499D01*
X161457797Y-107920999D01*
X161624334Y-107865814D01*
X161773656Y-107773712D01*
X161897712Y-107649656D01*
X161989814Y-107500334D01*
X162044999Y-107333797D01*
X162055500Y-107231009D01*
X162055499Y-106480992D01*
X162055279Y-106478842D01*
X162044999Y-106378203D01*
X162044998Y-106378200D01*
X162026094Y-106321153D01*
X161989814Y-106211666D01*
X161989809Y-106211659D01*
X161987821Y-106207393D01*
X161977329Y-106138315D01*
X162005849Y-106074531D01*
X162035102Y-106049452D01*
X162154656Y-105975712D01*
X162278712Y-105851656D01*
X162339180Y-105753620D01*
X162391128Y-105706896D01*
X162460090Y-105695673D01*
X162524173Y-105723516D01*
X162550257Y-105753618D01*
X162587288Y-105813656D01*
X162711344Y-105937712D01*
X162860666Y-106029814D01*
X163027203Y-106084999D01*
X163129991Y-106095500D01*
X164530008Y-106095499D01*
X164632797Y-106084999D01*
X164799334Y-106029814D01*
X164948656Y-105937712D01*
X165072712Y-105813656D01*
X165164814Y-105664334D01*
X165219999Y-105497797D01*
X165230500Y-105395009D01*
X165230499Y-104644992D01*
X165228940Y-104629734D01*
X165219999Y-104542203D01*
X165219998Y-104542200D01*
X165203889Y-104493586D01*
X165164814Y-104375666D01*
X165072712Y-104226344D01*
X164948656Y-104102288D01*
X164816341Y-104020676D01*
X164799336Y-104010187D01*
X164799331Y-104010185D01*
X164747473Y-103993001D01*
X164632797Y-103955001D01*
X164632795Y-103955000D01*
X164530016Y-103944500D01*
X164530009Y-103944500D01*
X163725808Y-103944500D01*
X163658769Y-103924815D01*
X163638127Y-103908181D01*
X163087127Y-103357180D01*
X163053642Y-103295857D01*
X163058626Y-103226165D01*
X163100498Y-103170232D01*
X163165962Y-103145815D01*
X163174782Y-103145499D01*
X163637238Y-103145499D01*
X163645657Y-103147189D01*
X163650931Y-103146257D01*
X163669127Y-103151900D01*
X163685098Y-103155107D01*
X163693156Y-103158478D01*
X163695453Y-103160013D01*
X163832215Y-103216661D01*
X163832622Y-103216829D01*
X163832624Y-103216831D01*
X163859329Y-103227892D01*
X163859334Y-103227894D01*
X163859338Y-103227894D01*
X163859339Y-103227895D01*
X164033305Y-103262500D01*
X164033308Y-103262500D01*
X164033309Y-103262500D01*
X165743500Y-103262500D01*
X165810539Y-103282185D01*
X165856294Y-103334989D01*
X165867500Y-103386500D01*
X165867500Y-104493586D01*
X165869316Y-104514011D01*
X165877848Y-104609980D01*
X165877848Y-104609982D01*
X165877849Y-104609985D01*
X165932427Y-104800728D01*
X166024284Y-104976579D01*
X166072778Y-105036052D01*
X166149659Y-105130340D01*
X166226540Y-105193028D01*
X166303421Y-105255716D01*
X166479272Y-105347573D01*
X166670015Y-105402151D01*
X166786414Y-105412500D01*
X166786420Y-105412500D01*
X167116045Y-105412500D01*
X167183084Y-105432185D01*
X167228839Y-105484989D01*
X167238783Y-105554147D01*
X167209758Y-105617703D01*
X167181142Y-105642038D01*
X167100659Y-105691680D01*
X167100655Y-105691683D01*
X166976684Y-105815654D01*
X166884643Y-105964875D01*
X166884641Y-105964880D01*
X166829494Y-106131302D01*
X166829493Y-106131309D01*
X166819000Y-106234013D01*
X166819000Y-106684000D01*
X168968999Y-106684000D01*
X168968999Y-106234028D01*
X168968998Y-106234013D01*
X168958505Y-106131302D01*
X168903358Y-105964880D01*
X168903356Y-105964875D01*
X168811315Y-105815654D01*
X168687345Y-105691684D01*
X168538124Y-105599643D01*
X168538119Y-105599641D01*
X168371697Y-105544494D01*
X168371690Y-105544493D01*
X168287570Y-105535899D01*
X168222878Y-105509502D01*
X168182727Y-105452322D01*
X168179864Y-105382511D01*
X168215199Y-105322234D01*
X168242759Y-105302634D01*
X168332579Y-105255716D01*
X168486340Y-105130340D01*
X168611716Y-104976579D01*
X168703573Y-104800728D01*
X168758151Y-104609985D01*
X168768500Y-104493586D01*
X168768500Y-100230414D01*
X168761676Y-100153657D01*
X168760060Y-100135480D01*
X168773731Y-100066961D01*
X168822276Y-100016710D01*
X168883573Y-100000500D01*
X169456309Y-100000500D01*
X169952427Y-100000500D01*
X170019466Y-100020185D01*
X170065221Y-100072989D01*
X170075940Y-100135480D01*
X170074324Y-100153657D01*
X170067500Y-100230414D01*
X170067500Y-104493586D01*
X170069316Y-104514011D01*
X170077848Y-104609980D01*
X170077848Y-104609982D01*
X170077849Y-104609985D01*
X170132427Y-104800728D01*
X170224284Y-104976579D01*
X170272778Y-105036052D01*
X170349659Y-105130340D01*
X170430752Y-105196462D01*
X170503421Y-105255716D01*
X170550911Y-105280522D01*
X170561422Y-105290653D01*
X170574703Y-105296718D01*
X170586074Y-105314412D01*
X170601218Y-105329008D01*
X170605264Y-105344272D01*
X170612477Y-105355496D01*
X170617500Y-105390431D01*
X170617500Y-105409500D01*
X170597815Y-105476539D01*
X170545011Y-105522294D01*
X170493504Y-105533500D01*
X170469001Y-105533500D01*
X170468980Y-105533501D01*
X170366203Y-105544000D01*
X170366200Y-105544001D01*
X170199668Y-105599185D01*
X170199663Y-105599187D01*
X170050342Y-105691289D01*
X169926289Y-105815342D01*
X169834187Y-105964663D01*
X169834185Y-105964668D01*
X169815580Y-106020814D01*
X169779001Y-106131203D01*
X169779001Y-106131204D01*
X169779000Y-106131204D01*
X169768500Y-106233983D01*
X169768500Y-107634001D01*
X169768501Y-107634018D01*
X169779000Y-107736796D01*
X169779001Y-107736799D01*
X169834185Y-107903331D01*
X169834187Y-107903336D01*
X169866814Y-107956232D01*
X169926288Y-108052656D01*
X170050344Y-108176712D01*
X170199666Y-108268814D01*
X170366203Y-108323999D01*
X170468991Y-108334500D01*
X171219008Y-108334499D01*
X171219016Y-108334498D01*
X171219019Y-108334498D01*
X171275302Y-108328748D01*
X171321797Y-108323999D01*
X171488334Y-108268814D01*
X171637656Y-108176712D01*
X171761712Y-108052656D01*
X171853814Y-107903334D01*
X171908999Y-107736797D01*
X171919500Y-107634009D01*
X171919499Y-107492359D01*
X171939183Y-107425322D01*
X171991987Y-107379567D01*
X172061145Y-107369623D01*
X172124701Y-107398647D01*
X172131180Y-107404680D01*
X176291565Y-111565064D01*
X176325050Y-111626387D01*
X176326358Y-111672138D01*
X176324500Y-111683871D01*
X176324500Y-111916129D01*
X176360831Y-112145514D01*
X176432601Y-112366400D01*
X176493021Y-112484979D01*
X176538039Y-112573331D01*
X176674551Y-112761224D01*
X176838776Y-112925449D01*
X177026669Y-113061961D01*
X177124436Y-113111776D01*
X177233599Y-113167398D01*
X177233601Y-113167398D01*
X177233604Y-113167400D01*
X177454486Y-113239169D01*
X177572668Y-113257886D01*
X177683871Y-113275500D01*
X177683876Y-113275500D01*
X177916129Y-113275500D01*
X178017502Y-113259443D01*
X178145514Y-113239169D01*
X178366396Y-113167400D01*
X178573331Y-113061961D01*
X178761224Y-112925449D01*
X178925449Y-112761224D01*
X179061961Y-112573331D01*
X179167400Y-112366396D01*
X179239169Y-112145514D01*
X179259820Y-112015127D01*
X179275500Y-111916129D01*
X179275500Y-111683870D01*
X179252737Y-111540151D01*
X179239169Y-111454486D01*
X179167400Y-111233604D01*
X179167398Y-111233601D01*
X179167398Y-111233599D01*
X179110942Y-111122800D01*
X179061961Y-111026669D01*
X178925449Y-110838776D01*
X178761224Y-110674551D01*
X178573331Y-110538039D01*
X178366400Y-110432601D01*
X178145514Y-110360831D01*
X177916129Y-110324500D01*
X177916124Y-110324500D01*
X177683876Y-110324500D01*
X177683872Y-110324500D01*
X177672138Y-110326358D01*
X177602845Y-110317401D01*
X177565064Y-110291565D01*
X172627776Y-105354276D01*
X172620442Y-105340845D01*
X172609181Y-105330481D01*
X172604037Y-105310802D01*
X172594291Y-105292953D01*
X172595382Y-105277687D01*
X172591513Y-105262882D01*
X172597824Y-105243549D01*
X172599275Y-105223261D01*
X172608773Y-105210008D01*
X172613196Y-105196462D01*
X172637097Y-105170493D01*
X172648250Y-105161399D01*
X172686338Y-105130342D01*
X172686340Y-105130340D01*
X172811716Y-104976579D01*
X172903573Y-104800728D01*
X172958151Y-104609985D01*
X172968500Y-104493586D01*
X172968500Y-103983909D01*
X176325000Y-103983909D01*
X176325000Y-104216090D01*
X176361318Y-104445393D01*
X176433065Y-104666205D01*
X176538465Y-104873064D01*
X176595238Y-104951207D01*
X177198958Y-104347487D01*
X177223978Y-104407890D01*
X177295112Y-104514351D01*
X177385649Y-104604888D01*
X177492110Y-104676022D01*
X177552510Y-104701041D01*
X176948791Y-105304759D01*
X176948791Y-105304760D01*
X177026935Y-105361534D01*
X177233794Y-105466934D01*
X177454606Y-105538681D01*
X177683910Y-105575000D01*
X177916090Y-105575000D01*
X178145393Y-105538681D01*
X178366205Y-105466934D01*
X178573071Y-105361530D01*
X178651207Y-105304762D01*
X178651208Y-105304760D01*
X178047488Y-104701041D01*
X178107890Y-104676022D01*
X178214351Y-104604888D01*
X178304888Y-104514351D01*
X178376022Y-104407890D01*
X178401041Y-104347488D01*
X179004760Y-104951208D01*
X179004762Y-104951207D01*
X179061530Y-104873071D01*
X179166934Y-104666205D01*
X179238681Y-104445393D01*
X179275000Y-104216090D01*
X179275000Y-103983909D01*
X179238681Y-103754606D01*
X179166934Y-103533794D01*
X179061534Y-103326935D01*
X179004760Y-103248791D01*
X179004759Y-103248791D01*
X178401041Y-103852510D01*
X178376022Y-103792110D01*
X178304888Y-103685649D01*
X178214351Y-103595112D01*
X178107890Y-103523978D01*
X178047487Y-103498957D01*
X178651207Y-102895238D01*
X178573064Y-102838465D01*
X178366205Y-102733065D01*
X178145393Y-102661318D01*
X177916090Y-102625000D01*
X177683910Y-102625000D01*
X177454606Y-102661318D01*
X177233794Y-102733065D01*
X177026925Y-102838470D01*
X176948791Y-102895237D01*
X176948791Y-102895238D01*
X177552511Y-103498958D01*
X177492110Y-103523978D01*
X177385649Y-103595112D01*
X177295112Y-103685649D01*
X177223978Y-103792110D01*
X177198958Y-103852511D01*
X176595238Y-103248791D01*
X176595237Y-103248791D01*
X176538470Y-103326925D01*
X176433065Y-103533794D01*
X176361318Y-103754606D01*
X176325000Y-103983909D01*
X172968500Y-103983909D01*
X172968500Y-100230414D01*
X172961676Y-100153657D01*
X172960060Y-100135480D01*
X172973731Y-100066961D01*
X173022276Y-100016710D01*
X173083573Y-100000500D01*
X176567251Y-100000500D01*
X176634290Y-100020185D01*
X176667568Y-100051613D01*
X176674551Y-100061224D01*
X176838776Y-100225449D01*
X177026669Y-100361961D01*
X177044007Y-100370795D01*
X177233599Y-100467398D01*
X177233601Y-100467398D01*
X177233604Y-100467400D01*
X177454486Y-100539169D01*
X177572668Y-100557886D01*
X177683871Y-100575500D01*
X177683876Y-100575500D01*
X177916129Y-100575500D01*
X178017502Y-100559443D01*
X178145514Y-100539169D01*
X178366396Y-100467400D01*
X178573331Y-100361961D01*
X178761224Y-100225449D01*
X178925449Y-100061224D01*
X179061961Y-99873331D01*
X179167400Y-99666396D01*
X179239169Y-99445514D01*
X179269024Y-99257014D01*
X179275500Y-99216129D01*
X179275500Y-98983870D01*
X179248444Y-98813050D01*
X179239169Y-98754486D01*
X179167400Y-98533604D01*
X179167398Y-98533601D01*
X179167398Y-98533599D01*
X179091678Y-98384992D01*
X179061961Y-98326669D01*
X178925449Y-98138776D01*
X178761224Y-97974551D01*
X178573331Y-97838039D01*
X178532038Y-97816999D01*
X178366400Y-97732601D01*
X178145514Y-97660831D01*
X177916129Y-97624500D01*
X177916124Y-97624500D01*
X177683876Y-97624500D01*
X177683871Y-97624500D01*
X177454485Y-97660831D01*
X177233599Y-97732601D01*
X177026668Y-97838039D01*
X176838773Y-97974553D01*
X176674552Y-98138774D01*
X176674550Y-98138777D01*
X176667568Y-98148387D01*
X176612237Y-98191052D01*
X176567251Y-98199500D01*
X167230523Y-98199500D01*
X167163484Y-98179815D01*
X167117729Y-98127011D01*
X167107785Y-98057853D01*
X167136810Y-97994297D01*
X167142842Y-97987819D01*
X167238315Y-97892345D01*
X167330356Y-97743124D01*
X167330358Y-97743119D01*
X167385505Y-97576697D01*
X167385506Y-97576690D01*
X167395999Y-97473986D01*
X167396000Y-97473973D01*
X167396000Y-97024000D01*
X165246000Y-97024000D01*
X165246000Y-97076140D01*
X165226315Y-97143179D01*
X165173510Y-97188934D01*
X165104352Y-97198877D01*
X165040796Y-97169851D01*
X165034328Y-97163828D01*
X164482818Y-96612318D01*
X164449333Y-96550995D01*
X164446499Y-96524637D01*
X164446499Y-96074013D01*
X165246000Y-96074013D01*
X165246000Y-96524000D01*
X166071000Y-96524000D01*
X166571000Y-96524000D01*
X167395999Y-96524000D01*
X167395999Y-96074028D01*
X167395998Y-96074013D01*
X167385505Y-95971302D01*
X167330358Y-95804880D01*
X167330356Y-95804875D01*
X167238315Y-95655654D01*
X167114345Y-95531684D01*
X166965124Y-95439643D01*
X166965119Y-95439641D01*
X166798697Y-95384494D01*
X166798690Y-95384493D01*
X166695986Y-95374000D01*
X166571000Y-95374000D01*
X166571000Y-96524000D01*
X166071000Y-96524000D01*
X166071000Y-95374000D01*
X165946027Y-95374000D01*
X165946012Y-95374001D01*
X165843302Y-95384494D01*
X165676880Y-95439641D01*
X165676875Y-95439643D01*
X165527654Y-95531684D01*
X165403684Y-95655654D01*
X165311643Y-95804875D01*
X165311641Y-95804880D01*
X165256494Y-95971302D01*
X165256493Y-95971309D01*
X165246000Y-96074013D01*
X164446499Y-96074013D01*
X164446499Y-96073990D01*
X164446498Y-96073977D01*
X164435999Y-95971203D01*
X164435998Y-95971200D01*
X164423228Y-95932662D01*
X164380814Y-95804666D01*
X164288712Y-95655344D01*
X164164656Y-95531288D01*
X164015334Y-95439186D01*
X163848797Y-95384001D01*
X163848795Y-95384000D01*
X163746010Y-95373500D01*
X162995998Y-95373500D01*
X162995980Y-95373501D01*
X162893203Y-95384000D01*
X162893200Y-95384001D01*
X162726668Y-95439185D01*
X162726663Y-95439187D01*
X162577342Y-95531289D01*
X162453289Y-95655342D01*
X162361185Y-95804667D01*
X162341661Y-95863584D01*
X162301887Y-95921028D01*
X162271410Y-95939137D01*
X162230453Y-95956102D01*
X162230454Y-95956103D01*
X162182454Y-95975986D01*
X162146602Y-95999942D01*
X162035781Y-96073991D01*
X162035726Y-96074028D01*
X162034966Y-96074535D01*
X162034961Y-96074539D01*
X159978317Y-98131181D01*
X159916994Y-98164666D01*
X159890636Y-98167500D01*
X159439998Y-98167500D01*
X159439980Y-98167501D01*
X159337203Y-98178000D01*
X159337200Y-98178001D01*
X159170668Y-98233185D01*
X159170663Y-98233187D01*
X159021342Y-98325289D01*
X158897289Y-98449342D01*
X158880198Y-98477051D01*
X158830697Y-98557307D01*
X158801395Y-98604813D01*
X158799600Y-98603706D01*
X158760313Y-98648337D01*
X158694092Y-98667500D01*
X158391955Y-98667500D01*
X158217990Y-98702103D01*
X158217974Y-98702108D01*
X158102104Y-98750102D01*
X158102105Y-98750103D01*
X158054105Y-98769986D01*
X157923384Y-98857332D01*
X157923383Y-98857333D01*
X157906613Y-98868537D01*
X157906612Y-98868538D01*
X157576181Y-99198970D01*
X157514858Y-99232455D01*
X157445166Y-99227471D01*
X157389233Y-99185599D01*
X157364816Y-99120135D01*
X157364500Y-99111289D01*
X157364500Y-99074797D01*
X157384185Y-99007758D01*
X157423403Y-98969258D01*
X157482656Y-98932712D01*
X157606712Y-98808656D01*
X157698814Y-98659334D01*
X157753999Y-98492797D01*
X157764500Y-98390009D01*
X157764499Y-97189992D01*
X157753999Y-97087203D01*
X157698814Y-96920666D01*
X157606712Y-96771344D01*
X157537488Y-96702120D01*
X157504003Y-96640797D01*
X157508987Y-96571105D01*
X157524852Y-96541552D01*
X157575858Y-96471349D01*
X157575863Y-96471341D01*
X157668755Y-96289031D01*
X157731990Y-96094417D01*
X157764000Y-95892317D01*
X157764000Y-95687682D01*
X157731990Y-95485582D01*
X157668755Y-95290968D01*
X157575859Y-95108650D01*
X157543474Y-95064077D01*
X157543474Y-95064076D01*
X156864000Y-95743551D01*
X156864000Y-95737339D01*
X156836741Y-95635606D01*
X156784080Y-95544394D01*
X156709606Y-95469920D01*
X156618394Y-95417259D01*
X156516661Y-95390000D01*
X156510446Y-95390000D01*
X157189922Y-94710524D01*
X157189921Y-94710523D01*
X157145359Y-94678147D01*
X157145350Y-94678141D01*
X156963031Y-94585244D01*
X156768417Y-94522009D01*
X156566317Y-94490000D01*
X156361683Y-94490000D01*
X156159582Y-94522009D01*
X155964968Y-94585244D01*
X155782644Y-94678143D01*
X155738077Y-94710523D01*
X155738077Y-94710524D01*
X156417554Y-95390000D01*
X156411339Y-95390000D01*
X156309606Y-95417259D01*
X156218394Y-95469920D01*
X156143920Y-95544394D01*
X156091259Y-95635606D01*
X156064000Y-95737339D01*
X156064000Y-95743553D01*
X155384524Y-95064077D01*
X155384523Y-95064077D01*
X155352143Y-95108644D01*
X155259244Y-95290968D01*
X155196009Y-95485582D01*
X155164000Y-95687682D01*
X155164000Y-95892317D01*
X155196009Y-96094417D01*
X155259244Y-96289031D01*
X155352142Y-96471352D01*
X155403147Y-96541555D01*
X155426627Y-96607361D01*
X155410802Y-96675415D01*
X155390511Y-96702121D01*
X155321287Y-96771345D01*
X155229187Y-96920663D01*
X155229185Y-96920668D01*
X155201349Y-97004670D01*
X155174001Y-97087203D01*
X155174001Y-97087204D01*
X155174000Y-97087204D01*
X155163500Y-97189983D01*
X155163500Y-97765637D01*
X155143815Y-97832676D01*
X155127181Y-97853318D01*
X154857319Y-98123181D01*
X154795996Y-98156666D01*
X154769638Y-98159500D01*
X153686058Y-98159500D01*
X153619019Y-98139815D01*
X153580519Y-98100597D01*
X153554786Y-98058877D01*
X153497712Y-97966344D01*
X153373656Y-97842288D01*
X153224334Y-97750186D01*
X153057797Y-97695001D01*
X153057795Y-97695000D01*
X152955010Y-97684500D01*
X152229998Y-97684500D01*
X152229980Y-97684501D01*
X152127203Y-97695000D01*
X152127200Y-97695001D01*
X151960668Y-97750185D01*
X151960663Y-97750187D01*
X151811342Y-97842289D01*
X151687289Y-97966342D01*
X151595187Y-98115663D01*
X151595185Y-98115668D01*
X151567406Y-98199500D01*
X151540001Y-98282203D01*
X151540001Y-98282204D01*
X151540000Y-98282204D01*
X151529500Y-98384983D01*
X150730498Y-98384983D01*
X150725733Y-98338340D01*
X150719999Y-98282203D01*
X150719998Y-98282200D01*
X150710880Y-98254683D01*
X150664814Y-98115666D01*
X150572712Y-97966344D01*
X150448656Y-97842288D01*
X150299334Y-97750186D01*
X150132797Y-97695001D01*
X150132795Y-97695000D01*
X150030010Y-97684500D01*
X149304998Y-97684500D01*
X149304980Y-97684501D01*
X149202203Y-97695000D01*
X149202200Y-97695001D01*
X149035668Y-97750185D01*
X149035663Y-97750187D01*
X148886342Y-97842289D01*
X148762289Y-97966342D01*
X148670187Y-98115663D01*
X148670185Y-98115668D01*
X148634121Y-98224504D01*
X148594348Y-98281949D01*
X148529833Y-98308772D01*
X148516415Y-98309500D01*
X147246080Y-98309500D01*
X147101092Y-98338340D01*
X147101082Y-98338343D01*
X146964511Y-98394912D01*
X146964498Y-98394919D01*
X146841584Y-98477048D01*
X146841580Y-98477051D01*
X146426746Y-98891885D01*
X146365423Y-98925370D01*
X146295731Y-98920386D01*
X146239798Y-98878514D01*
X146215381Y-98813050D01*
X146216126Y-98788019D01*
X146224691Y-98722963D01*
X146246500Y-98557307D01*
X146246500Y-98254693D01*
X146207001Y-97954668D01*
X146128678Y-97662365D01*
X146012873Y-97382786D01*
X146012244Y-97381697D01*
X145861566Y-97120714D01*
X145677347Y-96880635D01*
X145677341Y-96880628D01*
X145463371Y-96666658D01*
X145463364Y-96666652D01*
X145223285Y-96482433D01*
X144961217Y-96331128D01*
X144961207Y-96331124D01*
X144681639Y-96215323D01*
X144389328Y-96136998D01*
X144089316Y-96097501D01*
X144089313Y-96097500D01*
X144089307Y-96097500D01*
X143786693Y-96097500D01*
X143786687Y-96097500D01*
X143786683Y-96097501D01*
X143486671Y-96136998D01*
X143194360Y-96215323D01*
X142914792Y-96331124D01*
X142914782Y-96331128D01*
X142652723Y-96482427D01*
X142652717Y-96482431D01*
X142615445Y-96511031D01*
X142550275Y-96536223D01*
X142481831Y-96522183D01*
X142452280Y-96500334D01*
X141031942Y-95079996D01*
X140998457Y-95018673D01*
X141003441Y-94948981D01*
X141012235Y-94930318D01*
X141012873Y-94929214D01*
X141064566Y-94804413D01*
X141103538Y-94710330D01*
X141103538Y-94710328D01*
X141116870Y-94678143D01*
X141128678Y-94649635D01*
X141207001Y-94357332D01*
X141246500Y-94057307D01*
X141246500Y-93754693D01*
X141207001Y-93454668D01*
X141128678Y-93162365D01*
X141012873Y-92882786D01*
X140861566Y-92620714D01*
X140677346Y-92380634D01*
X140677341Y-92380628D01*
X140463371Y-92166658D01*
X140463364Y-92166652D01*
X140223285Y-91982433D01*
X139961217Y-91831128D01*
X139961207Y-91831124D01*
X139681639Y-91715323D01*
X139389328Y-91636998D01*
X139089316Y-91597501D01*
X139089313Y-91597500D01*
X139089307Y-91597500D01*
X138786693Y-91597500D01*
X138786687Y-91597500D01*
X138786683Y-91597501D01*
X138486671Y-91636998D01*
X138194360Y-91715323D01*
X137914792Y-91831124D01*
X137914782Y-91831128D01*
X137652714Y-91982433D01*
X137412635Y-92166652D01*
X137412628Y-92166658D01*
X137198658Y-92380628D01*
X137198652Y-92380635D01*
X137014433Y-92620714D01*
X136863128Y-92882782D01*
X136863124Y-92882792D01*
X136747323Y-93162360D01*
X136668998Y-93454671D01*
X136629501Y-93754683D01*
X136629500Y-93754693D01*
X136629500Y-94057307D01*
X136668999Y-94357332D01*
X136734518Y-94601853D01*
X136732856Y-94671702D01*
X136702425Y-94721627D01*
X135111996Y-96312056D01*
X135050673Y-96345541D01*
X134980981Y-96340557D01*
X134962316Y-96331763D01*
X134961216Y-96331128D01*
X134961210Y-96331125D01*
X134681639Y-96215323D01*
X134389328Y-96136998D01*
X134089316Y-96097501D01*
X134089313Y-96097500D01*
X134089307Y-96097500D01*
X133786693Y-96097500D01*
X133786687Y-96097500D01*
X133786683Y-96097501D01*
X133486671Y-96136998D01*
X133194360Y-96215323D01*
X132914792Y-96331124D01*
X132914782Y-96331128D01*
X132652714Y-96482433D01*
X132412635Y-96666652D01*
X132412628Y-96666658D01*
X132309581Y-96769706D01*
X132248258Y-96803191D01*
X132178566Y-96798207D01*
X132122633Y-96756335D01*
X132098216Y-96690871D01*
X132097900Y-96682025D01*
X132097900Y-91429500D01*
X132117585Y-91362461D01*
X132170389Y-91316706D01*
X132221900Y-91305500D01*
X181772900Y-91305500D01*
X181839939Y-91325185D01*
G37*
%TD.AperFunction*%
%TD*%
M02*
