%TF.GenerationSoftware,KiCad,Pcbnew,9.0.5*%
%TF.CreationDate,2025-10-29T12:04:31-05:00*%
%TF.ProjectId,poweramp,706f7765-7261-46d7-902e-6b696361645f,rev?*%
%TF.SameCoordinates,Original*%
%TF.FileFunction,Legend,Top*%
%TF.FilePolarity,Positive*%
%FSLAX46Y46*%
G04 Gerber Fmt 4.6, Leading zero omitted, Abs format (unit mm)*
G04 Created by KiCad (PCBNEW 9.0.5) date 2025-10-29 12:04:31*
%MOMM*%
%LPD*%
G01*
G04 APERTURE LIST*
%ADD10C,0.150000*%
%ADD11C,0.152400*%
%ADD12C,0.000000*%
%ADD13C,0.120000*%
%ADD14C,0.127000*%
%ADD15C,0.400000*%
%ADD16C,0.200000*%
G04 APERTURE END LIST*
D10*
X148342350Y-99801220D02*
X148342350Y-100039315D01*
X148104255Y-99944077D02*
X148342350Y-100039315D01*
X148342350Y-100039315D02*
X148580445Y-99944077D01*
X148199493Y-100229791D02*
X148342350Y-100039315D01*
X148342350Y-100039315D02*
X148485207Y-100229791D01*
X148342350Y-99801220D02*
X148342350Y-100039315D01*
X148104255Y-99944077D02*
X148342350Y-100039315D01*
X148342350Y-100039315D02*
X148580445Y-99944077D01*
X148199493Y-100229791D02*
X148342350Y-100039315D01*
X148342350Y-100039315D02*
X148485207Y-100229791D01*
X157525580Y-116450857D02*
X157573200Y-116498476D01*
X157573200Y-116498476D02*
X157620819Y-116641333D01*
X157620819Y-116641333D02*
X157620819Y-116736571D01*
X157620819Y-116736571D02*
X157573200Y-116879428D01*
X157573200Y-116879428D02*
X157477961Y-116974666D01*
X157477961Y-116974666D02*
X157382723Y-117022285D01*
X157382723Y-117022285D02*
X157192247Y-117069904D01*
X157192247Y-117069904D02*
X157049390Y-117069904D01*
X157049390Y-117069904D02*
X156858914Y-117022285D01*
X156858914Y-117022285D02*
X156763676Y-116974666D01*
X156763676Y-116974666D02*
X156668438Y-116879428D01*
X156668438Y-116879428D02*
X156620819Y-116736571D01*
X156620819Y-116736571D02*
X156620819Y-116641333D01*
X156620819Y-116641333D02*
X156668438Y-116498476D01*
X156668438Y-116498476D02*
X156716057Y-116450857D01*
X157620819Y-115498476D02*
X157620819Y-116069904D01*
X157620819Y-115784190D02*
X156620819Y-115784190D01*
X156620819Y-115784190D02*
X156763676Y-115879428D01*
X156763676Y-115879428D02*
X156858914Y-115974666D01*
X156858914Y-115974666D02*
X156906533Y-116069904D01*
X156954152Y-114641333D02*
X157620819Y-114641333D01*
X156573200Y-114879428D02*
X157287485Y-115117523D01*
X157287485Y-115117523D02*
X157287485Y-114498476D01*
X144154912Y-88759322D02*
X144870171Y-88759322D01*
X144870171Y-88759322D02*
X145013223Y-88807005D01*
X145013223Y-88807005D02*
X145108591Y-88902373D01*
X145108591Y-88902373D02*
X145156274Y-89045425D01*
X145156274Y-89045425D02*
X145156274Y-89140793D01*
X144250280Y-88330167D02*
X144202596Y-88282483D01*
X144202596Y-88282483D02*
X144154912Y-88187115D01*
X144154912Y-88187115D02*
X144154912Y-87948696D01*
X144154912Y-87948696D02*
X144202596Y-87853328D01*
X144202596Y-87853328D02*
X144250280Y-87805644D01*
X144250280Y-87805644D02*
X144345648Y-87757960D01*
X144345648Y-87757960D02*
X144441016Y-87757960D01*
X144441016Y-87757960D02*
X144584068Y-87805644D01*
X144584068Y-87805644D02*
X145156274Y-88377851D01*
X145156274Y-88377851D02*
X145156274Y-87757960D01*
X166039580Y-103711666D02*
X166087200Y-103759285D01*
X166087200Y-103759285D02*
X166134819Y-103902142D01*
X166134819Y-103902142D02*
X166134819Y-103997380D01*
X166134819Y-103997380D02*
X166087200Y-104140237D01*
X166087200Y-104140237D02*
X165991961Y-104235475D01*
X165991961Y-104235475D02*
X165896723Y-104283094D01*
X165896723Y-104283094D02*
X165706247Y-104330713D01*
X165706247Y-104330713D02*
X165563390Y-104330713D01*
X165563390Y-104330713D02*
X165372914Y-104283094D01*
X165372914Y-104283094D02*
X165277676Y-104235475D01*
X165277676Y-104235475D02*
X165182438Y-104140237D01*
X165182438Y-104140237D02*
X165134819Y-103997380D01*
X165134819Y-103997380D02*
X165134819Y-103902142D01*
X165134819Y-103902142D02*
X165182438Y-103759285D01*
X165182438Y-103759285D02*
X165230057Y-103711666D01*
X165563390Y-103140237D02*
X165515771Y-103235475D01*
X165515771Y-103235475D02*
X165468152Y-103283094D01*
X165468152Y-103283094D02*
X165372914Y-103330713D01*
X165372914Y-103330713D02*
X165325295Y-103330713D01*
X165325295Y-103330713D02*
X165230057Y-103283094D01*
X165230057Y-103283094D02*
X165182438Y-103235475D01*
X165182438Y-103235475D02*
X165134819Y-103140237D01*
X165134819Y-103140237D02*
X165134819Y-102949761D01*
X165134819Y-102949761D02*
X165182438Y-102854523D01*
X165182438Y-102854523D02*
X165230057Y-102806904D01*
X165230057Y-102806904D02*
X165325295Y-102759285D01*
X165325295Y-102759285D02*
X165372914Y-102759285D01*
X165372914Y-102759285D02*
X165468152Y-102806904D01*
X165468152Y-102806904D02*
X165515771Y-102854523D01*
X165515771Y-102854523D02*
X165563390Y-102949761D01*
X165563390Y-102949761D02*
X165563390Y-103140237D01*
X165563390Y-103140237D02*
X165611009Y-103235475D01*
X165611009Y-103235475D02*
X165658628Y-103283094D01*
X165658628Y-103283094D02*
X165753866Y-103330713D01*
X165753866Y-103330713D02*
X165944342Y-103330713D01*
X165944342Y-103330713D02*
X166039580Y-103283094D01*
X166039580Y-103283094D02*
X166087200Y-103235475D01*
X166087200Y-103235475D02*
X166134819Y-103140237D01*
X166134819Y-103140237D02*
X166134819Y-102949761D01*
X166134819Y-102949761D02*
X166087200Y-102854523D01*
X166087200Y-102854523D02*
X166039580Y-102806904D01*
X166039580Y-102806904D02*
X165944342Y-102759285D01*
X165944342Y-102759285D02*
X165753866Y-102759285D01*
X165753866Y-102759285D02*
X165658628Y-102806904D01*
X165658628Y-102806904D02*
X165611009Y-102854523D01*
X165611009Y-102854523D02*
X165563390Y-102949761D01*
X183342200Y-118038095D02*
X183389819Y-117895238D01*
X183389819Y-117895238D02*
X183389819Y-117657143D01*
X183389819Y-117657143D02*
X183342200Y-117561905D01*
X183342200Y-117561905D02*
X183294580Y-117514286D01*
X183294580Y-117514286D02*
X183199342Y-117466667D01*
X183199342Y-117466667D02*
X183104104Y-117466667D01*
X183104104Y-117466667D02*
X183008866Y-117514286D01*
X183008866Y-117514286D02*
X182961247Y-117561905D01*
X182961247Y-117561905D02*
X182913628Y-117657143D01*
X182913628Y-117657143D02*
X182866009Y-117847619D01*
X182866009Y-117847619D02*
X182818390Y-117942857D01*
X182818390Y-117942857D02*
X182770771Y-117990476D01*
X182770771Y-117990476D02*
X182675533Y-118038095D01*
X182675533Y-118038095D02*
X182580295Y-118038095D01*
X182580295Y-118038095D02*
X182485057Y-117990476D01*
X182485057Y-117990476D02*
X182437438Y-117942857D01*
X182437438Y-117942857D02*
X182389819Y-117847619D01*
X182389819Y-117847619D02*
X182389819Y-117609524D01*
X182389819Y-117609524D02*
X182437438Y-117466667D01*
X182723152Y-117038095D02*
X183723152Y-117038095D01*
X182770771Y-117038095D02*
X182723152Y-116942857D01*
X182723152Y-116942857D02*
X182723152Y-116752381D01*
X182723152Y-116752381D02*
X182770771Y-116657143D01*
X182770771Y-116657143D02*
X182818390Y-116609524D01*
X182818390Y-116609524D02*
X182913628Y-116561905D01*
X182913628Y-116561905D02*
X183199342Y-116561905D01*
X183199342Y-116561905D02*
X183294580Y-116609524D01*
X183294580Y-116609524D02*
X183342200Y-116657143D01*
X183342200Y-116657143D02*
X183389819Y-116752381D01*
X183389819Y-116752381D02*
X183389819Y-116942857D01*
X183389819Y-116942857D02*
X183342200Y-117038095D01*
X183342200Y-115752381D02*
X183389819Y-115847619D01*
X183389819Y-115847619D02*
X183389819Y-116038095D01*
X183389819Y-116038095D02*
X183342200Y-116133333D01*
X183342200Y-116133333D02*
X183246961Y-116180952D01*
X183246961Y-116180952D02*
X182866009Y-116180952D01*
X182866009Y-116180952D02*
X182770771Y-116133333D01*
X182770771Y-116133333D02*
X182723152Y-116038095D01*
X182723152Y-116038095D02*
X182723152Y-115847619D01*
X182723152Y-115847619D02*
X182770771Y-115752381D01*
X182770771Y-115752381D02*
X182866009Y-115704762D01*
X182866009Y-115704762D02*
X182961247Y-115704762D01*
X182961247Y-115704762D02*
X183056485Y-116180952D01*
X183389819Y-114847619D02*
X182866009Y-114847619D01*
X182866009Y-114847619D02*
X182770771Y-114895238D01*
X182770771Y-114895238D02*
X182723152Y-114990476D01*
X182723152Y-114990476D02*
X182723152Y-115180952D01*
X182723152Y-115180952D02*
X182770771Y-115276190D01*
X183342200Y-114847619D02*
X183389819Y-114942857D01*
X183389819Y-114942857D02*
X183389819Y-115180952D01*
X183389819Y-115180952D02*
X183342200Y-115276190D01*
X183342200Y-115276190D02*
X183246961Y-115323809D01*
X183246961Y-115323809D02*
X183151723Y-115323809D01*
X183151723Y-115323809D02*
X183056485Y-115276190D01*
X183056485Y-115276190D02*
X183008866Y-115180952D01*
X183008866Y-115180952D02*
X183008866Y-114942857D01*
X183008866Y-114942857D02*
X182961247Y-114847619D01*
X183389819Y-114371428D02*
X182389819Y-114371428D01*
X183008866Y-114276190D02*
X183389819Y-113990476D01*
X182723152Y-113990476D02*
X183104104Y-114371428D01*
X183342200Y-113180952D02*
X183389819Y-113276190D01*
X183389819Y-113276190D02*
X183389819Y-113466666D01*
X183389819Y-113466666D02*
X183342200Y-113561904D01*
X183342200Y-113561904D02*
X183246961Y-113609523D01*
X183246961Y-113609523D02*
X182866009Y-113609523D01*
X182866009Y-113609523D02*
X182770771Y-113561904D01*
X182770771Y-113561904D02*
X182723152Y-113466666D01*
X182723152Y-113466666D02*
X182723152Y-113276190D01*
X182723152Y-113276190D02*
X182770771Y-113180952D01*
X182770771Y-113180952D02*
X182866009Y-113133333D01*
X182866009Y-113133333D02*
X182961247Y-113133333D01*
X182961247Y-113133333D02*
X183056485Y-113609523D01*
X183389819Y-112704761D02*
X182723152Y-112704761D01*
X182913628Y-112704761D02*
X182818390Y-112657142D01*
X182818390Y-112657142D02*
X182770771Y-112609523D01*
X182770771Y-112609523D02*
X182723152Y-112514285D01*
X182723152Y-112514285D02*
X182723152Y-112419047D01*
X183389819Y-111514285D02*
X182913628Y-111847618D01*
X183389819Y-112085713D02*
X182389819Y-112085713D01*
X182389819Y-112085713D02*
X182389819Y-111704761D01*
X182389819Y-111704761D02*
X182437438Y-111609523D01*
X182437438Y-111609523D02*
X182485057Y-111561904D01*
X182485057Y-111561904D02*
X182580295Y-111514285D01*
X182580295Y-111514285D02*
X182723152Y-111514285D01*
X182723152Y-111514285D02*
X182818390Y-111561904D01*
X182818390Y-111561904D02*
X182866009Y-111609523D01*
X182866009Y-111609523D02*
X182913628Y-111704761D01*
X182913628Y-111704761D02*
X182913628Y-112085713D01*
X183389819Y-110561904D02*
X183389819Y-111133332D01*
X183389819Y-110847618D02*
X182389819Y-110847618D01*
X182389819Y-110847618D02*
X182532676Y-110942856D01*
X182532676Y-110942856D02*
X182627914Y-111038094D01*
X182627914Y-111038094D02*
X182675533Y-111133332D01*
X160647142Y-98077580D02*
X160599523Y-98125200D01*
X160599523Y-98125200D02*
X160456666Y-98172819D01*
X160456666Y-98172819D02*
X160361428Y-98172819D01*
X160361428Y-98172819D02*
X160218571Y-98125200D01*
X160218571Y-98125200D02*
X160123333Y-98029961D01*
X160123333Y-98029961D02*
X160075714Y-97934723D01*
X160075714Y-97934723D02*
X160028095Y-97744247D01*
X160028095Y-97744247D02*
X160028095Y-97601390D01*
X160028095Y-97601390D02*
X160075714Y-97410914D01*
X160075714Y-97410914D02*
X160123333Y-97315676D01*
X160123333Y-97315676D02*
X160218571Y-97220438D01*
X160218571Y-97220438D02*
X160361428Y-97172819D01*
X160361428Y-97172819D02*
X160456666Y-97172819D01*
X160456666Y-97172819D02*
X160599523Y-97220438D01*
X160599523Y-97220438D02*
X160647142Y-97268057D01*
X161599523Y-98172819D02*
X161028095Y-98172819D01*
X161313809Y-98172819D02*
X161313809Y-97172819D01*
X161313809Y-97172819D02*
X161218571Y-97315676D01*
X161218571Y-97315676D02*
X161123333Y-97410914D01*
X161123333Y-97410914D02*
X161028095Y-97458533D01*
X162218571Y-97172819D02*
X162313809Y-97172819D01*
X162313809Y-97172819D02*
X162409047Y-97220438D01*
X162409047Y-97220438D02*
X162456666Y-97268057D01*
X162456666Y-97268057D02*
X162504285Y-97363295D01*
X162504285Y-97363295D02*
X162551904Y-97553771D01*
X162551904Y-97553771D02*
X162551904Y-97791866D01*
X162551904Y-97791866D02*
X162504285Y-97982342D01*
X162504285Y-97982342D02*
X162456666Y-98077580D01*
X162456666Y-98077580D02*
X162409047Y-98125200D01*
X162409047Y-98125200D02*
X162313809Y-98172819D01*
X162313809Y-98172819D02*
X162218571Y-98172819D01*
X162218571Y-98172819D02*
X162123333Y-98125200D01*
X162123333Y-98125200D02*
X162075714Y-98077580D01*
X162075714Y-98077580D02*
X162028095Y-97982342D01*
X162028095Y-97982342D02*
X161980476Y-97791866D01*
X161980476Y-97791866D02*
X161980476Y-97553771D01*
X161980476Y-97553771D02*
X162028095Y-97363295D01*
X162028095Y-97363295D02*
X162075714Y-97268057D01*
X162075714Y-97268057D02*
X162123333Y-97220438D01*
X162123333Y-97220438D02*
X162218571Y-97172819D01*
X161123333Y-100837580D02*
X161075714Y-100885200D01*
X161075714Y-100885200D02*
X160932857Y-100932819D01*
X160932857Y-100932819D02*
X160837619Y-100932819D01*
X160837619Y-100932819D02*
X160694762Y-100885200D01*
X160694762Y-100885200D02*
X160599524Y-100789961D01*
X160599524Y-100789961D02*
X160551905Y-100694723D01*
X160551905Y-100694723D02*
X160504286Y-100504247D01*
X160504286Y-100504247D02*
X160504286Y-100361390D01*
X160504286Y-100361390D02*
X160551905Y-100170914D01*
X160551905Y-100170914D02*
X160599524Y-100075676D01*
X160599524Y-100075676D02*
X160694762Y-99980438D01*
X160694762Y-99980438D02*
X160837619Y-99932819D01*
X160837619Y-99932819D02*
X160932857Y-99932819D01*
X160932857Y-99932819D02*
X161075714Y-99980438D01*
X161075714Y-99980438D02*
X161123333Y-100028057D01*
X161980476Y-99932819D02*
X161790000Y-99932819D01*
X161790000Y-99932819D02*
X161694762Y-99980438D01*
X161694762Y-99980438D02*
X161647143Y-100028057D01*
X161647143Y-100028057D02*
X161551905Y-100170914D01*
X161551905Y-100170914D02*
X161504286Y-100361390D01*
X161504286Y-100361390D02*
X161504286Y-100742342D01*
X161504286Y-100742342D02*
X161551905Y-100837580D01*
X161551905Y-100837580D02*
X161599524Y-100885200D01*
X161599524Y-100885200D02*
X161694762Y-100932819D01*
X161694762Y-100932819D02*
X161885238Y-100932819D01*
X161885238Y-100932819D02*
X161980476Y-100885200D01*
X161980476Y-100885200D02*
X162028095Y-100837580D01*
X162028095Y-100837580D02*
X162075714Y-100742342D01*
X162075714Y-100742342D02*
X162075714Y-100504247D01*
X162075714Y-100504247D02*
X162028095Y-100409009D01*
X162028095Y-100409009D02*
X161980476Y-100361390D01*
X161980476Y-100361390D02*
X161885238Y-100313771D01*
X161885238Y-100313771D02*
X161694762Y-100313771D01*
X161694762Y-100313771D02*
X161599524Y-100361390D01*
X161599524Y-100361390D02*
X161551905Y-100409009D01*
X161551905Y-100409009D02*
X161504286Y-100504247D01*
X143404819Y-114506666D02*
X142928628Y-114839999D01*
X143404819Y-115078094D02*
X142404819Y-115078094D01*
X142404819Y-115078094D02*
X142404819Y-114697142D01*
X142404819Y-114697142D02*
X142452438Y-114601904D01*
X142452438Y-114601904D02*
X142500057Y-114554285D01*
X142500057Y-114554285D02*
X142595295Y-114506666D01*
X142595295Y-114506666D02*
X142738152Y-114506666D01*
X142738152Y-114506666D02*
X142833390Y-114554285D01*
X142833390Y-114554285D02*
X142881009Y-114601904D01*
X142881009Y-114601904D02*
X142928628Y-114697142D01*
X142928628Y-114697142D02*
X142928628Y-115078094D01*
X143404819Y-113554285D02*
X143404819Y-114125713D01*
X143404819Y-113839999D02*
X142404819Y-113839999D01*
X142404819Y-113839999D02*
X142547676Y-113935237D01*
X142547676Y-113935237D02*
X142642914Y-114030475D01*
X142642914Y-114030475D02*
X142690533Y-114125713D01*
X159164580Y-108497666D02*
X159212200Y-108545285D01*
X159212200Y-108545285D02*
X159259819Y-108688142D01*
X159259819Y-108688142D02*
X159259819Y-108783380D01*
X159259819Y-108783380D02*
X159212200Y-108926237D01*
X159212200Y-108926237D02*
X159116961Y-109021475D01*
X159116961Y-109021475D02*
X159021723Y-109069094D01*
X159021723Y-109069094D02*
X158831247Y-109116713D01*
X158831247Y-109116713D02*
X158688390Y-109116713D01*
X158688390Y-109116713D02*
X158497914Y-109069094D01*
X158497914Y-109069094D02*
X158402676Y-109021475D01*
X158402676Y-109021475D02*
X158307438Y-108926237D01*
X158307438Y-108926237D02*
X158259819Y-108783380D01*
X158259819Y-108783380D02*
X158259819Y-108688142D01*
X158259819Y-108688142D02*
X158307438Y-108545285D01*
X158307438Y-108545285D02*
X158355057Y-108497666D01*
X158259819Y-108164332D02*
X158259819Y-107497666D01*
X158259819Y-107497666D02*
X159259819Y-107926237D01*
X168821333Y-98181819D02*
X168345143Y-98181819D01*
X168345143Y-98181819D02*
X168345143Y-97181819D01*
X169678476Y-98181819D02*
X169107048Y-98181819D01*
X169392762Y-98181819D02*
X169392762Y-97181819D01*
X169392762Y-97181819D02*
X169297524Y-97324676D01*
X169297524Y-97324676D02*
X169202286Y-97419914D01*
X169202286Y-97419914D02*
X169107048Y-97467533D01*
X157853142Y-112047580D02*
X157805523Y-112095200D01*
X157805523Y-112095200D02*
X157662666Y-112142819D01*
X157662666Y-112142819D02*
X157567428Y-112142819D01*
X157567428Y-112142819D02*
X157424571Y-112095200D01*
X157424571Y-112095200D02*
X157329333Y-111999961D01*
X157329333Y-111999961D02*
X157281714Y-111904723D01*
X157281714Y-111904723D02*
X157234095Y-111714247D01*
X157234095Y-111714247D02*
X157234095Y-111571390D01*
X157234095Y-111571390D02*
X157281714Y-111380914D01*
X157281714Y-111380914D02*
X157329333Y-111285676D01*
X157329333Y-111285676D02*
X157424571Y-111190438D01*
X157424571Y-111190438D02*
X157567428Y-111142819D01*
X157567428Y-111142819D02*
X157662666Y-111142819D01*
X157662666Y-111142819D02*
X157805523Y-111190438D01*
X157805523Y-111190438D02*
X157853142Y-111238057D01*
X158805523Y-112142819D02*
X158234095Y-112142819D01*
X158519809Y-112142819D02*
X158519809Y-111142819D01*
X158519809Y-111142819D02*
X158424571Y-111285676D01*
X158424571Y-111285676D02*
X158329333Y-111380914D01*
X158329333Y-111380914D02*
X158234095Y-111428533D01*
X159138857Y-111142819D02*
X159757904Y-111142819D01*
X159757904Y-111142819D02*
X159424571Y-111523771D01*
X159424571Y-111523771D02*
X159567428Y-111523771D01*
X159567428Y-111523771D02*
X159662666Y-111571390D01*
X159662666Y-111571390D02*
X159710285Y-111619009D01*
X159710285Y-111619009D02*
X159757904Y-111714247D01*
X159757904Y-111714247D02*
X159757904Y-111952342D01*
X159757904Y-111952342D02*
X159710285Y-112047580D01*
X159710285Y-112047580D02*
X159662666Y-112095200D01*
X159662666Y-112095200D02*
X159567428Y-112142819D01*
X159567428Y-112142819D02*
X159281714Y-112142819D01*
X159281714Y-112142819D02*
X159186476Y-112095200D01*
X159186476Y-112095200D02*
X159138857Y-112047580D01*
X131209580Y-111142857D02*
X131257200Y-111190476D01*
X131257200Y-111190476D02*
X131304819Y-111333333D01*
X131304819Y-111333333D02*
X131304819Y-111428571D01*
X131304819Y-111428571D02*
X131257200Y-111571428D01*
X131257200Y-111571428D02*
X131161961Y-111666666D01*
X131161961Y-111666666D02*
X131066723Y-111714285D01*
X131066723Y-111714285D02*
X130876247Y-111761904D01*
X130876247Y-111761904D02*
X130733390Y-111761904D01*
X130733390Y-111761904D02*
X130542914Y-111714285D01*
X130542914Y-111714285D02*
X130447676Y-111666666D01*
X130447676Y-111666666D02*
X130352438Y-111571428D01*
X130352438Y-111571428D02*
X130304819Y-111428571D01*
X130304819Y-111428571D02*
X130304819Y-111333333D01*
X130304819Y-111333333D02*
X130352438Y-111190476D01*
X130352438Y-111190476D02*
X130400057Y-111142857D01*
X131304819Y-110190476D02*
X131304819Y-110761904D01*
X131304819Y-110476190D02*
X130304819Y-110476190D01*
X130304819Y-110476190D02*
X130447676Y-110571428D01*
X130447676Y-110571428D02*
X130542914Y-110666666D01*
X130542914Y-110666666D02*
X130590533Y-110761904D01*
X130304819Y-109285714D02*
X130304819Y-109761904D01*
X130304819Y-109761904D02*
X130781009Y-109809523D01*
X130781009Y-109809523D02*
X130733390Y-109761904D01*
X130733390Y-109761904D02*
X130685771Y-109666666D01*
X130685771Y-109666666D02*
X130685771Y-109428571D01*
X130685771Y-109428571D02*
X130733390Y-109333333D01*
X130733390Y-109333333D02*
X130781009Y-109285714D01*
X130781009Y-109285714D02*
X130876247Y-109238095D01*
X130876247Y-109238095D02*
X131114342Y-109238095D01*
X131114342Y-109238095D02*
X131209580Y-109285714D01*
X131209580Y-109285714D02*
X131257200Y-109333333D01*
X131257200Y-109333333D02*
X131304819Y-109428571D01*
X131304819Y-109428571D02*
X131304819Y-109666666D01*
X131304819Y-109666666D02*
X131257200Y-109761904D01*
X131257200Y-109761904D02*
X131209580Y-109809523D01*
X163663333Y-115747580D02*
X163615714Y-115795200D01*
X163615714Y-115795200D02*
X163472857Y-115842819D01*
X163472857Y-115842819D02*
X163377619Y-115842819D01*
X163377619Y-115842819D02*
X163234762Y-115795200D01*
X163234762Y-115795200D02*
X163139524Y-115699961D01*
X163139524Y-115699961D02*
X163091905Y-115604723D01*
X163091905Y-115604723D02*
X163044286Y-115414247D01*
X163044286Y-115414247D02*
X163044286Y-115271390D01*
X163044286Y-115271390D02*
X163091905Y-115080914D01*
X163091905Y-115080914D02*
X163139524Y-114985676D01*
X163139524Y-114985676D02*
X163234762Y-114890438D01*
X163234762Y-114890438D02*
X163377619Y-114842819D01*
X163377619Y-114842819D02*
X163472857Y-114842819D01*
X163472857Y-114842819D02*
X163615714Y-114890438D01*
X163615714Y-114890438D02*
X163663333Y-114938057D01*
X164520476Y-115176152D02*
X164520476Y-115842819D01*
X164282381Y-114795200D02*
X164044286Y-115509485D01*
X164044286Y-115509485D02*
X164663333Y-115509485D01*
X148433333Y-119109580D02*
X148385714Y-119157200D01*
X148385714Y-119157200D02*
X148242857Y-119204819D01*
X148242857Y-119204819D02*
X148147619Y-119204819D01*
X148147619Y-119204819D02*
X148004762Y-119157200D01*
X148004762Y-119157200D02*
X147909524Y-119061961D01*
X147909524Y-119061961D02*
X147861905Y-118966723D01*
X147861905Y-118966723D02*
X147814286Y-118776247D01*
X147814286Y-118776247D02*
X147814286Y-118633390D01*
X147814286Y-118633390D02*
X147861905Y-118442914D01*
X147861905Y-118442914D02*
X147909524Y-118347676D01*
X147909524Y-118347676D02*
X148004762Y-118252438D01*
X148004762Y-118252438D02*
X148147619Y-118204819D01*
X148147619Y-118204819D02*
X148242857Y-118204819D01*
X148242857Y-118204819D02*
X148385714Y-118252438D01*
X148385714Y-118252438D02*
X148433333Y-118300057D01*
X148814286Y-118300057D02*
X148861905Y-118252438D01*
X148861905Y-118252438D02*
X148957143Y-118204819D01*
X148957143Y-118204819D02*
X149195238Y-118204819D01*
X149195238Y-118204819D02*
X149290476Y-118252438D01*
X149290476Y-118252438D02*
X149338095Y-118300057D01*
X149338095Y-118300057D02*
X149385714Y-118395295D01*
X149385714Y-118395295D02*
X149385714Y-118490533D01*
X149385714Y-118490533D02*
X149338095Y-118633390D01*
X149338095Y-118633390D02*
X148766667Y-119204819D01*
X148766667Y-119204819D02*
X149385714Y-119204819D01*
X137009580Y-110666666D02*
X137057200Y-110714285D01*
X137057200Y-110714285D02*
X137104819Y-110857142D01*
X137104819Y-110857142D02*
X137104819Y-110952380D01*
X137104819Y-110952380D02*
X137057200Y-111095237D01*
X137057200Y-111095237D02*
X136961961Y-111190475D01*
X136961961Y-111190475D02*
X136866723Y-111238094D01*
X136866723Y-111238094D02*
X136676247Y-111285713D01*
X136676247Y-111285713D02*
X136533390Y-111285713D01*
X136533390Y-111285713D02*
X136342914Y-111238094D01*
X136342914Y-111238094D02*
X136247676Y-111190475D01*
X136247676Y-111190475D02*
X136152438Y-111095237D01*
X136152438Y-111095237D02*
X136104819Y-110952380D01*
X136104819Y-110952380D02*
X136104819Y-110857142D01*
X136104819Y-110857142D02*
X136152438Y-110714285D01*
X136152438Y-110714285D02*
X136200057Y-110666666D01*
X136104819Y-110333332D02*
X136104819Y-109714285D01*
X136104819Y-109714285D02*
X136485771Y-110047618D01*
X136485771Y-110047618D02*
X136485771Y-109904761D01*
X136485771Y-109904761D02*
X136533390Y-109809523D01*
X136533390Y-109809523D02*
X136581009Y-109761904D01*
X136581009Y-109761904D02*
X136676247Y-109714285D01*
X136676247Y-109714285D02*
X136914342Y-109714285D01*
X136914342Y-109714285D02*
X137009580Y-109761904D01*
X137009580Y-109761904D02*
X137057200Y-109809523D01*
X137057200Y-109809523D02*
X137104819Y-109904761D01*
X137104819Y-109904761D02*
X137104819Y-110190475D01*
X137104819Y-110190475D02*
X137057200Y-110285713D01*
X137057200Y-110285713D02*
X137009580Y-110333332D01*
X169202333Y-109143580D02*
X169154714Y-109191200D01*
X169154714Y-109191200D02*
X169011857Y-109238819D01*
X169011857Y-109238819D02*
X168916619Y-109238819D01*
X168916619Y-109238819D02*
X168773762Y-109191200D01*
X168773762Y-109191200D02*
X168678524Y-109095961D01*
X168678524Y-109095961D02*
X168630905Y-109000723D01*
X168630905Y-109000723D02*
X168583286Y-108810247D01*
X168583286Y-108810247D02*
X168583286Y-108667390D01*
X168583286Y-108667390D02*
X168630905Y-108476914D01*
X168630905Y-108476914D02*
X168678524Y-108381676D01*
X168678524Y-108381676D02*
X168773762Y-108286438D01*
X168773762Y-108286438D02*
X168916619Y-108238819D01*
X168916619Y-108238819D02*
X169011857Y-108238819D01*
X169011857Y-108238819D02*
X169154714Y-108286438D01*
X169154714Y-108286438D02*
X169202333Y-108334057D01*
X170154714Y-109238819D02*
X169583286Y-109238819D01*
X169869000Y-109238819D02*
X169869000Y-108238819D01*
X169869000Y-108238819D02*
X169773762Y-108381676D01*
X169773762Y-108381676D02*
X169678524Y-108476914D01*
X169678524Y-108476914D02*
X169583286Y-108524533D01*
X155551142Y-87707580D02*
X155503523Y-87755200D01*
X155503523Y-87755200D02*
X155360666Y-87802819D01*
X155360666Y-87802819D02*
X155265428Y-87802819D01*
X155265428Y-87802819D02*
X155122571Y-87755200D01*
X155122571Y-87755200D02*
X155027333Y-87659961D01*
X155027333Y-87659961D02*
X154979714Y-87564723D01*
X154979714Y-87564723D02*
X154932095Y-87374247D01*
X154932095Y-87374247D02*
X154932095Y-87231390D01*
X154932095Y-87231390D02*
X154979714Y-87040914D01*
X154979714Y-87040914D02*
X155027333Y-86945676D01*
X155027333Y-86945676D02*
X155122571Y-86850438D01*
X155122571Y-86850438D02*
X155265428Y-86802819D01*
X155265428Y-86802819D02*
X155360666Y-86802819D01*
X155360666Y-86802819D02*
X155503523Y-86850438D01*
X155503523Y-86850438D02*
X155551142Y-86898057D01*
X156503523Y-87802819D02*
X155932095Y-87802819D01*
X156217809Y-87802819D02*
X156217809Y-86802819D01*
X156217809Y-86802819D02*
X156122571Y-86945676D01*
X156122571Y-86945676D02*
X156027333Y-87040914D01*
X156027333Y-87040914D02*
X155932095Y-87088533D01*
X157455904Y-87802819D02*
X156884476Y-87802819D01*
X157170190Y-87802819D02*
X157170190Y-86802819D01*
X157170190Y-86802819D02*
X157074952Y-86945676D01*
X157074952Y-86945676D02*
X156979714Y-87040914D01*
X156979714Y-87040914D02*
X156884476Y-87088533D01*
X183389819Y-104052380D02*
X182389819Y-104052380D01*
X182389819Y-104052380D02*
X182389819Y-103671428D01*
X182389819Y-103671428D02*
X182437438Y-103576190D01*
X182437438Y-103576190D02*
X182485057Y-103528571D01*
X182485057Y-103528571D02*
X182580295Y-103480952D01*
X182580295Y-103480952D02*
X182723152Y-103480952D01*
X182723152Y-103480952D02*
X182818390Y-103528571D01*
X182818390Y-103528571D02*
X182866009Y-103576190D01*
X182866009Y-103576190D02*
X182913628Y-103671428D01*
X182913628Y-103671428D02*
X182913628Y-104052380D01*
X183389819Y-102909523D02*
X183342200Y-103004761D01*
X183342200Y-103004761D02*
X183294580Y-103052380D01*
X183294580Y-103052380D02*
X183199342Y-103099999D01*
X183199342Y-103099999D02*
X182913628Y-103099999D01*
X182913628Y-103099999D02*
X182818390Y-103052380D01*
X182818390Y-103052380D02*
X182770771Y-103004761D01*
X182770771Y-103004761D02*
X182723152Y-102909523D01*
X182723152Y-102909523D02*
X182723152Y-102766666D01*
X182723152Y-102766666D02*
X182770771Y-102671428D01*
X182770771Y-102671428D02*
X182818390Y-102623809D01*
X182818390Y-102623809D02*
X182913628Y-102576190D01*
X182913628Y-102576190D02*
X183199342Y-102576190D01*
X183199342Y-102576190D02*
X183294580Y-102623809D01*
X183294580Y-102623809D02*
X183342200Y-102671428D01*
X183342200Y-102671428D02*
X183389819Y-102766666D01*
X183389819Y-102766666D02*
X183389819Y-102909523D01*
X182723152Y-102242856D02*
X183389819Y-102052380D01*
X183389819Y-102052380D02*
X182913628Y-101861904D01*
X182913628Y-101861904D02*
X183389819Y-101671428D01*
X183389819Y-101671428D02*
X182723152Y-101480952D01*
X183342200Y-100719047D02*
X183389819Y-100814285D01*
X183389819Y-100814285D02*
X183389819Y-101004761D01*
X183389819Y-101004761D02*
X183342200Y-101099999D01*
X183342200Y-101099999D02*
X183246961Y-101147618D01*
X183246961Y-101147618D02*
X182866009Y-101147618D01*
X182866009Y-101147618D02*
X182770771Y-101099999D01*
X182770771Y-101099999D02*
X182723152Y-101004761D01*
X182723152Y-101004761D02*
X182723152Y-100814285D01*
X182723152Y-100814285D02*
X182770771Y-100719047D01*
X182770771Y-100719047D02*
X182866009Y-100671428D01*
X182866009Y-100671428D02*
X182961247Y-100671428D01*
X182961247Y-100671428D02*
X183056485Y-101147618D01*
X183389819Y-100242856D02*
X182723152Y-100242856D01*
X182913628Y-100242856D02*
X182818390Y-100195237D01*
X182818390Y-100195237D02*
X182770771Y-100147618D01*
X182770771Y-100147618D02*
X182723152Y-100052380D01*
X182723152Y-100052380D02*
X182723152Y-99957142D01*
X183389819Y-99099999D02*
X183389819Y-99671427D01*
X183389819Y-99385713D02*
X182389819Y-99385713D01*
X182389819Y-99385713D02*
X182532676Y-99480951D01*
X182532676Y-99480951D02*
X182627914Y-99576189D01*
X182627914Y-99576189D02*
X182675533Y-99671427D01*
X157853142Y-114587580D02*
X157805523Y-114635200D01*
X157805523Y-114635200D02*
X157662666Y-114682819D01*
X157662666Y-114682819D02*
X157567428Y-114682819D01*
X157567428Y-114682819D02*
X157424571Y-114635200D01*
X157424571Y-114635200D02*
X157329333Y-114539961D01*
X157329333Y-114539961D02*
X157281714Y-114444723D01*
X157281714Y-114444723D02*
X157234095Y-114254247D01*
X157234095Y-114254247D02*
X157234095Y-114111390D01*
X157234095Y-114111390D02*
X157281714Y-113920914D01*
X157281714Y-113920914D02*
X157329333Y-113825676D01*
X157329333Y-113825676D02*
X157424571Y-113730438D01*
X157424571Y-113730438D02*
X157567428Y-113682819D01*
X157567428Y-113682819D02*
X157662666Y-113682819D01*
X157662666Y-113682819D02*
X157805523Y-113730438D01*
X157805523Y-113730438D02*
X157853142Y-113778057D01*
X158805523Y-114682819D02*
X158234095Y-114682819D01*
X158519809Y-114682819D02*
X158519809Y-113682819D01*
X158519809Y-113682819D02*
X158424571Y-113825676D01*
X158424571Y-113825676D02*
X158329333Y-113920914D01*
X158329333Y-113920914D02*
X158234095Y-113968533D01*
X159186476Y-113778057D02*
X159234095Y-113730438D01*
X159234095Y-113730438D02*
X159329333Y-113682819D01*
X159329333Y-113682819D02*
X159567428Y-113682819D01*
X159567428Y-113682819D02*
X159662666Y-113730438D01*
X159662666Y-113730438D02*
X159710285Y-113778057D01*
X159710285Y-113778057D02*
X159757904Y-113873295D01*
X159757904Y-113873295D02*
X159757904Y-113968533D01*
X159757904Y-113968533D02*
X159710285Y-114111390D01*
X159710285Y-114111390D02*
X159138857Y-114682819D01*
X159138857Y-114682819D02*
X159757904Y-114682819D01*
X150963333Y-97684819D02*
X150630000Y-97208628D01*
X150391905Y-97684819D02*
X150391905Y-96684819D01*
X150391905Y-96684819D02*
X150772857Y-96684819D01*
X150772857Y-96684819D02*
X150868095Y-96732438D01*
X150868095Y-96732438D02*
X150915714Y-96780057D01*
X150915714Y-96780057D02*
X150963333Y-96875295D01*
X150963333Y-96875295D02*
X150963333Y-97018152D01*
X150963333Y-97018152D02*
X150915714Y-97113390D01*
X150915714Y-97113390D02*
X150868095Y-97161009D01*
X150868095Y-97161009D02*
X150772857Y-97208628D01*
X150772857Y-97208628D02*
X150391905Y-97208628D01*
X151296667Y-96684819D02*
X151915714Y-96684819D01*
X151915714Y-96684819D02*
X151582381Y-97065771D01*
X151582381Y-97065771D02*
X151725238Y-97065771D01*
X151725238Y-97065771D02*
X151820476Y-97113390D01*
X151820476Y-97113390D02*
X151868095Y-97161009D01*
X151868095Y-97161009D02*
X151915714Y-97256247D01*
X151915714Y-97256247D02*
X151915714Y-97494342D01*
X151915714Y-97494342D02*
X151868095Y-97589580D01*
X151868095Y-97589580D02*
X151820476Y-97637200D01*
X151820476Y-97637200D02*
X151725238Y-97684819D01*
X151725238Y-97684819D02*
X151439524Y-97684819D01*
X151439524Y-97684819D02*
X151344286Y-97637200D01*
X151344286Y-97637200D02*
X151296667Y-97589580D01*
X173217180Y-112033333D02*
X173217180Y-111557143D01*
X173217180Y-111557143D02*
X174217180Y-111557143D01*
X173883847Y-112795238D02*
X173217180Y-112795238D01*
X174264800Y-112557143D02*
X173550514Y-112319048D01*
X173550514Y-112319048D02*
X173550514Y-112938095D01*
X166674580Y-109259666D02*
X166722200Y-109307285D01*
X166722200Y-109307285D02*
X166769819Y-109450142D01*
X166769819Y-109450142D02*
X166769819Y-109545380D01*
X166769819Y-109545380D02*
X166722200Y-109688237D01*
X166722200Y-109688237D02*
X166626961Y-109783475D01*
X166626961Y-109783475D02*
X166531723Y-109831094D01*
X166531723Y-109831094D02*
X166341247Y-109878713D01*
X166341247Y-109878713D02*
X166198390Y-109878713D01*
X166198390Y-109878713D02*
X166007914Y-109831094D01*
X166007914Y-109831094D02*
X165912676Y-109783475D01*
X165912676Y-109783475D02*
X165817438Y-109688237D01*
X165817438Y-109688237D02*
X165769819Y-109545380D01*
X165769819Y-109545380D02*
X165769819Y-109450142D01*
X165769819Y-109450142D02*
X165817438Y-109307285D01*
X165817438Y-109307285D02*
X165865057Y-109259666D01*
X165769819Y-108354904D02*
X165769819Y-108831094D01*
X165769819Y-108831094D02*
X166246009Y-108878713D01*
X166246009Y-108878713D02*
X166198390Y-108831094D01*
X166198390Y-108831094D02*
X166150771Y-108735856D01*
X166150771Y-108735856D02*
X166150771Y-108497761D01*
X166150771Y-108497761D02*
X166198390Y-108402523D01*
X166198390Y-108402523D02*
X166246009Y-108354904D01*
X166246009Y-108354904D02*
X166341247Y-108307285D01*
X166341247Y-108307285D02*
X166579342Y-108307285D01*
X166579342Y-108307285D02*
X166674580Y-108354904D01*
X166674580Y-108354904D02*
X166722200Y-108402523D01*
X166722200Y-108402523D02*
X166769819Y-108497761D01*
X166769819Y-108497761D02*
X166769819Y-108735856D01*
X166769819Y-108735856D02*
X166722200Y-108831094D01*
X166722200Y-108831094D02*
X166674580Y-108878713D01*
X141999619Y-110992023D02*
X142809142Y-110992023D01*
X142809142Y-110992023D02*
X142904380Y-110944404D01*
X142904380Y-110944404D02*
X142952000Y-110896785D01*
X142952000Y-110896785D02*
X142999619Y-110801547D01*
X142999619Y-110801547D02*
X142999619Y-110611071D01*
X142999619Y-110611071D02*
X142952000Y-110515833D01*
X142952000Y-110515833D02*
X142904380Y-110468214D01*
X142904380Y-110468214D02*
X142809142Y-110420595D01*
X142809142Y-110420595D02*
X141999619Y-110420595D01*
X142999619Y-109944404D02*
X141999619Y-109944404D01*
X141999619Y-109944404D02*
X142999619Y-109372976D01*
X142999619Y-109372976D02*
X141999619Y-109372976D01*
X142999619Y-108896785D02*
X141999619Y-108896785D01*
X141999619Y-108896785D02*
X141999619Y-108515833D01*
X141999619Y-108515833D02*
X142047238Y-108420595D01*
X142047238Y-108420595D02*
X142094857Y-108372976D01*
X142094857Y-108372976D02*
X142190095Y-108325357D01*
X142190095Y-108325357D02*
X142332952Y-108325357D01*
X142332952Y-108325357D02*
X142428190Y-108372976D01*
X142428190Y-108372976D02*
X142475809Y-108420595D01*
X142475809Y-108420595D02*
X142523428Y-108515833D01*
X142523428Y-108515833D02*
X142523428Y-108896785D01*
X141999619Y-107706309D02*
X141999619Y-107515833D01*
X141999619Y-107515833D02*
X142047238Y-107420595D01*
X142047238Y-107420595D02*
X142142476Y-107325357D01*
X142142476Y-107325357D02*
X142332952Y-107277738D01*
X142332952Y-107277738D02*
X142666285Y-107277738D01*
X142666285Y-107277738D02*
X142856761Y-107325357D01*
X142856761Y-107325357D02*
X142952000Y-107420595D01*
X142952000Y-107420595D02*
X142999619Y-107515833D01*
X142999619Y-107515833D02*
X142999619Y-107706309D01*
X142999619Y-107706309D02*
X142952000Y-107801547D01*
X142952000Y-107801547D02*
X142856761Y-107896785D01*
X142856761Y-107896785D02*
X142666285Y-107944404D01*
X142666285Y-107944404D02*
X142332952Y-107944404D01*
X142332952Y-107944404D02*
X142142476Y-107896785D01*
X142142476Y-107896785D02*
X142047238Y-107801547D01*
X142047238Y-107801547D02*
X141999619Y-107706309D01*
X142999619Y-106849166D02*
X141999619Y-106849166D01*
X141999619Y-106849166D02*
X141999619Y-106468214D01*
X141999619Y-106468214D02*
X142047238Y-106372976D01*
X142047238Y-106372976D02*
X142094857Y-106325357D01*
X142094857Y-106325357D02*
X142190095Y-106277738D01*
X142190095Y-106277738D02*
X142332952Y-106277738D01*
X142332952Y-106277738D02*
X142428190Y-106325357D01*
X142428190Y-106325357D02*
X142475809Y-106372976D01*
X142475809Y-106372976D02*
X142523428Y-106468214D01*
X142523428Y-106468214D02*
X142523428Y-106849166D01*
X142999619Y-105325357D02*
X142999619Y-105896785D01*
X142999619Y-105611071D02*
X141999619Y-105611071D01*
X141999619Y-105611071D02*
X142142476Y-105706309D01*
X142142476Y-105706309D02*
X142237714Y-105801547D01*
X142237714Y-105801547D02*
X142285333Y-105896785D01*
X164679333Y-95283580D02*
X164631714Y-95331200D01*
X164631714Y-95331200D02*
X164488857Y-95378819D01*
X164488857Y-95378819D02*
X164393619Y-95378819D01*
X164393619Y-95378819D02*
X164250762Y-95331200D01*
X164250762Y-95331200D02*
X164155524Y-95235961D01*
X164155524Y-95235961D02*
X164107905Y-95140723D01*
X164107905Y-95140723D02*
X164060286Y-94950247D01*
X164060286Y-94950247D02*
X164060286Y-94807390D01*
X164060286Y-94807390D02*
X164107905Y-94616914D01*
X164107905Y-94616914D02*
X164155524Y-94521676D01*
X164155524Y-94521676D02*
X164250762Y-94426438D01*
X164250762Y-94426438D02*
X164393619Y-94378819D01*
X164393619Y-94378819D02*
X164488857Y-94378819D01*
X164488857Y-94378819D02*
X164631714Y-94426438D01*
X164631714Y-94426438D02*
X164679333Y-94474057D01*
X165155524Y-95378819D02*
X165346000Y-95378819D01*
X165346000Y-95378819D02*
X165441238Y-95331200D01*
X165441238Y-95331200D02*
X165488857Y-95283580D01*
X165488857Y-95283580D02*
X165584095Y-95140723D01*
X165584095Y-95140723D02*
X165631714Y-94950247D01*
X165631714Y-94950247D02*
X165631714Y-94569295D01*
X165631714Y-94569295D02*
X165584095Y-94474057D01*
X165584095Y-94474057D02*
X165536476Y-94426438D01*
X165536476Y-94426438D02*
X165441238Y-94378819D01*
X165441238Y-94378819D02*
X165250762Y-94378819D01*
X165250762Y-94378819D02*
X165155524Y-94426438D01*
X165155524Y-94426438D02*
X165107905Y-94474057D01*
X165107905Y-94474057D02*
X165060286Y-94569295D01*
X165060286Y-94569295D02*
X165060286Y-94807390D01*
X165060286Y-94807390D02*
X165107905Y-94902628D01*
X165107905Y-94902628D02*
X165155524Y-94950247D01*
X165155524Y-94950247D02*
X165250762Y-94997866D01*
X165250762Y-94997866D02*
X165441238Y-94997866D01*
X165441238Y-94997866D02*
X165536476Y-94950247D01*
X165536476Y-94950247D02*
X165584095Y-94902628D01*
X165584095Y-94902628D02*
X165631714Y-94807390D01*
D11*
%TO.C,U1*%
X149174200Y-101043100D02*
X149174200Y-101334461D01*
X149174200Y-112105539D02*
X149174200Y-112396900D01*
X149174200Y-112396900D02*
X155625800Y-112396900D01*
X155625800Y-101043100D02*
X149174200Y-101043100D01*
X155625800Y-101334461D02*
X155625800Y-101043100D01*
X155625800Y-112396900D02*
X155625800Y-112105539D01*
D12*
G36*
X147637500Y-107885499D02*
G01*
X147383500Y-107885499D01*
X147383500Y-107504499D01*
X147637500Y-107504499D01*
X147637500Y-107885499D01*
G37*
G36*
X157416500Y-103335498D02*
G01*
X157162500Y-103335498D01*
X157162500Y-102954498D01*
X157416500Y-102954498D01*
X157416500Y-103335498D01*
G37*
G36*
X157416500Y-109835498D02*
G01*
X157162500Y-109835498D01*
X157162500Y-109454498D01*
X157416500Y-109454498D01*
X157416500Y-109835498D01*
G37*
D13*
%TO.C,C14*%
X152376000Y-115808000D02*
X150836000Y-115808000D01*
X152376000Y-115848000D02*
X150836000Y-115848000D01*
X152376000Y-115888000D02*
X150837000Y-115888000D01*
X152376000Y-115928000D02*
X150839000Y-115928000D01*
X152376000Y-115968000D02*
X150841000Y-115968000D01*
X152376000Y-116008000D02*
X150844000Y-116008000D01*
X152376000Y-116048000D02*
X150847000Y-116048000D01*
X152376000Y-116088000D02*
X150851000Y-116088000D01*
X152376000Y-116128000D02*
X150856000Y-116128000D01*
X152376000Y-116168000D02*
X150861000Y-116168000D01*
X152376000Y-116208000D02*
X150867000Y-116208000D01*
X152376000Y-116248000D02*
X150873000Y-116248000D01*
X152376000Y-116288000D02*
X150880000Y-116288000D01*
X152376000Y-116328000D02*
X150888000Y-116328000D01*
X152376000Y-116368000D02*
X150897000Y-116368000D01*
X152376000Y-116408000D02*
X150906000Y-116408000D01*
X152376000Y-116448000D02*
X150915000Y-116448000D01*
X152376000Y-116488000D02*
X150926000Y-116488000D01*
X152376000Y-116528000D02*
X150937000Y-116528000D01*
X152376000Y-116568000D02*
X150949000Y-116568000D01*
X152376000Y-116608000D02*
X150961000Y-116608000D01*
X152376000Y-116648000D02*
X150974000Y-116648000D01*
X152376000Y-116688000D02*
X150988000Y-116688000D01*
X152376000Y-116728000D02*
X151003000Y-116728000D01*
X152376000Y-116768000D02*
X151018000Y-116768000D01*
X152376000Y-116808000D02*
X151034000Y-116808000D01*
X152376000Y-116848000D02*
X151051000Y-116848000D01*
X152376000Y-116888000D02*
X151069000Y-116888000D01*
X152376000Y-116928000D02*
X151087000Y-116928000D01*
X152376000Y-116968000D02*
X151107000Y-116968000D01*
X152376000Y-117008000D02*
X151127000Y-117008000D01*
X152376000Y-117048000D02*
X151148000Y-117048000D01*
X152376000Y-117088000D02*
X151170000Y-117088000D01*
X152376000Y-117128000D02*
X151193000Y-117128000D01*
X152376000Y-117168000D02*
X151217000Y-117168000D01*
X152376000Y-117208000D02*
X151241000Y-117208000D01*
X152376000Y-117248000D02*
X151267000Y-117248000D01*
X152376000Y-117288000D02*
X151294000Y-117288000D01*
X152376000Y-117328000D02*
X151322000Y-117328000D01*
X152376000Y-117368000D02*
X151351000Y-117368000D01*
X152376000Y-117408000D02*
X151381000Y-117408000D01*
X152376000Y-117448000D02*
X151413000Y-117448000D01*
X152376000Y-117488000D02*
X151446000Y-117488000D01*
X152376000Y-117528000D02*
X151480000Y-117528000D01*
X152376000Y-117568000D02*
X151515000Y-117568000D01*
X152376000Y-117608000D02*
X151552000Y-117608000D01*
X152376000Y-117648000D02*
X151591000Y-117648000D01*
X152376000Y-117688000D02*
X151631000Y-117688000D01*
X152376000Y-117728000D02*
X151673000Y-117728000D01*
X152376000Y-117768000D02*
X151717000Y-117768000D01*
X152376000Y-117808000D02*
X151764000Y-117808000D01*
X153699000Y-118408000D02*
X153133000Y-118408000D01*
X153933000Y-118368000D02*
X152899000Y-118368000D01*
X154093000Y-118328000D02*
X152739000Y-118328000D01*
X154221000Y-118288000D02*
X152611000Y-118288000D01*
X154330000Y-118248000D02*
X152502000Y-118248000D01*
X154427000Y-118208000D02*
X152405000Y-118208000D01*
X154514000Y-118168000D02*
X152318000Y-118168000D01*
X154593000Y-118128000D02*
X152239000Y-118128000D01*
X154667000Y-118088000D02*
X152165000Y-118088000D01*
X154735000Y-118048000D02*
X152097000Y-118048000D01*
X154799000Y-118008000D02*
X152033000Y-118008000D01*
X154859000Y-117968000D02*
X151973000Y-117968000D01*
X154891000Y-113003225D02*
X154891000Y-113503225D01*
X154915000Y-117928000D02*
X151917000Y-117928000D01*
X154969000Y-117888000D02*
X151863000Y-117888000D01*
X155020000Y-117848000D02*
X151812000Y-117848000D01*
X155068000Y-117808000D02*
X154456000Y-117808000D01*
X155115000Y-117768000D02*
X154456000Y-117768000D01*
X155141000Y-113253225D02*
X154641000Y-113253225D01*
X155159000Y-117728000D02*
X154456000Y-117728000D01*
X155201000Y-117688000D02*
X154456000Y-117688000D01*
X155241000Y-117648000D02*
X154456000Y-117648000D01*
X155280000Y-117608000D02*
X154456000Y-117608000D01*
X155317000Y-117568000D02*
X154456000Y-117568000D01*
X155352000Y-117528000D02*
X154456000Y-117528000D01*
X155386000Y-117488000D02*
X154456000Y-117488000D01*
X155419000Y-117448000D02*
X154456000Y-117448000D01*
X155451000Y-117408000D02*
X154456000Y-117408000D01*
X155481000Y-117368000D02*
X154456000Y-117368000D01*
X155510000Y-117328000D02*
X154456000Y-117328000D01*
X155538000Y-117288000D02*
X154456000Y-117288000D01*
X155565000Y-117248000D02*
X154456000Y-117248000D01*
X155591000Y-117208000D02*
X154456000Y-117208000D01*
X155615000Y-117168000D02*
X154456000Y-117168000D01*
X155639000Y-117128000D02*
X154456000Y-117128000D01*
X155662000Y-117088000D02*
X154456000Y-117088000D01*
X155684000Y-117048000D02*
X154456000Y-117048000D01*
X155705000Y-117008000D02*
X154456000Y-117008000D01*
X155725000Y-116968000D02*
X154456000Y-116968000D01*
X155745000Y-116928000D02*
X154456000Y-116928000D01*
X155763000Y-116888000D02*
X154456000Y-116888000D01*
X155781000Y-116848000D02*
X154456000Y-116848000D01*
X155798000Y-116808000D02*
X154456000Y-116808000D01*
X155814000Y-116768000D02*
X154456000Y-116768000D01*
X155829000Y-116728000D02*
X154456000Y-116728000D01*
X155844000Y-116688000D02*
X154456000Y-116688000D01*
X155858000Y-116648000D02*
X154456000Y-116648000D01*
X155871000Y-116608000D02*
X154456000Y-116608000D01*
X155883000Y-116568000D02*
X154456000Y-116568000D01*
X155895000Y-116528000D02*
X154456000Y-116528000D01*
X155906000Y-116488000D02*
X154456000Y-116488000D01*
X155917000Y-116448000D02*
X154456000Y-116448000D01*
X155926000Y-116408000D02*
X154456000Y-116408000D01*
X155935000Y-116368000D02*
X154456000Y-116368000D01*
X155944000Y-116328000D02*
X154456000Y-116328000D01*
X155952000Y-116288000D02*
X154456000Y-116288000D01*
X155959000Y-116248000D02*
X154456000Y-116248000D01*
X155965000Y-116208000D02*
X154456000Y-116208000D01*
X155971000Y-116168000D02*
X154456000Y-116168000D01*
X155976000Y-116128000D02*
X154456000Y-116128000D01*
X155981000Y-116088000D02*
X154456000Y-116088000D01*
X155985000Y-116048000D02*
X154456000Y-116048000D01*
X155988000Y-116008000D02*
X154456000Y-116008000D01*
X155991000Y-115968000D02*
X154456000Y-115968000D01*
X155993000Y-115928000D02*
X154456000Y-115928000D01*
X155995000Y-115888000D02*
X154456000Y-115888000D01*
X155996000Y-115808000D02*
X154456000Y-115808000D01*
X155996000Y-115848000D02*
X154456000Y-115848000D01*
X156036000Y-115808000D02*
G75*
G02*
X150796000Y-115808000I-2620000J0D01*
G01*
X150796000Y-115808000D02*
G75*
G02*
X156036000Y-115808000I2620000J0D01*
G01*
D14*
%TO.C,J2*%
X133638000Y-93206000D02*
X133638000Y-96306000D01*
X134788000Y-85206000D02*
X134788000Y-93206000D01*
X134788000Y-93206000D02*
X133638000Y-93206000D01*
X135588000Y-99706000D02*
X138138000Y-99706000D01*
X139838000Y-99706000D02*
X142338000Y-99706000D01*
X143088000Y-85206000D02*
X134788000Y-85206000D01*
X143088000Y-93206000D02*
X143088000Y-85206000D01*
X144238000Y-93206000D02*
X143088000Y-93206000D01*
X144238000Y-96406000D02*
X144238000Y-93206000D01*
D15*
X144338000Y-101256000D02*
G75*
G02*
X143938000Y-101256000I-200000J0D01*
G01*
X143938000Y-101256000D02*
G75*
G02*
X144338000Y-101256000I200000J0D01*
G01*
D13*
%TO.C,C8*%
X162920000Y-102833748D02*
X162920000Y-104256252D01*
X164740000Y-102833748D02*
X164740000Y-104256252D01*
D16*
%TO.C,SpeakerR1*%
X173700000Y-109200000D02*
X181400000Y-109200000D01*
X173700000Y-119400000D02*
X173700000Y-109200000D01*
X181400000Y-109200000D02*
X181400000Y-119400000D01*
X181400000Y-119400000D02*
X173700000Y-119400000D01*
D15*
X179300000Y-110900000D02*
G75*
G02*
X179100000Y-110900000I-100000J0D01*
G01*
X179100000Y-110900000D02*
G75*
G02*
X179300000Y-110900000I100000J0D01*
G01*
D13*
%TO.C,C10*%
X160578748Y-98658000D02*
X162001252Y-98658000D01*
X160578748Y-100478000D02*
X162001252Y-100478000D01*
%TO.C,C6*%
X160126000Y-102871748D02*
X160126000Y-104294252D01*
X161946000Y-102871748D02*
X161946000Y-104294252D01*
%TO.C,R1*%
X143870000Y-115067064D02*
X143870000Y-113612936D01*
X145690000Y-115067064D02*
X145690000Y-113612936D01*
%TO.C,C7*%
X159745000Y-109042252D02*
X159745000Y-107619748D01*
X161565000Y-109042252D02*
X161565000Y-107619748D01*
%TO.C,L1*%
X166318000Y-99262000D02*
X166318000Y-99662000D01*
X166318000Y-99262000D02*
X172518000Y-99262000D01*
X166318000Y-105462000D02*
X166318000Y-105062000D01*
X166318000Y-105462000D02*
X172518000Y-105462000D01*
X172518000Y-99262000D02*
X172518000Y-99662000D01*
X172518000Y-105462000D02*
X172518000Y-105062000D01*
%TO.C,C13*%
X157784748Y-112628000D02*
X159207252Y-112628000D01*
X157784748Y-114448000D02*
X159207252Y-114448000D01*
%TO.C,C15*%
X131980000Y-100880000D02*
X137220000Y-100880000D01*
X131980000Y-120120000D02*
X131980000Y-100880000D01*
X137220000Y-100880000D02*
X137220000Y-120120000D01*
X137220000Y-120120000D02*
X131980000Y-120120000D01*
%TO.C,C4*%
X164541252Y-112628000D02*
X163118748Y-112628000D01*
X164541252Y-114448000D02*
X163118748Y-114448000D01*
%TO.C,C2*%
X147680000Y-114858748D02*
X147680000Y-116281252D01*
X149500000Y-114858748D02*
X149500000Y-116281252D01*
%TO.C,C3*%
X137780000Y-100880000D02*
X143020000Y-100880000D01*
X137780000Y-120120000D02*
X137780000Y-100880000D01*
X143020000Y-100880000D02*
X143020000Y-120120000D01*
X143020000Y-120120000D02*
X137780000Y-120120000D01*
%TO.C,C1*%
X170080252Y-106024000D02*
X168657748Y-106024000D01*
X170080252Y-107844000D02*
X168657748Y-107844000D01*
%TO.C,C11*%
X153884000Y-96750000D02*
X155424000Y-96750000D01*
X153884000Y-96790000D02*
X155424000Y-96790000D01*
X153885000Y-96710000D02*
X155424000Y-96710000D01*
X153887000Y-96670000D02*
X155424000Y-96670000D01*
X153889000Y-96630000D02*
X155424000Y-96630000D01*
X153892000Y-96590000D02*
X155424000Y-96590000D01*
X153895000Y-96550000D02*
X155424000Y-96550000D01*
X153899000Y-96510000D02*
X155424000Y-96510000D01*
X153904000Y-96470000D02*
X155424000Y-96470000D01*
X153909000Y-96430000D02*
X155424000Y-96430000D01*
X153915000Y-96390000D02*
X155424000Y-96390000D01*
X153921000Y-96350000D02*
X155424000Y-96350000D01*
X153928000Y-96310000D02*
X155424000Y-96310000D01*
X153936000Y-96270000D02*
X155424000Y-96270000D01*
X153945000Y-96230000D02*
X155424000Y-96230000D01*
X153954000Y-96190000D02*
X155424000Y-96190000D01*
X153963000Y-96150000D02*
X155424000Y-96150000D01*
X153974000Y-96110000D02*
X155424000Y-96110000D01*
X153985000Y-96070000D02*
X155424000Y-96070000D01*
X153997000Y-96030000D02*
X155424000Y-96030000D01*
X154009000Y-95990000D02*
X155424000Y-95990000D01*
X154022000Y-95950000D02*
X155424000Y-95950000D01*
X154036000Y-95910000D02*
X155424000Y-95910000D01*
X154051000Y-95870000D02*
X155424000Y-95870000D01*
X154066000Y-95830000D02*
X155424000Y-95830000D01*
X154082000Y-95790000D02*
X155424000Y-95790000D01*
X154099000Y-95750000D02*
X155424000Y-95750000D01*
X154117000Y-95710000D02*
X155424000Y-95710000D01*
X154135000Y-95670000D02*
X155424000Y-95670000D01*
X154155000Y-95630000D02*
X155424000Y-95630000D01*
X154175000Y-95590000D02*
X155424000Y-95590000D01*
X154196000Y-95550000D02*
X155424000Y-95550000D01*
X154218000Y-95510000D02*
X155424000Y-95510000D01*
X154241000Y-95470000D02*
X155424000Y-95470000D01*
X154265000Y-95430000D02*
X155424000Y-95430000D01*
X154289000Y-95390000D02*
X155424000Y-95390000D01*
X154315000Y-95350000D02*
X155424000Y-95350000D01*
X154342000Y-95310000D02*
X155424000Y-95310000D01*
X154370000Y-95270000D02*
X155424000Y-95270000D01*
X154399000Y-95230000D02*
X155424000Y-95230000D01*
X154429000Y-95190000D02*
X155424000Y-95190000D01*
X154461000Y-95150000D02*
X155424000Y-95150000D01*
X154494000Y-95110000D02*
X155424000Y-95110000D01*
X154528000Y-95070000D02*
X155424000Y-95070000D01*
X154563000Y-95030000D02*
X155424000Y-95030000D01*
X154600000Y-94990000D02*
X155424000Y-94990000D01*
X154639000Y-94950000D02*
X155424000Y-94950000D01*
X154679000Y-94910000D02*
X155424000Y-94910000D01*
X154721000Y-94870000D02*
X155424000Y-94870000D01*
X154739000Y-99344775D02*
X155239000Y-99344775D01*
X154765000Y-94830000D02*
X155424000Y-94830000D01*
X154812000Y-94790000D02*
X155424000Y-94790000D01*
X154860000Y-94750000D02*
X158068000Y-94750000D01*
X154911000Y-94710000D02*
X158017000Y-94710000D01*
X154965000Y-94670000D02*
X157963000Y-94670000D01*
X154989000Y-99594775D02*
X154989000Y-99094775D01*
X155021000Y-94630000D02*
X157907000Y-94630000D01*
X155081000Y-94590000D02*
X157847000Y-94590000D01*
X155145000Y-94550000D02*
X157783000Y-94550000D01*
X155213000Y-94510000D02*
X157715000Y-94510000D01*
X155287000Y-94470000D02*
X157641000Y-94470000D01*
X155366000Y-94430000D02*
X157562000Y-94430000D01*
X155453000Y-94390000D02*
X157475000Y-94390000D01*
X155550000Y-94350000D02*
X157378000Y-94350000D01*
X155659000Y-94310000D02*
X157269000Y-94310000D01*
X155787000Y-94270000D02*
X157141000Y-94270000D01*
X155947000Y-94230000D02*
X156981000Y-94230000D01*
X156181000Y-94190000D02*
X156747000Y-94190000D01*
X157504000Y-94790000D02*
X158116000Y-94790000D01*
X157504000Y-94830000D02*
X158163000Y-94830000D01*
X157504000Y-94870000D02*
X158207000Y-94870000D01*
X157504000Y-94910000D02*
X158249000Y-94910000D01*
X157504000Y-94950000D02*
X158289000Y-94950000D01*
X157504000Y-94990000D02*
X158328000Y-94990000D01*
X157504000Y-95030000D02*
X158365000Y-95030000D01*
X157504000Y-95070000D02*
X158400000Y-95070000D01*
X157504000Y-95110000D02*
X158434000Y-95110000D01*
X157504000Y-95150000D02*
X158467000Y-95150000D01*
X157504000Y-95190000D02*
X158499000Y-95190000D01*
X157504000Y-95230000D02*
X158529000Y-95230000D01*
X157504000Y-95270000D02*
X158558000Y-95270000D01*
X157504000Y-95310000D02*
X158586000Y-95310000D01*
X157504000Y-95350000D02*
X158613000Y-95350000D01*
X157504000Y-95390000D02*
X158639000Y-95390000D01*
X157504000Y-95430000D02*
X158663000Y-95430000D01*
X157504000Y-95470000D02*
X158687000Y-95470000D01*
X157504000Y-95510000D02*
X158710000Y-95510000D01*
X157504000Y-95550000D02*
X158732000Y-95550000D01*
X157504000Y-95590000D02*
X158753000Y-95590000D01*
X157504000Y-95630000D02*
X158773000Y-95630000D01*
X157504000Y-95670000D02*
X158793000Y-95670000D01*
X157504000Y-95710000D02*
X158811000Y-95710000D01*
X157504000Y-95750000D02*
X158829000Y-95750000D01*
X157504000Y-95790000D02*
X158846000Y-95790000D01*
X157504000Y-95830000D02*
X158862000Y-95830000D01*
X157504000Y-95870000D02*
X158877000Y-95870000D01*
X157504000Y-95910000D02*
X158892000Y-95910000D01*
X157504000Y-95950000D02*
X158906000Y-95950000D01*
X157504000Y-95990000D02*
X158919000Y-95990000D01*
X157504000Y-96030000D02*
X158931000Y-96030000D01*
X157504000Y-96070000D02*
X158943000Y-96070000D01*
X157504000Y-96110000D02*
X158954000Y-96110000D01*
X157504000Y-96150000D02*
X158965000Y-96150000D01*
X157504000Y-96190000D02*
X158974000Y-96190000D01*
X157504000Y-96230000D02*
X158983000Y-96230000D01*
X157504000Y-96270000D02*
X158992000Y-96270000D01*
X157504000Y-96310000D02*
X159000000Y-96310000D01*
X157504000Y-96350000D02*
X159007000Y-96350000D01*
X157504000Y-96390000D02*
X159013000Y-96390000D01*
X157504000Y-96430000D02*
X159019000Y-96430000D01*
X157504000Y-96470000D02*
X159024000Y-96470000D01*
X157504000Y-96510000D02*
X159029000Y-96510000D01*
X157504000Y-96550000D02*
X159033000Y-96550000D01*
X157504000Y-96590000D02*
X159036000Y-96590000D01*
X157504000Y-96630000D02*
X159039000Y-96630000D01*
X157504000Y-96670000D02*
X159041000Y-96670000D01*
X157504000Y-96710000D02*
X159043000Y-96710000D01*
X157504000Y-96750000D02*
X159044000Y-96750000D01*
X157504000Y-96790000D02*
X159044000Y-96790000D01*
X159084000Y-96790000D02*
G75*
G02*
X153844000Y-96790000I-2620000J0D01*
G01*
X153844000Y-96790000D02*
G75*
G02*
X159084000Y-96790000I2620000J0D01*
G01*
D16*
%TO.C,Power1*%
X173700000Y-96500000D02*
X181400000Y-96500000D01*
X173700000Y-106700000D02*
X173700000Y-96500000D01*
X181400000Y-96500000D02*
X181400000Y-106700000D01*
X181400000Y-106700000D02*
X173700000Y-106700000D01*
D15*
X179300000Y-98200000D02*
G75*
G02*
X179100000Y-98200000I-100000J0D01*
G01*
X179100000Y-98200000D02*
G75*
G02*
X179300000Y-98200000I100000J0D01*
G01*
D13*
%TO.C,C12*%
X157784748Y-115168000D02*
X159207252Y-115168000D01*
X157784748Y-116988000D02*
X159207252Y-116988000D01*
%TO.C,R3*%
X150402936Y-98150000D02*
X151857064Y-98150000D01*
X150402936Y-99970000D02*
X151857064Y-99970000D01*
%TO.C,L4*%
X166572000Y-109100000D02*
X166572000Y-115300000D01*
X166572000Y-109100000D02*
X166972000Y-109100000D01*
X166572000Y-115300000D02*
X166972000Y-115300000D01*
X172772000Y-109100000D02*
X172372000Y-109100000D01*
X172772000Y-109100000D02*
X172772000Y-115300000D01*
X172772000Y-115300000D02*
X172372000Y-115300000D01*
%TO.C,C5*%
X163555000Y-108381748D02*
X163555000Y-109804252D01*
X165375000Y-108381748D02*
X165375000Y-109804252D01*
%TO.C,UNPOP1*%
X143870000Y-108909564D02*
X143870000Y-107455436D01*
X145690000Y-108909564D02*
X145690000Y-107455436D01*
%TO.C,C9*%
X164134748Y-95864000D02*
X165557252Y-95864000D01*
X164134748Y-97684000D02*
X165557252Y-97684000D01*
%TD*%
M02*
